<?xml version="1.0" standalone="no"?>
<!DOCTYPE svg PUBLIC "-//W3C//DTD SVG 1.1//EN" "http://www.w3.org/Graphics/SVG/1.1/DTD/svg11.dtd" >
<svg xmlns="http://www.w3.org/2000/svg" xmlns:xlink="http://www.w3.org/1999/xlink" version="1.1">
<metadata>
Created by FontForge 20170731 at Fri Dec 30 18:41:07 2022
 By Aleksey,,,
Copyright 2017 Fontstore Pte Ltd. All rights reserved.
</metadata>
<defs>
<font id="NeurialGrotesk-LightItalic" horiz-adv-x="1304" >
  <font-face 
    font-family="Light Italic"
    font-weight="400"
    font-style="italic"
    font-stretch="normal"
    units-per-em="2048"
    panose-1="0 0 4 0 0 0 0 0 0 0"
    ascent="1591"
    descent="-457"
    x-height="1024"
    cap-height="1434"
    bbox="-1174 -459 3391 2142"
    underline-thickness="163"
    underline-position="-562"
    slope="-7.95"
    unicode-range="U+0020-FB03"
  />
<missing-glyph horiz-adv-x="1206" 
d="M213 1448h1038l-204 -1448h-1039z" />
    <glyph glyph-name=".notdef" horiz-adv-x="1206" 
d="M213 1448h1038l-204 -1448h-1039z" />
    <glyph glyph-name=".null" horiz-adv-x="0" 
 />
    <glyph glyph-name="nonmarkingreturn" horiz-adv-x="681" 
 />
    <glyph glyph-name="space" unicode=" " horiz-adv-x="405" 
 />
    <glyph glyph-name="exclam" unicode="!" horiz-adv-x="501" 
d="M252 1024l57 410h131l-57 -410q-47 -335 -102 -608h-95q16 270 66 608zM82 0l27 190h190l-27 -190h-190z" />
    <glyph glyph-name="quotedbl" unicode="&#x22;" horiz-adv-x="782" 
d="M281 1329l12 105h135l-16 -105q-47 -297 -80 -387h-78q-10 95 27 387zM604 1329l12 105h136l-17 -105q-47 -297 -80 -387h-77q-10 99 26 387z" />
    <glyph glyph-name="numbersign" unicode="#" horiz-adv-x="1218" 
d="M1171 911h-200l-148 -399h219l-38 -115h-224l-147 -397h-119l145 397h-282l-146 -397h-120l147 397h-192l38 115h197l148 399h-216l35 113h224l151 410h119l-150 -410h281l151 410h121l-151 -410h192zM422 512h283l147 399h-283z" />
    <glyph glyph-name="dollar" unicode="$" horiz-adv-x="1261" 
d="M1227 1051h-133q8 134 -83 211t-272 77q-166 0 -271.5 -80t-105.5 -212q0 -196 244 -246l201 -41q340 -70 340 -365q0 -189 -152 -301q-153 -111 -377 -114l-26 -191h-121l27 197q-193 24 -299.5 129t-94.5 268h134q-8 -134 86 -211.5t280 -77.5q175 0 293 80
q117 80 117 213q0 199 -244 252l-201 41q-340 67 -340 358q0 185 136 297q138 110 337 119l27 184h121l-27 -188q197 -20 306.5 -126.5t97.5 -272.5z" />
    <glyph glyph-name="percent" unicode="%" horiz-adv-x="1818" 
d="M428 715q-124 0 -201 87.5t-77 235.5q0 174 92 295q88 119 239 119q131 0 208 -85t77 -241q0 -170 -90 -292q-88 -119 -248 -119zM313 0l1092 1434h143l-1093 -1434h-142zM434 821q109 0 162 92q51 89 51 211q0 106 -43.5 164t-124.5 58q-101 0 -156 -86.5t-55 -217.5
q0 -221 166 -221zM1384 -20q-124 0 -201 87.5t-77 235.5q0 174 92 295q88 119 240 119q131 0 207.5 -85t76.5 -241q0 -171 -90 -293q-87 -118 -248 -118zM1391 86q108 0 161 92q52 91 52 211q0 106 -43.5 163.5t-124.5 57.5q-101 0 -156 -86t-55 -217q0 -221 166 -221z" />
    <glyph glyph-name="ampersand" unicode="&#x26;" horiz-adv-x="1527" 
d="M1327 121h92l-16 -121h-96q-92 0 -147 25t-105 88l-31 43q-200 -176 -442 -176q-67 0 -129 12t-118.5 39.5t-98 68t-66.5 100.5t-25 134q0 244 357 428l51 26l-18 25q-127 171 -127 305q0 148 98 242t258 94q148 0 239 -81t91 -216q0 -97 -55 -172.5t-179 -150.5
l-125 -76l312 -416q109 148 149 381h115q-12 -124 -65.5 -251.5t-131.5 -221.5l43 -55q31 -42 68 -58t102 -16zM530 1128q0 -58 25.5 -112t85.5 -133l29 -39l118 65q183 103 183 236q0 88 -57 143t-152 55q-102 0 -167 -61t-65 -154zM578 90q224 0 383 150l-347 467l-63 -35
q-151 -84 -214 -163t-63 -173q0 -120 84 -183t220 -63z" />
    <glyph glyph-name="quotesingle" unicode="'" horiz-adv-x="460" 
d="M283 1323l16 111h135l-16 -111q-40 -269 -82 -381h-78q-15 122 25 381z" />
    <glyph glyph-name="parenleft" unicode="(" horiz-adv-x="536" 
d="M260 -78q-125 287 -125 625q0 269 105 536q104 264 262 433h116q-154 -171 -258 -435t-104 -530q3 -331 111 -629h-107z" />
    <glyph glyph-name="parenright" unicode=")" horiz-adv-x="534" 
d="M332 889q0 181 -37 354q-38 175 -100 273h116q65 -103 105 -273q37 -170 37 -352q0 -270 -105 -537q-105 -266 -260 -432h-117q153 170 258 436q103 267 103 531z" />
    <glyph glyph-name="asterisk" unicode="*" horiz-adv-x="651" 
d="M166 1223l27 80l100 -33q61 -18 100 -51q-20 33 -20 108v107h88v-107q0 -74 -17 -108q35 32 97 51l100 33l33 -82l-103 -35q-76 -25 -114 -19q44 -23 86 -80l63 -86l-69 -49l-62 82q-41 55 -57 111q-6 -49 -53 -111l-62 -82l-76 49l66 86q45 60 86 80q-47 -6 -117 21z
" />
    <glyph glyph-name="plus" unicode="+" horiz-adv-x="1224" 
d="M1112 737l-16 -123h-410l-57 -409h-123l57 409h-409l16 123h410l57 410h123l-58 -410h410z" />
    <glyph glyph-name="comma" unicode="," horiz-adv-x="444" 
d="M61 0l27 193h193l-27 -193l-145 -229h-86l145 229h-107z" />
    <glyph glyph-name="hyphen" unicode="-" horiz-adv-x="841" 
d="M137 639h600l-16 -121h-600z" />
    <glyph glyph-name="period" unicode="." horiz-adv-x="438" 
d="M53 0l29 193h192l-28 -193h-193z" />
    <glyph glyph-name="slash" unicode="/" horiz-adv-x="671" 
d="M-53 0l712 1434h119l-712 -1434h-119z" />
    <glyph glyph-name="zero" unicode="0" horiz-adv-x="1316" 
d="M625 -20q-238 0 -374 164.5t-136 469.5q0 357 174 598q175 242 465 242q235 0 368 -167t133 -472q0 -350 -176 -594q-177 -241 -454 -241zM612 90q119 -1 219 60t165 163.5t99.5 236t32.5 279.5q0 246 -93 380t-279 134q-157 0 -278.5 -102.5t-178.5 -271.5
q-57 -159 -57 -363q0 -244 93.5 -380t276.5 -136z" />
    <glyph glyph-name="one" unicode="1" horiz-adv-x="696" 
d="M426 0h-123l172 1300l-362 -178l18 131l363 181h122z" />
    <glyph glyph-name="two" unicode="2" horiz-adv-x="1077" 
d="M729 590l-547 -469h738l-17 -121h-911l16 115l625 534q165 142 229 236q66 97 66 196q0 122 -81.5 192t-221.5 70q-138 0 -236 -81.5t-125 -210.5h-129q42 189 179.5 296t328.5 107q182 0 297 -100q115 -103 115 -267q0 -125 -74 -237q-75 -109 -252 -260z" />
    <glyph glyph-name="three" unicode="3" horiz-adv-x="1144" 
d="M815 739q105 -35 167 -120t62 -191q0 -204 -143 -326t-377 -122q-214 0 -340 114t-108 297h127q-5 -146 77 -223.5t255 -77.5q174 0 278.5 89t104.5 241q0 121 -86.5 191.5t-235.5 70.5h-107l17 119h106q169 0 265 83t96 222q0 111 -82 174t-229 63q-157 0 -254.5 -80
t-116.5 -221h-129q27 193 161.5 302.5t354.5 109.5q177 0 301 -92q121 -92 121 -260q0 -130 -72.5 -225.5t-212.5 -137.5z" />
    <glyph glyph-name="four" unicode="4" horiz-adv-x="1146" 
d="M696 0l41 311h-714l16 111l825 1012h144l-129 -1006h219l-17 -117h-219l-43 -311h-123zM190 428h564l108 825z" />
    <glyph glyph-name="five" unicode="5" horiz-adv-x="1103" 
d="M1085 1315h-639l-153 -477q124 118 309 118q193 0 308.5 -118.5t115.5 -321.5q0 -236 -149 -385q-151 -151 -373 -151q-188 0 -316 104q-130 106 -139 274h133q3 -124 97 -194q95 -74 223 -74q168 0 282 123q115 121 115 305q0 152 -83 240t-224 88q-207 0 -332 -168
h-135l237 756h740z" />
    <glyph glyph-name="six" unicode="6" horiz-adv-x="1183" 
d="M680 987q184 0 309 -125q127 -127 127 -332q0 -229 -151 -389q-151 -161 -394 -161q-201 0 -329 137q-129 135 -129 440q0 343 157 606q80 134 211 212.5t289 78.5q169 0 284 -88t132 -244h-129q-62 221 -287 221q-207 0 -337.5 -153.5t-180.5 -446.5q53 113 174 179
q121 65 254 65zM580 90q179 0 294 133t115 314q0 154 -86.5 247t-238.5 93q-177 0 -297 -123q-123 -123 -123 -316q0 -166 94.5 -257t241.5 -91z" />
    <glyph glyph-name="seven" unicode="7" horiz-adv-x="999" 
d="M920 1313h-801l16 121h955l-15 -115q-269 -288 -469 -635q-206 -353 -309 -684h-129q108 342 313 696q207 353 439 617z" />
    <glyph glyph-name="eight" unicode="8" horiz-adv-x="1230" 
d="M946 766q101 -39 165.5 -132.5t64.5 -207.5q0 -201 -154 -322q-153 -120 -395 -120q-226 0 -363 104q-141 105 -141 285q0 143 91 256t247 155q-83 38 -129.5 116.5t-46.5 174.5q0 173 145 279q143 104 348 104q195 0 314 -98q118 -97 118 -254q0 -120 -70 -209
t-194 -131zM770 1352q-154 0 -260 -80q-104 -79 -104 -207q0 -113 84 -178.5t231 -65.5q161 0 263.5 79t102.5 204q0 115 -87.5 181.5t-229.5 66.5zM627 98q186 0 305 88q117 88 117 234q0 131 -98.5 213t-268.5 82q-188 0 -307 -94q-123 -95 -123 -242q0 -132 101.5 -206.5
t273.5 -74.5z" />
    <glyph glyph-name="nine" unicode="9" horiz-adv-x="1206" 
d="M668 1454q226 0 351.5 -163t125.5 -457q0 -326 -150 -580q-75 -127 -200.5 -200.5t-280.5 -73.5q-185 0 -299 89t-131 242h129q50 -221 303 -221q209 0 344 170q135 174 150 420q-45 -97 -158 -164q-113 -70 -256 -70q-180 0 -311 113q-135 114 -135 344q0 240 143 395
q144 156 375 156zM610 557q167 0 283 113q115 112 115 291q0 158 -90 274q-91 113 -250 113q-161 0 -275 -117q-117 -120 -117 -320q0 -183 99 -268q100 -86 235 -86z" />
    <glyph glyph-name="colon" unicode=":" horiz-adv-x="444" 
d="M170 831l27 193h192l-27 -193h-192zM53 0l27 193h192l-26 -193h-193z" />
    <glyph glyph-name="semicolon" unicode=";" horiz-adv-x="444" 
d="M170 831l29 193h192l-29 -193h-192zM61 0l27 193h193l-27 -193l-145 -229h-86l145 229h-107z" />
    <glyph glyph-name="less" unicode="&#x3c;" horiz-adv-x="1228" 
d="M1114 1176l-18 -148l-742 -364l645 -361l-18 -133l-758 430l21 143z" />
    <glyph glyph-name="equal" unicode="=" horiz-adv-x="1230" 
d="M285 952h782l-16 -121h-783zM223 524h783l-17 -121h-782z" />
    <glyph glyph-name="greater" unicode="&#x3e;" horiz-adv-x="1228" 
d="M158 168l18 147l742 365l-646 360l19 134l758 -431l-21 -143z" />
    <glyph glyph-name="question" unicode="?" horiz-adv-x="999" 
d="M145 1075q24 167 150 275q125 104 301 104q168 0 272.5 -95.5t104.5 -252.5q0 -60 -19 -114.5t-43.5 -92t-70 -80t-75.5 -64.5t-83 -59q-167 -120 -186 -250h-119q5 36 17 70.5t25.5 61t37.5 55.5t41 47.5t48.5 45t48 39t51.5 38t48 35.5q152 117 152 268
q0 111 -67.5 172t-184.5 61q-128 0 -214 -74.5t-104 -189.5h-131zM276 0l27 193h195l-27 -193h-195z" />
    <glyph glyph-name="at" unicode="@" horiz-adv-x="1703" 
d="M942 1452q310 0 518 -184q207 -186 207 -482q0 -237 -106 -378q-110 -146 -273 -146q-105 0 -168.5 48t-70.5 134q-33 -65 -104 -107t-157 -42q-125 0 -201.5 86.5t-76.5 241.5q0 177 102 309q101 131 262 131q92 0 155.5 -44t80.5 -118l37 113h86l-90 -430
q-23 -114 18 -174t135 -60q119 0 189 123q69 120 69 311q0 252 -168 414t-440 162q-324 0 -536 -225q-211 -227 -211 -549q0 -271 155 -445q156 -178 445 -178q195 0 381 88l39 -84q-190 -96 -412 -96q-337 0 -531 203q-194 200 -194 516q0 366 248 614t612 248zM801 385
q93 0 158 71t90 199q30 142 -15 231t-153 89q-123 0 -187 -111q-65 -112 -65 -243q0 -236 172 -236z" />
    <glyph glyph-name="A" unicode="A" 
d="M1083 0l-92 379h-700l-199 -379h-137l760 1434h143l356 -1434h-131zM352 498h611l-193 796z" />
    <glyph glyph-name="B" unicode="B" horiz-adv-x="1347" 
d="M1030 741q205 -76 205 -303q0 -194 -139 -315q-141 -123 -371 -123h-627l189 1434h583q188 0 297 -93t109 -243q0 -119 -63.5 -213.5t-182.5 -143.5zM1143 1092q0 109 -73.5 167t-215.5 58h-457l-69 -522h485q151 0 240.5 79.5t89.5 217.5zM719 117q186 0 284.5 85
t98.5 234q0 116 -73 180t-208 64h-508l-75 -563h481z" />
    <glyph glyph-name="C" unicode="C" horiz-adv-x="1497" 
d="M735 98q368 0 531 334h139q-194 -452 -668 -452q-280 0 -450 176q-168 174 -168 471q0 352 223 587q221 238 549 238q227 0 382.5 -122.5t196.5 -330.5h-137q-94 334 -438 334q-280 0 -461 -196q-182 -200 -182 -514q0 -238 131 -381q129 -144 352 -144z" />
    <glyph glyph-name="D" unicode="D" horiz-adv-x="1439" 
d="M291 1434h457q295 0 460 -174q166 -175 166 -467q0 -342 -221 -568q-220 -225 -596 -225h-459zM541 121q326 0 512 180q188 182 188 492q0 242 -127 381t-356 139h-361l-157 -1192h301z" />
    <glyph glyph-name="E" unicode="E" horiz-adv-x="1210" 
d="M1192 1313h-793l-71 -531h630l-16 -118h-631l-73 -543h843l-16 -121h-967l193 1434h917z" />
    <glyph glyph-name="F" unicode="F" horiz-adv-x="1130" 
d="M1176 1313h-779l-71 -553h678l-17 -119h-680l-84 -641h-125l193 1434h901z" />
    <glyph glyph-name="G" unicode="G" horiz-adv-x="1548" 
d="M733 -18q-273 0 -442 178q-172 178 -172 471q0 340 223 581q224 242 555 242q241 0 397 -123q159 -125 189 -330h-131q-38 162 -159.5 248t-303.5 86q-276 0 -457 -202q-180 -204 -180 -504q0 -241 135 -385q132 -144 358 -144q282 0 447 187q89 100 104 239
q1 13 7.5 60.5t7.5 60.5h-486l19 119h608l-109 -768h-94l13 221q-89 -116 -227.5 -176.5t-301.5 -60.5z" />
    <glyph glyph-name="H" unicode="H" horiz-adv-x="1435" 
d="M1167 666h-858l-86 -666h-125l193 1434h125l-88 -648h854l84 648h125l-189 -1434h-125z" />
    <glyph glyph-name="I" unicode="I" horiz-adv-x="460" 
d="M416 1434l-193 -1434h-125l193 1434h125z" />
    <glyph glyph-name="J" unicode="J" horiz-adv-x="1064" 
d="M190 389q-14 -136 56 -213.5t215 -77.5q285 0 325 291l138 1045h125l-142 -1074q-25 -178 -144.5 -279t-299.5 -101q-196 0 -307 114q-112 112 -88 295h122z" />
    <glyph glyph-name="K" unicode="K" horiz-adv-x="1271" 
d="M98 0l193 1434h123l-117 -871l887 871h162l-637 -631l477 -803h-144l-430 717l-340 -330l-51 -387h-123z" />
    <glyph glyph-name="L" unicode="L" horiz-adv-x="1110" 
d="M242 121h757l-16 -121h-885l191 1434h125z" />
    <glyph glyph-name="M" unicode="M" horiz-adv-x="1708" 
d="M797 145l735 1289h131l-188 -1434h-123l114 870q20 178 60 322l-686 -1192h-127l-346 1192q-5 -105 -29 -322l-115 -870h-125l191 1434h129z" />
    <glyph glyph-name="N" unicode="N" horiz-adv-x="1441" 
d="M98 0l193 1434h137l676 -1258l168 1258h125l-193 -1434h-141l-672 1257l-168 -1257h-125z" />
    <glyph glyph-name="O" unicode="O" horiz-adv-x="1558" 
d="M119 631q0 338 229 579q229 244 537 244q277 0 444 -176q164 -179 164 -475q0 -338 -227 -580q-231 -243 -539 -243q-277 0 -442 180q-166 178 -166 471zM1360 803q0 243 -129 387q-130 145 -354 145q-253 0 -439 -207q-186 -204 -186 -497q0 -246 128.5 -389.5
t354.5 -143.5q252 0 441 207q184 205 184 498z" />
    <glyph glyph-name="P" unicode="P" horiz-adv-x="1296" 
d="M98 0l193 1434h553q206 0 322 -111.5t116 -292.5q0 -204 -152 -350q-154 -145 -411 -145h-424l-72 -535h-125zM311 653h408q191 0 311 105q119 104 119 268q0 131 -80 210t-221 79h-449z" />
    <glyph glyph-name="Q" unicode="Q" horiz-adv-x="1591" 
d="M1288 164q27 -32 46.5 -39.5t78.5 -7.5h76l-16 -117h-95q-87 0 -129 25q-39 20 -100 94q-195 -139 -422 -139q-277 0 -442 180q-166 178 -166 471q0 338 229 579q229 244 537 244q277 0 444 -176q164 -179 164 -475q0 -348 -242 -596zM252 631q0 -246 128.5 -389.5
t354.5 -143.5q184 0 336 113l-82 98q-31 38 -52 48t-69 10h-108l16 112h131q67 0 106 -19t83 -73l73 -86q191 206 191 502q0 243 -129 387q-130 145 -354 145q-253 0 -439 -207q-186 -204 -186 -497z" />
    <glyph glyph-name="R" unicode="R" horiz-adv-x="1314" 
d="M98 0l193 1434h536q224 0 342.5 -109.5t118.5 -298.5q0 -180 -113 -305t-311 -166l234 -555h-137l-226 541h-440l-74 -541h-123zM311 659h400q214 0 329 95.5t115 275.5q0 139 -79.5 212t-229.5 73h-449z" />
    <glyph glyph-name="S" unicode="S" horiz-adv-x="1212" 
d="M565 -20q-237 0 -375 108q-139 109 -124 295h133q-8 -134 86 -211.5t280 -77.5q175 0 293 80q117 80 117 213q0 199 -244 252l-201 41q-340 67 -340 358q0 193 148 305q147 111 362 111q229 0 367 -108q136 -109 121 -295h-133q8 134 -83 211t-272 77q-166 0 -271 -80
t-105 -212q0 -197 243 -246l201 -41q340 -70 340 -365q0 -193 -158 -305q-155 -110 -385 -110z" />
    <glyph glyph-name="T" unicode="T" horiz-adv-x="1255" 
d="M793 1313l-185 -1313h-123l185 1313h-518l16 121h1161l-16 -121h-520z" />
    <glyph glyph-name="U" unicode="U" horiz-adv-x="1406" 
d="M436 1434l-114 -856q-29 -217 74.5 -348.5t305.5 -131.5q408 0 467 455l115 881h123l-119 -908q-35 -263 -188 -404.5t-400 -141.5q-256 0 -395 161q-144 159 -106 437l114 856h123z" />
    <glyph glyph-name="V" unicode="V" horiz-adv-x="1368" 
d="M621 141l710 1293h135l-792 -1434h-144l-387 1434h127z" />
    <glyph glyph-name="W" unicode="W" horiz-adv-x="1939" 
d="M342 0l-186 1434h125l159 -1264l584 1264h137l154 -1264l579 1264h131l-663 -1434h-143l-158 1245l-576 -1245h-143z" />
    <glyph glyph-name="X" unicode="X" horiz-adv-x="1251" 
d="M1335 1434l-604 -721l410 -713h-142l-356 621l-520 -621h-154l609 727l-408 707h141l353 -615l518 615h153z" />
    <glyph glyph-name="Y" unicode="Y" horiz-adv-x="1234" 
d="M547 481l-397 953h131l342 -816l559 816h145l-657 -953l-68 -481h-123z" />
    <glyph glyph-name="Z" unicode="Z" horiz-adv-x="1187" 
d="M172 121h883l-17 -121h-1036l16 115l1020 1198h-831l16 121h985l-14 -115z" />
    <glyph glyph-name="bracketleft" unicode="[" horiz-adv-x="585" 
d="M303 1536h367l-13 -90h-247l-205 -1458h248l-13 -90h-366z" />
    <glyph glyph-name="backslash" unicode="\" horiz-adv-x="847" 
d="M766 0h-119l-512 1434h119z" />
    <glyph glyph-name="bracketright" unicode="]" horiz-adv-x="585" 
d="M227 -12l205 1458h-248l13 90h366l-229 -1638h-367l13 90h247z" />
    <glyph glyph-name="asciicircum" unicode="^" horiz-adv-x="1228" 
d="M319 934l349 500h143l207 -500h-129l-158 395l-274 -395h-138z" />
    <glyph glyph-name="underscore" unicode="_" horiz-adv-x="919" 
d="M-68 0h920l-16 -121h-920z" />
    <glyph glyph-name="a" unicode="a" horiz-adv-x="1132" 
d="M961 96h55l-15 -96h-94q-65 0 -92 37t-20 125q-62 -82 -164.5 -132t-218.5 -50q-160 0 -254.5 77t-94.5 211q0 127 97 224q95 92 303 92h385l8 61q40 297 -250 297q-127 0 -212 -57.5t-105 -157.5h-115q35 150 150 233.5t286 83.5q196 0 292.5 -109t70.5 -300l-62 -451
q-7 -51 3.5 -69.5t46.5 -18.5zM825 410l11 75h-377q-138 0 -205.5 -57t-67.5 -158q0 -188 250 -188q136 0 252 82q116 84 137 246z" />
    <glyph glyph-name="b" unicode="b" horiz-adv-x="1273" 
d="M729 1044q178 0 309 -122q129 -126 129 -357q0 -267 -161 -424q-161 -161 -381 -161q-139 0 -242.5 60t-146.5 163l-50 -203h-98l197 1495h125l-88 -649q53 85 164.5 141.5t242.5 56.5zM618 82q172 0 300 131q126 132 126 350q0 171 -91 275t-232 104q-191 0 -318 -139
q-129 -138 -129 -354q0 -170 96 -268.5t248 -98.5z" />
    <glyph glyph-name="c" unicode="c" horiz-adv-x="1157" 
d="M967 705q-24 111 -108 174t-202 63q-174 0 -299 -137q-129 -138 -129 -350q0 -179 94.5 -275t247.5 -96q123 0 219.5 66t143.5 186h127q-57 -165 -189 -260.5t-303 -95.5q-201 0 -331 124q-132 126 -132 347q0 251 158 423q156 170 400 170q169 0 285.5 -91t142.5 -248
h-125z" />
    <glyph glyph-name="d" unicode="d" horiz-adv-x="1257" 
d="M1118 1495h113l-197 -1495h-98l4 168q-60 -90 -168.5 -139t-230.5 -49q-141 0 -275 94q-73 51 -116.5 152.5t-43.5 232.5q0 262 162 424q157 161 387 161q122 0 223.5 -59.5t149.5 -155.5zM565 80q182 0 309 139q125 137 125 354q0 170 -96 268.5t-248 98.5
q-172 0 -297 -131q-129 -132 -129 -350q0 -190 103 -285q101 -94 233 -94z" />
    <glyph glyph-name="e" unicode="e" horiz-adv-x="1218" 
d="M1106 477h-868v-35q0 -169 88 -262.5t243 -93.5q282 0 383 229h121q-44 -151 -184 -239q-145 -92 -311 -92q-208 0 -334 129q-127 127 -127 342q0 259 159 426q156 163 398 163q208 0 324 -126.5t116 -339.5q0 -57 -8 -101zM653 944q-141 0 -254 -98q-115 -100 -149 -268
h743q-1 188 -86 277t-254 89z" />
    <glyph glyph-name="f" unicode="f" horiz-adv-x="659" 
d="M600 1386q-74 0 -108.5 -29.5t-45.5 -96.5l-32 -236h260l-15 -106h-260l-125 -918h-118l123 918h-185l15 106h184l33 240q17 121 82.5 176t185.5 55h147l-16 -109h-125z" />
    <glyph glyph-name="g" unicode="g" horiz-adv-x="1214" 
d="M1028 1024h98l-133 -985q-31 -232 -163 -350.5t-334 -118.5q-189 0 -307.5 89.5t-137.5 242.5h125q12 -105 99 -167.5t217 -62.5q158 0 256.5 88t121.5 250l31 209q-53 -91 -158 -145t-219 -54q-56 0 -111.5 13.5t-111.5 47t-98.5 83.5t-69.5 130t-27 179q0 239 146 408
q144 163 366 163q128 0 225 -57t140 -156zM535 123q167 0 288 133q117 132 117 330q0 166 -87.5 262t-234.5 96q-180 0 -284 -143q-105 -144 -105 -338q0 -182 93 -260q92 -80 213 -80z" />
    <glyph glyph-name="h" unicode="h" horiz-adv-x="1163" 
d="M696 1044q179 0 270.5 -112t65.5 -301l-84 -631h-119l80 596q24 172 -37 257t-194 85q-157 0 -264.5 -106.5t-132.5 -284.5l-76 -547h-117l203 1495h119l-91 -639q57 86 158.5 137t218.5 51z" />
    <glyph glyph-name="i" unicode="i" horiz-adv-x="432" 
d="M231 1274l23 160h174l-22 -160h-175zM88 0l137 1024h117l-137 -1024h-117z" />
    <glyph glyph-name="j" unicode="j" horiz-adv-x="456" 
d="M254 1274l22 160h175l-23 -160h-174zM199 -207q-13 -109 -73 -156t-177 -47h-135l14 109h127q67 0 94 23t35 83l164 1219h117z" />
    <glyph glyph-name="k" unicode="k" horiz-adv-x="995" 
d="M88 0l203 1495h117l-138 -1020l611 549h145l-496 -453l371 -571h-135l-322 498l-194 -176l-45 -322h-117z" />
    <glyph glyph-name="l" unicode="l" horiz-adv-x="432" 
d="M88 0l201 1495h117l-201 -1495h-117z" />
    <glyph glyph-name="m" unicode="m" horiz-adv-x="1744" 
d="M1298 1044q172 0 258.5 -107t63.5 -286l-86 -651h-123l86 635q40 303 -219 303q-121 0 -209 -79.5t-117 -225.5l-86 -633h-116l84 623q20 152 -35.5 233.5t-180.5 81.5q-135 0 -222.5 -83t-106.5 -226l-84 -629h-117l139 1024h97l2 -125q106 145 309 145q118 0 200 -54.5
t111 -153.5q55 100 151.5 154t200.5 54z" />
    <glyph glyph-name="n" unicode="n" horiz-adv-x="1161" 
d="M694 1044q160 0 262 -102q101 -101 74 -321l-84 -621h-119l82 608q13 101 -4 171.5t-59 103.5q-76 55 -174 55q-155 0 -261.5 -106t-131.5 -285l-74 -547h-117l137 1024h97l-7 -172q56 88 158.5 140t220.5 52z" />
    <glyph glyph-name="o" unicode="o" horiz-adv-x="1222" 
d="M106 455q0 241 156 417q156 172 391 172q200 0 330 -124q133 -127 133 -351q0 -243 -153 -415q-155 -174 -392 -174q-199 0 -329 124q-136 127 -136 351zM565 82q181 0 305 139q123 138 123 346q0 175 -92 275t-244 100q-181 0 -305 -139q-123 -138 -123 -346
q0 -175 92 -275t244 -100z" />
    <glyph glyph-name="p" unicode="p" horiz-adv-x="1271" 
d="M723 1044q184 0 313 -120q129 -123 129 -359q0 -255 -151 -420q-152 -165 -379 -165q-138 0 -249 65t-153 166l-81 -621h-117l194 1434h99l-6 -172q66 88 174.5 140t226.5 52zM618 82q185 0 304 137q120 135 120 344q0 193 -102 287q-103 92 -238 92q-166 0 -299 -133
q-131 -131 -131 -350q0 -179 96 -278t250 -99z" />
    <glyph glyph-name="q" unicode="q" horiz-adv-x="1277" 
d="M1090 1024h98l-195 -1434h-119l80 584q-63 -88 -170.5 -141t-222.5 -53q-207 0 -331 128t-124 351q0 259 160 424q157 161 387 161q133 0 233 -60t152 -165zM571 82q167 0 299 135q129 132 129 348q0 184 -100 281q-104 96 -244 96q-183 0 -303 -141q-123 -144 -123 -346
q0 -187 105 -279q101 -94 237 -94z" />
    <glyph glyph-name="r" unicode="r" horiz-adv-x="729" 
d="M602 1024h139l-14 -113h-139q-129 0 -205.5 -80.5t-95.5 -228.5l-82 -602h-117l137 1024h97l-3 -139q77 139 283 139z" />
    <glyph glyph-name="s" unicode="s" horiz-adv-x="1011" 
d="M61 293h117q15 -213 277 -213q135 0 212.5 53.5t77.5 147.5q0 71 -43.5 108.5t-142.5 63.5l-156 39q-129 33 -195.5 92.5t-66.5 163.5q0 136 109.5 216t290.5 80q173 0 272.5 -83.5t99.5 -229.5h-112q0 102 -69.5 157.5t-194.5 55.5q-127 0 -201 -50.5t-74 -135.5
q0 -80 53 -111q48 -31 131 -51l150 -39q146 -36 209 -99.5t63 -168.5q0 -141 -117 -225t-305 -84q-178 0 -281.5 83t-103.5 230z" />
    <glyph glyph-name="t" unicode="t" horiz-adv-x="659" 
d="M74 918l14 106h107q91 0 100 74l24 188h117l-35 -262h242l-14 -106h-242l-92 -693q-8 -63 13 -89.5t87 -26.5h123l-14 -109h-137q-104 0 -155 59t-34 177l92 682h-196z" />
    <glyph glyph-name="u" unicode="u" horiz-adv-x="1148" 
d="M973 1024h114l-139 -1024h-96l6 172q-60 -92 -154 -142t-204 -50q-175 0 -273 122q-97 117 -69 330l80 592h120l-82 -614q-20 -154 45.5 -239t200.5 -85q151 0 251 103.5t124 273.5z" />
    <glyph glyph-name="v" unicode="v" horiz-adv-x="1040" 
d="M219 1024l240 -879l495 879h131l-579 -1024h-119l-297 1024h129z" />
    <glyph glyph-name="w" unicode="w" horiz-adv-x="1544" 
d="M233 1024l127 -881l416 881h123l180 -881l363 881h125l-437 -1024h-137l-172 879l-413 -879h-138l-159 1024h122z" />
    <glyph glyph-name="x" unicode="x" horiz-adv-x="983" 
d="M-33 0l447 520l-303 504h137l256 -436l370 436h142l-449 -516l305 -508h-137l-256 440l-370 -440h-142z" />
    <glyph glyph-name="y" unicode="y" horiz-adv-x="1015" 
d="M223 1024l226 -973l481 975l131 -2l-619 -1235q-58 -114 -137.5 -156.5t-212.5 -42.5h-162l15 109h157q122 0 185 60.5t63 166.5q0 38 -8 74l-240 1024h121z" />
    <glyph glyph-name="z" unicode="z" horiz-adv-x="1001" 
d="M197 106h649l-15 -106h-796l14 102l758 816h-651l14 106h797l-15 -102z" />
    <glyph glyph-name="braceleft" unicode="{" horiz-adv-x="561" 
d="M410 1290l-58 -403q-15 -111 -143 -170q113 -67 98 -168l-61 -430q-8 -68 14.5 -97t83.5 -30l84 -2l-12 -90l-103 2q-214 3 -184 225l55 403q15 123 -125 132l17 110q145 9 160 131l57 414q14 109 75 164t179 55h98l-12 -90h-66q-92 0 -118 -33q-27 -35 -39 -123z" />
    <glyph glyph-name="bar" unicode="|" horiz-adv-x="600" 
d="M133 -164l246 1741h137l-246 -1741h-137z" />
    <glyph glyph-name="braceright" unicode="}" horiz-adv-x="559" 
d="M301 1534q106 -2 154.5 -60.5t31.5 -164.5l-57 -404q-15 -122 125 -131l-14 -110q-145 -9 -160 -132l-59 -413q-18 -120 -80.5 -169.5t-182.5 -49.5h-90l13 90h79q67 0 101 29t41 96l61 434q15 108 142 170q-112 68 -97 168l58 407q21 147 -97 150l-84 2l13 90z" />
    <glyph glyph-name="asciitilde" unicode="~" horiz-adv-x="1224" 
d="M668 688q67 -58 95 -74t64 -16q61 0 96 40.5t40 109.5h114q-6 -124 -71.5 -198.5t-178.5 -74.5q-49 0 -100.5 20.5t-75.5 39.5q-41 34 -67 57q-63 55 -97 74.5t-71 19.5q-113 0 -125 -149h-113q0 122 69.5 197t176.5 75q56 0 88 -14q52 -23 72 -39q14 -11 28.5 -21.5
t30.5 -23.5q6 -6 12 -11.5t9 -8t4 -3.5z" />
    <glyph glyph-name="exclamdown" unicode="&#xa1;" horiz-adv-x="501" 
d="M283 1434h190l-27 -191h-190zM170 410q52 362 104 608h95q-18 -255 -68 -608l-57 -410h-131z" />
    <glyph glyph-name="cent" unicode="&#xa2;" horiz-adv-x="1120" 
d="M547 301q250 0 377 250h129q-71 -163 -192 -252t-277 -100l-27 -199h-121l29 203q-159 24 -260 143q-103 121 -103 293q0 244 142 412q141 163 366 184l27 199h121l-29 -201q142 -19 239 -108.5t122 -225.5h-123q-29 111 -110.5 173.5t-192.5 62.5q-186 0 -312 -129
q-127 -133 -127 -361q0 -162 87 -253t235 -91z" />
    <glyph glyph-name="sterling" unicode="&#xa3;" horiz-adv-x="1202" 
d="M731 121q95 0 144 40.5t61 131.5h135q-20 -152 -101.5 -222.5t-234.5 -70.5h-719l17 115q282 120 282 385q0 80 -14 157h-197l17 115h153q-26 116 -26 234q0 218 133 333t328 115q183 0 298.5 -91.5t133.5 -264.5h-135q-29 131 -100.5 186t-203.5 55q-155 0 -241 -86
t-86 -249q0 -89 28 -232h463l-28 -115h-410q12 -88 12 -155q0 -240 -211 -381h502z" />
    <glyph glyph-name="currency" unicode="&#xa4;" horiz-adv-x="1142" 
d="M958 983q101 -122 101 -287q0 -164 -101 -286l144 -142l-84 -82l-141 142q-129 -97 -283 -97q-155 0 -281 97l-143 -142l-82 82l141 142q-98 125 -98 286q0 162 98 287l-141 141l82 82l143 -141q125 96 281 96q155 0 283 -96l141 141l84 -82zM594 342q147 0 248 104
q100 100 100 250q0 149 -100 252q-103 103 -248 103q-143 0 -246 -103q-100 -103 -100 -252q0 -150 100 -250q101 -104 246 -104z" />
    <glyph glyph-name="yen" unicode="&#xa5;" horiz-adv-x="1247" 
d="M152 1434h143l346 -693l535 693h161l-569 -715h360l-16 -119h-422l-26 -199h421l-18 -118h-422l-39 -283h-123l39 283h-422l19 118h422l26 199h-422l17 119h360z" />
    <glyph glyph-name="brokenbar" unicode="&#xa6;" horiz-adv-x="600" 
d="M279 860l100 717h137l-100 -717h-137zM133 -164l100 717h138l-101 -717h-137z" />
    <glyph glyph-name="section" unicode="&#xa7;" horiz-adv-x="847" 
d="M629 494q172 -70 172 -240q0 -130 -101.5 -202t-265.5 -72q-171 0 -275.5 82t-109.5 217h113q5 -98 73.5 -151.5t194.5 -53.5q119 0 188.5 46.5t69.5 131.5q0 131 -166 168l-172 41q-276 65 -276 258q0 82 47.5 142t134.5 85q-182 71 -182 232q0 125 94 200.5t252 75.5
q161 0 259 -81.5t103 -215.5h-108q-5 93 -71.5 148t-180.5 55q-109 0 -173.5 -49t-64.5 -133q0 -69 45.5 -106t143.5 -58l170 -37q258 -59 258 -262q0 -169 -172 -221zM184 719q0 -70 44 -105.5t145 -56.5q151 -26 233 18t82 138q0 129 -166 166q-166 25 -252 -19.5
t-86 -140.5z" />
    <glyph glyph-name="dieresis" unicode="&#xa8;" horiz-adv-x="673" 
d="M156 1239l20 158h172l-20 -158h-172zM502 1239l20 158h172l-20 -158h-172z" />
    <glyph glyph-name="copyright" unicode="&#xa9;" horiz-adv-x="1619" 
d="M1577 719q0 -303 -217 -520q-219 -219 -520 -219q-306 0 -523 217t-217 522q0 306 217 520q215 215 523 215q302 0 520 -215q217 -214 217 -520zM840 1350q-260 0 -447 -187q-188 -188 -188 -444q0 -259 188 -447t447 -188q258 0 446 188q187 187 187 447q0 255 -189 444
q-187 187 -444 187zM829 281q146 0 249.5 74.5t144.5 209.5h-107q-76 -192 -282 -192q-135 0 -219.5 95t-84.5 249q0 152 84.5 248t219.5 96q205 0 282 -195h107q-41 137 -144.5 213t-249.5 76q-172 0 -286 -123q-115 -127 -115 -315q0 -192 113 -314t288 -122z" />
    <glyph glyph-name="ordfeminine" unicode="&#xaa;" horiz-adv-x="501" 
d="M346 1454q94 0 149.5 -54t55.5 -147v-315h-78l-8 59q-14 -30 -56.5 -49.5t-97.5 -19.5q-81 0 -134.5 45t-53.5 119q0 72 49 114.5t143 42.5h146v11q0 108 -121 108q-54 0 -88.5 -26t-34.5 -68h-86q0 84 61.5 132t153.5 48zM461 1114v64h-142q-106 0 -106 -84
q0 -43 32 -66.5t81 -23.5q60 0 97.5 30.5t37.5 79.5z" />
    <glyph glyph-name="guillemotleft" unicode="&#xab;" horiz-adv-x="1030" 
d="M330 123l-246 442l459 459h137l-469 -471l240 -430h-121zM674 123l-246 442l459 459h137l-469 -471l240 -430h-121z" />
    <glyph glyph-name="logicalnot" unicode="&#xac;" horiz-adv-x="1228" 
d="M993 702l-65 -466h-125l47 342h-678l18 124h803z" />
    <glyph glyph-name="registered" unicode="&#xae;" horiz-adv-x="937" 
d="M934 1061q0 -164 -115 -279q-114 -114 -276 -114q-164 0 -277 116q-116 113 -116 277q0 162 116 278q115 115 277 115q160 0 276 -113q115 -115 115 -280zM543 1378q-132 0 -224 -92q-94 -94 -94 -225q0 -132 94 -223q92 -95 224 -95q127 0 223 93q92 89 92 225
q0 130 -92 225q-95 92 -223 92zM465 995h92l72 -147h82l-80 158q84 31 84 124q0 60 -40 97t-102 37h-180v-416h72v147zM561 1200q35 0 57.5 -20t22.5 -52q0 -35 -21.5 -55t-58.5 -20h-96v147h96z" />
    <glyph glyph-name="overscore" unicode="&#xaf;" horiz-adv-x="622" 
d="M160 1423h545l-15 -104h-545z" />
    <glyph glyph-name="degree" unicode="&#xb0;" horiz-adv-x="651" 
d="M600 1014q-76 -76 -184 -76q-110 0 -183 76q-75 75 -75 182t75 182q73 76 183 76q108 0 184 -76q74 -77 74 -182t-74 -182zM307 1085q46 -44 109.5 -44t109.5 44t46 111t-46 111t-109.5 44t-109.5 -44t-46 -111t46 -111z" />
    <glyph glyph-name="plusminus" unicode="&#xb1;" horiz-adv-x="1232" 
d="M719 799h409l-18 -123h-410l-51 -369h-123l52 369h-410l18 123h410l51 368h123zM74 0l16 123h942l-16 -123h-942z" />
    <glyph glyph-name="uni00B5" unicode="&#xb5;" horiz-adv-x="1228" 
d="M1032 113h39l-16 -113h-43q-74 0 -125.5 31.5t-63.5 85.5q-110 -137 -319 -137q-99 0 -179.5 40t-109.5 103l-65 -469h-119l192 1370h119l-86 -616q-43 -315 262 -324q125 -5 214.5 75t109.5 224l90 641h115l-109 -768q-3 -39 -4 -69t22.5 -50t75.5 -24z" />
    <glyph glyph-name="paragraph" unicode="&#xb6;" horiz-adv-x="1093" 
d="M864 -133v1450h-280v-1450h-117v1051h-127q-123 0 -191 77.5t-63 188.5q5 106 71.5 178t182.5 72h747v-117h-106v-1450h-117z" />
    <glyph glyph-name="middot" unicode="&#xb7;" horiz-adv-x="559" 
d="M287 520q-43 0 -74 30t-31 73q0 50 34 84t85 34q43 0 75 -29t32 -71q0 -51 -35 -86t-86 -35z" />
    <glyph glyph-name="cedilla" unicode="&#xb8;" horiz-adv-x="522" 
d="M139 12l62 -24l-49 -84q65 6 104 -27.5t39 -91.5q0 -61 -49 -98t-129 -37q-66 0 -106 35t-40 92h92q-1 -25 15.5 -39t46.5 -14q70 0 70 55q0 36 -31 49.5t-76 1.5l-39 18z" />
    <glyph glyph-name="ordmasculine" unicode="&#xba;" horiz-adv-x="612" 
d="M209 1001q-72 75 -72 189q0 112 72 190q71 74 184 74t187 -74q73 -76 73 -190q0 -115 -71 -189q-73 -73 -189 -73q-114 0 -184 73zM229 1188q0 -78 45.5 -126t120.5 -48t120.5 48t45.5 126t-46.5 129t-119.5 51t-119.5 -50t-46.5 -130z" />
    <glyph glyph-name="guillemotright" unicode="&#xbb;" horiz-adv-x="1050" 
d="M371 1024l245 -442l-458 -459h-138l469 471l-239 430h121zM733 1024l246 -442l-459 -459h-137l469 471l-240 430h121z" />
    <glyph glyph-name="onequarter" unicode="&#xbc;" horiz-adv-x="1492" 
d="M156 705l14 102h137l70 514l-176 -82l14 109l176 86h109l-84 -627h139l-16 -102h-383zM1186 1434h119l-922 -1434h-119zM1319 242h102l-14 -99h-102l-21 -143h-108l18 143h-348l14 97l404 489h118zM1208 242l43 333l-278 -333h235z" />
    <glyph glyph-name="onehalf" unicode="&#xbd;" horiz-adv-x="1599" 
d="M156 705l14 102h137l70 514l-176 -82l14 109l176 86h109l-84 -627h139l-16 -102h-383zM1186 1434h119l-922 -1434h-119zM1382 281l-217 -179h324l-14 -102h-484l13 98l311 250q71 59 99 97t28 81q0 54 -33 84.5t-90 30.5q-62 0 -103.5 -36t-52.5 -97h-108
q13 108 86.5 169.5t181.5 61.5q103 0 166 -56t63 -148q0 -69 -38.5 -123t-131.5 -131z" />
    <glyph glyph-name="threequarters" unicode="&#xbe;" horiz-adv-x="1527" 
d="M635 924q0 -105 -77 -167.5t-200 -62.5q-118 0 -185 65t-54 167h108q-7 -66 27.5 -102t103.5 -36q72 0 117 37.5t45 98.5q0 50 -34.5 79t-96.5 29h-57l14 90h57q71 0 109.5 34.5t38.5 92.5q0 47 -32 74t-89 27q-69 0 -112.5 -37.5t-49.5 -100.5h-108q12 107 85.5 169.5
t190.5 62.5q101 0 165.5 -51t64.5 -136q0 -61 -34.5 -109t-96.5 -71q100 -34 100 -153zM1235 1434h119l-922 -1434h-119zM1368 242h102l-14 -99h-102l-21 -143h-108l18 143h-348l14 97l404 489h119zM1257 242l43 333l-278 -333h235z" />
    <glyph glyph-name="questiondown" unicode="&#xbf;" horiz-adv-x="1001" 
d="M776 1434l-26 -193h-195l27 193h194zM909 358q-21 -160 -155 -270q-132 -108 -308 -108q-163 0 -264.5 91t-101.5 234q0 46 9.5 88t22.5 74t39 67t44.5 56t54.5 51.5t54 43.5t58 42q7 5 11 8q168 123 186 252h119q-10 -70 -41.5 -129t-73.5 -100t-91 -78.5t-95 -74
t-84.5 -76t-62 -94t-23.5 -120.5q0 -103 67.5 -162t178.5 -59q132 0 219.5 74t105.5 190h131z" />
    <glyph glyph-name="Agrave" unicode="&#xc0;" 
d="M864 1544h-125l-225 250h160zM1083 0l-92 379h-700l-199 -379h-137l760 1434h143l356 -1434h-131zM352 498h611l-193 796z" />
    <glyph glyph-name="Aacute" unicode="&#xc1;" 
d="M1090 1794l-226 -250h-125l191 250h160zM1083 0l-92 379h-700l-199 -379h-137l760 1434h143l356 -1434h-131zM352 498h611l-193 796z" />
    <glyph glyph-name="Acircumflex" unicode="&#xc2;" 
d="M821 1702l-145 -158h-135l225 250h133l160 -250h-131zM1083 0l-92 379h-700l-199 -379h-137l760 1434h143l356 -1434h-131zM352 498h611l-193 796z" />
    <glyph glyph-name="Atilde" unicode="&#xc3;" 
d="M709 1653q-68 0 -80 -74h-92q6 87 52.5 137.5t119.5 50.5q53 0 122 -34q70 -37 97 -37q65 0 80 73h92q-7 -90 -53 -139t-119 -49q-51 0 -121 37q-72 35 -98 35zM1083 0l-92 379h-700l-199 -379h-137l760 1434h143l356 -1434h-131zM352 498h611l-193 796z" />
    <glyph glyph-name="Adieresis" unicode="&#xc4;" 
d="M741 1737l-20 -158h-172l20 158h172zM1087 1737l-20 -158h-172l20 158h172zM1083 0l-92 379h-700l-199 -379h-137l760 1434h143l356 -1434h-131zM352 498h611l-193 796z" />
    <glyph glyph-name="Aring" unicode="&#xc5;" 
d="M1083 0l-92 379h-700l-199 -379h-137l731 1380q-100 57 -100 181q0 95 63 161t160 66q91 0 148 -57t57 -148q0 -73 -38 -130.5t-102 -82.5l340 -1370h-131zM807 1698q-55 0 -89 -38.5t-34 -98.5q0 -53 31 -83t78 -30q54 0 88 38t34 95q0 52 -29.5 84.5t-78.5 32.5z
M352 498h611l-193 796z" />
    <glyph glyph-name="AE" unicode="&#xc6;" horiz-adv-x="1986" 
d="M-61 0l1124 1434h936l-17 -121h-757l-74 -531h578l-17 -118h-577l-78 -543h801l-17 -121h-926l54 379h-588l-297 -379h-145zM473 498h512l113 794z" />
    <glyph glyph-name="Ccedilla" unicode="&#xc7;" horiz-adv-x="1497" 
d="M735 98q368 0 531 334h139q-186 -431 -629 -452l-45 -76q65 6 104 -27.5t39 -91.5q0 -61 -49 -98t-129 -37q-66 0 -105.5 35t-39.5 92h92q-1 -25 15.5 -39t46.5 -14q69 0 69 55q0 36 -30.5 49.5t-75.5 1.5l-39 18l71 132q-268 12 -424 188q-157 177 -157 459
q0 352 223 587q221 238 549 238q227 0 382.5 -122.5t196.5 -330.5h-137q-94 334 -438 334q-280 0 -461 -196q-182 -200 -182 -514q0 -238 131 -381q129 -144 352 -144z" />
    <glyph glyph-name="Egrave" unicode="&#xc8;" horiz-adv-x="1210" 
d="M803 1544h-125l-225 250h159zM1192 1313h-793l-71 -531h630l-16 -118h-631l-73 -543h843l-16 -121h-967l193 1434h917z" />
    <glyph glyph-name="Eacute" unicode="&#xc9;" horiz-adv-x="1210" 
d="M1028 1794l-225 -250h-125l190 250h160zM1192 1313h-793l-71 -531h630l-16 -118h-631l-73 -543h843l-16 -121h-967l193 1434h917z" />
    <glyph glyph-name="Ecircumflex" unicode="&#xca;" horiz-adv-x="1210" 
d="M760 1702l-146 -158h-135l226 250h133l159 -250h-131zM1192 1313h-793l-71 -531h630l-16 -118h-631l-73 -543h843l-16 -121h-967l193 1434h917z" />
    <glyph glyph-name="Edieresis" unicode="&#xcb;" horiz-adv-x="1210" 
d="M680 1737l-21 -158h-172l21 158h172zM1026 1737l-20 -158h-172l20 158h172zM1192 1313h-793l-71 -531h630l-16 -118h-631l-73 -543h843l-16 -121h-967l193 1434h917z" />
    <glyph glyph-name="Igrave" unicode="&#xcc;" horiz-adv-x="460" 
d="M438 1544h-125l-225 250h160zM416 1434l-193 -1434h-125l193 1434h125z" />
    <glyph glyph-name="Iacute" unicode="&#xcd;" horiz-adv-x="460" 
d="M313 1544l191 250h160l-226 -250h-125zM416 1434l-193 -1434h-125l193 1434h125z" />
    <glyph glyph-name="Icircumflex" unicode="&#xce;" horiz-adv-x="460" 
d="M115 1544l225 250h133l160 -250h-131l-107 158l-145 -158h-135zM416 1434l-193 -1434h-125l193 1434h125z" />
    <glyph glyph-name="Idieresis" unicode="&#xcf;" horiz-adv-x="460" 
d="M123 1579l20 158h172l-20 -158h-172zM469 1579l20 158h173l-21 -158h-172zM416 1434l-193 -1434h-125l193 1434h125z" />
    <glyph glyph-name="Eth" unicode="&#xd0;" horiz-adv-x="1517" 
d="M827 1434q296 0 461 -174q166 -175 166 -467q0 -342 -221 -568q-221 -225 -596 -225h-459l92 684h-211l17 115h209l86 635h456zM621 121q326 0 512 180q188 182 188 492q0 242 -127 381t-356 139h-361l-67 -514h200l-16 -115h-201l-74 -563h302z" />
    <glyph glyph-name="Ntilde" unicode="&#xd1;" horiz-adv-x="1441" 
d="M813 1767q52 0 121 -34q70 -37 98 -37q65 0 80 73h92q-7 -90 -53 -139t-119 -49q-53 0 -123 37q-72 35 -96 35q-68 0 -80 -74h-92q6 87 52.5 137.5t119.5 50.5zM98 0l193 1434h137l676 -1258l168 1258h125l-193 -1434h-141l-672 1257l-168 -1257h-125z" />
    <glyph glyph-name="Ograve" unicode="&#xd2;" horiz-adv-x="1558" 
d="M981 1544h-125l-225 250h160zM119 631q0 338 229 579q229 244 537 244q277 0 444 -176q164 -179 164 -475q0 -338 -227 -580q-231 -243 -539 -243q-277 0 -442 180q-166 178 -166 471zM1360 803q0 243 -129 387q-130 145 -354 145q-253 0 -439 -207q-186 -204 -186 -497
q0 -246 128.5 -389.5t354.5 -143.5q252 0 441 207q184 205 184 498z" />
    <glyph glyph-name="Oacute" unicode="&#xd3;" horiz-adv-x="1558" 
d="M856 1544l191 250h159l-225 -250h-125zM119 631q0 338 229 579q229 244 537 244q277 0 444 -176q164 -179 164 -475q0 -338 -227 -580q-231 -243 -539 -243q-277 0 -442 180q-166 178 -166 471zM1360 803q0 243 -129 387q-130 145 -354 145q-253 0 -439 -207
q-186 -204 -186 -497q0 -246 128.5 -389.5t354.5 -143.5q252 0 441 207q184 205 184 498z" />
    <glyph glyph-name="Ocircumflex" unicode="&#xd4;" horiz-adv-x="1558" 
d="M657 1544l226 250h133l160 -250h-132l-106 158l-145 -158h-136zM119 631q0 338 229 579q229 244 537 244q277 0 444 -176q164 -179 164 -475q0 -338 -227 -580q-231 -243 -539 -243q-277 0 -442 180q-166 178 -166 471zM1360 803q0 243 -129 387q-130 145 -354 145
q-253 0 -439 -207q-186 -204 -186 -497q0 -246 128.5 -389.5t354.5 -143.5q252 0 441 207q184 205 184 498z" />
    <glyph glyph-name="Otilde" unicode="&#xd5;" horiz-adv-x="1558" 
d="M825 1767q52 0 121 -34q70 -37 98 -37q65 0 80 73h93q-7 -90 -53.5 -139t-119.5 -49q-52 0 -122 37q-72 35 -97 35q-68 0 -80 -74h-92q6 87 52.5 137.5t119.5 50.5zM119 631q0 338 229 579q229 244 537 244q277 0 444 -176q164 -179 164 -475q0 -338 -227 -580
q-231 -243 -539 -243q-277 0 -442 180q-166 178 -166 471zM1360 803q0 243 -129 387q-130 145 -354 145q-253 0 -439 -207q-186 -204 -186 -497q0 -246 128.5 -389.5t354.5 -143.5q252 0 441 207q184 205 184 498z" />
    <glyph glyph-name="Odieresis" unicode="&#xd6;" horiz-adv-x="1558" 
d="M666 1579l20 158h172l-20 -158h-172zM1012 1579l20 158h172l-20 -158h-172zM119 631q0 338 229 579q229 244 537 244q277 0 444 -176q164 -179 164 -475q0 -338 -227 -580q-231 -243 -539 -243q-277 0 -442 180q-166 178 -166 471zM1360 803q0 243 -129 387
q-130 145 -354 145q-253 0 -439 -207q-186 -204 -186 -497q0 -246 128.5 -389.5t354.5 -143.5q252 0 441 207q184 205 184 498z" />
    <glyph glyph-name="multiply" unicode="&#xd7;" horiz-adv-x="1228" 
d="M186 365l355 313l-269 311l101 88l268 -311l352 311l88 -100l-354 -313l268 -312l-100 -88l-268 311l-353 -311z" />
    <glyph glyph-name="Oslash" unicode="&#xd8;" horiz-adv-x="1583" 
d="M1311 1307q194 -179 194 -504q0 -338 -227 -580q-231 -243 -539 -243q-192 0 -329 88l-50 -68h-131l97 131q-195 180 -195 500q0 338 229 579q229 244 537 244q183 0 330 -84l47 64h131zM264 631q0 -254 135 -398l754 1033q-112 69 -264 69q-252 0 -438 -207
q-187 -205 -187 -497zM748 98q251 0 440 207q184 205 184 498q0 251 -137 397l-752 -1032q110 -70 265 -70z" />
    <glyph glyph-name="Ugrave" unicode="&#xd9;" horiz-adv-x="1406" 
d="M938 1544h-125l-225 250h160zM436 1434l-114 -856q-29 -217 74.5 -348.5t305.5 -131.5q408 0 467 455l115 881h123l-119 -908q-35 -263 -188 -404.5t-400 -141.5q-256 0 -395 161q-144 159 -106 437l114 856h123z" />
    <glyph glyph-name="Uacute" unicode="&#xda;" horiz-adv-x="1406" 
d="M813 1544l191 250h159l-225 -250h-125zM436 1434l-114 -856q-29 -217 74.5 -348.5t305.5 -131.5q408 0 467 455l115 881h123l-119 -908q-35 -263 -188 -404.5t-400 -141.5q-256 0 -395 161q-144 159 -106 437l114 856h123z" />
    <glyph glyph-name="Ucircumflex" unicode="&#xdb;" horiz-adv-x="1406" 
d="M614 1544l226 250h133l160 -250h-132l-106 158l-145 -158h-136zM436 1434l-114 -856q-29 -217 74.5 -348.5t305.5 -131.5q408 0 467 455l115 881h123l-119 -908q-35 -263 -188 -404.5t-400 -141.5q-256 0 -395 161q-144 159 -106 437l114 856h123z" />
    <glyph glyph-name="Udieresis" unicode="&#xdc;" horiz-adv-x="1406" 
d="M623 1579l20 158h172l-20 -158h-172zM969 1579l20 158h172l-20 -158h-172zM436 1434l-114 -856q-29 -217 74.5 -348.5t305.5 -131.5q408 0 467 455l115 881h123l-119 -908q-35 -263 -188 -404.5t-400 -141.5q-256 0 -395 161q-144 159 -106 437l114 856h123z" />
    <glyph glyph-name="Yacute" unicode="&#xdd;" horiz-adv-x="1234" 
d="M690 1544l191 250h159l-225 -250h-125zM547 481l-397 953h131l342 -816l559 816h145l-657 -953l-68 -481h-123z" />
    <glyph glyph-name="Thorn" unicode="&#xde;" horiz-adv-x="1318" 
d="M793 1167q228 0 342 -120t114 -302q0 -203 -151 -339q-150 -138 -406 -138h-432l-37 -268h-125l193 1434h125l-35 -267h412zM692 387q194 0 309 100t115 258q0 136 -84.5 217t-230.5 82l-436 5l-91 -662h418z" />
    <glyph glyph-name="germandbls" unicode="&#xdf;" horiz-adv-x="1157" 
d="M793 819q129 -37 203.5 -135t74.5 -229q0 -217 -135 -346t-346 -129q-124 0 -225 43l12 106q105 -51 217 -51q162 0 261 101t99 272q0 153 -100 234t-287 79l17 106q158 -5 258 74.5t100 216.5q0 114 -72 182t-198 68q-279 0 -326 -342l-141 -1067h-119l143 1073
q29 215 146.5 325.5t308.5 110.5q159 0 268 -92t109 -243q0 -268 -268 -357z" />
    <glyph glyph-name="agrave" unicode="&#xe0;" horiz-adv-x="1132" 
d="M698 1176h-125l-225 249h160zM961 96h55l-15 -96h-94q-65 0 -92 37t-20 125q-62 -82 -164.5 -132t-218.5 -50q-160 0 -254.5 77t-94.5 211q0 127 97 224q95 92 303 92h385l8 61q40 297 -250 297q-127 0 -212 -57.5t-105 -157.5h-115q35 150 150 233.5t286 83.5
q196 0 292.5 -109t70.5 -300l-62 -451q-7 -51 3.5 -69.5t46.5 -18.5zM825 410l11 75h-377q-138 0 -205.5 -57t-67.5 -158q0 -188 250 -188q136 0 252 82q116 84 137 246z" />
    <glyph glyph-name="aacute" unicode="&#xe1;" horiz-adv-x="1132" 
d="M924 1425l-226 -249h-125l191 249h160zM961 96h55l-15 -96h-94q-65 0 -92 37t-20 125q-62 -82 -164.5 -132t-218.5 -50q-160 0 -254.5 77t-94.5 211q0 127 97 224q95 92 303 92h385l8 61q40 297 -250 297q-127 0 -212 -57.5t-105 -157.5h-115q35 150 150 233.5t286 83.5
q196 0 292.5 -109t70.5 -300l-62 -451q-7 -51 3.5 -69.5t46.5 -18.5zM825 410l11 75h-377q-138 0 -205.5 -57t-67.5 -158q0 -188 250 -188q136 0 252 82q116 84 137 246z" />
    <glyph glyph-name="acircumflex" unicode="&#xe2;" horiz-adv-x="1132" 
d="M655 1333l-145 -157h-135l225 249h133l160 -249h-131zM961 96h55l-15 -96h-94q-65 0 -92 37t-20 125q-62 -82 -164.5 -132t-218.5 -50q-160 0 -254.5 77t-94.5 211q0 127 97 224q95 92 303 92h385l8 61q40 297 -250 297q-127 0 -212 -57.5t-105 -157.5h-115
q35 150 150 233.5t286 83.5q196 0 292.5 -109t70.5 -300l-62 -451q-7 -51 3.5 -69.5t46.5 -18.5zM825 410l11 75h-377q-138 0 -205.5 -57t-67.5 -158q0 -188 250 -188q136 0 252 82q116 84 137 246z" />
    <glyph glyph-name="atilde" unicode="&#xe3;" horiz-adv-x="1132" 
d="M543 1284q-68 0 -80 -74h-92q6 87 53 138t119 51q49 0 121 -35q70 -37 98 -37q65 0 80 74h92q-7 -90 -53 -139.5t-119 -49.5q-53 0 -123 37q-72 35 -96 35zM961 96h55l-15 -96h-94q-65 0 -92 37t-20 125q-62 -82 -164.5 -132t-218.5 -50q-160 0 -254.5 77t-94.5 211
q0 127 97 224q95 92 303 92h385l8 61q40 297 -250 297q-127 0 -212 -57.5t-105 -157.5h-115q35 150 150 233.5t286 83.5q196 0 292.5 -109t70.5 -300l-62 -451q-7 -51 3.5 -69.5t46.5 -18.5zM825 410l11 75h-377q-138 0 -205.5 -57t-67.5 -158q0 -188 250 -188q136 0 252 82
q116 84 137 246z" />
    <glyph glyph-name="adieresis" unicode="&#xe4;" horiz-adv-x="1132" 
d="M575 1368l-20 -158h-172l20 158h172zM922 1368l-21 -158h-172l21 158h172zM961 96h55l-15 -96h-94q-65 0 -92 37t-20 125q-62 -82 -164.5 -132t-218.5 -50q-160 0 -254.5 77t-94.5 211q0 127 97 224q95 92 303 92h385l8 61q40 297 -250 297q-127 0 -212 -57.5
t-105 -157.5h-115q35 150 150 233.5t286 83.5q196 0 292.5 -109t70.5 -300l-62 -451q-7 -51 3.5 -69.5t46.5 -18.5zM825 410l11 75h-377q-138 0 -205.5 -57t-67.5 -158q0 -188 250 -188q136 0 252 82q116 84 137 246z" />
    <glyph glyph-name="aring" unicode="&#xe5;" horiz-adv-x="1132" 
d="M961 96h55l-15 -96h-94q-65 0 -92 37t-20 125q-62 -82 -164.5 -132t-218.5 -50q-160 0 -254.5 77t-94.5 211q0 127 97 224q95 92 303 92h385l8 61q40 297 -250 297q-127 0 -212 -57.5t-105 -157.5h-115q58 246 313 305q-53 59 -53 142q0 95 63 161t160 66q91 0 148 -57
t57 -148q0 -111 -82 -178q111 -42 162 -141.5t31 -241.5l-62 -451q-7 -51 3.5 -69.5t46.5 -18.5zM655 1311q-55 0 -89 -38.5t-34 -98.5q0 -53 31 -83t78 -30q55 0 89 38t34 95q0 52 -30 84.5t-79 32.5zM825 410l11 75h-377q-138 0 -205.5 -57t-67.5 -158q0 -188 250 -188
q136 0 252 82q116 84 137 246z" />
    <glyph glyph-name="ae" unicode="&#xe6;" horiz-adv-x="1933" 
d="M1391 1044q223 0 346 -141q119 -140 92 -368l-8 -66h-871q-20 -181 69 -282t253 -101q127 0 231.5 63t147.5 166h127q-54 -150 -190.5 -240.5t-313.5 -90.5q-152 0 -259 69t-151 201q-45 -120 -167.5 -197t-278.5 -77q-158 0 -257.5 75t-99.5 203q0 42 10.5 82t38 82
t70 73.5t112.5 51.5t159 20h391l8 62q23 155 -50.5 236t-213.5 81q-126 0 -211.5 -64t-106.5 -165h-108q35 156 150.5 241.5t277.5 85.5q135 0 229.5 -59.5t126.5 -167.5q155 227 447 227zM1718 567q17 174 -74.5 275.5t-252.5 101.5q-160 0 -276.5 -100.5t-151.5 -276.5
h755zM823 434l4 35h-381q-130 0 -195 -56t-65 -147q0 -93 66.5 -139.5t173.5 -46.5q53 0 104 12t101 39t88.5 67t66.5 100.5t37 135.5z" />
    <glyph glyph-name="ccedilla" unicode="&#xe7;" horiz-adv-x="1157" 
d="M571 84q123 0 219.5 66t143.5 186h127q-57 -161 -183 -255.5t-290 -100.5l-31 -54q65 6 104 -27.5t39 -91.5q0 -61 -49 -98t-129 -37q-66 0 -105.5 35t-39.5 92h92q-1 -25 15.5 -39t45.5 -14q70 0 70 55q0 36 -30.5 50t-75.5 2l-39 18l61 111q-186 19 -298 143.5
t-112 325.5q0 251 158 423q156 170 400 170q169 0 285.5 -91t142.5 -248h-125q-24 111 -108 174t-202 63q-174 0 -299 -137q-129 -138 -129 -350q0 -179 94.5 -275t247.5 -96z" />
    <glyph glyph-name="egrave" unicode="&#xe8;" horiz-adv-x="1218" 
d="M745 1176h-124l-226 249h160zM1106 477h-868v-35q0 -169 88 -262.5t243 -93.5q282 0 383 229h121q-44 -151 -184 -239q-145 -92 -311 -92q-208 0 -334 129q-127 127 -127 342q0 259 159 426q156 163 398 163q208 0 324 -126.5t116 -339.5q0 -57 -8 -101zM653 944
q-141 0 -254 -98q-115 -100 -149 -268h743q-1 188 -86 277t-254 89z" />
    <glyph glyph-name="eacute" unicode="&#xe9;" horiz-adv-x="1218" 
d="M971 1425l-226 -249h-124l190 249h160zM1106 477h-868v-35q0 -169 88 -262.5t243 -93.5q282 0 383 229h121q-44 -151 -184 -239q-145 -92 -311 -92q-208 0 -334 129q-127 127 -127 342q0 259 159 426q156 163 398 163q208 0 324 -126.5t116 -339.5q0 -57 -8 -101z
M653 944q-141 0 -254 -98q-115 -100 -149 -268h743q-1 188 -86 277t-254 89z" />
    <glyph glyph-name="ecircumflex" unicode="&#xea;" horiz-adv-x="1218" 
d="M702 1333l-145 -157h-135l225 249h133l160 -249h-131zM1106 477h-868v-35q0 -169 88 -262.5t243 -93.5q282 0 383 229h121q-44 -151 -184 -239q-145 -92 -311 -92q-208 0 -334 129q-127 127 -127 342q0 259 159 426q156 163 398 163q208 0 324 -126.5t116 -339.5
q0 -57 -8 -101zM653 944q-141 0 -254 -98q-115 -100 -149 -268h743q-1 188 -86 277t-254 89z" />
    <glyph glyph-name="edieresis" unicode="&#xeb;" horiz-adv-x="1218" 
d="M623 1368l-21 -158h-172l21 158h172zM969 1368l-21 -158h-172l21 158h172zM1106 477h-868v-35q0 -169 88 -262.5t243 -93.5q282 0 383 229h121q-44 -151 -184 -239q-145 -92 -311 -92q-208 0 -334 129q-127 127 -127 342q0 259 159 426q156 163 398 163q208 0 324 -126.5
t116 -339.5q0 -57 -8 -101zM653 944q-141 0 -254 -98q-115 -100 -149 -268h743q-1 188 -86 277t-254 89z" />
    <glyph glyph-name="igrave" unicode="&#xec;" horiz-adv-x="432" 
d="M371 1176h-125l-226 249h160zM86 0l143 1024h117l-143 -1024h-117z" />
    <glyph glyph-name="iacute" unicode="&#xed;" horiz-adv-x="432" 
d="M246 1176l190 249h160l-225 -249h-125zM86 0l143 1024h117l-143 -1024h-117z" />
    <glyph glyph-name="icircumflex" unicode="&#xee;" horiz-adv-x="432" 
d="M47 1176l225 249h134l159 -249h-131l-106 157l-146 -157h-135zM86 0l143 1024h117l-143 -1024h-117z" />
    <glyph glyph-name="idieresis" unicode="&#xef;" horiz-adv-x="432" 
d="M55 1210l21 158h172l-21 -158h-172zM401 1210l21 158h172l-21 -158h-172zM86 0l143 1024h117l-143 -1024h-117z" />
    <glyph glyph-name="eth" unicode="&#xf0;" horiz-adv-x="1226" 
d="M942 1223q191 -268 191 -613q0 -156 -48.5 -281.5t-132.5 -199.5q-164 -147 -366 -147q-212 0 -342 124q-135 126 -135 363q0 260 155 418q154 157 381 157q223 0 336 -149q-58 162 -150 285l-239 -93l14 113l160 62q-93 99 -213 172h174q68 -45 152 -129l245 94
l-16 -113zM580 84q167 0 294 127q125 125 125 342q0 192 -102 291q-104 98 -250 98q-175 0 -295 -129q-121 -133 -121 -342q0 -197 105 -291q104 -96 244 -96z" />
    <glyph glyph-name="ntilde" unicode="&#xf1;" horiz-adv-x="1161" 
d="M610 1284q-68 0 -80 -74h-92q6 87 53 138t119 51q51 0 123 -35q70 -37 96 -37q65 0 80 74h92q-7 -90 -53 -139.5t-119 -49.5q-50 0 -120 37q-72 35 -99 35zM694 1044q160 0 262 -102q101 -101 74 -321l-84 -621h-119l82 608q13 101 -4 171.5t-59 103.5q-76 55 -174 55
q-155 0 -261.5 -106t-131.5 -285l-74 -547h-117l137 1024h97l-7 -172q56 88 158.5 140t220.5 52z" />
    <glyph glyph-name="ograve" unicode="&#xf2;" horiz-adv-x="1222" 
d="M729 1174h-125l-225 249h160zM106 455q0 241 156 417q156 172 391 172q200 0 330 -124q133 -127 133 -351q0 -243 -153 -415q-155 -174 -392 -174q-199 0 -329 124q-136 127 -136 351zM565 82q181 0 305 139q123 138 123 346q0 175 -92 275t-244 100q-181 0 -305 -139
q-123 -138 -123 -346q0 -175 92 -275t244 -100z" />
    <glyph glyph-name="oacute" unicode="&#xf3;" horiz-adv-x="1222" 
d="M604 1174l191 249h159l-225 -249h-125zM106 455q0 241 156 417q156 172 391 172q200 0 330 -124q133 -127 133 -351q0 -243 -153 -415q-155 -174 -392 -174q-199 0 -329 124q-136 127 -136 351zM565 82q181 0 305 139q123 138 123 346q0 175 -92 275t-244 100
q-181 0 -305 -139q-123 -138 -123 -346q0 -175 92 -275t244 -100z" />
    <glyph glyph-name="ocircumflex" unicode="&#xf4;" horiz-adv-x="1222" 
d="M406 1174l225 249h133l160 -249h-131l-107 157l-145 -157h-135zM106 455q0 241 156 417q156 172 391 172q200 0 330 -124q133 -127 133 -351q0 -243 -153 -415q-155 -174 -392 -174q-199 0 -329 124q-136 127 -136 351zM565 82q181 0 305 139q123 138 123 346
q0 175 -92 275t-244 100q-181 0 -305 -139q-123 -138 -123 -346q0 -175 92 -275t244 -100z" />
    <glyph glyph-name="otilde" unicode="&#xf5;" horiz-adv-x="1222" 
d="M573 1397q51 0 123 -35q70 -37 97 -37q64 0 79 74h93q-7 -90 -53 -139.5t-119 -49.5q-51 0 -121 37q-72 35 -99 35q-67 0 -79 -74h-93q6 87 53 138t119 51zM106 455q0 241 156 417q156 172 391 172q200 0 330 -124q133 -127 133 -351q0 -243 -153 -415
q-155 -174 -392 -174q-199 0 -329 124q-136 127 -136 351zM565 82q181 0 305 139q123 138 123 346q0 175 -92 275t-244 100q-181 0 -305 -139q-123 -138 -123 -346q0 -175 92 -275t244 -100z" />
    <glyph glyph-name="odieresis" unicode="&#xf6;" horiz-adv-x="1222" 
d="M414 1208l20 158h172l-20 -158h-172zM760 1208l20 158h172l-20 -158h-172zM106 455q0 241 156 417q156 172 391 172q200 0 330 -124q133 -127 133 -351q0 -243 -153 -415q-155 -174 -392 -174q-199 0 -329 124q-136 127 -136 351zM565 82q181 0 305 139q123 138 123 346
q0 175 -92 275t-244 100q-181 0 -305 -139q-123 -138 -123 -346q0 -175 92 -275t244 -100z" />
    <glyph glyph-name="divide" unicode="&#xf7;" horiz-adv-x="1226" 
d="M682 954q-40 0 -71 29t-31 72q0 47 33.5 79.5t80.5 32.5q43 0 73 -29t30 -75q0 -47 -32.5 -78t-82.5 -31zM172 737h942l-18 -123h-942zM575 184q-40 0 -71 29t-31 72q0 47 33.5 79.5t81.5 32.5q42 0 72 -29t30 -75q0 -47 -32.5 -78t-82.5 -31z" />
    <glyph glyph-name="oslash" unicode="&#xf8;" horiz-adv-x="1259" 
d="M1184 1061l-166 -187q94 -119 94 -305q0 -241 -154 -415q-155 -174 -391 -174q-164 0 -276 81l-98 -110h-119l149 168q-121 127 -121 336q0 241 156 417q156 172 391 172q182 0 307 -104l109 121h119zM225 457q0 -157 74 -252l584 651q-89 86 -230 86q-181 0 -305 -139
q-123 -138 -123 -346zM989 567q0 131 -51 217l-576 -643q83 -59 199 -59q181 0 305 139q123 138 123 346z" />
    <glyph glyph-name="ugrave" unicode="&#xf9;" horiz-adv-x="1148" 
d="M750 1176h-125l-226 249h160zM973 1024h114l-139 -1024h-96l6 172q-60 -92 -154 -142t-204 -50q-175 0 -273 122q-97 117 -69 330l80 592h120l-82 -614q-20 -154 45.5 -239t200.5 -85q151 0 251 103.5t124 273.5z" />
    <glyph glyph-name="uacute" unicode="&#xfa;" horiz-adv-x="1148" 
d="M975 1425l-225 -249h-125l190 249h160zM973 1024h114l-139 -1024h-96l6 172q-60 -92 -154 -142t-204 -50q-175 0 -273 122q-97 117 -69 330l80 592h120l-82 -614q-20 -154 45.5 -239t200.5 -85q151 0 251 103.5t124 273.5z" />
    <glyph glyph-name="ucircumflex" unicode="&#xfb;" horiz-adv-x="1148" 
d="M707 1333l-146 -157h-135l225 249h133l160 -249h-131zM973 1024h114l-139 -1024h-96l6 172q-60 -92 -154 -142t-204 -50q-175 0 -273 122q-97 117 -69 330l80 592h120l-82 -614q-20 -154 45.5 -239t200.5 -85q151 0 251 103.5t124 273.5z" />
    <glyph glyph-name="udieresis" unicode="&#xfc;" horiz-adv-x="1148" 
d="M627 1368l-21 -158h-172l21 158h172zM973 1368l-21 -158h-172l21 158h172zM973 1024h114l-139 -1024h-96l6 172q-60 -92 -154 -142t-204 -50q-175 0 -273 122q-97 117 -69 330l80 592h120l-82 -614q-20 -154 45.5 -239t200.5 -85q151 0 251 103.5t124 273.5z" />
    <glyph glyph-name="yacute" unicode="&#xfd;" horiz-adv-x="1015" 
d="M535 1176l190 249h160l-226 -249h-124zM223 1024l226 -973l481 975l131 -2l-619 -1235q-58 -114 -137.5 -156.5t-212.5 -42.5h-162l15 109h157q122 0 185 60.5t63 166.5q0 38 -8 74l-240 1024h121z" />
    <glyph glyph-name="thorn" unicode="&#xfe;" horiz-adv-x="1271" 
d="M723 1044q184 0 313 -120q129 -123 129 -359q0 -255 -151 -420q-152 -165 -379 -165q-138 0 -247.5 65t-151.5 166l-84 -621h-117l258 1905h117l-88 -643q67 90 174.5 141t226.5 51zM618 82q185 0 304 137q120 135 120 344q0 193 -102 287q-103 92 -238 92
q-166 0 -299 -133q-131 -131 -131 -350q0 -179 96 -278t250 -99z" />
    <glyph glyph-name="ydieresis" unicode="&#xff;" horiz-adv-x="1015" 
d="M344 1210l21 158h172l-21 -158h-172zM690 1210l21 158h172l-21 -158h-172zM223 1024l226 -973l481 975l131 -2l-619 -1235q-58 -114 -137.5 -156.5t-212.5 -42.5h-162l15 109h157q122 0 185 60.5t63 166.5q0 38 -8 74l-240 1024h121z" />
    <glyph glyph-name="Amacron" unicode="&#x100;" 
d="M1098 1696l-15 -105h-544l14 105h545zM1083 0l-92 379h-700l-199 -379h-137l760 1434h143l356 -1434h-131zM352 498h611l-193 796z" />
    <glyph glyph-name="amacron" unicode="&#x101;" horiz-adv-x="1132" 
d="M932 1327l-14 -104h-545l14 104h545zM961 96h55l-15 -96h-94q-65 0 -92 37t-20 125q-62 -82 -164.5 -132t-218.5 -50q-160 0 -254.5 77t-94.5 211q0 127 97 224q95 92 303 92h385l8 61q40 297 -250 297q-127 0 -212 -57.5t-105 -157.5h-115q35 150 150 233.5t286 83.5
q196 0 292.5 -109t70.5 -300l-62 -451q-7 -51 3.5 -69.5t46.5 -18.5zM825 410l11 75h-377q-138 0 -205.5 -57t-67.5 -158q0 -188 250 -188q136 0 252 82q116 84 137 246z" />
    <glyph glyph-name="Abreve" unicode="&#x102;" 
d="M801 1544q-117 0 -182.5 68.5t-57.5 181.5h107q-4 -66 29.5 -104.5t95.5 -38.5q72 0 118.5 38t53.5 105h112q-10 -112 -86.5 -181t-189.5 -69zM1083 0l-92 379h-700l-199 -379h-137l760 1434h143l356 -1434h-131zM352 498h611l-193 796z" />
    <glyph glyph-name="abreve" unicode="&#x103;" horiz-adv-x="1132" 
d="M635 1176q-117 0 -182.5 68t-57.5 181h107q-4 -66 29.5 -104.5t95.5 -38.5q72 0 118.5 38t53.5 105h112q-10 -112 -86.5 -180.5t-189.5 -68.5zM961 96h55l-15 -96h-94q-65 0 -92 37t-20 125q-62 -82 -164.5 -132t-218.5 -50q-160 0 -254.5 77t-94.5 211q0 127 97 224
q95 92 303 92h385l8 61q40 297 -250 297q-127 0 -212 -57.5t-105 -157.5h-115q35 150 150 233.5t286 83.5q196 0 292.5 -109t70.5 -300l-62 -451q-7 -51 3.5 -69.5t46.5 -18.5zM825 410l11 75h-377q-138 0 -205.5 -57t-67.5 -158q0 -188 250 -188q136 0 252 82
q116 84 137 246z" />
    <glyph glyph-name="Aogonek" unicode="&#x104;" 
d="M1049 -150q0 -49 61 -49q43 0 74 17l-13 -90q-34 -20 -77 -23.5t-79 7t-59.5 38.5t-19.5 68q0 110 147 184l-92 377h-700l-199 -379h-137l760 1434h143l356 -1434q-89 -42 -127 -77t-38 -73zM352 498h611l-193 796z" />
    <glyph glyph-name="aogonek" unicode="&#x105;" horiz-adv-x="1132" 
d="M1001 0q-89 -42 -127 -77t-38 -73q0 -49 61 -49q43 0 74 17l-13 -90q-34 -20 -77 -23.5t-79 7t-59.5 38.5t-19.5 68q0 110 147 186q-90 15 -75 158q-62 -82 -164.5 -132t-218.5 -50q-160 0 -254.5 77t-94.5 211q0 127 97 224q95 92 303 92h385l8 61q40 297 -250 297
q-127 0 -212 -57.5t-105 -157.5h-115q35 150 150 233.5t286 83.5q196 0 292.5 -109t70.5 -300l-62 -451q-7 -51 3.5 -69.5t46.5 -18.5h55zM825 410l11 75h-377q-138 0 -205.5 -57t-67.5 -158q0 -188 250 -188q136 0 252 82q116 84 137 246z" />
    <glyph glyph-name="Cacute" unicode="&#x106;" horiz-adv-x="1497" 
d="M848 1544l190 250h160l-225 -250h-125zM735 98q368 0 531 334h139q-194 -452 -668 -452q-280 0 -450 176q-168 174 -168 471q0 352 223 587q221 238 549 238q227 0 382.5 -122.5t196.5 -330.5h-137q-94 334 -438 334q-280 0 -461 -196q-182 -200 -182 -514
q0 -238 131 -381q129 -144 352 -144z" />
    <glyph glyph-name="cacute" unicode="&#x107;" horiz-adv-x="1157" 
d="M629 1176l190 249h160l-225 -249h-125zM967 705q-24 111 -108 174t-202 63q-174 0 -299 -137q-129 -138 -129 -350q0 -179 94.5 -275t247.5 -96q123 0 219.5 66t143.5 186h127q-57 -165 -189 -260.5t-303 -95.5q-201 0 -331 124q-132 126 -132 347q0 251 158 423
q156 170 400 170q169 0 285.5 -91t142.5 -248h-125z" />
    <glyph glyph-name="Ccircumflex" unicode="&#x108;" horiz-adv-x="1497" 
d="M649 1544l225 250h134l159 -250h-131l-106 158l-146 -158h-135zM735 98q368 0 531 334h139q-194 -452 -668 -452q-280 0 -450 176q-168 174 -168 471q0 352 223 587q221 238 549 238q227 0 382.5 -122.5t196.5 -330.5h-137q-94 334 -438 334q-280 0 -461 -196
q-182 -200 -182 -514q0 -238 131 -381q129 -144 352 -144z" />
    <glyph glyph-name="ccircumflex" unicode="&#x109;" horiz-adv-x="1157" 
d="M430 1176l225 249h133l160 -249h-131l-106 157l-146 -157h-135zM967 705q-24 111 -108 174t-202 63q-174 0 -299 -137q-129 -138 -129 -350q0 -179 94.5 -275t247.5 -96q123 0 219.5 66t143.5 186h127q-57 -165 -189 -260.5t-303 -95.5q-201 0 -331 124
q-132 126 -132 347q0 251 158 423q156 170 400 170q169 0 285.5 -91t142.5 -248h-125z" />
    <glyph glyph-name="Cdotaccent" unicode="&#x10a;" horiz-adv-x="1497" 
d="M823 1612l21 160h174l-21 -160h-174zM735 98q368 0 531 334h139q-194 -452 -668 -452q-280 0 -450 176q-168 174 -168 471q0 352 223 587q221 238 549 238q227 0 382.5 -122.5t196.5 -330.5h-137q-94 334 -438 334q-280 0 -461 -196q-182 -200 -182 -514q0 -238 131 -381
q129 -144 352 -144z" />
    <glyph glyph-name="cdotaccent" unicode="&#x10b;" horiz-adv-x="1157" 
d="M604 1243l21 160h174l-21 -160h-174zM967 705q-24 111 -108 174t-202 63q-174 0 -299 -137q-129 -138 -129 -350q0 -179 94.5 -275t247.5 -96q123 0 219.5 66t143.5 186h127q-57 -165 -189 -260.5t-303 -95.5q-201 0 -331 124q-132 126 -132 347q0 251 158 423
q156 170 400 170q169 0 285.5 -91t142.5 -248h-125z" />
    <glyph glyph-name="Ccaron" unicode="&#x10c;" horiz-adv-x="1497" 
d="M1210 1794l-233 -250h-133l-156 250h127l105 -158l149 158h141zM735 98q368 0 531 334h139q-194 -452 -668 -452q-280 0 -450 176q-168 174 -168 471q0 352 223 587q221 238 549 238q227 0 382.5 -122.5t196.5 -330.5h-137q-94 334 -438 334q-280 0 -461 -196
q-182 -200 -182 -514q0 -238 131 -381q129 -144 352 -144z" />
    <glyph glyph-name="ccaron" unicode="&#x10d;" horiz-adv-x="1157" 
d="M991 1425l-233 -249h-133l-156 249h127l104 -157l150 157h141zM967 705q-24 111 -108 174t-202 63q-174 0 -299 -137q-129 -138 -129 -350q0 -179 94.5 -275t247.5 -96q123 0 219.5 66t143.5 186h127q-57 -165 -189 -260.5t-303 -95.5q-201 0 -331 124q-132 126 -132 347
q0 251 158 423q156 170 400 170q169 0 285.5 -91t142.5 -248h-125z" />
    <glyph glyph-name="Dcaron" unicode="&#x10e;" horiz-adv-x="1439" 
d="M883 1794l-150 -158l-104 158h-127l155 -250h134l233 250h-141zM291 1434h457q295 0 460 -174q166 -175 166 -467q0 -342 -221 -568q-220 -225 -596 -225h-459zM541 121q326 0 512 180q188 182 188 492q0 242 -127 381t-356 139h-361l-157 -1192h301z" />
    <glyph glyph-name="dcaron" unicode="&#x10f;" horiz-adv-x="1318" 
d="M1028 829l90 666h113l-197 -1495h-98l4 168q-60 -90 -168.5 -139t-230.5 -49q-141 0 -275 94q-73 51 -116.5 152.5t-43.5 232.5q0 262 162 424q157 161 387 161q122 0 223.5 -59.5t149.5 -155.5zM1368 1495h139l-98 -348h-86zM565 80q182 0 309 139q125 137 125 354
q0 170 -96 268.5t-248 98.5q-172 0 -297 -131q-129 -132 -129 -350q0 -190 103 -285q101 -94 233 -94z" />
    <glyph glyph-name="Dcroat" unicode="&#x110;" horiz-adv-x="1517" 
d="M827 1434q296 0 461 -174q166 -175 166 -467q0 -342 -221 -568q-221 -225 -596 -225h-459l92 684h-211l17 115h209l86 635h456zM621 121q326 0 512 180q188 182 188 492q0 242 -127 381t-356 139h-361l-67 -514h200l-16 -115h-201l-74 -563h302z" />
    <glyph glyph-name="dslash" unicode="&#x111;" horiz-adv-x="1255" 
d="M1319 1292l-16 -106h-113l-156 -1186h-98l4 168q-60 -90 -168.5 -139t-230.5 -49q-141 0 -275 94q-73 51 -116.5 152.5t-43.5 232.5q0 262 162 424q157 161 387 161q122 0 223.5 -59.5t149.5 -155.5l49 357h-340l17 106h338l26 203h113l-27 -203h115zM565 80
q182 0 309 139q125 137 125 354q0 170 -96 268.5t-248 98.5q-172 0 -297 -131q-129 -132 -129 -350q0 -190 103 -285q101 -94 233 -94z" />
    <glyph glyph-name="Emacron" unicode="&#x112;" horiz-adv-x="1210" 
d="M1036 1696l-14 -105h-545l15 105h544zM1192 1313h-793l-71 -531h630l-16 -118h-631l-73 -543h843l-16 -121h-967l193 1434h917z" />
    <glyph glyph-name="emacron" unicode="&#x113;" horiz-adv-x="1218" 
d="M979 1327l-14 -104h-545l14 104h545zM1106 477h-868v-35q0 -169 88 -262.5t243 -93.5q282 0 383 229h121q-44 -151 -184 -239q-145 -92 -311 -92q-208 0 -334 129q-127 127 -127 342q0 259 159 426q156 163 398 163q208 0 324 -126.5t116 -339.5q0 -57 -8 -101zM653 944
q-141 0 -254 -98q-115 -100 -149 -268h743q-1 188 -86 277t-254 89z" />
    <glyph glyph-name="Ebreve" unicode="&#x114;" horiz-adv-x="1210" 
d="M739 1544q-117 0 -182 68.5t-57 181.5h106q-4 -66 29.5 -104.5t95.5 -38.5q72 0 118.5 38t53.5 105h113q-10 -112 -87 -181t-190 -69zM1192 1313h-793l-71 -531h630l-16 -118h-631l-73 -543h843l-16 -121h-967l193 1434h917z" />
    <glyph glyph-name="ebreve" unicode="&#x115;" horiz-adv-x="1218" 
d="M682 1176q-117 0 -182.5 68t-57.5 181h107q-4 -66 29.5 -104.5t95.5 -38.5q72 0 118.5 38t53.5 105h112q-10 -112 -86.5 -180.5t-189.5 -68.5zM1106 477h-868v-35q0 -169 88 -262.5t243 -93.5q282 0 383 229h121q-44 -151 -184 -239q-145 -92 -311 -92q-208 0 -334 129
q-127 127 -127 342q0 259 159 426q156 163 398 163q208 0 324 -126.5t116 -339.5q0 -57 -8 -101zM653 944q-141 0 -254 -98q-115 -100 -149 -268h743q-1 188 -86 277t-254 89z" />
    <glyph glyph-name="Edotaccent" unicode="&#x116;" horiz-adv-x="1210" 
d="M848 1772l-21 -160h-174l21 160h174zM1192 1313h-793l-71 -531h630l-16 -118h-631l-73 -543h843l-16 -121h-967l193 1434h917z" />
    <glyph glyph-name="edotaccent" unicode="&#x117;" horiz-adv-x="1218" 
d="M791 1403l-21 -160h-174l20 160h175zM1106 477h-868v-35q0 -169 88 -262.5t243 -93.5q282 0 383 229h121q-44 -151 -184 -239q-145 -92 -311 -92q-208 0 -334 129q-127 127 -127 342q0 259 159 426q156 163 398 163q208 0 324 -126.5t116 -339.5q0 -57 -8 -101zM653 944
q-141 0 -254 -98q-115 -100 -149 -268h743q-1 188 -86 277t-254 89z" />
    <glyph glyph-name="Eogonek" unicode="&#x118;" horiz-adv-x="1210" 
d="M1192 1313h-793l-71 -531h630l-16 -118h-631l-73 -543h843l-16 -121q-89 -42 -127.5 -77.5t-38.5 -72.5q0 -49 62 -49q42 0 73 17l-12 -90q-34 -20 -77 -23.5t-79.5 7t-60 38.5t-19.5 68q0 108 142 182h-830l193 1434h917z" />
    <glyph glyph-name="eogonek" unicode="&#x119;" horiz-adv-x="1218" 
d="M1106 477h-868v-35q0 -169 88 -262.5t243 -93.5q282 0 383 229h121q-35 -115 -130.5 -197.5t-225.5 -115.5q-87 -45 -123.5 -78t-36.5 -69q0 -50 61 -50q43 0 74 17l-12 -90q-34 -20 -77 -23.5t-79.5 7t-60 38.5t-19.5 68q0 98 107 162q-199 11 -316.5 137t-117.5 334
q0 259 159 426q156 163 398 163q208 0 324 -126.5t116 -339.5q0 -57 -8 -101zM653 944q-141 0 -254 -98q-115 -100 -149 -268h743q-1 188 -86 277t-254 89z" />
    <glyph glyph-name="Ecaron" unicode="&#x11a;" horiz-adv-x="1210" 
d="M807 1544h-133l-156 250h127l105 -158l149 158h141zM1192 1313h-793l-71 -531h630l-16 -118h-631l-73 -543h843l-16 -121h-967l193 1434h917z" />
    <glyph glyph-name="ecaron" unicode="&#x11b;" horiz-adv-x="1218" 
d="M750 1176h-134l-155 249h127l104 -157l150 157h141zM1106 477h-868v-35q0 -169 88 -262.5t243 -93.5q282 0 383 229h121q-44 -151 -184 -239q-145 -92 -311 -92q-208 0 -334 129q-127 127 -127 342q0 259 159 426q156 163 398 163q208 0 324 -126.5t116 -339.5
q0 -57 -8 -101zM653 944q-141 0 -254 -98q-115 -100 -149 -268h743q-1 188 -86 277t-254 89z" />
    <glyph glyph-name="Gcircumflex" unicode="&#x11c;" horiz-adv-x="1548" 
d="M664 1544l225 250h133l160 -250h-131l-107 158l-145 -158h-135zM733 -18q-273 0 -442 178q-172 178 -172 471q0 340 223 581q224 242 555 242q241 0 397 -123q159 -125 189 -330h-131q-38 162 -159.5 248t-303.5 86q-276 0 -457 -202q-180 -204 -180 -504
q0 -241 135 -385q132 -144 358 -144q282 0 447 187q89 100 104 239q1 13 7.5 60.5t7.5 60.5h-486l19 119h608l-109 -768h-94l13 221q-89 -116 -227.5 -176.5t-301.5 -60.5z" />
    <glyph glyph-name="gcircumflex" unicode="&#x11d;" horiz-adv-x="1214" 
d="M666 1333l-146 -157h-135l225 249h133l160 -249h-131zM1028 1024h98l-133 -985q-31 -232 -163 -350.5t-334 -118.5q-189 0 -307.5 89.5t-137.5 242.5h125q12 -105 99 -167.5t217 -62.5q158 0 256.5 88t121.5 250l31 209q-53 -91 -158 -145t-219 -54q-56 0 -111.5 13.5
t-111.5 47t-98.5 83.5t-69.5 130t-27 179q0 239 146 408q144 163 366 163q128 0 225 -57t140 -156zM535 123q167 0 288 133q117 132 117 330q0 166 -87.5 262t-234.5 96q-180 0 -284 -143q-105 -144 -105 -338q0 -182 93 -260q92 -80 213 -80z" />
    <glyph glyph-name="Gbreve" unicode="&#x11e;" horiz-adv-x="1548" 
d="M1087 1794h113q-10 -112 -86.5 -181t-189.5 -69q-117 0 -182.5 68.5t-57.5 181.5h107q-4 -66 29 -104.5t95 -38.5q72 0 118.5 38t53.5 105zM733 -18q-273 0 -442 178q-172 178 -172 471q0 340 223 581q224 242 555 242q241 0 397 -123q159 -125 189 -330h-131
q-38 162 -159.5 248t-303.5 86q-276 0 -457 -202q-180 -204 -180 -504q0 -241 135 -385q132 -144 358 -144q282 0 447 187q89 100 104 239q1 13 7.5 60.5t7.5 60.5h-486l19 119h608l-109 -768h-94l13 221q-89 -116 -227.5 -176.5t-301.5 -60.5z" />
    <glyph glyph-name="gbreve" unicode="&#x11f;" horiz-adv-x="1214" 
d="M645 1176q-117 0 -182 68t-57 181h106q-4 -66 29.5 -104.5t95.5 -38.5q72 0 118.5 38t53.5 105h113q-10 -112 -87 -180.5t-190 -68.5zM1028 1024h98l-133 -985q-31 -232 -163 -350.5t-334 -118.5q-189 0 -307.5 89.5t-137.5 242.5h125q12 -105 99 -167.5t217 -62.5
q158 0 256.5 88t121.5 250l31 209q-53 -91 -158 -145t-219 -54q-56 0 -111.5 13.5t-111.5 47t-98.5 83.5t-69.5 130t-27 179q0 239 146 408q144 163 366 163q128 0 225 -57t140 -156zM535 123q167 0 288 133q117 132 117 330q0 166 -87.5 262t-234.5 96q-180 0 -284 -143
q-105 -144 -105 -338q0 -182 93 -260q92 -80 213 -80z" />
    <glyph glyph-name="Gdotaccent" unicode="&#x120;" horiz-adv-x="1548" 
d="M838 1612l20 160h174l-20 -160h-174zM733 -18q-273 0 -442 178q-172 178 -172 471q0 340 223 581q224 242 555 242q241 0 397 -123q159 -125 189 -330h-131q-38 162 -159.5 248t-303.5 86q-276 0 -457 -202q-180 -204 -180 -504q0 -241 135 -385q132 -144 358 -144
q282 0 447 187q89 100 104 239q1 13 7.5 60.5t7.5 60.5h-486l19 119h608l-109 -768h-94l13 221q-89 -116 -227.5 -176.5t-301.5 -60.5z" />
    <glyph glyph-name="gdotaccent" unicode="&#x121;" horiz-adv-x="1214" 
d="M754 1403l-21 -160h-174l21 160h174zM1028 1024h98l-133 -985q-31 -232 -163 -350.5t-334 -118.5q-189 0 -307.5 89.5t-137.5 242.5h125q12 -105 99 -167.5t217 -62.5q158 0 256.5 88t121.5 250l31 209q-53 -91 -158 -145t-219 -54q-56 0 -111.5 13.5t-111.5 47
t-98.5 83.5t-69.5 130t-27 179q0 239 146 408q144 163 366 163q128 0 225 -57t140 -156zM535 123q167 0 288 133q117 132 117 330q0 166 -87.5 262t-234.5 96q-180 0 -284 -143q-105 -144 -105 -338q0 -182 93 -260q92 -80 213 -80z" />
    <glyph glyph-name="Gcommaaccent" unicode="&#x122;" horiz-adv-x="1548" 
d="M825 647l19 119h608l-109 -768h-94l13 221q-89 -116 -227.5 -176.5t-301.5 -60.5q-273 0 -442 178q-172 178 -172 471q0 340 223 581q224 242 555 242q241 0 397 -123q159 -125 189 -330h-131q-38 162 -159.5 248t-303.5 86q-276 0 -457 -202q-180 -204 -180 -504
q0 -241 135 -385q132 -144 358 -144q282 0 447 187q89 100 104 239q1 13 7.5 60.5t7.5 60.5h-486zM618 -281l23 160h160l-23 -160l-86 -172h-90l88 172h-72z" />
    <glyph glyph-name="gcommaaccent" unicode="&#x123;" horiz-adv-x="1214" 
d="M754 1368l-23 -160h-160l23 160l86 172h90l-88 -172h72zM1028 1024h98l-133 -985q-31 -232 -163 -350.5t-334 -118.5q-189 0 -307.5 89.5t-137.5 242.5h125q12 -105 99 -167.5t217 -62.5q158 0 256.5 88t121.5 250l31 209q-53 -91 -158 -145t-219 -54q-56 0 -111.5 13.5
t-111.5 47t-98.5 83.5t-69.5 130t-27 179q0 239 146 408q144 163 366 163q128 0 225 -57t140 -156zM535 123q167 0 288 133q117 132 117 330q0 166 -87.5 262t-234.5 96q-180 0 -284 -143q-105 -144 -105 -338q0 -182 93 -260q92 -80 213 -80z" />
    <glyph glyph-name="Hcircumflex" unicode="&#x124;" horiz-adv-x="1435" 
d="M598 1544l225 250h133l160 -250h-131l-106 158l-146 -158h-135zM1167 666h-858l-86 -666h-125l193 1434h125l-88 -648h854l84 648h125l-189 -1434h-125z" />
    <glyph glyph-name="hcircumflex" unicode="&#x125;" horiz-adv-x="1163" 
d="M377 1702l-146 -158h-135l226 250h133l159 -250h-131zM696 1044q179 0 270.5 -112t65.5 -301l-84 -631h-119l80 596q24 172 -37 257t-194 85q-157 0 -264.5 -106.5t-132.5 -284.5l-76 -547h-117l203 1495h119l-91 -639q57 86 158.5 137t218.5 51z" />
    <glyph glyph-name="Hbar" unicode="&#x126;" horiz-adv-x="1470" 
d="M1524 1204l-15 -119h-151l-144 -1085h-124l90 666h-858l-86 -666h-125l145 1085h-141l14 119h143l31 230h125l-31 -230h850l31 230h125l-31 -230h152zM1194 786l39 299h-852l-41 -299h854z" />
    <glyph glyph-name="hbar" unicode="&#x127;" horiz-adv-x="1163" 
d="M696 1044q179 0 270.5 -112t65.5 -301l-84 -631h-119l80 596q24 172 -37 257t-194 85q-157 0 -264.5 -106.5t-132.5 -284.5l-76 -547h-117l162 1186h-117l17 106h114l27 203h119l-29 -203h334l-17 -106h-331l-48 -330q57 86 158.5 137t218.5 51z" />
    <glyph glyph-name="Itilde" unicode="&#x128;" horiz-adv-x="460" 
d="M283 1767q54 0 123 -34q70 -37 96 -37q65 0 80 73h92q-7 -90 -53 -139t-119 -49q-51 0 -121 37q-72 35 -98 35q-68 0 -80 -74h-92q6 87 52.5 137.5t119.5 50.5zM416 1434l-193 -1434h-125l193 1434h125z" />
    <glyph glyph-name="itilde" unicode="&#x129;" horiz-adv-x="432" 
d="M215 1399q49 0 121 -35q70 -37 98 -37q65 0 80 74h92q-7 -90 -53 -139.5t-119 -49.5q-53 0 -123 37q-72 35 -96 35q-68 0 -80 -74h-92q6 87 53 138t119 51zM86 0l143 1024h117l-143 -1024h-117z" />
    <glyph glyph-name="Imacron" unicode="&#x12a;" horiz-adv-x="460" 
d="M127 1696h545l-15 -105h-544zM416 1434l-193 -1434h-125l193 1434h125z" />
    <glyph glyph-name="imacron" unicode="&#x12b;" horiz-adv-x="432" 
d="M59 1327h545l-14 -104h-545zM86 0l143 1024h117l-143 -1024h-117z" />
    <glyph glyph-name="Ibreve" unicode="&#x12c;" horiz-adv-x="460" 
d="M539 1794h112q-10 -112 -86.5 -181t-189.5 -69q-117 0 -182.5 68.5t-57.5 181.5h107q-4 -66 29.5 -104.5t95.5 -38.5q72 0 118.5 38t53.5 105zM416 1434l-193 -1434h-125l193 1434h125z" />
    <glyph glyph-name="ibreve" unicode="&#x12d;" horiz-adv-x="432" 
d="M479 1425h113q-10 -112 -87 -180.5t-190 -68.5q-117 0 -182 68t-57 181h106q-4 -66 29.5 -104.5t95.5 -38.5q72 0 118.5 38t53.5 105zM94 0l144 1024h116l-143 -1024h-117z" />
    <glyph glyph-name="Iogonek" unicode="&#x12e;" horiz-adv-x="460" 
d="M223 0q-89 -42 -127.5 -77.5t-38.5 -72.5q0 -49 62 -49q43 0 74 17l-13 -90q-34 -20 -77 -23.5t-79 7t-59.5 38.5t-19.5 68q0 112 153 188l193 1428h125z" />
    <glyph glyph-name="iogonek" unicode="&#x12f;" horiz-adv-x="432" 
d="M254 1434h174l-22 -160h-175zM90 10l135 1014h117l-137 -1024q-89 -42 -127.5 -77.5t-38.5 -72.5q0 -49 61 -49q43 0 74 17l-12 -90q-34 -20 -77 -23.5t-79.5 7t-60 38.5t-19.5 68q0 115 164 192z" />
    <glyph glyph-name="Idot" unicode="&#x130;" horiz-adv-x="460" 
d="M289 1612l20 160h174l-20 -160h-174zM416 1434l-193 -1434h-125l193 1434h125z" />
    <glyph glyph-name="dotlessi" unicode="&#x131;" horiz-adv-x="432" 
d="M86 0l143 1024h117l-143 -1024h-117z" />
    <glyph glyph-name="IJ" unicode="&#x132;" horiz-adv-x="1488" 
d="M416 1434l-193 -1434h-125l193 1434h125zM563 389q-14 -136 56 -213.5t215 -77.5q285 0 325 291l137 1045h125l-141 -1074q-25 -178 -144.5 -279t-299.5 -101q-197 0 -308 114q-112 112 -88 295h123z" />
    <glyph glyph-name="ij" unicode="&#x133;" horiz-adv-x="882" 
d="M231 1274l23 160h174l-22 -160h-175zM684 1274l23 160h174l-23 -160h-174zM88 0l137 1024h117l-137 -1024h-117zM629 -207q-13 -109 -73 -156t-177 -47h-135l14 109h127q67 0 94 23t35 83l164 1219h117z" />
    <glyph glyph-name="Jcircumflex" unicode="&#x134;" horiz-adv-x="1064" 
d="M739 1544l226 250h133l159 -250h-131l-106 158l-146 -158h-135zM190 389q-14 -136 56 -213.5t215 -77.5q285 0 325 291l138 1045h125l-142 -1074q-25 -178 -144.5 -279t-299.5 -101q-196 0 -307 114q-112 112 -88 295h122z" />
    <glyph glyph-name="jcircumflex" unicode="&#x135;" horiz-adv-x="460" 
d="M70 1176l225 249h133l160 -249h-131l-107 157l-145 -157h-135zM199 -207q-13 -109 -73 -156t-177 -47h-135l14 109h127q67 0 94 23t35 83l164 1219h117z" />
    <glyph glyph-name="Kcommaaccent" unicode="&#x136;" horiz-adv-x="1271" 
d="M1346 1434l-637 -631l477 -803h-144l-430 717l-340 -330l-51 -387h-123l193 1434h123l-117 -871l887 871h162zM512 -281l23 160h159l-22 -160l-86 -172h-90l88 172h-72z" />
    <glyph glyph-name="kcommaaccent" unicode="&#x137;" horiz-adv-x="995" 
d="M1026 1024l-496 -453l371 -571h-135l-322 498l-194 -176l-45 -322h-117l203 1495h117l-138 -1020l611 549h145zM371 -264l22 160h160l-23 -160l-86 -172h-90l88 172h-71z" />
    <glyph glyph-name="Lacute" unicode="&#x139;" horiz-adv-x="1110" 
d="M303 1544l191 250h159l-225 -250h-125zM242 121h757l-16 -121h-885l191 1434h125z" />
    <glyph glyph-name="lacute" unicode="&#x13a;" horiz-adv-x="432" 
d="M295 1565l190 250h160l-225 -250h-125zM88 0l201 1495h117l-201 -1495h-117z" />
    <glyph glyph-name="Lcommaaccent" unicode="&#x13b;" horiz-adv-x="1110" 
d="M242 121h757l-16 -121h-885l191 1434h125zM430 -287l23 160h159l-22 -160l-86 -172h-90l88 172h-72z" />
    <glyph glyph-name="lcommaaccent" unicode="&#x13c;" horiz-adv-x="432" 
d="M406 1495l-201 -1495h-117l201 1495h117zM35 -264l22 160h160l-22 -160l-86 -172h-91l88 172h-71z" />
    <glyph glyph-name="Lcaron" unicode="&#x13d;" horiz-adv-x="1110" 
d="M242 121h757l-16 -121h-885l191 1434h125zM737 1434l-98 -349h-86l45 349h139z" />
    <glyph glyph-name="lcaron" unicode="&#x13e;" horiz-adv-x="491" 
d="M88 0l201 1495h117l-201 -1495h-117zM676 1495l-98 -348h-86l45 348h139z" />
    <glyph glyph-name="Ldot" unicode="&#x13f;" horiz-adv-x="1118" 
d="M242 121h757l-16 -121h-885l191 1434h125zM813 715q-35 0 -59.5 23.5t-24.5 58.5q0 41 27.5 68.5t68.5 27.5q36 0 60 -23t24 -59q0 -41 -28.5 -68.5t-67.5 -27.5z" />
    <glyph glyph-name="ldot" unicode="&#x140;" horiz-adv-x="647" 
d="M88 0l201 1495h117l-201 -1495h-117zM567 674q-35 0 -59.5 23.5t-24.5 58.5q0 41 28 68.5t69 27.5q36 0 60 -23t24 -59q0 -40 -29 -68t-68 -28z" />
    <glyph glyph-name="Lslash" unicode="&#x141;" horiz-adv-x="1185" 
d="M309 121h758l-16 -121h-885l96 727l-223 -133l18 135l224 133l75 572h125l-63 -490l258 154l-19 -135l-258 -154z" />
    <glyph glyph-name="lslash" unicode="&#x142;" horiz-adv-x="471" 
d="M520 979l-16 -111l-176 -63l-107 -805h-119l101 762l-166 -60l14 111l166 59l82 623h119l-76 -580z" />
    <glyph glyph-name="Nacute" unicode="&#x143;" horiz-adv-x="1441" 
d="M844 1544l190 250h160l-225 -250h-125zM98 0l193 1434h137l676 -1258l168 1258h125l-193 -1434h-141l-672 1257l-168 -1257h-125z" />
    <glyph glyph-name="nacute" unicode="&#x144;" horiz-adv-x="1161" 
d="M991 1425l-225 -249h-125l190 249h160zM694 1044q160 0 262 -102q101 -101 74 -321l-84 -621h-119l82 608q13 101 -4 171.5t-59 103.5q-76 55 -174 55q-155 0 -261.5 -106t-131.5 -285l-74 -547h-117l137 1024h97l-7 -172q56 88 158.5 140t220.5 52z" />
    <glyph glyph-name="Ncommaaccent" unicode="&#x145;" horiz-adv-x="1441" 
d="M1272 1434h125l-193 -1434h-141l-672 1257l-168 -1257h-125l193 1434h137l676 -1258zM543 -260l22 160h160l-23 -160l-86 -172h-90l88 172h-71z" />
    <glyph glyph-name="ncommaaccent" unicode="&#x146;" horiz-adv-x="1161" 
d="M694 1044q160 0 262 -102q101 -101 74 -321l-84 -621h-119l82 608q13 101 -4 171.5t-59 103.5q-76 55 -174 55q-155 0 -261.5 -106t-131.5 -285l-74 -547h-117l137 1024h97l-7 -172q56 88 158.5 140t220.5 52zM399 -264l23 160h160l-23 -160l-86 -172h-90l88 172h-72z
" />
    <glyph glyph-name="Ncaron" unicode="&#x147;" horiz-adv-x="1441" 
d="M1206 1794l-233 -250h-133l-156 250h127l104 -158l150 158h141zM98 0l193 1434h137l676 -1258l168 1258h125l-193 -1434h-141l-672 1257l-168 -1257h-125z" />
    <glyph glyph-name="ncaron" unicode="&#x148;" horiz-adv-x="1161" 
d="M770 1176h-133l-156 249h127l105 -157l149 157h142zM694 1044q160 0 262 -102q101 -101 74 -321l-84 -621h-119l82 608q13 101 -4 171.5t-59 103.5q-76 55 -174 55q-155 0 -261.5 -106t-131.5 -285l-74 -547h-117l137 1024h97l-7 -172q56 88 158.5 140t220.5 52z" />
    <glyph glyph-name="Eng" unicode="&#x14a;" horiz-adv-x="1443" 
d="M1077 -6l-690 1255l-164 -1249h-125l191 1434h143l678 -1252l164 1252h125l-221 -1641q-13 -109 -72 -156t-176 -47h-135l14 113h106q68 0 96.5 25.5t39.5 89.5z" />
    <glyph glyph-name="eng" unicode="&#x14b;" horiz-adv-x="1140" 
d="M780 -190l109 798q13 98 -4.5 168t-59.5 101q-76 55 -172 55q-157 0 -264.5 -105.5t-130.5 -279.5l-74 -547h-116l137 1024h96l-6 -172q56 88 158.5 140t220.5 52q160 0 262 -102q101 -101 74 -321l-113 -826q-27 -205 -254 -205h-113l15 111h114q59 0 86 25.5t35 83.5z
" />
    <glyph glyph-name="Omacron" unicode="&#x14c;" horiz-adv-x="1558" 
d="M670 1696h544l-14 -105h-545zM119 631q0 338 229 579q229 244 537 244q277 0 444 -176q164 -179 164 -475q0 -338 -227 -580q-231 -243 -539 -243q-277 0 -442 180q-166 178 -166 471zM1360 803q0 243 -129 387q-130 145 -354 145q-253 0 -439 -207q-186 -204 -186 -497
q0 -246 128.5 -389.5t354.5 -143.5q252 0 441 207q184 205 184 498z" />
    <glyph glyph-name="omacron" unicode="&#x14d;" horiz-adv-x="1222" 
d="M418 1325h545l-15 -104h-545zM106 455q0 241 156 417q156 172 391 172q200 0 330 -124q133 -127 133 -351q0 -243 -153 -415q-155 -174 -392 -174q-199 0 -329 124q-136 127 -136 351zM565 82q181 0 305 139q123 138 123 346q0 175 -92 275t-244 100q-181 0 -305 -139
q-123 -138 -123 -346q0 -175 92 -275t244 -100z" />
    <glyph glyph-name="Obreve" unicode="&#x14e;" horiz-adv-x="1558" 
d="M1081 1794h113q-10 -112 -86.5 -181t-189.5 -69q-117 0 -182.5 68.5t-57.5 181.5h106q-4 -66 29.5 -104.5t95.5 -38.5q72 0 118.5 38t53.5 105zM119 631q0 338 229 579q229 244 537 244q277 0 444 -176q164 -179 164 -475q0 -338 -227 -580q-231 -243 -539 -243
q-277 0 -442 180q-166 178 -166 471zM1360 803q0 243 -129 387q-130 145 -354 145q-253 0 -439 -207q-186 -204 -186 -497q0 -246 128.5 -389.5t354.5 -143.5q252 0 441 207q184 205 184 498z" />
    <glyph glyph-name="obreve" unicode="&#x14f;" horiz-adv-x="1222" 
d="M829 1423h113q-10 -112 -86.5 -180.5t-189.5 -68.5q-117 0 -182.5 68t-57.5 181h106q-4 -66 29.5 -104.5t95.5 -38.5q72 0 118.5 38t53.5 105zM106 455q0 241 156 417q156 172 391 172q200 0 330 -124q133 -127 133 -351q0 -243 -153 -415q-155 -174 -392 -174
q-199 0 -329 124q-136 127 -136 351zM565 82q181 0 305 139q123 138 123 346q0 175 -92 275t-244 100q-181 0 -305 -139q-123 -138 -123 -346q0 -175 92 -275t244 -100z" />
    <glyph glyph-name="Ohungarumlaut" unicode="&#x150;" horiz-adv-x="1558" 
d="M741 1544l191 250h155l-225 -250h-121zM977 1544l231 250h156l-266 -250h-121zM119 631q0 338 229 579q229 244 537 244q277 0 444 -176q164 -179 164 -475q0 -338 -227 -580q-231 -243 -539 -243q-277 0 -442 180q-166 178 -166 471zM1360 803q0 243 -129 387
q-130 145 -354 145q-253 0 -439 -207q-186 -204 -186 -497q0 -246 128.5 -389.5t354.5 -143.5q252 0 441 207q184 205 184 498z" />
    <glyph glyph-name="ohungarumlaut" unicode="&#x151;" horiz-adv-x="1222" 
d="M489 1174l191 249h156l-226 -249h-121zM725 1174l231 249h156l-266 -249h-121zM106 455q0 241 156 417q156 172 391 172q200 0 330 -124q133 -127 133 -351q0 -243 -153 -415q-155 -174 -392 -174q-199 0 -329 124q-136 127 -136 351zM565 82q181 0 305 139
q123 138 123 346q0 175 -92 275t-244 100q-181 0 -305 -139q-123 -138 -123 -346q0 -175 92 -275t244 -100z" />
    <glyph glyph-name="OE" unicode="&#x152;" horiz-adv-x="2353" 
d="M2349 1313h-778l-74 -531h619l-17 -118h-618l-78 -543h821l-16 -121h-946l32 233q-83 -115 -229 -182q-144 -69 -305 -69q-244 0 -430 163q-93 81 -146 212.5t-53 289.5q0 334 209 572q207 235 537 235q181 0 322.5 -86.5t221.5 -241.5l41 308h903zM770 100
q250 0 426 191q174 189 174 487q0 258 -135 408q-134 149 -361 149q-269 0 -438 -202q-172 -202 -172 -484q0 -252 144 -399q144 -150 362 -150z" />
    <glyph glyph-name="oe" unicode="&#x153;" horiz-adv-x="2101" 
d="M1567 1044q222 0 342 -141q117 -141 90 -362l-8 -64h-863q-23 -184 67.5 -287.5t254.5 -103.5q128 0 229.5 62t151.5 167h121q-61 -154 -193 -242.5t-309 -88.5q-152 0 -262.5 75t-147.5 203q-60 -128 -188 -205t-283 -77q-195 0 -327 129q-136 127 -136 352
q0 243 164 413q162 168 402 168q140 0 254.5 -77.5t165.5 -206.5q66 134 191.5 210t283.5 76zM1880 573q17 175 -69.5 273t-245.5 98q-160 0 -275.5 -99.5t-150.5 -271.5h741zM580 82q172 0 305 133q129 132 129 326q0 184 -98.5 291.5t-258.5 107.5q-188 0 -307 -137
q-121 -139 -121 -346q0 -180 95 -277.5t256 -97.5z" />
    <glyph glyph-name="Racute" unicode="&#x154;" horiz-adv-x="1314" 
d="M668 1544l190 250h160l-225 -250h-125zM98 0l193 1434h536q224 0 342.5 -109.5t118.5 -298.5q0 -180 -113 -305t-311 -166l234 -555h-137l-226 541h-440l-74 -541h-123zM311 659h400q214 0 329 95.5t115 275.5q0 139 -79.5 212t-229.5 73h-449z" />
    <glyph glyph-name="racute" unicode="&#x155;" horiz-adv-x="729" 
d="M813 1425l-225 -249h-125l190 249h160zM319 885q77 139 283 139h139l-14 -113h-139q-129 0 -205.5 -80.5t-95.5 -228.5l-82 -602h-117l137 1024h97z" />
    <glyph glyph-name="Rcommaaccent" unicode="&#x156;" horiz-adv-x="1314" 
d="M1288 1026q0 -180 -113 -305t-311 -166l234 -555h-137l-226 541h-440l-74 -541h-123l193 1434h536q224 0 342.5 -109.5t118.5 -298.5zM711 659q214 0 329 95.5t115 275.5q0 139 -79.5 212t-229.5 73h-449l-86 -656h400zM463 -260l22 160h160l-22 -160l-86 -172h-91
l89 172h-72z" />
    <glyph glyph-name="rcommaaccent" unicode="&#x157;" horiz-adv-x="729" 
d="M602 1024h139l-14 -113h-139q-129 0 -205.5 -80.5t-95.5 -228.5l-82 -602h-117l137 1024h97l-3 -139q77 139 283 139zM43 -260l23 160h159l-22 -160l-86 -172h-90l88 172h-72z" />
    <glyph glyph-name="Rcaron" unicode="&#x158;" horiz-adv-x="1314" 
d="M1030 1794l-233 -250h-133l-156 250h127l104 -158l150 158h141zM98 0l193 1434h536q224 0 342.5 -109.5t118.5 -298.5q0 -180 -113 -305t-311 -166l234 -555h-137l-226 541h-440l-74 -541h-123zM311 659h400q214 0 329 95.5t115 275.5q0 139 -79.5 212t-229.5 73h-449z
" />
    <glyph glyph-name="rcaron" unicode="&#x159;" horiz-adv-x="729" 
d="M592 1176h-133l-156 249h127l105 -157l149 157h141zM319 885q77 139 283 139h139l-14 -113h-139q-129 0 -205.5 -80.5t-95.5 -228.5l-82 -602h-117l137 1024h97z" />
    <glyph glyph-name="Sacute" unicode="&#x15a;" horiz-adv-x="1214" 
d="M745 1544l191 250h160l-226 -250h-125zM565 -20q-237 0 -375 108q-139 109 -124 295h133q-8 -134 86 -211.5t280 -77.5q175 0 293 80q117 80 117 213q0 199 -244 252l-201 41q-340 67 -340 358q0 193 148 305q147 111 362 111q229 0 367 -108q136 -109 121 -295h-133
q8 134 -83 211t-272 77q-166 0 -271 -80t-105 -212q0 -197 243 -246l201 -41q340 -70 340 -365q0 -193 -158 -305q-155 -110 -385 -110z" />
    <glyph glyph-name="sacute" unicode="&#x15b;" horiz-adv-x="1011" 
d="M494 1176l190 249h160l-226 -249h-124zM61 293h117q15 -213 277 -213q135 0 212.5 53.5t77.5 147.5q0 71 -43.5 108.5t-142.5 63.5l-156 39q-129 33 -195.5 92.5t-66.5 163.5q0 136 109.5 216t290.5 80q173 0 272.5 -83.5t99.5 -229.5h-112q0 102 -69.5 157.5
t-194.5 55.5q-127 0 -201 -50.5t-74 -135.5q0 -80 53 -111q48 -31 131 -51l150 -39q146 -36 209 -99.5t63 -168.5q0 -141 -117 -225t-305 -84q-178 0 -281.5 83t-103.5 230z" />
    <glyph glyph-name="Scircumflex" unicode="&#x15c;" horiz-adv-x="1214" 
d="M436 1544l226 250h133l159 -250h-131l-106 158l-146 -158h-135zM565 -20q-237 0 -375 108q-139 109 -124 295h133q-8 -134 86 -211.5t280 -77.5q175 0 293 80q117 80 117 213q0 199 -244 252l-201 41q-340 67 -340 358q0 193 148 305q147 111 362 111q229 0 367 -108
q136 -109 121 -295h-133q8 134 -83 211t-272 77q-166 0 -271 -80t-105 -212q0 -197 243 -246l201 -41q340 -70 340 -365q0 -193 -158 -305q-155 -110 -385 -110z" />
    <glyph glyph-name="scircumflex" unicode="&#x15d;" horiz-adv-x="1011" 
d="M295 1176l225 249h133l160 -249h-131l-107 157l-145 -157h-135zM61 293h117q15 -213 277 -213q135 0 212.5 53.5t77.5 147.5q0 71 -43.5 108.5t-142.5 63.5l-156 39q-129 33 -195.5 92.5t-66.5 163.5q0 136 109.5 216t290.5 80q173 0 272.5 -83.5t99.5 -229.5h-112
q0 102 -69.5 157.5t-194.5 55.5q-127 0 -201 -50.5t-74 -135.5q0 -80 53 -111q48 -31 131 -51l150 -39q146 -36 209 -99.5t63 -168.5q0 -141 -117 -225t-305 -84q-178 0 -281.5 83t-103.5 230z" />
    <glyph glyph-name="Scedilla" unicode="&#x15e;" horiz-adv-x="1214" 
d="M1186 1051h-133q8 134 -83 211t-272 77q-166 0 -271 -80t-105 -212q0 -197 243 -246l201 -41q340 -70 340 -365q0 -193 -158 -305q-155 -110 -385 -110h-37l-39 -66q65 6 104.5 -27.5t39.5 -91.5q0 -61 -49 -98t-129 -37q-66 0 -106 35t-40 92h92q-1 -25 15.5 -39
t46.5 -14q69 0 69 55q0 36 -30.5 49.5t-75.5 1.5l-39 19l70 127q-191 25 -297.5 131t-94.5 266h134q-8 -134 86 -211.5t280 -77.5q175 0 293 80q117 80 117 213q0 199 -244 252l-201 41q-340 67 -340 358q0 193 148 305q147 111 362 111q229 0 367 -108q136 -109 121 -295z
" />
    <glyph glyph-name="scedilla" unicode="&#x15f;" horiz-adv-x="1011" 
d="M596 557q146 -36 209 -99.5t63 -168.5q0 -134 -105 -216t-278 -93l-39 -66q65 6 104.5 -27.5t39.5 -91.5q0 -61 -49 -98t-129 -37q-66 0 -106 35t-40 92h92q-1 -25 15.5 -39t46.5 -14q69 0 69 55q0 36 -30.5 49.5t-75.5 1.5l-39 19l68 121q-163 11 -257 93t-94 220h117
q15 -213 277 -213q135 0 212.5 53.5t77.5 147.5q0 71 -43.5 108.5t-142.5 63.5l-156 39q-129 33 -195.5 92.5t-66.5 163.5q0 136 109.5 216t290.5 80q173 0 272.5 -83.5t99.5 -229.5h-112q0 102 -69.5 157.5t-194.5 55.5q-127 0 -201 -50.5t-74 -135.5q0 -80 53 -111
q48 -31 131 -51z" />
    <glyph glyph-name="Scaron" unicode="&#x160;" horiz-adv-x="1214" 
d="M1106 1794l-234 -250h-133l-155 250h127l104 -158l150 158h141zM565 -20q-237 0 -375 108q-139 109 -124 295h133q-8 -134 86 -211.5t280 -77.5q175 0 293 80q117 80 117 213q0 199 -244 252l-201 41q-340 67 -340 358q0 193 148 305q147 111 362 111q229 0 367 -108
q136 -109 121 -295h-133q8 134 -83 211t-272 77q-166 0 -271 -80t-105 -212q0 -197 243 -246l201 -41q340 -70 340 -365q0 -193 -158 -305q-155 -110 -385 -110z" />
    <glyph glyph-name="scaron" unicode="&#x161;" horiz-adv-x="1011" 
d="M856 1425l-233 -249h-134l-155 249h127l104 -157l150 157h141zM61 293h117q15 -213 277 -213q135 0 212.5 53.5t77.5 147.5q0 71 -43.5 108.5t-142.5 63.5l-156 39q-129 33 -195.5 92.5t-66.5 163.5q0 136 109.5 216t290.5 80q173 0 272.5 -83.5t99.5 -229.5h-112
q0 102 -69.5 157.5t-194.5 55.5q-127 0 -201 -50.5t-74 -135.5q0 -80 53 -111q48 -31 131 -51l150 -39q146 -36 209 -99.5t63 -168.5q0 -141 -117 -225t-305 -84q-178 0 -281.5 83t-103.5 230z" />
    <glyph glyph-name="uni0162" unicode="&#x162;" horiz-adv-x="1255" 
d="M168 1434h1161l-16 -121h-520l-185 -1313h-123l185 1313h-518zM444 -268l23 159h160l-23 -159l-86 -172h-90l88 172h-72z" />
    <glyph glyph-name="uni0163" unicode="&#x163;" horiz-adv-x="659" 
d="M387 918l-92 -693q-8 -63 13 -89.5t87 -26.5h123l-14 -109h-137q-104 0 -155 59t-34 177l92 682h-196l14 106h107q91 0 100 74l24 188h117l-35 -262h242l-14 -106h-242zM223 -260l23 160h160l-23 -160l-86 -172h-90l88 172h-72z" />
    <glyph glyph-name="Tcaron" unicode="&#x164;" horiz-adv-x="1255" 
d="M1063 1794l-234 -250h-133l-155 250h127l104 -158l150 158h141zM793 1313l-185 -1313h-123l185 1313h-518l16 121h1161l-16 -121h-520z" />
    <glyph glyph-name="tcaron" unicode="&#x165;" horiz-adv-x="659" 
d="M707 1495l-99 -348h-86l45 348h140zM74 918l14 106h107q91 0 100 74l24 188h117l-35 -262h242l-14 -106h-242l-92 -693q-8 -63 13 -89.5t87 -26.5h123l-14 -109h-137q-104 0 -155 59t-34 177l92 682h-196z" />
    <glyph glyph-name="Tbar" unicode="&#x166;" horiz-adv-x="1255" 
d="M1313 1313h-520l-74 -518h221l-16 -115h-219l-97 -680h-123l97 680h-224l17 115h221l74 518h-518l16 121h1161z" />
    <glyph glyph-name="tbar" unicode="&#x167;" horiz-adv-x="686" 
d="M643 918h-242l-39 -291h244l-14 -107h-244l-39 -295q-8 -63 13.5 -89.5t87.5 -26.5h122l-14 -109h-137q-103 0 -154 59t-34 177l38 284h-188l14 107h189l39 291h-197l14 106h107q91 0 100 74l25 188h117l-35 -262h241z" />
    <glyph glyph-name="Utilde" unicode="&#x168;" horiz-adv-x="1406" 
d="M782 1767q54 0 123 -34q70 -37 96 -37q65 0 80 73h93q-7 -90 -53.5 -139t-119.5 -49q-50 0 -120 37q-72 35 -99 35q-68 0 -80 -74h-92q6 87 52.5 137.5t119.5 50.5zM436 1434l-114 -856q-29 -217 74.5 -348.5t305.5 -131.5q408 0 467 455l115 881h123l-119 -908
q-35 -263 -188 -404.5t-400 -141.5q-256 0 -395 161q-144 159 -106 437l114 856h123z" />
    <glyph glyph-name="utilde" unicode="&#x169;" horiz-adv-x="1148" 
d="M594 1284q-68 0 -80 -74h-92q6 87 53 138t119 51q51 0 123 -35q70 -37 96 -37q65 0 80 74h92q-7 -90 -53 -139.5t-119 -49.5q-51 0 -121 37q-72 35 -98 35zM973 1024h114l-139 -1024h-96l6 172q-60 -92 -154 -142t-204 -50q-175 0 -273 122q-97 117 -69 330l80 592h120
l-82 -614q-20 -154 45.5 -239t200.5 -85q151 0 251 103.5t124 273.5z" />
    <glyph glyph-name="Umacron" unicode="&#x16a;" horiz-adv-x="1406" 
d="M627 1696h544l-14 -105h-545zM436 1434l-114 -856q-29 -217 74.5 -348.5t305.5 -131.5q408 0 467 455l115 881h123l-119 -908q-35 -263 -188 -404.5t-400 -141.5q-256 0 -395 161q-144 159 -106 437l114 856h123z" />
    <glyph glyph-name="umacron" unicode="&#x16b;" horiz-adv-x="1148" 
d="M983 1327l-14 -104h-545l14 104h545zM973 1024h114l-139 -1024h-96l6 172q-60 -92 -154 -142t-204 -50q-175 0 -273 122q-97 117 -69 330l80 592h120l-82 -614q-20 -154 45.5 -239t200.5 -85q151 0 251 103.5t124 273.5z" />
    <glyph glyph-name="Ubreve" unicode="&#x16c;" horiz-adv-x="1406" 
d="M1038 1794h113q-10 -112 -87 -181t-190 -69q-117 0 -182 68.5t-57 181.5h106q-4 -66 29.5 -104.5t95.5 -38.5q72 0 118.5 38t53.5 105zM436 1434l-114 -856q-29 -217 74.5 -348.5t305.5 -131.5q408 0 467 455l115 881h123l-119 -908q-35 -263 -188 -404.5t-400 -141.5
q-256 0 -395 161q-144 159 -106 437l114 856h123z" />
    <glyph glyph-name="ubreve" unicode="&#x16d;" horiz-adv-x="1148" 
d="M686 1176q-117 0 -182.5 68t-57.5 181h107q-4 -66 29.5 -104.5t95.5 -38.5q72 0 118.5 38t53.5 105h113q-10 -112 -87 -180.5t-190 -68.5zM973 1024h114l-139 -1024h-96l6 172q-60 -92 -154 -142t-204 -50q-175 0 -273 122q-97 117 -69 330l80 592h120l-82 -614
q-20 -154 45.5 -239t200.5 -85q151 0 251 103.5t124 273.5z" />
    <glyph glyph-name="Uring" unicode="&#x16e;" horiz-adv-x="1406" 
d="M868 1489q-88 0 -146 57.5t-58 147.5q0 95 63 161t160 66q91 0 148 -57t57 -148q0 -98 -65 -162.5t-159 -64.5zM870 1581q55 0 89 38t34 95q0 52 -29.5 84.5t-78.5 32.5q-55 0 -89 -38.5t-34 -98.5q0 -53 31 -83t77 -30zM436 1434l-114 -856q-29 -217 74.5 -348.5
t305.5 -131.5q408 0 467 455l115 881h123l-119 -908q-35 -263 -188 -404.5t-400 -141.5q-256 0 -395 161q-144 159 -106 437l114 856h123z" />
    <glyph glyph-name="uring" unicode="&#x16f;" horiz-adv-x="1148" 
d="M680 1120q-88 0 -146.5 57.5t-58.5 147.5q0 95 63 161t160 66q91 0 148 -56.5t57 -147.5q0 -98 -64.5 -163t-158.5 -65zM696 1462q-55 0 -89 -38.5t-34 -98.5q0 -53 31 -83t78 -30q54 0 88.5 38.5t34.5 95.5q0 51 -30 83.5t-79 32.5zM973 1024h114l-139 -1024h-96l6 172
q-60 -92 -154 -142t-204 -50q-175 0 -273 122q-97 117 -69 330l80 592h120l-82 -614q-20 -154 45.5 -239t200.5 -85q151 0 251 103.5t124 273.5z" />
    <glyph glyph-name="Uhungarumlaut" unicode="&#x170;" horiz-adv-x="1406" 
d="M698 1544l191 250h155l-225 -250h-121zM934 1544l231 250h156l-266 -250h-121zM436 1434l-114 -856q-29 -217 74.5 -348.5t305.5 -131.5q408 0 467 455l115 881h123l-119 -908q-35 -263 -188 -404.5t-400 -141.5q-256 0 -395 161q-144 159 -106 437l114 856h123z" />
    <glyph glyph-name="uhungarumlaut" unicode="&#x171;" horiz-adv-x="1148" 
d="M856 1425l-225 -249h-121l190 249h156zM866 1176h-121l232 249h156zM897 463l76 561h114l-139 -1024h-96l6 172q-60 -92 -154 -142t-204 -50q-175 0 -273 122q-97 117 -69 330l80 592h120l-82 -614q-20 -154 45.5 -239t200.5 -85q151 0 251 103.5t124 273.5z" />
    <glyph glyph-name="Uogonek" unicode="&#x172;" horiz-adv-x="1406" 
d="M1282 1434h123l-119 -908q-31 -239 -161.5 -379t-344.5 -163q-82 -42 -117.5 -75t-35.5 -69q0 -49 61 -49q45 0 74 16l-12 -90q-34 -20 -77 -23.5t-79.5 7t-60 38.5t-19.5 68q0 104 127 175q-227 18 -354 178q-125 155 -90 418l114 856h123l-115 -856q-29 -217 75 -348.5
t306 -131.5q408 0 467 455z" />
    <glyph glyph-name="uogonek" unicode="&#x173;" horiz-adv-x="1148" 
d="M948 0q-89 -42 -127.5 -77.5t-38.5 -72.5q0 -49 62 -49q43 0 74 17l-13 -90q-34 -20 -77 -23.5t-79 7t-59.5 38.5t-19.5 68q0 119 182 202l6 152q-60 -92 -154 -142t-204 -50q-175 0 -273 122q-97 117 -69 330l80 592h120l-82 -614q-20 -154 45.5 -239t200.5 -85
q151 0 251 103.5t124 273.5l76 561h114z" />
    <glyph glyph-name="Wcircumflex" unicode="&#x174;" horiz-adv-x="1939" 
d="M846 1544l225 250h133l160 -250h-131l-107 158l-145 -158h-135zM342 0l-186 1434h125l159 -1264l584 1264h137l154 -1264l579 1264h131l-663 -1434h-143l-158 1245l-576 -1245h-143z" />
    <glyph glyph-name="wcircumflex" unicode="&#x175;" horiz-adv-x="1544" 
d="M598 1176l225 249h133l160 -249h-131l-106 157l-146 -157h-135zM233 1024l127 -881l416 881h123l180 -881l363 881h125l-437 -1024h-137l-172 879l-413 -879h-138l-159 1024h122z" />
    <glyph glyph-name="Ycircumflex" unicode="&#x176;" horiz-adv-x="1234" 
d="M492 1544l225 250h133l160 -250h-131l-107 158l-145 -158h-135zM547 481l-397 953h131l342 -816l559 816h145l-657 -953l-68 -481h-123z" />
    <glyph glyph-name="ycircumflex" unicode="&#x177;" horiz-adv-x="1015" 
d="M336 1176l225 249h133l160 -249h-131l-107 157l-145 -157h-135zM223 1024l226 -973l481 975l131 -2l-619 -1235q-58 -114 -137.5 -156.5t-212.5 -42.5h-162l15 109h157q122 0 185 60.5t63 166.5q0 38 -8 74l-240 1024h121z" />
    <glyph glyph-name="Ydieresis" unicode="&#x178;" horiz-adv-x="1234" 
d="M500 1579l20 158h172l-20 -158h-172zM846 1579l20 158h172l-20 -158h-172zM547 481l-397 953h131l342 -816l559 816h145l-657 -953l-68 -481h-123z" />
    <glyph glyph-name="Zacute" unicode="&#x179;" horiz-adv-x="1187" 
d="M668 1544l190 250h160l-225 -250h-125zM172 121h883l-17 -121h-1036l16 115l1020 1198h-831l16 121h985l-14 -115z" />
    <glyph glyph-name="zacute" unicode="&#x17a;" horiz-adv-x="1001" 
d="M524 1155l191 250h159l-225 -250h-125zM197 106h649l-15 -106h-796l14 102l758 816h-651l14 106h797l-15 -102z" />
    <glyph glyph-name="Zdotaccent" unicode="&#x17b;" horiz-adv-x="1187" 
d="M643 1612l21 160h174l-21 -160h-174zM172 121h883l-17 -121h-1036l16 115l1020 1198h-831l16 121h985l-14 -115z" />
    <glyph glyph-name="zdotaccent" unicode="&#x17c;" horiz-adv-x="1001" 
d="M500 1223l20 159h174l-20 -159h-174zM197 106h649l-15 -106h-796l14 102l758 816h-651l14 106h797l-15 -102z" />
    <glyph glyph-name="Zcaron" unicode="&#x17d;" horiz-adv-x="1187" 
d="M1030 1794l-233 -250h-133l-156 250h127l104 -158l150 158h141zM172 121h883l-17 -121h-1036l16 115l1020 1198h-831l16 121h985l-14 -115z" />
    <glyph glyph-name="zcaron" unicode="&#x17e;" horiz-adv-x="1001" 
d="M887 1405l-234 -250h-133l-155 250h127l104 -158l149 158h142zM197 106h649l-15 -106h-796l14 102l758 816h-651l14 106h797l-15 -102z" />
    <glyph glyph-name="florin" unicode="&#x192;" horiz-adv-x="1114" 
d="M991 1434h123l-14 -109h-109q-87 0 -127 -31t-65 -104l-146 -438h295l-16 -115h-316l-210 -637q-46 -139 -117 -186q-68 -45 -197 -45h-100l16 108h84q83 0 124 26t65 97l211 637h-265l17 115h286l152 456q42 124 114.5 175t194.5 51z" />
    <glyph glyph-name="Ohorn" unicode="&#x1a0;" horiz-adv-x="1558" 
d="M1329 1278q164 -179 164 -475q0 -338 -227 -580q-231 -243 -539 -243q-277 0 -442 180q-166 178 -166 471q0 338 229 579q229 244 537 244q100 0 176 -20q70 0 116.5 38t55.5 105h108q-9 -64 -43.5 -117.5t-87.5 -85.5q69 -43 119 -96zM1176 305q184 205 184 498
q0 243 -129 387q-130 145 -354 145q-253 0 -439 -207q-186 -204 -186 -497q0 -246 128.5 -389.5t354.5 -143.5q252 0 441 207z" />
    <glyph glyph-name="ohorn" unicode="&#x1a1;" horiz-adv-x="1222" 
d="M983 920q133 -127 133 -351q0 -243 -153 -415q-155 -174 -392 -174q-199 0 -329 124q-136 127 -136 351q0 241 156 417q156 172 391 172q83 0 150 -20q70 0 116.5 38t55.5 105h108q-9 -68 -47 -123t-96 -88q24 -18 43 -36zM870 221q123 138 123 346q0 132 -53.5 223
t-148.5 128h-3v2q-61 22 -131 22q-181 0 -305 -139q-123 -138 -123 -346q0 -175 92 -275t244 -100q181 0 305 139z" />
    <glyph glyph-name="Uhorn" unicode="&#x1af;" horiz-adv-x="1406" 
d="M1587 1577q-12 -82 -63.5 -143t-128.5 -88l-107 -820q-35 -263 -188 -404.5t-400 -141.5q-256 0 -395 161q-144 159 -106 437l114 856h123l-114 -856q-29 -217 74.5 -348.5t305.5 -131.5q408 0 467 455l115 881h23q70 0 116.5 38t55.5 105h108z" />
    <glyph glyph-name="uhorn" unicode="&#x1b0;" horiz-adv-x="1148" 
d="M1282 1167q-12 -86 -68 -149t-139 -88l-127 -930h-96l6 172q-60 -92 -154 -142t-204 -50q-175 0 -273 122q-97 117 -69 330l80 592h120l-82 -614q-20 -154 45.5 -239t200.5 -85q151 0 251 103.5t124 273.5l76 561h28q70 0 117 38t56 105h108z" />
    <glyph glyph-name="Aringacute" unicode="&#x1fa;" 
d="M1102 2122l-225 -250h-125l190 250h160zM1083 0l-92 379h-700l-199 -379h-137l737 1393q-104 52 -104 180q0 95 63 161t160 66q91 0 148 -57t57 -148q0 -75 -40 -132.5t-106 -80.5l344 -1382h-131zM809 1710q-55 0 -89 -38.5t-34 -98.5q0 -53 31 -83t78 -30q55 0 89 38
t34 95q0 52 -30 84.5t-79 32.5zM352 498h611l-193 796z" />
    <glyph glyph-name="aringacute" unicode="&#x1fb;" horiz-adv-x="1132" 
d="M950 1704l-225 -250h-125l191 250h159zM961 96h55l-15 -96h-94q-65 0 -92 37t-20 125q-62 -82 -164.5 -132t-218.5 -50q-160 0 -254.5 77t-94.5 211q0 127 97 224q95 92 303 92h385l8 61q40 297 -250 297q-127 0 -212 -57.5t-105 -157.5h-115q58 246 313 305
q-53 59 -53 142q0 95 63 161t160 66q91 0 148 -57t57 -148q0 -111 -82 -178q111 -42 162 -141.5t31 -241.5l-62 -451q-7 -51 3.5 -69.5t46.5 -18.5zM655 1311q-55 0 -89 -38.5t-34 -98.5q0 -53 31 -83t78 -30q55 0 89 38t34 95q0 52 -30 84.5t-79 32.5zM825 410l11 75h-377
q-138 0 -205.5 -57t-67.5 -158q0 -188 250 -188q136 0 252 82q116 84 137 246z" />
    <glyph glyph-name="AEacute" unicode="&#x1fc;" horiz-adv-x="1986" 
d="M1407 1587l190 250h160l-225 -250h-125zM-61 0l1124 1434h936l-17 -121h-757l-74 -531h578l-17 -118h-577l-78 -543h801l-17 -121h-926l54 379h-588l-297 -379h-145zM473 498h512l113 794z" />
    <glyph glyph-name="aeacute" unicode="&#x1fd;" horiz-adv-x="1933" 
d="M1266 1421l-226 -250h-125l191 250h160zM1391 1044q223 0 346 -141q119 -140 92 -368l-8 -66h-871q-20 -181 69 -282t253 -101q127 0 231.5 63t147.5 166h127q-54 -150 -190.5 -240.5t-313.5 -90.5q-152 0 -259 69t-151 201q-45 -120 -167.5 -197t-278.5 -77
q-158 0 -257.5 75t-99.5 203q0 42 10.5 82t38 82t70 73.5t112.5 51.5t159 20h391l8 62q23 155 -50.5 236t-213.5 81q-126 0 -211.5 -64t-106.5 -165h-108q35 156 150.5 241.5t277.5 85.5q135 0 229.5 -59.5t126.5 -167.5q155 227 447 227zM1718 567q17 174 -74.5 275.5
t-252.5 101.5q-160 0 -276.5 -100.5t-151.5 -276.5h755zM823 434l4 35h-381q-130 0 -195 -56t-65 -147q0 -93 66.5 -139.5t173.5 -46.5q53 0 104 12t101 39t88.5 67t66.5 100.5t37 135.5z" />
    <glyph glyph-name="Oslashacute" unicode="&#x1fe;" horiz-adv-x="1583" 
d="M1120 1794l-225 -250h-125l191 250h159zM1311 1307q194 -179 194 -504q0 -338 -227 -580q-231 -243 -539 -243q-192 0 -329 88l-50 -68h-131l97 131q-195 180 -195 500q0 338 229 579q229 244 537 244q183 0 330 -84l47 64h131zM264 631q0 -254 135 -398l754 1033
q-112 69 -264 69q-252 0 -438 -207q-187 -205 -187 -497zM748 98q251 0 440 207q184 205 184 498q0 251 -137 397l-752 -1032q110 -70 265 -70z" />
    <glyph glyph-name="Scommaaccent" unicode="&#x218;" horiz-adv-x="1214" 
d="M1188 1051h-133q8 134 -83 211t-272 77q-166 0 -271 -80t-105 -212q0 -197 243 -246l201 -41q340 -70 340 -365q0 -193 -158 -305q-155 -110 -385 -110q-237 0 -375 108q-139 109 -124 295h133q-8 -134 86 -211.5t280 -77.5q175 0 293 80q117 80 117 213q0 199 -244 252
l-201 41q-340 67 -340 358q0 193 148 305q147 111 362 111q229 0 367 -108q136 -109 121 -295zM393 -270l23 159h159l-22 -159l-86 -172h-90l88 172h-72z" />
    <glyph glyph-name="scommaaccent" unicode="&#x219;" horiz-adv-x="1011" 
d="M596 557q146 -36 209 -99.5t63 -168.5q0 -141 -117 -225t-305 -84q-178 0 -281.5 83t-103.5 230h117q15 -213 277 -213q135 0 212.5 53.5t77.5 147.5q0 71 -43.5 108.5t-142.5 63.5l-156 39q-129 33 -195.5 92.5t-66.5 163.5q0 136 109.5 216t290.5 80q173 0 272.5 -83.5
t99.5 -229.5h-112q0 102 -69.5 157.5t-194.5 55.5q-127 0 -201 -50.5t-74 -135.5q0 -80 53 -111q48 -31 131 -51zM332 -270l22 159h160l-22 -159l-86 -172h-91l88 172h-71z" />
    <glyph glyph-name="uni021A" unicode="&#x21a;" horiz-adv-x="1255" 
d="M168 1434h1161l-16 -121h-520l-185 -1313h-123l185 1313h-518zM444 -268l23 159h160l-23 -159l-86 -172h-90l88 172h-72z" />
    <glyph glyph-name="uni021B" unicode="&#x21b;" horiz-adv-x="659" 
d="M387 918l-92 -693q-8 -63 13 -89.5t87 -26.5h123l-14 -109h-137q-104 0 -155 59t-34 177l92 682h-196l14 106h107q91 0 100 74l24 188h117l-35 -262h242l-14 -106h-242zM223 -260l23 160h160l-23 -160l-86 -172h-90l88 172h-72z" />
    <glyph glyph-name="uni0237" unicode="&#x237;" horiz-adv-x="460" 
d="M199 -207q-13 -109 -73 -156t-177 -47h-135l14 109h127q67 0 94 23t35 83l164 1219h117z" />
    <glyph glyph-name="uni02BB" unicode="&#x2bb;" horiz-adv-x="288" 
d="M358 1571l-88 -172h72l-23 -160h-159l22 160l86 172h90z" />
    <glyph glyph-name="uni02BC" unicode="&#x2bc;" horiz-adv-x="546" 
d="M471 1495l-98 -348h-86l45 348h139z" />
    <glyph glyph-name="caron" unicode="&#x2c7;" horiz-adv-x="661" 
d="M715 1454l-234 -250h-133l-155 250h126l105 -158l149 158h142z" />
    <glyph glyph-name="dotaccent" unicode="&#x2d9;" horiz-adv-x="368" 
d="M201 1274l20 160h174l-20 -160h-174z" />
    <glyph glyph-name="ring" unicode="&#x2da;" horiz-adv-x="520" 
d="M356 1079q-88 0 -146 57.5t-58 147.5q0 95 63 161t160 66q91 0 148 -56.5t57 -147.5q0 -98 -65 -163t-159 -65zM358 1171q54 0 88.5 38.5t34.5 95.5q0 52 -29.5 84t-78.5 32q-55 0 -89 -38.5t-34 -98.5q0 -53 31 -83t77 -30z" />
    <glyph glyph-name="ogonek" unicode="&#x2db;" horiz-adv-x="415" 
d="M233 -272q-34 -20 -77 -23.5t-79 7t-59.5 38.5t-19.5 68q0 124 195 207l83 -25q-89 -42 -127 -77t-38 -73q0 -49 61 -49q43 0 74 17z" />
    <glyph glyph-name="hungarumlaut" unicode="&#x2dd;" horiz-adv-x="657" 
d="M160 1204l190 250h156l-225 -250h-121zM395 1204l232 250h155l-266 -250h-121z" />
    <glyph glyph-name="gravecomb" unicode="&#x300;" horiz-adv-x="0" 
d="M72 1204h-125l-226 250h160z" />
    <glyph glyph-name="acutecomb" unicode="&#x301;" horiz-adv-x="0" 
d="M-225 1204l190 250h160l-225 -250h-125z" />
    <glyph glyph-name="uni0302" unicode="&#x302;" horiz-adv-x="0" 
d="M-502 1204l226 250h133l159 -250h-131l-106 158l-146 -158h-135z" />
    <glyph glyph-name="tildecomb" unicode="&#x303;" horiz-adv-x="0" 
d="M-281 1427q54 0 123 -34q67 -37 97 -37q64 0 79 74h93q-7 -90 -53 -139.5t-119 -49.5q-51 0 -121 37q-72 35 -99 35q-67 0 -79 -74h-93q6 87 52.5 137.5t119.5 50.5z" />
    <glyph glyph-name="uni0306" unicode="&#x306;" horiz-adv-x="0" 
d="M-20 1454h112q-10 -112 -86.5 -181t-189.5 -69q-117 0 -182.5 68.5t-57.5 181.5h107q-4 -66 29 -104.5t95 -38.5q73 0 119.5 38t53.5 105z" />
    <glyph glyph-name="hookabovecomb" unicode="&#x309;" horiz-adv-x="0" 
d="M-178 1403q64 0 102 -35.5t31 -91.5q-9 -57 -57.5 -105.5t-122.5 -80.5l-37 57q91 48 100 100q3 30 -13 48t-50 18q-38 0 -72 -17l-16 70q65 37 135 37z" />
    <glyph glyph-name="horncomb" unicode="&#x31b;" horiz-adv-x="0" 
d="M-301 918l14 106q70 0 116.5 38t55.5 105h109q-15 -108 -98.5 -178.5t-196.5 -70.5z" />
    <glyph glyph-name="dotbelowcomb" unicode="&#x323;" horiz-adv-x="0" 
d="M-313 -322l20 160h174l-20 -160h-174z" />
    <glyph glyph-name="uni0326" unicode="&#x326;" horiz-adv-x="0" 
d="M-330 -37h160l-23 -160l-86 -172h-90l88 172h-71z" />
    <glyph glyph-name="uni0335" unicode="&#x335;" horiz-adv-x="0" 
d="M-569 627h565l-16 -115h-566z" />
    <glyph glyph-name="uni0336" unicode="&#x336;" horiz-adv-x="0" 
d="M-1163 627h989l-10 -119h-990z" />
    <glyph glyph-name="uni0337" unicode="&#x337;" horiz-adv-x="0" 
d="M-969 -45l992 1110h118l-991 -1110h-119z" />
    <glyph glyph-name="uni0338" unicode="&#x338;" horiz-adv-x="0" 
d="M-1130 0l1122 1434h131l-1122 -1434h-131z" />
    <glyph glyph-name="pi" unicode="&#x3c0;" horiz-adv-x="1306" 
d="M1212 905h-211v-706q0 -78 76 -78h135v-121h-114q-102 0 -158.5 52.5t-56.5 154.5v698h-441v-905h-118v905h-193v119h1081v-119z" />
    <glyph glyph-name="Wgrave" unicode="&#x1e80;" horiz-adv-x="1939" 
d="M1169 1544h-125l-225 250h160zM342 0l-186 1434h125l159 -1264l584 1264h137l154 -1264l579 1264h131l-663 -1434h-143l-158 1245l-576 -1245h-143z" />
    <glyph glyph-name="wgrave" unicode="&#x1e81;" horiz-adv-x="1544" 
d="M922 1176h-125l-226 249h160zM233 1024l127 -881l416 881h123l180 -881l363 881h125l-437 -1024h-137l-172 879l-413 -879h-138l-159 1024h122z" />
    <glyph glyph-name="Wacute" unicode="&#x1e82;" horiz-adv-x="1939" 
d="M1044 1544l191 250h160l-226 -250h-125zM342 0l-186 1434h125l159 -1264l584 1264h137l154 -1264l579 1264h131l-663 -1434h-143l-158 1245l-576 -1245h-143z" />
    <glyph glyph-name="wacute" unicode="&#x1e83;" horiz-adv-x="1544" 
d="M797 1176l190 249h160l-225 -249h-125zM233 1024l127 -881l416 881h123l180 -881l363 881h125l-437 -1024h-137l-172 879l-413 -879h-138l-159 1024h122z" />
    <glyph glyph-name="Wdieresis" unicode="&#x1e84;" horiz-adv-x="1939" 
d="M854 1579l20 158h173l-21 -158h-172zM1200 1579l21 158h172l-21 -158h-172zM342 0l-186 1434h125l159 -1264l584 1264h137l154 -1264l579 1264h131l-663 -1434h-143l-158 1245l-576 -1245h-143z" />
    <glyph glyph-name="wdieresis" unicode="&#x1e85;" horiz-adv-x="1544" 
d="M606 1210l21 158h172l-21 -158h-172zM952 1210l21 158h172l-21 -158h-172zM233 1024l127 -881l416 881h123l180 -881l363 881h125l-437 -1024h-137l-172 879l-413 -879h-138l-159 1024h122z" />
    <glyph glyph-name="uni1EA0" unicode="&#x1ea0;" 
d="M1083 0l-92 379h-700l-199 -379h-137l760 1434h143l356 -1434h-131zM352 498h611l-193 796zM455 -322l20 160h174l-20 -160h-174z" />
    <glyph glyph-name="uni1EA1" unicode="&#x1ea1;" horiz-adv-x="1132" 
d="M961 96h55l-15 -96h-94q-65 0 -92 37t-20 125q-62 -82 -164.5 -132t-218.5 -50q-160 0 -254.5 77t-94.5 211q0 127 97 224q95 92 303 92h385l8 61q40 297 -250 297q-127 0 -212 -57.5t-105 -157.5h-115q35 150 150 233.5t286 83.5q196 0 292.5 -109t70.5 -300l-62 -451
q-7 -51 3.5 -69.5t46.5 -18.5zM825 410l11 75h-377q-138 0 -205.5 -57t-67.5 -158q0 -188 250 -188q136 0 252 82q116 84 137 246zM369 -322l20 160h174l-20 -160h-174z" />
    <glyph glyph-name="uni1EA2" unicode="&#x1ea2;" 
d="M844 1870q64 0 102 -35.5t31 -91.5q-9 -57 -57.5 -106t-122.5 -81l-37 58q91 48 100 100q3 30 -13 48t-50 18q-38 0 -72 -17l-16 70q65 37 135 37zM1083 0l-92 379h-700l-199 -379h-137l760 1434h143l356 -1434h-131zM352 498h611l-193 796z" />
    <glyph glyph-name="uni1EA3" unicode="&#x1ea3;" horiz-adv-x="1132" 
d="M700 1460q64 0 102.5 -35.5t31.5 -91.5q-9 -57 -57.5 -105.5t-123.5 -80.5l-37 57q92 49 101 101q3 30 -13.5 47.5t-50.5 17.5q-39 0 -71 -16l-17 69q65 37 135 37zM961 96h55l-15 -96h-94q-65 0 -92 37t-20 125q-62 -82 -164.5 -132t-218.5 -50q-160 0 -254.5 77
t-94.5 211q0 127 97 224q95 92 303 92h385l8 61q40 297 -250 297q-127 0 -212 -57.5t-105 -157.5h-115q35 150 150 233.5t286 83.5q196 0 292.5 -109t70.5 -300l-62 -451q-7 -51 3.5 -69.5t46.5 -18.5zM825 410l11 75h-377q-138 0 -205.5 -57t-67.5 -158q0 -188 250 -188
q136 0 252 82q116 84 137 246z" />
    <glyph glyph-name="uni1EA4" unicode="&#x1ea4;" 
d="M1063 1698l190 250h160l-225 -250h-125zM530 1565l226 250h133l160 -250h-131l-107 157l-145 -157h-136zM1083 0l-92 379h-700l-199 -379h-137l760 1434h143l356 -1434h-131zM352 498h611l-193 796z" />
    <glyph glyph-name="uni1EA5" unicode="&#x1ea5;" horiz-adv-x="1132" 
d="M920 1288l190 250h160l-226 -250h-124zM387 1155l225 250h133l160 -250h-131l-106 158l-146 -158h-135zM961 96h55l-15 -96h-94q-65 0 -92 37t-20 125q-62 -82 -164.5 -132t-218.5 -50q-160 0 -254.5 77t-94.5 211q0 127 97 224q95 92 303 92h385l8 61q40 297 -250 297
q-127 0 -212 -57.5t-105 -157.5h-115q35 150 150 233.5t286 83.5q196 0 292.5 -109t70.5 -300l-62 -451q-7 -51 3.5 -69.5t46.5 -18.5zM825 410l11 75h-377q-138 0 -205.5 -57t-67.5 -158q0 -188 250 -188q136 0 252 82q116 84 137 246z" />
    <glyph glyph-name="uni1EA6" unicode="&#x1ea6;" 
d="M1214 1737h-124l-226 250h160zM530 1565l226 250h133l160 -250h-131l-107 157l-145 -157h-136zM1083 0l-92 379h-700l-199 -379h-137l760 1434h143l356 -1434h-131zM352 498h611l-193 796z" />
    <glyph glyph-name="uni1EA7" unicode="&#x1ea7;" horiz-adv-x="1132" 
d="M1071 1327h-125l-225 250h160zM387 1155l225 250h133l160 -250h-131l-106 158l-146 -158h-135zM961 96h55l-15 -96h-94q-65 0 -92 37t-20 125q-62 -82 -164.5 -132t-218.5 -50q-160 0 -254.5 77t-94.5 211q0 127 97 224q95 92 303 92h385l8 61q40 297 -250 297
q-127 0 -212 -57.5t-105 -157.5h-115q35 150 150 233.5t286 83.5q196 0 292.5 -109t70.5 -300l-62 -451q-7 -51 3.5 -69.5t46.5 -18.5zM825 410l11 75h-377q-138 0 -205.5 -57t-67.5 -158q0 -188 250 -188q136 0 252 82q116 84 137 246z" />
    <glyph glyph-name="uni1EA8" unicode="&#x1ea8;" 
d="M1130 1993q64 0 102.5 -35.5t31.5 -91.5q-9 -57 -58 -106t-123 -81l-36 58q91 48 100 100q3 30 -13.5 48t-50.5 18q-37 0 -71 -17l-17 70q65 37 135 37zM530 1565l226 250h133l160 -250h-131l-107 157l-145 -157h-136zM1083 0l-92 379h-700l-199 -379h-137l760 1434h143
l356 -1434h-131zM352 498h611l-193 796z" />
    <glyph glyph-name="uni1EA9" unicode="&#x1ea9;" horiz-adv-x="1132" 
d="M987 1583q64 0 102 -35.5t31 -91.5q-9 -57 -57.5 -105.5t-122.5 -80.5l-37 57q92 49 101 100q3 30 -13.5 48t-50.5 18q-40 0 -72 -16l-16 69q65 37 135 37zM387 1155l225 250h133l160 -250h-131l-106 158l-146 -158h-135zM961 96h55l-15 -96h-94q-65 0 -92 37t-20 125
q-62 -82 -164.5 -132t-218.5 -50q-160 0 -254.5 77t-94.5 211q0 127 97 224q95 92 303 92h385l8 61q40 297 -250 297q-127 0 -212 -57.5t-105 -157.5h-115q35 150 150 233.5t286 83.5q196 0 292.5 -109t70.5 -300l-62 -451q-7 -51 3.5 -69.5t46.5 -18.5zM825 410l11 75h-377
q-138 0 -205.5 -57t-67.5 -158q0 -188 250 -188q136 0 252 82q116 84 137 246z" />
    <glyph glyph-name="uni1EAA" unicode="&#x1eaa;" 
d="M721 2044q51 0 123 -35q67 -37 96 -37q65 0 80 74h92q-7 -90 -53 -139t-119 -49q-53 0 -121 36q-72 35 -98 35q-68 0 -80 -74h-92q6 87 53 138t119 51zM530 1565l226 250h133l160 -250h-131l-107 157l-145 -157h-136zM1083 0l-92 379h-700l-199 -379h-137l760 1434h143
l356 -1434h-131zM352 498h611l-193 796z" />
    <glyph glyph-name="uni1EAB" unicode="&#x1eab;" horiz-adv-x="1132" 
d="M578 1634q50 0 122 -35q65 -36 97 -36q65 0 80 73h92q-7 -90 -53 -139t-119 -49q-51 0 -121 37q-72 35 -98 35q-68 0 -80 -74h-92q6 87 52.5 137.5t119.5 50.5zM387 1155l225 250h133l160 -250h-131l-106 158l-146 -158h-135zM961 96h55l-15 -96h-94q-65 0 -92 37
t-20 125q-62 -82 -164.5 -132t-218.5 -50q-160 0 -254.5 77t-94.5 211q0 127 97 224q95 92 303 92h385l8 61q40 297 -250 297q-127 0 -212 -57.5t-105 -157.5h-115q35 150 150 233.5t286 83.5q196 0 292.5 -109t70.5 -300l-62 -451q-7 -51 3.5 -69.5t46.5 -18.5zM825 410
l11 75h-377q-138 0 -205.5 -57t-67.5 -158q0 -188 250 -188q136 0 252 82q116 84 137 246z" />
    <glyph glyph-name="uni1EAC" unicode="&#x1eac;" 
d="M530 1565l226 250h133l160 -250h-131l-107 157l-145 -157h-136zM1083 0l-92 379h-700l-199 -379h-137l760 1434h143l356 -1434h-131zM352 498h611l-193 796zM455 -322l20 160h174l-20 -160h-174z" />
    <glyph glyph-name="uni1EAD" unicode="&#x1ead;" horiz-adv-x="1132" 
d="M387 1155l225 250h133l160 -250h-131l-106 158l-146 -158h-135zM961 96h55l-15 -96h-94q-65 0 -92 37t-20 125q-62 -82 -164.5 -132t-218.5 -50q-160 0 -254.5 77t-94.5 211q0 127 97 224q95 92 303 92h385l8 61q40 297 -250 297q-127 0 -212 -57.5t-105 -157.5h-115
q35 150 150 233.5t286 83.5q196 0 292.5 -109t70.5 -300l-62 -451q-7 -51 3.5 -69.5t46.5 -18.5zM825 410l11 75h-377q-138 0 -205.5 -57t-67.5 -158q0 -188 250 -188q136 0 252 82q116 84 137 246zM369 -322l20 160h174l-20 -160h-174z" />
    <glyph glyph-name="uni1EAE" unicode="&#x1eae;" 
d="M764 1866l190 250h160l-225 -250h-125zM975 1812h112q-10 -112 -86.5 -180.5t-189.5 -68.5q-117 0 -182.5 68t-57.5 181h107q-4 -66 29.5 -104.5t95.5 -38.5q72 0 118.5 38t53.5 105zM1083 0l-92 379h-700l-199 -379h-137l760 1434h143l356 -1434h-131zM352 498h611
l-193 796z" />
    <glyph glyph-name="uni1EAF" unicode="&#x1eaf;" horiz-adv-x="1132" 
d="M621 1456l190 250h160l-226 -250h-124zM831 1403h113q-10 -112 -86.5 -181t-189.5 -69q-117 0 -182.5 68.5t-57.5 181.5h107q-4 -66 29 -104.5t95 -38.5q72 0 118.5 38t53.5 105zM961 96h55l-15 -96h-94q-65 0 -92 37t-20 125q-62 -82 -164.5 -132t-218.5 -50
q-160 0 -254.5 77t-94.5 211q0 127 97 224q95 92 303 92h385l8 61q40 297 -250 297q-127 0 -212 -57.5t-105 -157.5h-115q35 150 150 233.5t286 83.5q196 0 292.5 -109t70.5 -300l-62 -451q-7 -51 3.5 -69.5t46.5 -18.5zM825 410l11 75h-377q-138 0 -205.5 -57t-67.5 -158
q0 -188 250 -188q136 0 252 82q116 84 137 246z" />
    <glyph glyph-name="uni1EB0" unicode="&#x1eb0;" 
d="M889 1858h-125l-225 249h159zM975 1812h112q-10 -112 -86.5 -180.5t-189.5 -68.5q-117 0 -182.5 68t-57.5 181h107q-4 -66 29.5 -104.5t95.5 -38.5q72 0 118.5 38t53.5 105zM1083 0l-92 379h-700l-199 -379h-137l760 1434h143l356 -1434h-131zM352 498h611l-193 796z" />
    <glyph glyph-name="uni1EB1" unicode="&#x1eb1;" horiz-adv-x="1132" 
d="M745 1448h-124l-226 250h160zM831 1403h113q-10 -112 -86.5 -181t-189.5 -69q-117 0 -182.5 68.5t-57.5 181.5h107q-4 -66 29 -104.5t95 -38.5q72 0 118.5 38t53.5 105zM961 96h55l-15 -96h-94q-65 0 -92 37t-20 125q-62 -82 -164.5 -132t-218.5 -50q-160 0 -254.5 77
t-94.5 211q0 127 97 224q95 92 303 92h385l8 61q40 297 -250 297q-127 0 -212 -57.5t-105 -157.5h-115q35 150 150 233.5t286 83.5q196 0 292.5 -109t70.5 -300l-62 -451q-7 -51 3.5 -69.5t46.5 -18.5zM825 410l11 75h-377q-138 0 -205.5 -57t-67.5 -158q0 -188 250 -188
q136 0 252 82q116 84 137 246z" />
    <glyph glyph-name="uni1EB2" unicode="&#x1eb2;" 
d="M870 2142q64 0 102.5 -35.5t31.5 -91.5q-9 -57 -57.5 -105.5t-123.5 -80.5l-37 57q92 49 101 101q3 30 -13.5 47.5t-50.5 17.5q-39 0 -71 -16l-17 69q65 37 135 37zM975 1812h112q-10 -112 -86.5 -180.5t-189.5 -68.5q-117 0 -182.5 68t-57.5 181h107q-4 -66 29.5 -104.5
t95.5 -38.5q72 0 118.5 38t53.5 105zM1083 0l-92 379h-700l-199 -379h-137l760 1434h143l356 -1434h-131zM352 498h611l-193 796z" />
    <glyph glyph-name="uni1EB3" unicode="&#x1eb3;" horiz-adv-x="1132" 
d="M727 1733q64 0 102 -35.5t31 -91.5q-9 -57 -57.5 -106t-122.5 -81l-37 58q91 48 100 100q3 30 -13 47.5t-50 17.5q-40 0 -72 -16l-16 70q65 37 135 37zM831 1403h113q-10 -112 -86.5 -181t-189.5 -69q-117 0 -182.5 68.5t-57.5 181.5h107q-4 -66 29 -104.5t95 -38.5
q72 0 118.5 38t53.5 105zM961 96h55l-15 -96h-94q-65 0 -92 37t-20 125q-62 -82 -164.5 -132t-218.5 -50q-160 0 -254.5 77t-94.5 211q0 127 97 224q95 92 303 92h385l8 61q40 297 -250 297q-127 0 -212 -57.5t-105 -157.5h-115q35 150 150 233.5t286 83.5q196 0 292.5 -109
t70.5 -300l-62 -451q-7 -51 3.5 -69.5t46.5 -18.5zM825 410l11 75h-377q-138 0 -205.5 -57t-67.5 -158q0 -188 250 -188q136 0 252 82q116 84 137 246z" />
    <glyph glyph-name="uni1EB4" unicode="&#x1eb4;" 
d="M760 2068q54 0 123 -34q67 -37 96 -37q65 0 80 74h92q-7 -90 -53 -139.5t-119 -49.5q-51 0 -121 37q-72 35 -98 35q-68 0 -80 -74h-92q6 87 52.5 137.5t119.5 50.5zM975 1812h112q-10 -112 -86.5 -180.5t-189.5 -68.5q-117 0 -182.5 68t-57.5 181h107q-4 -66 29.5 -104.5
t95.5 -38.5q72 0 118.5 38t53.5 105zM1083 0l-92 379h-700l-199 -379h-137l760 1434h143l356 -1434h-131zM352 498h611l-193 796z" />
    <glyph glyph-name="uni1EB5" unicode="&#x1eb5;" horiz-adv-x="1132" 
d="M616 1659q51 0 123 -35q67 -37 97 -37q64 0 79 74h93q-7 -90 -53 -139t-119 -49q-53 0 -121 36q-72 35 -99 35q-67 0 -79 -74h-93q6 87 53 138t119 51zM831 1403h113q-10 -112 -86.5 -181t-189.5 -69q-117 0 -182.5 68.5t-57.5 181.5h107q-4 -66 29 -104.5t95 -38.5
q72 0 118.5 38t53.5 105zM961 96h55l-15 -96h-94q-65 0 -92 37t-20 125q-62 -82 -164.5 -132t-218.5 -50q-160 0 -254.5 77t-94.5 211q0 127 97 224q95 92 303 92h385l8 61q40 297 -250 297q-127 0 -212 -57.5t-105 -157.5h-115q35 150 150 233.5t286 83.5q196 0 292.5 -109
t70.5 -300l-62 -451q-7 -51 3.5 -69.5t46.5 -18.5zM825 410l11 75h-377q-138 0 -205.5 -57t-67.5 -158q0 -188 250 -188q136 0 252 82q116 84 137 246z" />
    <glyph glyph-name="uni1EB6" unicode="&#x1eb6;" 
d="M975 1812h112q-10 -112 -86.5 -180.5t-189.5 -68.5q-117 0 -182.5 68t-57.5 181h107q-4 -66 29.5 -104.5t95.5 -38.5q72 0 118.5 38t53.5 105zM1083 0l-92 379h-700l-199 -379h-137l760 1434h143l356 -1434h-131zM352 498h611l-193 796zM455 -322l20 160h174l-20 -160
h-174z" />
    <glyph glyph-name="uni1EB7" unicode="&#x1eb7;" horiz-adv-x="1132" 
d="M831 1403h113q-10 -112 -86.5 -181t-189.5 -69q-117 0 -182.5 68.5t-57.5 181.5h107q-4 -66 29 -104.5t95 -38.5q72 0 118.5 38t53.5 105zM961 96h55l-15 -96h-94q-65 0 -92 37t-20 125q-62 -82 -164.5 -132t-218.5 -50q-160 0 -254.5 77t-94.5 211q0 127 97 224
q95 92 303 92h385l8 61q40 297 -250 297q-127 0 -212 -57.5t-105 -157.5h-115q35 150 150 233.5t286 83.5q196 0 292.5 -109t70.5 -300l-62 -451q-7 -51 3.5 -69.5t46.5 -18.5zM825 410l11 75h-377q-138 0 -205.5 -57t-67.5 -158q0 -188 250 -188q136 0 252 82
q116 84 137 246zM369 -322l20 160h174l-20 -160h-174z" />
    <glyph glyph-name="uni1EB8" unicode="&#x1eb8;" horiz-adv-x="1210" 
d="M1192 1313h-793l-71 -531h630l-16 -118h-631l-73 -543h843l-16 -121h-967l193 1434h917zM408 -322l20 160h174l-20 -160h-174z" />
    <glyph glyph-name="uni1EB9" unicode="&#x1eb9;" horiz-adv-x="1218" 
d="M1106 477h-868v-35q0 -169 88 -262.5t243 -93.5q282 0 383 229h121q-44 -151 -184 -239q-145 -92 -311 -92q-208 0 -334 129q-127 127 -127 342q0 259 159 426q156 163 398 163q208 0 324 -126.5t116 -339.5q0 -57 -8 -101zM653 944q-141 0 -254 -98q-115 -100 -149 -268
h743q-1 188 -86 277t-254 89zM412 -322l20 160h174l-20 -160h-174z" />
    <glyph glyph-name="uni1EBA" unicode="&#x1eba;" horiz-adv-x="1210" 
d="M797 1870q64 0 102 -35.5t31 -91.5q-9 -57 -57.5 -106t-122.5 -81l-37 58q91 48 100 100q3 30 -13 48t-50 18q-38 0 -72 -17l-16 70q65 37 135 37zM1192 1313h-793l-71 -531h630l-16 -118h-631l-73 -543h843l-16 -121h-967l193 1434h917z" />
    <glyph glyph-name="uni1EBB" unicode="&#x1ebb;" horiz-adv-x="1218" 
d="M743 1460q64 0 102.5 -35.5t31.5 -91.5q-9 -57 -57.5 -105.5t-123.5 -80.5l-37 57q92 49 101 101q3 30 -13.5 47.5t-50.5 17.5q-39 0 -71 -16l-17 69q65 37 135 37zM1106 477h-868v-35q0 -169 88 -262.5t243 -93.5q282 0 383 229h121q-44 -151 -184 -239
q-145 -92 -311 -92q-208 0 -334 129q-127 127 -127 342q0 259 159 426q156 163 398 163q208 0 324 -126.5t116 -339.5q0 -57 -8 -101zM653 944q-141 0 -254 -98q-115 -100 -149 -268h743q-1 188 -86 277t-254 89z" />
    <glyph glyph-name="uni1EBC" unicode="&#x1ebc;" horiz-adv-x="1210" 
d="M649 1751q51 0 123 -35q67 -37 96 -37q65 0 80 74h92q-7 -90 -53 -139t-119 -49q-50 0 -120 37q-69 34 -99 34q-68 0 -80 -73h-92q6 87 52.5 137.5t119.5 50.5zM1192 1313h-793l-71 -531h630l-16 -118h-631l-73 -543h843l-16 -121h-967l193 1434h917z" />
    <glyph glyph-name="uni1EBD" unicode="&#x1ebd;" horiz-adv-x="1218" 
d="M596 1341q54 0 123 -34q67 -37 96 -37q65 0 80 73h92q-7 -90 -53 -139t-119 -49q-51 0 -121 37q-72 35 -98 35q-68 0 -80 -74h-92q6 87 52.5 137.5t119.5 50.5zM1106 477h-868v-35q0 -169 88 -262.5t243 -93.5q282 0 383 229h121q-44 -151 -184 -239q-145 -92 -311 -92
q-208 0 -334 129q-127 127 -127 342q0 259 159 426q156 163 398 163q208 0 324 -126.5t116 -339.5q0 -57 -8 -101zM653 944q-141 0 -254 -98q-115 -100 -149 -268h743q-1 188 -86 277t-254 89z" />
    <glyph glyph-name="uni1EBE" unicode="&#x1ebe;" horiz-adv-x="1210" 
d="M1016 1698l190 250h160l-225 -250h-125zM483 1565l226 250h133l159 -250h-131l-106 157l-146 -157h-135zM1192 1313h-793l-71 -531h630l-16 -118h-631l-73 -543h843l-16 -121h-967l193 1434h917z" />
    <glyph glyph-name="uni1EBF" unicode="&#x1ebf;" horiz-adv-x="1218" 
d="M963 1288l190 250h160l-226 -250h-124zM430 1155l225 250h133l160 -250h-131l-106 158l-146 -158h-135zM1106 477h-868v-35q0 -169 88 -262.5t243 -93.5q282 0 383 229h121q-44 -151 -184 -239q-145 -92 -311 -92q-208 0 -334 129q-127 127 -127 342q0 259 159 426
q156 163 398 163q208 0 324 -126.5t116 -339.5q0 -57 -8 -101zM653 944q-141 0 -254 -98q-115 -100 -149 -268h743q-1 188 -86 277t-254 89z" />
    <glyph glyph-name="uni1EC0" unicode="&#x1ec0;" horiz-adv-x="1210" 
d="M1167 1737h-125l-225 250h160zM483 1565l226 250h133l159 -250h-131l-106 157l-146 -157h-135zM1192 1313h-793l-71 -531h630l-16 -118h-631l-73 -543h843l-16 -121h-967l193 1434h917z" />
    <glyph glyph-name="uni1EC1" unicode="&#x1ec1;" horiz-adv-x="1218" 
d="M1114 1327h-125l-225 250h160zM430 1155l225 250h133l160 -250h-131l-106 158l-146 -158h-135zM1106 477h-868v-35q0 -169 88 -262.5t243 -93.5q282 0 383 229h121q-44 -151 -184 -239q-145 -92 -311 -92q-208 0 -334 129q-127 127 -127 342q0 259 159 426
q156 163 398 163q208 0 324 -126.5t116 -339.5q0 -57 -8 -101zM653 944q-141 0 -254 -98q-115 -100 -149 -268h743q-1 188 -86 277t-254 89z" />
    <glyph glyph-name="uni1EC2" unicode="&#x1ec2;" horiz-adv-x="1210" 
d="M1083 1993q64 0 102.5 -35.5t31.5 -91.5q-9 -57 -58 -106t-123 -81l-37 58q92 49 101 100q3 30 -13.5 48t-50.5 18q-37 0 -71 -17l-17 70q65 37 135 37zM483 1565l226 250h133l159 -250h-131l-106 157l-146 -157h-135zM1192 1313h-793l-71 -531h630l-16 -118h-631
l-73 -543h843l-16 -121h-967l193 1434h917z" />
    <glyph glyph-name="uni1EC3" unicode="&#x1ec3;" horiz-adv-x="1218" 
d="M1030 1583q64 0 102 -35.5t31 -91.5q-9 -57 -57.5 -105.5t-122.5 -80.5l-37 57q92 49 101 100q3 30 -13.5 48t-50.5 18q-40 0 -72 -16l-16 69q65 37 135 37zM430 1155l225 250h133l160 -250h-131l-106 158l-146 -158h-135zM1106 477h-868v-35q0 -169 88 -262.5t243 -93.5
q282 0 383 229h121q-44 -151 -184 -239q-145 -92 -311 -92q-208 0 -334 129q-127 127 -127 342q0 259 159 426q156 163 398 163q208 0 324 -126.5t116 -339.5q0 -57 -8 -101zM653 944q-141 0 -254 -98q-115 -100 -149 -268h743q-1 188 -86 277t-254 89z" />
    <glyph glyph-name="uni1EC4" unicode="&#x1ec4;" horiz-adv-x="1210" 
d="M674 2044q51 0 123 -35q67 -37 96 -37q65 0 80 74h92q-7 -90 -53 -139t-119 -49q-53 0 -121 36q-72 35 -98 35q-68 0 -80 -74h-92q6 87 53 138t119 51zM483 1565l226 250h133l159 -250h-131l-106 157l-146 -157h-135zM1192 1313h-793l-71 -531h630l-16 -118h-631
l-73 -543h843l-16 -121h-967l193 1434h917z" />
    <glyph glyph-name="uni1EC5" unicode="&#x1ec5;" horiz-adv-x="1218" 
d="M621 1634q50 0 122 -35q65 -36 97 -36q65 0 80 73h92q-7 -90 -53 -139t-119 -49q-51 0 -121 37q-72 35 -98 35q-68 0 -80 -74h-92q6 87 52.5 137.5t119.5 50.5zM430 1155l225 250h133l160 -250h-131l-106 158l-146 -158h-135zM1106 477h-868v-35q0 -169 88 -262.5
t243 -93.5q282 0 383 229h121q-44 -151 -184 -239q-145 -92 -311 -92q-208 0 -334 129q-127 127 -127 342q0 259 159 426q156 163 398 163q208 0 324 -126.5t116 -339.5q0 -57 -8 -101zM653 944q-141 0 -254 -98q-115 -100 -149 -268h743q-1 188 -86 277t-254 89z" />
    <glyph glyph-name="uni1EC6" unicode="&#x1ec6;" horiz-adv-x="1210" 
d="M483 1565l226 250h133l159 -250h-131l-106 157l-146 -157h-135zM1192 1313h-793l-71 -531h630l-16 -118h-631l-73 -543h843l-16 -121h-967l193 1434h917zM408 -322l20 160h174l-20 -160h-174z" />
    <glyph glyph-name="uni1EC7" unicode="&#x1ec7;" horiz-adv-x="1218" 
d="M430 1155l225 250h133l160 -250h-131l-106 158l-146 -158h-135zM1106 477h-868v-35q0 -169 88 -262.5t243 -93.5q282 0 383 229h121q-44 -151 -184 -239q-145 -92 -311 -92q-208 0 -334 129q-127 127 -127 342q0 259 159 426q156 163 398 163q208 0 324 -126.5
t116 -339.5q0 -57 -8 -101zM653 944q-141 0 -254 -98q-115 -100 -149 -268h743q-1 188 -86 277t-254 89zM412 -322l20 160h174l-20 -160h-174z" />
    <glyph glyph-name="uni1EC8" unicode="&#x1ec8;" horiz-adv-x="460" 
d="M422 1870q64 0 102 -35.5t31 -91.5q-9 -57 -57.5 -106t-122.5 -81l-37 58q91 48 100 100q3 30 -13 48t-50 18q-38 0 -72 -17l-16 70q65 37 135 37zM416 1434l-193 -1434h-125l193 1434h125z" />
    <glyph glyph-name="uni1EC9" unicode="&#x1ec9;" horiz-adv-x="432" 
d="M350 1460q64 0 102 -35.5t31 -91.5q-9 -57 -57.5 -105.5t-122.5 -80.5l-37 57q92 49 101 101q3 30 -13.5 47.5t-50.5 17.5q-40 0 -72 -16l-16 69q65 37 135 37zM86 0l143 1024h117l-143 -1024h-117z" />
    <glyph glyph-name="uni1ECA" unicode="&#x1eca;" horiz-adv-x="460" 
d="M416 1434l-193 -1434h-125l193 1434h125zM33 -322l20 160h174l-20 -160h-174z" />
    <glyph glyph-name="uni1ECB" unicode="&#x1ecb;" horiz-adv-x="432" 
d="M231 1274l23 160h174l-22 -160h-175zM88 0l137 1024h117l-137 -1024h-117zM18 -322l21 160h174l-20 -160h-175z" />
    <glyph glyph-name="uni1ECC" unicode="&#x1ecc;" horiz-adv-x="1558" 
d="M119 631q0 338 229 579q229 244 537 244q277 0 444 -176q164 -179 164 -475q0 -338 -227 -580q-231 -243 -539 -243q-277 0 -442 180q-166 178 -166 471zM1360 803q0 243 -129 387q-130 145 -354 145q-253 0 -439 -207q-186 -204 -186 -497q0 -246 128.5 -389.5
t354.5 -143.5q252 0 441 207q184 205 184 498zM582 -322l20 160h174l-20 -160h-174z" />
    <glyph glyph-name="uni1ECD" unicode="&#x1ecd;" horiz-adv-x="1222" 
d="M106 455q0 241 156 417q156 172 391 172q200 0 330 -124q133 -127 133 -351q0 -243 -153 -415q-155 -174 -392 -174q-199 0 -329 124q-136 127 -136 351zM565 82q181 0 305 139q123 138 123 346q0 175 -92 275t-244 100q-181 0 -305 -139q-123 -138 -123 -346
q0 -175 92 -275t244 -100zM414 -322l20 160h174l-20 -160h-174z" />
    <glyph glyph-name="uni1ECE" unicode="&#x1ece;" horiz-adv-x="1558" 
d="M971 1870q64 0 102 -35.5t31 -91.5q-9 -57 -57.5 -106t-122.5 -81l-37 58q91 48 100 100q3 30 -13 48t-50 18q-38 0 -72 -17l-16 70q65 37 135 37zM119 631q0 338 229 579q229 244 537 244q277 0 444 -176q164 -179 164 -475q0 -338 -227 -580q-231 -243 -539 -243
q-277 0 -442 180q-166 178 -166 471zM1360 803q0 243 -129 387q-130 145 -354 145q-253 0 -439 -207q-186 -204 -186 -497q0 -246 128.5 -389.5t354.5 -143.5q252 0 441 207q184 205 184 498z" />
    <glyph glyph-name="uni1ECF" unicode="&#x1ecf;" horiz-adv-x="1222" 
d="M745 1460q64 0 102.5 -35.5t31.5 -91.5q-9 -57 -57.5 -105.5t-123.5 -80.5l-36 57q91 48 100 101q3 30 -13.5 47.5t-50.5 17.5q-39 0 -71 -16l-17 69q65 37 135 37zM106 455q0 241 156 417q156 172 391 172q200 0 330 -124q133 -127 133 -351q0 -243 -153 -415
q-155 -174 -392 -174q-199 0 -329 124q-136 127 -136 351zM565 82q181 0 305 139q123 138 123 346q0 175 -92 275t-244 100q-181 0 -305 -139q-123 -138 -123 -346q0 -175 92 -275t244 -100z" />
    <glyph glyph-name="uni1ED0" unicode="&#x1ed0;" horiz-adv-x="1558" 
d="M1190 1698l190 250h160l-225 -250h-125zM657 1565l226 250h133l160 -250h-132l-106 157l-145 -157h-136zM119 631q0 338 229 579q229 244 537 244q277 0 444 -176q164 -179 164 -475q0 -338 -227 -580q-231 -243 -539 -243q-277 0 -442 180q-166 178 -166 471zM1360 803
q0 243 -129 387q-130 145 -354 145q-253 0 -439 -207q-186 -204 -186 -497q0 -246 128.5 -389.5t354.5 -143.5q252 0 441 207q184 205 184 498z" />
    <glyph glyph-name="uni1ED1" unicode="&#x1ed1;" horiz-adv-x="1222" 
d="M965 1288l190 250h160l-225 -250h-125zM432 1155l225 250h134l159 -250h-131l-106 158l-146 -158h-135zM106 455q0 241 156 417q156 172 391 172q200 0 330 -124q133 -127 133 -351q0 -243 -153 -415q-155 -174 -392 -174q-199 0 -329 124q-136 127 -136 351zM565 82
q181 0 305 139q123 138 123 346q0 175 -92 275t-244 100q-181 0 -305 -139q-123 -138 -123 -346q0 -175 92 -275t244 -100z" />
    <glyph glyph-name="uni1ED2" unicode="&#x1ed2;" horiz-adv-x="1558" 
d="M1341 1737h-124l-226 250h160zM657 1565l226 250h133l160 -250h-132l-106 157l-145 -157h-136zM119 631q0 338 229 579q229 244 537 244q277 0 444 -176q164 -179 164 -475q0 -338 -227 -580q-231 -243 -539 -243q-277 0 -442 180q-166 178 -166 471zM1360 803
q0 243 -129 387q-130 145 -354 145q-253 0 -439 -207q-186 -204 -186 -497q0 -246 128.5 -389.5t354.5 -143.5q252 0 441 207q184 205 184 498z" />
    <glyph glyph-name="uni1ED3" unicode="&#x1ed3;" horiz-adv-x="1222" 
d="M1116 1327h-125l-225 250h160zM432 1155l225 250h134l159 -250h-131l-106 158l-146 -158h-135zM106 455q0 241 156 417q156 172 391 172q200 0 330 -124q133 -127 133 -351q0 -243 -153 -415q-155 -174 -392 -174q-199 0 -329 124q-136 127 -136 351zM565 82
q181 0 305 139q123 138 123 346q0 175 -92 275t-244 100q-181 0 -305 -139q-123 -138 -123 -346q0 -175 92 -275t244 -100z" />
    <glyph glyph-name="uni1ED4" unicode="&#x1ed4;" horiz-adv-x="1558" 
d="M1257 1993q64 0 102.5 -35.5t31.5 -91.5q-9 -57 -58 -106t-123 -81l-36 58q91 48 100 100q3 30 -13.5 48t-50.5 18q-37 0 -71 -17l-17 70q65 37 135 37zM657 1565l226 250h133l160 -250h-132l-106 157l-145 -157h-136zM119 631q0 338 229 579q229 244 537 244
q277 0 444 -176q164 -179 164 -475q0 -338 -227 -580q-231 -243 -539 -243q-277 0 -442 180q-166 178 -166 471zM1360 803q0 243 -129 387q-130 145 -354 145q-253 0 -439 -207q-186 -204 -186 -497q0 -246 128.5 -389.5t354.5 -143.5q252 0 441 207q184 205 184 498z" />
    <glyph glyph-name="uni1ED5" unicode="&#x1ed5;" horiz-adv-x="1222" 
d="M1032 1583q64 0 102 -35.5t31 -91.5q-9 -57 -57.5 -105.5t-122.5 -80.5l-37 57q92 49 101 100q3 30 -13.5 48t-50.5 18q-40 0 -72 -16l-16 69q65 37 135 37zM432 1155l225 250h134l159 -250h-131l-106 158l-146 -158h-135zM106 455q0 241 156 417q156 172 391 172
q200 0 330 -124q133 -127 133 -351q0 -243 -153 -415q-155 -174 -392 -174q-199 0 -329 124q-136 127 -136 351zM565 82q181 0 305 139q123 138 123 346q0 175 -92 275t-244 100q-181 0 -305 -139q-123 -138 -123 -346q0 -175 92 -275t244 -100z" />
    <glyph glyph-name="uni1ED6" unicode="&#x1ed6;" horiz-adv-x="1558" 
d="M848 2044q51 0 123 -35q67 -37 96 -37q65 0 80 74h92q-7 -90 -53 -139t-119 -49q-53 0 -121 36q-72 35 -98 35q-68 0 -80 -74h-92q6 87 53 138t119 51zM657 1565l226 250h133l160 -250h-132l-106 157l-145 -157h-136zM119 631q0 338 229 579q229 244 537 244
q277 0 444 -176q164 -179 164 -475q0 -338 -227 -580q-231 -243 -539 -243q-277 0 -442 180q-166 178 -166 471zM1360 803q0 243 -129 387q-130 145 -354 145q-253 0 -439 -207q-186 -204 -186 -497q0 -246 128.5 -389.5t354.5 -143.5q252 0 441 207q184 205 184 498z" />
    <glyph glyph-name="uni1ED7" unicode="&#x1ed7;" horiz-adv-x="1222" 
d="M623 1634q50 0 122 -35q65 -36 97 -36q65 0 80 73h92q-7 -90 -53 -139t-119 -49q-51 0 -121 37q-72 35 -98 35q-68 0 -80 -74h-92q6 87 52.5 137.5t119.5 50.5zM432 1155l225 250h134l159 -250h-131l-106 158l-146 -158h-135zM106 455q0 241 156 417q156 172 391 172
q200 0 330 -124q133 -127 133 -351q0 -243 -153 -415q-155 -174 -392 -174q-199 0 -329 124q-136 127 -136 351zM565 82q181 0 305 139q123 138 123 346q0 175 -92 275t-244 100q-181 0 -305 -139q-123 -138 -123 -346q0 -175 92 -275t244 -100z" />
    <glyph glyph-name="uni1ED8" unicode="&#x1ed8;" horiz-adv-x="1558" 
d="M657 1565l226 250h133l160 -250h-132l-106 157l-145 -157h-136zM119 631q0 338 229 579q229 244 537 244q277 0 444 -176q164 -179 164 -475q0 -338 -227 -580q-231 -243 -539 -243q-277 0 -442 180q-166 178 -166 471zM1360 803q0 243 -129 387q-130 145 -354 145
q-253 0 -439 -207q-186 -204 -186 -497q0 -246 128.5 -389.5t354.5 -143.5q252 0 441 207q184 205 184 498zM582 -322l20 160h174l-20 -160h-174z" />
    <glyph glyph-name="uni1ED9" unicode="&#x1ed9;" horiz-adv-x="1222" 
d="M432 1155l225 250h134l159 -250h-131l-106 158l-146 -158h-135zM106 455q0 241 156 417q156 172 391 172q200 0 330 -124q133 -127 133 -351q0 -243 -153 -415q-155 -174 -392 -174q-199 0 -329 124q-136 127 -136 351zM565 82q181 0 305 139q123 138 123 346
q0 175 -92 275t-244 100q-181 0 -305 -139q-123 -138 -123 -346q0 -175 92 -275t244 -100zM414 -322l20 160h174l-20 -160h-174z" />
    <glyph glyph-name="uni1EDA" unicode="&#x1eda;" horiz-adv-x="1558" 
d="M1214 1810l-225 -249h-125l191 249h159zM1329 1278q164 -179 164 -475q0 -338 -227 -580q-231 -243 -539 -243q-277 0 -442 180q-166 178 -166 471q0 338 229 579q229 244 537 244q100 0 176 -20q70 0 116.5 38t55.5 105h108q-9 -64 -43.5 -117.5t-87.5 -85.5
q69 -43 119 -96zM1176 305q184 205 184 498q0 243 -129 387q-130 145 -354 145q-253 0 -439 -207q-186 -204 -186 -497q0 -246 128.5 -389.5t354.5 -143.5q252 0 441 207z" />
    <glyph glyph-name="uni1EDB" unicode="&#x1edb;" horiz-adv-x="1222" 
d="M989 1401l-225 -250h-125l190 250h160zM983 920q133 -127 133 -351q0 -243 -153 -415q-155 -174 -392 -174q-199 0 -329 124q-136 127 -136 351q0 241 156 417q156 172 391 172q83 0 150 -20q70 0 116.5 38t55.5 105h108q-9 -68 -47 -123t-96 -88q24 -18 43 -36zM870 221
q123 138 123 346q0 132 -53.5 223t-148.5 128h-3v2q-61 22 -131 22q-181 0 -305 -139q-123 -138 -123 -346q0 -175 92 -275t244 -100q181 0 305 139z" />
    <glyph glyph-name="uni1EDC" unicode="&#x1edc;" horiz-adv-x="1558" 
d="M952 1561h-125l-225 249h160zM1329 1278q164 -179 164 -475q0 -338 -227 -580q-231 -243 -539 -243q-277 0 -442 180q-166 178 -166 471q0 338 229 579q229 244 537 244q100 0 176 -20q70 0 116.5 38t55.5 105h108q-9 -64 -43.5 -117.5t-87.5 -85.5q69 -43 119 -96z
M1176 305q184 205 184 498q0 243 -129 387q-130 145 -354 145q-253 0 -439 -207q-186 -204 -186 -497q0 -246 128.5 -389.5t354.5 -143.5q252 0 441 207z" />
    <glyph glyph-name="uni1EDD" unicode="&#x1edd;" horiz-adv-x="1222" 
d="M727 1151h-125l-225 250h160zM983 920q133 -127 133 -351q0 -243 -153 -415q-155 -174 -392 -174q-199 0 -329 124q-136 127 -136 351q0 241 156 417q156 172 391 172q83 0 150 -20q70 0 116.5 38t55.5 105h108q-9 -68 -47 -123t-96 -88q24 -18 43 -36zM870 221
q123 138 123 346q0 132 -53.5 223t-148.5 128h-3v2q-61 22 -131 22q-181 0 -305 -139q-123 -138 -123 -346q0 -175 92 -275t244 -100q181 0 305 139z" />
    <glyph glyph-name="uni1EDE" unicode="&#x1ede;" horiz-adv-x="1558" 
d="M924 1780q-38 0 -72 -17l-16 70q65 37 135 37q64 0 102 -35.5t31 -91.5q-9 -57 -57.5 -106t-122.5 -81l-37 58q91 48 100 100q3 30 -13 48t-50 18zM1329 1278q164 -179 164 -475q0 -338 -227 -580q-231 -243 -539 -243q-277 0 -442 180q-166 178 -166 471q0 338 229 579
q229 244 537 244q100 0 176 -20q70 0 116.5 38t55.5 105h108q-9 -64 -43.5 -117.5t-87.5 -85.5q69 -43 119 -96zM1176 305q184 205 184 498q0 243 -129 387q-130 145 -354 145q-253 0 -439 -207q-186 -204 -186 -497q0 -246 128.5 -389.5t354.5 -143.5q252 0 441 207z" />
    <glyph glyph-name="uni1EDF" unicode="&#x1edf;" horiz-adv-x="1222" 
d="M698 1370q-39 0 -71 -16l-17 69q65 37 135 37q64 0 102.5 -35.5t31.5 -91.5q-9 -57 -57.5 -105.5t-123.5 -80.5l-36 57q91 48 100 101q3 30 -13.5 47.5t-50.5 17.5zM983 920q133 -127 133 -351q0 -243 -153 -415q-155 -174 -392 -174q-199 0 -329 124q-136 127 -136 351
q0 241 156 417q156 172 391 172q83 0 150 -20q70 0 116.5 38t55.5 105h108q-9 -68 -47 -123t-96 -88q24 -18 43 -36zM870 221q123 138 123 346q0 132 -53.5 223t-148.5 128h-3v2q-61 22 -131 22q-181 0 -305 -139q-123 -138 -123 -346q0 -175 92 -275t244 -100
q181 0 305 139z" />
    <glyph glyph-name="uni1EE0" unicode="&#x1ee0;" horiz-adv-x="1558" 
d="M823 1636q-68 0 -80 -73h-92q6 87 52.5 137.5t119.5 50.5q51 0 123 -35q67 -37 96 -37q65 0 80 74h92q-7 -90 -53 -139t-119 -49q-50 0 -120 37q-69 34 -99 34zM1329 1278q164 -179 164 -475q0 -338 -227 -580q-231 -243 -539 -243q-277 0 -442 180q-166 178 -166 471
q0 338 229 579q229 244 537 244q100 0 176 -20q70 0 116.5 38t55.5 105h108q-9 -64 -43.5 -117.5t-87.5 -85.5q69 -43 119 -96zM1176 305q184 205 184 498q0 243 -129 387q-130 145 -354 145q-253 0 -439 -207q-186 -204 -186 -497q0 -246 128.5 -389.5t354.5 -143.5
q252 0 441 207z" />
    <glyph glyph-name="uni1EE1" unicode="&#x1ee1;" horiz-adv-x="1222" 
d="M598 1227q-68 0 -80 -74h-92q6 87 52.5 137.5t119.5 50.5q54 0 123 -34q67 -37 96 -37q65 0 80 73h92q-7 -90 -53 -139t-119 -49q-51 0 -121 37q-72 35 -98 35zM983 920q133 -127 133 -351q0 -243 -153 -415q-155 -174 -392 -174q-199 0 -329 124q-136 127 -136 351
q0 241 156 417q156 172 391 172q83 0 150 -20q70 0 116.5 38t55.5 105h108q-9 -68 -47 -123t-96 -88q24 -18 43 -36zM870 221q123 138 123 346q0 132 -53.5 223t-148.5 128h-3v2q-61 22 -131 22q-181 0 -305 -139q-123 -138 -123 -346q0 -175 92 -275t244 -100
q181 0 305 139z" />
    <glyph glyph-name="uni1EE2" unicode="&#x1ee2;" horiz-adv-x="1558" 
d="M1329 1278q164 -179 164 -475q0 -338 -227 -580q-231 -243 -539 -243q-277 0 -442 180q-166 178 -166 471q0 338 229 579q229 244 537 244q100 0 176 -20q70 0 116.5 38t55.5 105h108q-9 -64 -43.5 -117.5t-87.5 -85.5q69 -43 119 -96zM1176 305q184 205 184 498
q0 243 -129 387q-130 145 -354 145q-253 0 -439 -207q-186 -204 -186 -497q0 -246 128.5 -389.5t354.5 -143.5q252 0 441 207zM582 -322l20 160h174l-20 -160h-174z" />
    <glyph glyph-name="uni1EE3" unicode="&#x1ee3;" horiz-adv-x="1222" 
d="M983 920q133 -127 133 -351q0 -243 -153 -415q-155 -174 -392 -174q-199 0 -329 124q-136 127 -136 351q0 241 156 417q156 172 391 172q83 0 150 -20q70 0 116.5 38t55.5 105h108q-9 -68 -47 -123t-96 -88q24 -18 43 -36zM870 221q123 138 123 346q0 132 -53.5 223
t-148.5 128h-3v2q-61 22 -131 22q-181 0 -305 -139q-123 -138 -123 -346q0 -175 92 -275t244 -100q181 0 305 139zM414 -322l20 160h174l-20 -160h-174z" />
    <glyph glyph-name="uni1EE4" unicode="&#x1ee4;" horiz-adv-x="1406" 
d="M436 1434l-114 -856q-29 -217 74.5 -348.5t305.5 -131.5q408 0 467 455l115 881h123l-119 -908q-35 -263 -188 -404.5t-400 -141.5q-256 0 -395 161q-144 159 -106 437l114 856h123zM506 -322l20 160h174l-20 -160h-174z" />
    <glyph glyph-name="uni1EE5" unicode="&#x1ee5;" horiz-adv-x="1148" 
d="M973 1024h114l-139 -1024h-96l6 172q-60 -92 -154 -142t-204 -50q-175 0 -273 122q-97 117 -69 330l80 592h120l-82 -614q-20 -154 45.5 -239t200.5 -85q151 0 251 103.5t124 273.5zM377 -322l20 160h174l-20 -160h-174z" />
    <glyph glyph-name="uni1EE6" unicode="&#x1ee6;" horiz-adv-x="1406" 
d="M895 1870q64 0 102 -35.5t31 -91.5q-9 -57 -57.5 -106t-122.5 -81l-37 58q91 48 100 100q3 30 -13 48t-50 18q-38 0 -72 -17l-16 70q65 37 135 37zM436 1434l-114 -856q-29 -217 74.5 -348.5t305.5 -131.5q408 0 467 455l115 881h123l-119 -908q-35 -263 -188 -404.5
t-400 -141.5q-256 0 -395 161q-144 159 -106 437l114 856h123z" />
    <glyph glyph-name="uni1EE7" unicode="&#x1ee7;" horiz-adv-x="1148" 
d="M709 1460q64 0 102 -35.5t31 -91.5q-9 -57 -57.5 -105.5t-122.5 -80.5l-37 57q91 48 100 101q3 30 -13 47.5t-50 17.5q-40 0 -72 -16l-17 69q65 37 136 37zM973 1024h114l-139 -1024h-96l6 172q-60 -92 -154 -142t-204 -50q-175 0 -273 122q-97 117 -69 330l80 592h120
l-82 -614q-20 -154 45.5 -239t200.5 -85q151 0 251 103.5t124 273.5z" />
    <glyph glyph-name="uni1EE8" unicode="&#x1ee8;" horiz-adv-x="1406" 
d="M1139 1810l-226 -249h-125l191 249h160zM1587 1577q-12 -82 -63.5 -143t-128.5 -88l-107 -820q-35 -263 -188 -404.5t-400 -141.5q-256 0 -395 161q-144 159 -106 437l114 856h123l-114 -856q-29 -217 74.5 -348.5t305.5 -131.5q408 0 467 455l115 881h23q70 0 116.5 38
t55.5 105h108z" />
    <glyph glyph-name="uni1EE9" unicode="&#x1ee9;" horiz-adv-x="1148" 
d="M952 1401l-225 -250h-125l191 250h159zM1282 1167q-12 -86 -68 -149t-139 -88l-127 -930h-96l6 172q-60 -92 -154 -142t-204 -50q-175 0 -273 122q-97 117 -69 330l80 592h120l-82 -614q-20 -154 45.5 -239t200.5 -85q151 0 251 103.5t124 273.5l76 561h28q70 0 117 38
t56 105h108z" />
    <glyph glyph-name="uni1EEA" unicode="&#x1eea;" horiz-adv-x="1406" 
d="M877 1561h-125l-226 249h160zM1587 1577q-12 -82 -63.5 -143t-128.5 -88l-107 -820q-35 -263 -188 -404.5t-400 -141.5q-256 0 -395 161q-144 159 -106 437l114 856h123l-114 -856q-29 -217 74.5 -348.5t305.5 -131.5q408 0 467 455l115 881h23q70 0 116.5 38t55.5 105
h108z" />
    <glyph glyph-name="uni1EEB" unicode="&#x1eeb;" horiz-adv-x="1148" 
d="M690 1151h-125l-225 250h160zM1282 1167q-12 -86 -68 -149t-139 -88l-127 -930h-96l6 172q-60 -92 -154 -142t-204 -50q-175 0 -273 122q-97 117 -69 330l80 592h120l-82 -614q-20 -154 45.5 -239t200.5 -85q151 0 251 103.5t124 273.5l76 561h28q70 0 117 38t56 105h108
z" />
    <glyph glyph-name="uni1EEC" unicode="&#x1eec;" horiz-adv-x="1406" 
d="M848 1780q-38 0 -72 -17l-16 70q65 37 135 37q64 0 102 -35.5t31 -91.5q-9 -57 -57.5 -106t-122.5 -81l-37 58q91 48 100 100q3 30 -13 48t-50 18zM1587 1577q-12 -82 -63.5 -143t-128.5 -88l-107 -820q-35 -263 -188 -404.5t-400 -141.5q-256 0 -395 161
q-144 159 -106 437l114 856h123l-114 -856q-29 -217 74.5 -348.5t305.5 -131.5q408 0 467 455l115 881h23q70 0 116.5 38t55.5 105h108z" />
    <glyph glyph-name="uni1EED" unicode="&#x1eed;" horiz-adv-x="1148" 
d="M662 1370q-40 0 -72 -16l-17 69q65 37 136 37q64 0 102 -35.5t31 -91.5q-9 -57 -57.5 -105.5t-122.5 -80.5l-37 57q91 48 100 101q3 30 -13 47.5t-50 17.5zM1282 1167q-12 -86 -68 -149t-139 -88l-127 -930h-96l6 172q-60 -92 -154 -142t-204 -50q-175 0 -273 122
q-97 117 -69 330l80 592h120l-82 -614q-20 -154 45.5 -239t200.5 -85q151 0 251 103.5t124 273.5l76 561h28q70 0 117 38t56 105h108z" />
    <glyph glyph-name="uni1EEE" unicode="&#x1eee;" horiz-adv-x="1406" 
d="M748 1636q-68 0 -80 -73h-93q6 87 53 137.5t120 50.5q50 0 122 -35q67 -37 97 -37q65 0 80 74h92q-7 -90 -53 -139t-119 -49q-51 0 -121 37q-69 34 -98 34zM1587 1577q-12 -82 -63.5 -143t-128.5 -88l-107 -820q-35 -263 -188 -404.5t-400 -141.5q-256 0 -395 161
q-144 159 -106 437l114 856h123l-114 -856q-29 -217 74.5 -348.5t305.5 -131.5q408 0 467 455l115 881h23q70 0 116.5 38t55.5 105h108z" />
    <glyph glyph-name="uni1EEF" unicode="&#x1eef;" horiz-adv-x="1148" 
d="M561 1227q-68 0 -80 -74h-92q6 87 52.5 137.5t119.5 50.5q54 0 123 -34q67 -37 96 -37q65 0 80 73h92q-7 -90 -53 -139t-119 -49q-51 0 -121 37q-72 35 -98 35zM1282 1167q-12 -86 -68 -149t-139 -88l-127 -930h-96l6 172q-60 -92 -154 -142t-204 -50q-175 0 -273 122
q-97 117 -69 330l80 592h120l-82 -614q-20 -154 45.5 -239t200.5 -85q151 0 251 103.5t124 273.5l76 561h28q70 0 117 38t56 105h108z" />
    <glyph glyph-name="uni1EF0" unicode="&#x1ef0;" horiz-adv-x="1406" 
d="M1587 1577q-12 -82 -63.5 -143t-128.5 -88l-107 -820q-35 -263 -188 -404.5t-400 -141.5q-256 0 -395 161q-144 159 -106 437l114 856h123l-114 -856q-29 -217 74.5 -348.5t305.5 -131.5q408 0 467 455l115 881h23q70 0 116.5 38t55.5 105h108zM506 -322l20 160h174
l-20 -160h-174z" />
    <glyph glyph-name="uni1EF1" unicode="&#x1ef1;" horiz-adv-x="1148" 
d="M1282 1167q-12 -86 -68 -149t-139 -88l-127 -930h-96l6 172q-60 -92 -154 -142t-204 -50q-175 0 -273 122q-97 117 -69 330l80 592h120l-82 -614q-20 -154 45.5 -239t200.5 -85q151 0 251 103.5t124 273.5l76 561h28q70 0 117 38t56 105h108zM377 -322l20 160h174
l-20 -160h-174z" />
    <glyph glyph-name="Ygrave" unicode="&#x1ef2;" horiz-adv-x="1234" 
d="M815 1544h-125l-225 250h160zM547 481l-397 953h131l342 -816l559 816h145l-657 -953l-68 -481h-123z" />
    <glyph glyph-name="ygrave" unicode="&#x1ef3;" horiz-adv-x="1015" 
d="M659 1176h-124l-226 249h160zM223 1024l226 -973l481 975l131 -2l-619 -1235q-58 -114 -137.5 -156.5t-212.5 -42.5h-162l15 109h157q122 0 185 60.5t63 166.5q0 38 -8 74l-240 1024h121z" />
    <glyph glyph-name="uni1EF4" unicode="&#x1ef4;" horiz-adv-x="1234" 
d="M547 481l-397 953h131l342 -816l559 816h145l-657 -953l-68 -481h-123zM420 -322l20 160h174l-20 -160h-174z" />
    <glyph glyph-name="uni1EF5" unicode="&#x1ef5;" horiz-adv-x="1015" 
d="M223 1024l226 -973l481 975l131 -2l-619 -1235q-58 -114 -137.5 -156.5t-212.5 -42.5h-162l15 109h157q122 0 185 60.5t63 166.5q0 38 -8 74l-240 1024h121zM586 -322l20 160h174l-20 -160h-174z" />
    <glyph glyph-name="uni1EF6" unicode="&#x1ef6;" horiz-adv-x="1234" 
d="M809 1870q64 0 102 -35.5t31 -91.5q-9 -57 -57.5 -106t-122.5 -81l-37 58q91 48 100 100q3 30 -13 48t-50 18q-38 0 -72 -17l-16 70q65 37 135 37zM547 481l-397 953h131l342 -816l559 816h145l-657 -953l-68 -481h-123z" />
    <glyph glyph-name="uni1EF7" unicode="&#x1ef7;" horiz-adv-x="1015" 
d="M641 1460q64 0 102 -35.5t31 -91.5q-9 -57 -57.5 -105.5t-122.5 -80.5l-37 57q91 48 100 101q3 30 -13 47.5t-50 17.5q-40 0 -72 -16l-16 69q65 37 135 37zM223 1024l226 -973l481 975l131 -2l-619 -1235q-58 -114 -137.5 -156.5t-212.5 -42.5h-162l15 109h157
q122 0 185 60.5t63 166.5q0 38 -8 74l-240 1024h121z" />
    <glyph glyph-name="uni1EF8" unicode="&#x1ef8;" horiz-adv-x="1234" 
d="M662 1751q50 0 122 -35q67 -37 97 -37q65 0 80 74h92q-7 -90 -53 -139t-119 -49q-51 0 -121 37q-69 34 -98 34q-68 0 -80 -73h-93q6 87 53 137.5t120 50.5zM547 481l-397 953h131l342 -816l559 816h145l-657 -953l-68 -481h-123z" />
    <glyph glyph-name="uni1EF9" unicode="&#x1ef9;" horiz-adv-x="1015" 
d="M494 1341q53 0 122 -34q67 -37 97 -37q65 0 80 73h92q-7 -90 -53 -139t-119 -49q-51 0 -121 37q-72 35 -98 35q-68 0 -80 -74h-92q6 87 52.5 137.5t119.5 50.5zM223 1024l226 -973l481 975l131 -2l-619 -1235q-58 -114 -137.5 -156.5t-212.5 -42.5h-162l15 109h157
q122 0 185 60.5t63 166.5q0 38 -8 74l-240 1024h121z" />
    <glyph glyph-name="endash" unicode="&#x2013;" horiz-adv-x="1265" 
d="M137 639h1024l-16 -121h-1024z" />
    <glyph glyph-name="emdash" unicode="&#x2014;" horiz-adv-x="2043" 
d="M137 639h1802l-16 -121h-1802z" />
    <glyph glyph-name="quoteleft" unicode="&#x2018;" horiz-adv-x="444" 
d="M408 1204l-29 -192h-193l29 192l143 230h86l-143 -230h107z" />
    <glyph glyph-name="quoteright" unicode="&#x2019;" horiz-adv-x="444" 
d="M186 1012l146 229h-107l27 193h192l-26 -193l-146 -229h-86z" />
    <glyph glyph-name="quotesinglbase" unicode="&#x201a;" horiz-adv-x="444" 
d="M61 0l27 193h193l-27 -193l-145 -229h-86l145 229h-107z" />
    <glyph glyph-name="quotedblleft" unicode="&#x201c;" horiz-adv-x="751" 
d="M408 1204l-29 -192h-193l29 192l143 230h86l-143 -230h107zM715 1204l-29 -192h-192l28 192l144 230h86l-144 -230h107z" />
    <glyph glyph-name="quotedblright" unicode="&#x201d;" horiz-adv-x="763" 
d="M184 1012l146 229h-107l27 193h192l-26 -193l-146 -229h-86zM506 1012l145 229h-106l26 193h193l-27 -193l-145 -229h-86z" />
    <glyph glyph-name="quotedblbase" unicode="&#x201e;" horiz-adv-x="751" 
d="M61 0l27 193h193l-27 -193l-145 -229h-86l145 229h-107zM369 0l26 193h193l-27 -193l-145 -229h-86l145 229h-106z" />
    <glyph glyph-name="dagger" unicode="&#x2020;" horiz-adv-x="907" 
d="M903 1092v-127h-319v-760h-125v760h-320v127h320v342h125v-342h319z" />
    <glyph glyph-name="daggerdbl" unicode="&#x2021;" horiz-adv-x="854" 
d="M850 958h-320v-278h320v-127h-320v-348h-124v348h-320v127h320v278h-320v127h320v349h124v-349h320v-127z" />
    <glyph glyph-name="bullet" unicode="&#x2022;" horiz-adv-x="774" 
d="M377 289q-125 0 -207 79.5t-82 202.5q0 138 98 236q101 96 236 96q125 0 206 -79.5t81 -202.5q0 -137 -97 -234q-98 -98 -235 -98z" />
    <glyph glyph-name="ellipsis" unicode="&#x2026;" horiz-adv-x="1241" 
d="M57 0l27 193h192l-26 -193h-193zM457 0l26 193h193l-27 -193h-192zM854 0l27 193h192l-26 -193h-193z" />
    <glyph glyph-name="perthousand" unicode="&#x2030;" horiz-adv-x="2535" 
d="M428 715q-124 0 -201 87.5t-77 235.5q0 174 92 295q88 119 239 119q131 0 208 -85t77 -241q0 -170 -90 -292q-88 -119 -248 -119zM313 0l1092 1434h143l-1093 -1434h-142zM434 821q109 0 162 92q51 89 51 211q0 106 -43.5 164t-124.5 58q-101 0 -156 -86.5t-55 -217.5
q0 -221 166 -221zM1384 -20q-124 0 -201 87.5t-77 235.5q0 174 92 295q88 119 240 119q131 0 207.5 -85t76.5 -241q0 -171 -90 -293q-87 -118 -248 -118zM2101 -20q-124 0 -201 87.5t-77 235.5q0 174 92 295q88 119 239 119q131 0 208 -85t77 -241q0 -171 -90 -293
q-87 -118 -248 -118zM1391 86q108 0 161 92q52 91 52 211q0 106 -43.5 163.5t-124.5 57.5q-101 0 -156 -86t-55 -217q0 -221 166 -221zM2107 86q109 0 162 92q51 89 51 211q0 106 -43.5 163.5t-124.5 57.5q-101 0 -155.5 -85.5t-54.5 -217.5q0 -221 165 -221z" />
    <glyph glyph-name="guilsinglleft" unicode="&#x2039;" horiz-adv-x="686" 
d="M332 123l-246 442l459 459h137l-469 -471l240 -430h-121z" />
    <glyph glyph-name="guilsinglright" unicode="&#x203a;" horiz-adv-x="688" 
d="M371 1024l245 -442l-458 -459h-138l469 471l-239 430h121z" />
    <glyph glyph-name="uni2042" unicode="&#x2042;" horiz-adv-x="1306" 
d="M418 1223l26 80l101 -33q61 -18 100 -51q-20 33 -20 108v107h88v-107q0 -74 -17 -108q35 32 97 51l100 33l33 -82l-103 -35q-76 -25 -114 -19q44 -23 86 -80l63 -86l-70 -49l-61 82q-41 55 -57 111q-6 -47 -54 -111l-61 -82l-76 49l66 86q45 60 86 80q-47 -6 -117 21z
M90 649l27 80l100 -33q61 -18 100 -51q-20 33 -20 109v106h88v-106q0 -77 -16 -109q35 32 96 51l100 33l33 -82l-102 -35q-74 -24 -115 -18q44 -23 86 -80l63 -86l-69 -49l-62 82q-42 56 -57 110q-6 -48 -53 -110l-62 -82l-75 49l65 86q45 60 86 80q-48 -6 -117 20zM745 649
l27 80l100 -33q63 -18 101 -51q-21 35 -21 109v106h88v-106q0 -77 -16 -109q35 32 96 51l101 33l32 -82l-102 -35q-74 -24 -115 -18q44 -23 86 -80l64 -86l-70 -49l-61 82q-43 58 -58 110q-6 -48 -53 -110l-61 -82l-76 49l65 86q45 60 86 80q-48 -6 -116 20z" />
    <glyph glyph-name="fraction" unicode="&#x2044;" horiz-adv-x="376" 
d="M-315 0l921 1434h119l-922 -1434h-118z" />
    <glyph glyph-name="Euro" unicode="&#x20ac;" horiz-adv-x="1286" 
d="M899 1335q-188 0 -338.5 -104.5t-226.5 -282.5h629l-31 -114h-637q-27 -94 -27 -209v-23h609l-29 -113h-567q33 -186 155.5 -289.5t317.5 -103.5q204 0 362 103l55 -97q-162 -122 -417 -122q-247 0 -409.5 136.5t-199.5 372.5h-131l17 113h104v21q0 105 25 211h-97
l17 114h115q89 228 280 367q192 139 430 139q243 0 426 -131l-84 -102q-141 114 -348 114z" />
    <glyph glyph-name="uni2116" unicode="&#x2116;" horiz-adv-x="2269" 
d="M1548 1059q0 162 109 280q108 117 272 117q145 0 240 -92q96 -96 96 -248q0 -163 -108 -280t-273 -117q-145 0 -239 94q-97 94 -97 246zM98 0l201 1434h147l707 -1258l176 1258h123l-201 -1434h-147l-707 1257l-176 -1257h-123zM2157 1116q0 108 -65 173t-165 65
q-114 0 -192 -84q-78 -87 -78 -211q0 -108 64.5 -173t164.5 -65q116 0 193 86q78 84 78 209zM1616 459l16 106h443l-17 -106h-442z" />
    <glyph glyph-name="uni2117" unicode="&#x2117;" horiz-adv-x="937" 
d="M934 1061q0 -164 -115 -279q-114 -114 -276 -114q-164 0 -277 116q-116 113 -116 277q0 162 116 278q115 115 277 115q160 0 276 -113q115 -115 115 -280zM543 1378q-132 0 -224 -92q-94 -94 -94 -225q0 -132 94 -223q92 -95 224 -95q127 0 223 93q92 89 92 225
q0 130 -92 225q-95 92 -223 92zM483 985h103q64 0 104.5 37t40.5 102q0 61 -41 100.5t-104 39.5h-174v-414h71v135zM582 1200q46 5 65.5 -34.5t0 -79.5t-65.5 -37h-99v151h99z" />
    <glyph glyph-name="trademark" unicode="&#x2122;" horiz-adv-x="1163" 
d="M647 1434l-12 -86h-203l-70 -500h-86l70 500h-196l12 86h485zM1159 1434h88l-82 -586h-88l39 280q15 83 31 121l-221 -401h-74l-109 399q3 -12 -6 -117l-41 -282h-86l82 586h82l127 -465z" />
    <glyph glyph-name="estimated" unicode="&#x212e;" horiz-adv-x="1484" 
d="M100 723q3 323 193 528q188 203 483 203q302 0 488 -180q184 -181 184 -494q3 -56 0 -108h-1143v-369q169 -240 496 -240q157 0 288.5 74.5t198.5 198.5l78 -29q-75 -152 -226.5 -238.5t-342.5 -86.5q-312 0 -506 206t-191 535zM305 1118v-373h940v410
q-78 105 -200.5 161.5t-268.5 55.5q-147 -1 -269.5 -68t-201.5 -186z" />
    <glyph glyph-name="oneeighth" unicode="&#x215b;" horiz-adv-x="1581" 
d="M156 705l14 102h137l70 514l-176 -82l14 109l176 86h109l-84 -627h139l-16 -102h-383zM1186 1434h119l-922 -1434h-119zM1403 389q102 -52 102 -170q0 -102 -78.5 -165.5t-203.5 -63.5q-119 0 -192 57.5t-73 155.5q0 62 37.5 115.5t98.5 78.5q-76 46 -76 144
q0 87 72.5 142.5t179.5 55.5q106 0 170.5 -52.5t64.5 -137.5q0 -113 -102 -160zM1268 653q-64 0 -105 -32.5t-41 -85.5q0 -48 35 -76.5t96 -28.5q66 0 107 33t41 84q0 49 -36 77.5t-97 28.5zM1225 82q75 0 122.5 38t47.5 99q0 55 -42 90t-110 35q-75 0 -124.5 -38.5
t-49.5 -98.5q0 -57 43 -91t113 -34z" />
    <glyph glyph-name="threeeighths" unicode="&#x215c;" horiz-adv-x="1615" 
d="M635 924q0 -105 -77 -167.5t-200 -62.5q-118 0 -185 65t-54 167h108q-7 -66 27.5 -102t103.5 -36q72 0 117 37.5t45 98.5q0 50 -34.5 79t-96.5 29h-57l14 90h57q71 0 109.5 34.5t38.5 92.5q0 47 -32 74t-89 27q-69 0 -112.5 -37.5t-49.5 -100.5h-108q12 107 85.5 169.5
t190.5 62.5q101 0 165.5 -51t64.5 -136q0 -61 -34.5 -109t-96.5 -71q100 -34 100 -153zM1235 1434h119l-922 -1434h-119zM1452 389q102 -52 102 -170q0 -102 -78.5 -165.5t-203.5 -63.5q-119 0 -191.5 57.5t-72.5 155.5q0 63 37.5 116t97.5 78q-76 46 -76 144
q0 87 72.5 142.5t179.5 55.5q106 0 170.5 -52.5t64.5 -137.5q0 -113 -102 -160zM1317 653q-64 0 -105 -32.5t-41 -85.5q0 -48 35.5 -76.5t96.5 -28.5q66 0 106.5 33t40.5 84q0 49 -36 77.5t-97 28.5zM1274 82q75 0 122.5 38t47.5 99q0 55 -42 90t-110 35q-75 0 -124.5 -38.5
t-49.5 -98.5q0 -57 43 -91t113 -34z" />
    <glyph glyph-name="fiveeighths" unicode="&#x215d;" horiz-adv-x="1636" 
d="M637 971q0 -122 -80.5 -199.5t-202.5 -77.5q-106 0 -174.5 58.5t-68.5 158.5h106q0 -55 39.5 -89t97.5 -34q70 0 119 52t49 129q0 66 -35.5 103.5t-97.5 37.5q-93 0 -145 -82h-107l129 406h402l-13 -97h-317l-57 -176q48 39 133 39q99 0 161 -62t62 -167zM1241 1434h119
l-922 -1434h-119zM1458 389q103 -53 103 -170q0 -102 -79 -165.5t-204 -63.5q-119 0 -191.5 57.5t-72.5 155.5q0 63 37.5 116t97.5 78q-76 46 -76 144q0 87 72.5 142.5t179.5 55.5q106 0 171 -52.5t65 -137.5q0 -113 -103 -160zM1323 653q-64 0 -104.5 -32.5t-40.5 -85.5
q0 -48 35 -76.5t96 -28.5q66 0 106.5 33t40.5 84q0 49 -36 77.5t-97 28.5zM1280 82q75 0 122.5 38t47.5 99q0 55 -42 90t-110 35q-75 0 -124.5 -38.5t-49.5 -98.5q0 -57 43 -91t113 -34z" />
    <glyph glyph-name="seveneighths" unicode="&#x215e;" horiz-adv-x="1490" 
d="M252 715h-109q94 329 349 631h-365l12 98h494l-10 -92q-271 -293 -371 -637zM1096 1434h118l-921 -1434h-119zM1313 389q102 -52 102 -170q0 -102 -78.5 -165.5t-203.5 -63.5q-119 0 -192 57.5t-73 155.5q0 62 37.5 115.5t98.5 78.5q-76 46 -76 144q0 87 72.5 142.5
t179.5 55.5q106 0 170.5 -52.5t64.5 -137.5q0 -113 -102 -160zM1178 653q-64 0 -105 -32.5t-41 -85.5q0 -48 35 -76.5t96 -28.5q66 0 107 33t41 84q0 49 -36 77.5t-97 28.5zM1135 82q75 0 122.5 38t47.5 99q0 55 -42 90t-110 35q-75 0 -124.5 -38.5t-49.5 -98.5
q0 -57 43 -91t113 -34z" />
    <glyph glyph-name="uni2160" unicode="&#x2160;" horiz-adv-x="1040" 
d="M918 1331h-338v-1229h338v-102h-795v102h342v1229h-342v103h795v-103z" />
    <glyph glyph-name="uni2161" unicode="&#x2161;" horiz-adv-x="1650" 
d="M1528 0h-1405v102h313v1229h-313v103h1405v-103h-307v-1229h307v-102zM1104 1331h-553v-1229h553v1229z" />
    <glyph glyph-name="uni2162" unicode="&#x2162;" horiz-adv-x="2293" 
d="M2171 0h-2048v102h307v1229h-307v103h2048v-103h-309v-1229h309v-102zM547 102h543v1229h-543v-1229zM1747 1331h-543v-1229h543v1229z" />
    <glyph glyph-name="uni2163" unicode="&#x2163;" horiz-adv-x="2244" 
d="M2122 0h-1999v100h307v1231h-307v103h1995v-103h-263l-405 -1231h672v-100zM547 100h678l-412 1231h-266v-1231zM1726 1331h-784l395 -1210z" />
    <glyph glyph-name="uni2164" unicode="&#x2164;" horiz-adv-x="1736" 
d="M1614 1331h-213l-416 -1233h621v-98h-1467v98h621l-414 1233h-223v103h1491v-103zM1272 1331h-797l397 -1214z" />
    <glyph glyph-name="uni2165" unicode="&#x2165;" horiz-adv-x="2246" 
d="M2124 0h-2001v102h670l-412 1229h-258v103h1999v-103h-307v-1229h309v-102zM1305 1331h-795l395 -1212zM1018 102h684v1229h-268z" />
    <glyph glyph-name="uni2166" unicode="&#x2166;" horiz-adv-x="2930" 
d="M2808 0h-2685v102h668l-406 1229h-262v103h2685v-103h-338v-1229h338v-102zM1309 1331h-795l389 -1212zM1016 102h684v1229h-262zM2355 1331h-540v-1229h540v1229z" />
    <glyph glyph-name="uni2167" unicode="&#x2167;" horiz-adv-x="3514" 
d="M3391 0h-3268v102h661l-399 1229h-262v103h3268v-103h-321v-1229h321v-102zM1280 1331h-766l383 -1218zM1010 102h676v1229h-277zM1800 102h522v1229h-522v-1229zM2435 102h522v1229h-522v-1229z" />
    <glyph glyph-name="uni2168" unicode="&#x2168;" horiz-adv-x="2174" 
d="M2052 0h-1929v98h311v1233h-311v103h1927v-103h-213l-442 -631l420 -602h237v-98zM811 1331h-264v-1233h276l432 600zM1321 784l379 547h-752zM958 98h713l-350 516z" />
    <glyph glyph-name="uni2169" unicode="&#x2169;" horiz-adv-x="1693" 
d="M1569 1331h-211l-440 -629l417 -604h236v-98h-1448v98h225l430 602l-446 631h-209v103h1446v-103zM846 782l375 549h-752zM477 98h717l-350 516z" />
    <glyph glyph-name="arrowleft" unicode="&#x2190;" horiz-adv-x="1636" 
d="M748 1139l86 -86l-478 -478h1157v-122h-1157l478 -478l-86 -86l-625 625z" />
    <glyph glyph-name="arrowup" unicode="&#x2191;" horiz-adv-x="1507" 
d="M123 772l631 619l630 -619l-86 -86l-483 471v-1157h-123v1157l-483 -471z" />
    <glyph glyph-name="arrowright" unicode="&#x2192;" horiz-adv-x="1636" 
d="M889 1139l624 -625l-624 -625l-86 86l477 478h-1157v122h1157l-477 478z" />
    <glyph glyph-name="arrowdown" unicode="&#x2193;" horiz-adv-x="1495" 
d="M1372 580l-624 -625l-625 625l86 86l477 -478v1158h123v-1158l477 478z" />
    <glyph glyph-name="arrowboth" unicode="&#x2194;" horiz-adv-x="1921" 
d="M1362 70v180l199 205l-740 -2v2l-461 -2l205 -207v-178l-442 446l438 444v-180l-199 -203l455 3v2l742 -2l-199 202v178l438 -442z" />
    <glyph glyph-name="arrowupdn" unicode="&#x2195;" horiz-adv-x="1134" 
d="M627 -88l204 201h181l-447 -441l-442 441h176l205 -201l-2 457v286l2 455l-205 -201h-176l442 439l447 -439h-181l-204 201v-1198z" />
    <glyph glyph-name="uni2196" unicode="&#x2196;" horiz-adv-x="1271" 
d="M1006 1028v-123h-674l817 -817l-86 -88l-819 819v-676h-121v885h883z" />
    <glyph glyph-name="uni2197" unicode="&#x2197;" horiz-adv-x="1271" 
d="M266 1028h883v-885h-121v676l-819 -819l-86 88l817 817h-674v123z" />
    <glyph glyph-name="uni2198" unicode="&#x2198;" horiz-adv-x="1273" 
d="M1151 883v-883h-885v121h676l-819 819l88 86l817 -817v674h123z" />
    <glyph glyph-name="uni2199" unicode="&#x2199;" horiz-adv-x="1271" 
d="M1006 0h-883v885h121v-676l819 819l86 -88l-817 -817h674v-123z" />
    <glyph glyph-name="partialdiff" unicode="&#x2202;" horiz-adv-x="1220" 
d="M760 1434q169 -115 270 -330q96 -215 96 -449q0 -296 -149 -485q-150 -190 -410 -190q-209 0 -344 126t-135 340q0 227 143 392q144 163 381 163q132 0 233.5 -52t153.5 -144q-56 394 -419 629h180zM557 82q185 0 301 125q115 127 115 311q0 169 -94.5 275t-257.5 106
q-181 0 -299 -127q-119 -128 -119 -317q0 -169 95.5 -271t258.5 -102z" />
    <glyph glyph-name="emptyset" unicode="&#x2205;" horiz-adv-x="1329" 
d="M1278 1006l-176 -162q80 -127 80 -291q0 -237 -156 -406q-154 -167 -387 -167q-201 0 -334 133l-168 -156l-65 59l178 164q-80 121 -80 287q0 235 156 405t389 170q201 0 332 -131l165 154zM289 463q0 -113 49 -201l623 572q-96 96 -244 96q-176 0 -301 -137
q-127 -139 -127 -330zM1063 559q0 115 -49 203l-623 -572q98 -98 246 -98q176 0 301 137t125 330z" />
    <glyph glyph-name="product" unicode="&#x220f;" horiz-adv-x="1323" 
d="M242 1434h1081l-16 -127h-240l-184 -1315h-127l184 1315h-346l-184 -1315h-125l184 1315h-244z" />
    <glyph glyph-name="summation" unicode="&#x2211;" horiz-adv-x="1220" 
d="M614 596l-374 717l16 121h965l-17 -119l-819 -2l373 -725l-578 -725l819 -2l-16 -119h-965l17 137z" />
    <glyph glyph-name="minus" unicode="&#x2212;" horiz-adv-x="1228" 
d="M170 737h942l-16 -123h-942z" />
    <glyph glyph-name="radical" unicode="&#x221a;" horiz-adv-x="1576" 
d="M1571 1556v-118h-410l-620 -1643h-125l-289 772h125l227 -606l602 1595h490z" />
    <glyph glyph-name="infinity" unicode="&#x221e;" horiz-adv-x="1896" 
d="M479 145q-169 0 -282 119q-117 117 -117 283q0 164 117 284q116 119 282 119q167 0 283 -102q62 -52 96 -90q62 -73 94 -113q18 23 95 113q43 47 96 90q116 102 280 102q167 0 283 -119q117 -120 117 -284q0 -160 -115 -281t-285 -121q-165 0 -282 103q-57 49 -94 92
q-77 90 -95 113q-61 -76 -92 -113q-37 -40 -98 -92q-117 -103 -283 -103zM479 264q94 0 180 62t215 221q-120 156 -210 223q-82 61 -185 61q-119 0 -194 -81q-80 -83 -80 -203q0 -116 80 -199q81 -84 194 -84zM1423 264q116 0 197 84q80 83 80 199q0 118 -80 201t-197 83
q-97 0 -180 -59q-86 -64 -213 -225q123 -156 211 -221q83 -62 182 -62z" />
    <glyph glyph-name="integral" unicode="&#x222b;" horiz-adv-x="653" 
d="M524 1542h103v-108h-115q-50 0 -83.5 -34t-33.5 -87v-1360q0 -126 -67.5 -196t-184.5 -70h-90v108h101q57 0 89.5 34t32.5 91v1370q0 116 70.5 184t177.5 68z" />
    <glyph glyph-name="approxequal" unicode="&#x2248;" horiz-adv-x="1167" 
d="M698 952q69 -59 96.5 -74.5t63.5 -15.5q61 0 95.5 40t39.5 110h115q-6 -124 -71.5 -198.5t-178.5 -74.5q-49 0 -100.5 20.5t-75.5 39.5q-61 51 -68 57q-63 55 -97 74.5t-71 19.5q-112 0 -124 -149h-113q0 122 69.5 197t176.5 75q57 0 88 -14q50 -22 71 -39
q14 -11 29 -21.5t31 -23.5l11.5 -11.5l8.5 -8.5t4 -3zM594 502q69 -58 96.5 -74t63.5 -16q61 0 95.5 40t39.5 109h115q-6 -124 -71.5 -198t-178.5 -74q-49 0 -100.5 20t-75.5 39q-39 32 -68 58q-63 55 -97 74.5t-71 19.5q-113 0 -125 -150h-113q0 122 69.5 197.5t176.5 75.5
q54 0 88 -15q52 -23 72 -39q13 -11 28 -21.5t31 -23.5q6 -6 12 -11t9 -8t4 -3z" />
    <glyph glyph-name="notequal" unicode="&#x2260;" horiz-adv-x="1230" 
d="M1053 831h-265l-182 -307h398l-19 -121h-450l-127 -215h-121l127 215h-211l18 121h264l183 307h-398l17 121h452l125 209h121l-125 -209h209z" />
    <glyph glyph-name="lessequal" unicode="&#x2264;" horiz-adv-x="1228" 
d="M1124 1196l-18 -141l-735 -324l645 -319l-21 -140l-755 390l20 143zM166 121h811l-16 -121h-811z" />
    <glyph glyph-name="greaterequal" unicode="&#x2265;" horiz-adv-x="1228" 
d="M166 270l18 142l736 323l-646 320l21 139l756 -389l-21 -143zM954 121l-16 -121h-811l16 121h811z" />
    <glyph glyph-name="filledbox" unicode="&#x25a0;" horiz-adv-x="1595" 
d="M82 1434h1431v-1432h-1431v1432z" />
    <glyph glyph-name="uni25A1" unicode="&#x25a1;" horiz-adv-x="1597" 
d="M82 1434h1434v-1434h-1434v1434zM197 1319v-1204h1204v1204h-1204z" />
    <glyph glyph-name="triagup" unicode="&#x25b2;" horiz-adv-x="1906" 
d="M952 1440l873 -1440h-1743z" />
    <glyph glyph-name="uni25B3" unicode="&#x25b3;" horiz-adv-x="1898" 
d="M82 0l866 1434l869 -1434h-1735zM274 109h1348l-674 1114z" />
    <glyph glyph-name="lozenge" unicode="&#x25ca;" horiz-adv-x="1185" 
d="M524 0l-442 717l442 717h140l440 -717l-440 -717h-140zM973 717l-381 618l-379 -618l379 -615z" />
    <glyph glyph-name="circle" unicode="&#x25cb;" horiz-adv-x="1644" 
d="M821 -20q-308 0 -522 217q-217 217 -217 524q0 305 217 522t522 217q308 0 525 -217t217 -522t-217 -522q-219 -219 -525 -219zM379 276q181 -184 442 -184t445 184t184 445q0 260 -184 444q-186 183 -445 183t-442 -183q-184 -184 -184 -444q0 -261 184 -445z" />
    <glyph glyph-name="uni25CF" unicode="&#x25cf;" horiz-adv-x="1656" 
d="M1358 180q-219 -219 -529 -219q-309 0 -528 219t-219 529q0 309 219 528q217 217 528 217q312 0 529 -217t217 -528q0 -312 -217 -529z" />
    <glyph glyph-name="uni262E" unicode="&#x262e;" horiz-adv-x="1644" 
d="M821 -20q-308 0 -522 217q-217 217 -217 524q0 305 217 522t522 217q308 0 525 -217t217 -522t-217 -522q-219 -219 -525 -219zM252 457l510 311v578q-239 -21 -404 -201q-163 -181 -163 -424q0 -141 57 -264zM1393 459q57 123 57 262q0 245 -162 422q-164 179 -403 200
v-575zM762 94v531l-447 -277q79 -107 196 -174t251 -80zM885 96q276 27 444 254l-444 275v-529z" />
    <glyph glyph-name="uni2713" unicode="&#x2713;" horiz-adv-x="1595" 
d="M1339 1024l68 -68l-829 -821l-400 443l74 69l326 -364z" />
    <glyph glyph-name="uniA7B6" unicode="&#xa7b6;" horiz-adv-x="1548" 
d="M1065 121h389v-121h-545v115q182 145 268.5 305.5t86.5 374.5q0 242 -142 393q-141 147 -389 147t-389 -147q-141 -150 -141 -393q0 -215 86 -375t268 -305v-115h-545v121h389q-329 273 -329 672q0 296 180 479q182 182 481 182t481 -182q181 -184 181 -479
q0 -398 -330 -672z" />
    <glyph glyph-name="f_f" unicode="&#xfb00;" horiz-adv-x="1300" 
d="M1243 1386q-74 0 -108 -29.5t-45 -96.5l-33 -236h260l-14 -106h-261l-124 -918h-119l123 918h-523l-125 -918h-118l123 918h-185l15 106h184l33 240q17 121 82.5 176t185.5 55h147l-16 -109h-125q-74 0 -108.5 -29.5t-45.5 -96.5l-32 -236h522l33 240q17 121 82.5 176
t185.5 55h147l-16 -109h-125z" />
    <glyph glyph-name="fi" unicode="&#xfb01;" horiz-adv-x="1144" 
d="M1055 1024l-137 -1024h-117l123 918h-525l-125 -918h-118l123 918h-185l15 106h184l33 240q17 121 82.5 176t185.5 55h147l-16 -109h-125q-74 0 -108.5 -29.5t-45.5 -96.5l-32 -236h641zM967 1434h174l-23 -160h-174z" />
    <glyph glyph-name="fl" unicode="&#xfb02;" horiz-adv-x="1087" 
d="M326 1264q17 121 82.5 176t185.5 55h147l-16 -109h-125q-74 0 -108.5 -29.5t-45.5 -96.5l-32 -236h260l-15 -106h-260l-125 -918h-118l123 918h-185l15 106h184zM944 1495h117l-201 -1495h-117z" />
    <glyph glyph-name="f_f_i" unicode="&#xfb03;" horiz-adv-x="1789" 
d="M1092 1260l-33 -236h524l-14 -106h-525l-124 -918h-119l123 918h-525l-125 -918h-118l123 918h-185l15 106h184l33 240q17 121 82.5 176t185.5 55h147l-16 -109h-125q-74 0 -108.5 -29.5t-45.5 -96.5l-32 -236h524l33 240q17 121 82.5 176t185.5 55h147l-16 -109h-125
q-74 0 -108 -29.5t-45 -96.5zM1612 1434h174l-23 -160h-174zM1446 0l137 1024h117l-137 -1024h-117z" />
    <glyph glyph-name="null" horiz-adv-x="0" 
 />
    <glyph glyph-name="i.loclTRK" horiz-adv-x="432" 
d="M221 1243l21 160h174l-21 -160h-174zM86 0l143 1024h117l-143 -1024h-117z" />
    <glyph glyph-name="f_f_t" horiz-adv-x="1951" 
d="M1679 918l-92 -693q-8 -63 13.5 -89.5t87.5 -26.5h122l-14 -109h-129q-106 0 -160 60.5t-37 175.5l93 682h-519l-124 -918h-119l123 918h-525l-125 -918h-118l123 918h-185l15 106h184l33 240q17 121 82.5 176t185.5 55h147l-16 -109h-125q-74 0 -108.5 -29.5
t-45.5 -96.5l-32 -236h524l33 240q17 121 82.5 176t185.5 55h147l-16 -109h-125q-74 0 -108 -29.5t-45 -96.5l-33 -236h428q91 0 100 74l25 188h117l-35 -262h241l-14 -106h-242z" />
    <glyph glyph-name="f_t" horiz-adv-x="1306" 
d="M1034 918l-92 -693q-8 -63 13 -89.5t87 -26.5h123l-14 -109h-129q-106 0 -160 60.5t-37 175.5l93 682h-519l-125 -918h-118l123 918h-185l15 106h184l33 240q17 121 82.5 176t185.5 55h147l-16 -109h-125q-74 0 -108.5 -29.5t-45.5 -96.5l-32 -236h428q91 0 100 74
l25 188h116l-34 -262h241l-14 -106h-242z" />
    <glyph glyph-name="t_t" horiz-adv-x="1296" 
d="M1024 918l-92 -693q-8 -63 13 -89.5t87 -26.5h123l-14 -109h-129q-106 0 -160 60.5t-37 175.5l92 682h-520l-92 -693q-8 -63 13 -89.5t87 -26.5h123l-14 -109h-129q-106 0 -160 60.5t-37 175.5l92 682h-196l14 106h107q91 0 100 74l24 188h117l-35 -262h430q92 0 101 74
l24 188h117l-35 -262h242l-14 -106h-242z" />
    <glyph glyph-name="zero.tf" horiz-adv-x="1331" 
d="M631 -20q-220 0 -344.5 164.5t-124.5 469.5q-3 169 38.5 322.5t118.5 268.5t191.5 182.5t249.5 66.5q215 0 338 -167.5t123 -471.5q0 -352 -166 -594q-165 -241 -424 -241zM989 1237q-81 106 -227 106q-110 0 -202 -61t-151 -163.5t-90.5 -235t-29.5 -277.5
q0 -208 57 -334zM618 90q145 -1 256.5 103.5t167.5 272.5t52 363q0 194 -52 316l-641 -961q82 -94 217 -94z" />
    <glyph glyph-name="one.tf" horiz-adv-x="1331" 
d="M705 121h368l-16 -121h-858l16 121h367l155 1179l-444 -178l18 131l445 181h123z" />
    <glyph glyph-name="two.tf" horiz-adv-x="1331" 
d="M856 590l-547 -469h738l-17 -121h-911l16 115l625 534q165 142 229 236q66 97 66 196q0 122 -81.5 192t-221.5 70q-138 0 -236 -81.5t-125 -210.5h-129q42 189 179.5 296t328.5 107q182 0 297 -100q115 -103 115 -267q0 -125 -74 -237q-75 -109 -252 -260z" />
    <glyph glyph-name="three.tf" horiz-adv-x="1331" 
d="M909 739q105 -35 167.5 -120t62.5 -191q0 -203 -144 -326q-143 -122 -377 -122q-213 0 -339 114q-127 115 -109 297h127q-5 -146 77 -223.5t255 -77.5q174 0 278.5 89t104.5 241q0 121 -86.5 191.5t-235.5 70.5h-106l16 119h107q169 0 264.5 83t95.5 222q0 111 -82 174
t-229 63q-157 0 -254.5 -80t-116.5 -221h-129q27 193 161.5 302.5t354.5 109.5q177 0 301 -92q121 -92 121 -260q0 -130 -72.5 -225.5t-212.5 -137.5z" />
    <glyph glyph-name="four.tf" horiz-adv-x="1331" 
d="M803 0l41 311h-715l16 111l826 1012h143l-129 -1006h219l-16 -117h-219l-43 -311h-123zM297 428h563l109 825z" />
    <glyph glyph-name="five.tf" horiz-adv-x="1331" 
d="M1198 1315h-639l-153 -477q124 118 309 118q193 0 308.5 -118.5t115.5 -321.5q0 -235 -150 -385q-151 -151 -373 -151q-187 0 -315 104q-130 106 -139 274h133q3 -125 96 -194q95 -74 223 -74q169 0 283 123q115 121 115 305q0 152 -83 240t-224 88q-207 0 -332 -168
h-135l237 756h739z" />
    <glyph glyph-name="six.tf" horiz-adv-x="1331" 
d="M735 987q184 0 309 -125q127 -127 127 -332q0 -229 -151 -389q-151 -161 -393 -161q-202 0 -330 137q-129 135 -129 440q0 342 158 606q80 134 210.5 212.5t288.5 78.5q169 0 284 -88t132 -244h-129q-62 221 -287 221q-207 0 -337.5 -153.5t-180.5 -446.5q53 113 174 179
q121 65 254 65zM635 90q180 0 295 133q114 132 114 314q0 154 -86.5 247t-238.5 93q-177 0 -297 -123q-123 -123 -123 -316q0 -166 94.5 -257t241.5 -91z" />
    <glyph glyph-name="seven.tf" horiz-adv-x="1331" 
d="M1067 1313h-801l17 121h954l-14 -115q-269 -288 -469 -635q-208 -357 -310 -684h-129q106 338 314 696q209 356 438 617z" />
    <glyph glyph-name="eight.tf" horiz-adv-x="1331" 
d="M946 762q101 -39 165.5 -132.5t64.5 -207.5q0 -201 -154 -322q-153 -120 -395 -120q-226 0 -363 104q-141 105 -141 285q0 143 91 256t247 155q-83 38 -129.5 116.5t-46.5 174.5q0 173 145 279q143 104 348 104q195 0 314 -98q118 -97 118 -254q0 -120 -70 -209
t-194 -131zM770 1348q-154 0 -260 -80q-104 -79 -104 -207q0 -113 84 -178.5t231 -65.5q161 0 263.5 79t102.5 204q0 115 -87.5 181.5t-229.5 66.5zM627 94q186 0 305 88q117 88 117 234q0 131 -98.5 213t-268.5 82q-186 0 -307 -95q-123 -94 -123 -241q0 -132 101.5 -206.5
t273.5 -74.5z" />
    <glyph glyph-name="nine.tf" horiz-adv-x="1331" 
d="M713 1454q226 0 351.5 -163t125.5 -457q0 -326 -150 -580q-75 -127 -200.5 -200.5t-280.5 -73.5q-185 0 -299 89t-131 242h129q50 -221 303 -221q209 0 344 170q135 174 150 420q-45 -97 -158 -164q-113 -70 -256 -70q-180 0 -311 113q-135 114 -135 344q0 240 143 395
q144 156 375 156zM655 557q167 0 283 113q115 112 115 291q0 158 -90 274q-91 113 -250 113q-161 0 -275 -117q-116 -119 -116 -320q0 -183 98 -268q100 -86 235 -86z" />
    <glyph glyph-name="zero.dnom" horiz-adv-x="698" 
d="M303 -10q-131 0 -205.5 86t-74.5 239q0 179 92 303q92 121 245 121q128 0 202.5 -88t74.5 -243q0 -176 -92 -297q-95 -121 -242 -121zM301 86q99 0 162 92t63 232q0 111 -43.5 172t-126.5 61q-102 0 -162.5 -92t-60.5 -232q0 -113 43 -173t125 -60z" />
    <glyph glyph-name="one.dnom" horiz-adv-x="530" 
d="M319 102h142l-17 -102h-383l15 102h135l70 514l-177 -81l15 108l176 86h108z" />
    <glyph glyph-name="two.dnom" horiz-adv-x="610" 
d="M393 281l-217 -179h324l-15 -102h-483l12 98l312 250q71 59 99 97t28 81q0 54 -33 84.5t-90 30.5q-62 0 -103.5 -36t-52.5 -97h-108q13 108 86.5 169.5t181.5 61.5q103 0 166 -56t63 -148q0 -69 -38.5 -123t-131.5 -131z" />
    <glyph glyph-name="three.dnom" horiz-adv-x="614" 
d="M440 373q101 -34 101 -154q0 -105 -77 -167t-200 -62q-118 0 -185 64.5t-54 166.5h108q-7 -66 27.5 -101.5t103.5 -35.5q72 0 117 37t45 98q0 50 -34.5 79.5t-96.5 29.5h-57l14 90h57q71 0 109.5 34.5t38.5 92.5q0 47 -32 73.5t-89 26.5q-69 0 -112.5 -37t-49.5 -100
h-108q12 107 85 169t191 62q101 0 165 -50.5t64 -135.5q0 -61 -34.5 -109t-96.5 -71z" />
    <glyph glyph-name="four.dnom" horiz-adv-x="638" 
d="M322 0l18 143h-348l14 97l404 489h118l-63 -487h102l-14 -99h-102l-21 -143h-108zM119 242h235l43 333z" />
    <glyph glyph-name="five.dnom" horiz-adv-x="634" 
d="M561 633h-317l-58 -176q48 39 133 39q99 0 161.5 -62.5t62.5 -167.5q0 -122 -80 -199t-203 -77q-106 0 -175 58.5t-69 158.5h107q0 -55 39.5 -89t97.5 -34q70 0 119 51.5t49 128.5q0 66 -35.5 104t-97.5 38q-93 0 -145 -82h-107l129 405h401z" />
    <glyph glyph-name="six.dnom" horiz-adv-x="649" 
d="M334 504q99 0 165 -65.5t66 -172.5q0 -118 -79.5 -197t-198.5 -79q-120 0 -187 76t-67 231q0 180 88 311t248 131q95 0 159.5 -49.5t77.5 -136.5h-108q-21 92 -133 92q-81 0 -135.5 -57.5t-73.5 -161.5q66 78 178 78zM287 84q72 0 121 53.5t49 128.5q0 67 -37.5 106.5
t-102.5 39.5q-73 0 -123.5 -51.5t-50.5 -129.5q0 -68 40.5 -107.5t103.5 -39.5z" />
    <glyph glyph-name="seven.dnom" horiz-adv-x="530" 
d="M399 631h-364l12 98h494l-11 -92q-270 -292 -370 -637h-109q94 330 348 631z" />
    <glyph glyph-name="eight.dnom" horiz-adv-x="624" 
d="M446 389q103 -53 103 -170q0 -102 -79 -165.5t-204 -63.5q-119 0 -191.5 57.5t-72.5 155.5q0 63 37.5 116t97.5 78q-76 46 -76 144q0 87 72.5 142.5t179.5 55.5q106 0 171 -52.5t65 -137.5q0 -113 -103 -160zM311 653q-64 0 -104.5 -32.5t-40.5 -85.5q0 -48 35 -76.5
t96 -28.5q66 0 106.5 33t40.5 84q0 49 -36 77.5t-97 28.5zM268 82q75 0 122.5 38t47.5 99q0 55 -41.5 90t-109.5 35q-75 0 -124.5 -38.5t-49.5 -98.5q0 -57 43 -91t112 -34z" />
    <glyph glyph-name="nine.dnom" horiz-adv-x="655" 
d="M317 739q117 0 190 -84t73 -239q0 -176 -82 -301t-244 -125q-97 0 -162.5 52t-71.5 134h107q18 -92 129 -92q84 0 138.5 62.5t62.5 162.5q-66 -84 -181 -84q-93 0 -160 61.5t-67 172.5q0 123 75.5 201.5t192.5 78.5zM299 315q69 0 116.5 49.5t47.5 122.5
q0 69 -39.5 113.5t-104.5 44.5q-68 0 -115.5 -50.5t-47.5 -123.5q0 -75 41.5 -115.5t101.5 -40.5z" />
    <glyph glyph-name="zero.numr" horiz-adv-x="694" 
d="M393 694q-131 0 -205.5 86.5t-74.5 239.5q0 179 92 303q92 121 246 121q128 0 202 -88.5t74 -243.5q0 -176 -92 -297q-95 -121 -242 -121zM391 791q99 0 162 91.5t63 231.5q0 111 -43.5 172.5t-126.5 61.5q-102 0 -162.5 -92t-60.5 -232q0 -113 43 -173t125 -60z" />
    <glyph glyph-name="one.numr" horiz-adv-x="528" 
d="M416 807h139l-16 -102h-383l14 102h137l70 514l-176 -82l14 109l176 86h109z" />
    <glyph glyph-name="two.numr" horiz-adv-x="610" 
d="M485 985l-217 -178h324l-14 -102h-484l12 98l312 250q71 59 99 97t28 81q0 54 -33 84.5t-90 30.5q-62 0 -103.5 -36.5t-52.5 -97.5h-108q13 108 86.5 170t181.5 62q103 0 166 -56.5t63 -148.5q0 -69 -38.5 -123t-131.5 -131z" />
    <glyph glyph-name="three.numr" horiz-adv-x="614" 
d="M535 1077q100 -34 100 -153q0 -105 -77 -167.5t-200 -62.5q-118 0 -185 65t-54 167h108q-7 -66 27.5 -102t103.5 -36q72 0 117 37.5t45 98.5q0 50 -34.5 79t-96.5 29h-57l14 90h57q71 0 109.5 34.5t38.5 92.5q0 47 -32 74t-89 27q-69 0 -112.5 -37.5t-49.5 -100.5h-108
q12 107 85.5 169.5t190.5 62.5q101 0 165.5 -51t64.5 -136q0 -61 -34.5 -109t-96.5 -71z" />
    <glyph glyph-name="four.numr" horiz-adv-x="636" 
d="M416 715l16 143h-346l14 96l402 490h119l-64 -488h102l-14 -98h-102l-19 -143h-108zM221 956h225l43 326z" />
    <glyph glyph-name="five.numr" horiz-adv-x="634" 
d="M655 1337h-317l-57 -176q48 39 133 39q99 0 161 -62t62 -167q0 -122 -80.5 -199.5t-202.5 -77.5q-106 0 -174.5 58.5t-68.5 158.5h106q0 -55 39.5 -89t97.5 -34q70 0 119 52t49 129q0 66 -35.5 103.5t-97.5 37.5q-93 0 -145 -82h-107l129 406h402z" />
    <glyph glyph-name="six.numr" horiz-adv-x="649" 
d="M426 1208q99 0 165 -65t66 -172q0 -118 -79.5 -197.5t-198.5 -79.5q-120 0 -187 76t-67 231q0 181 88 312t248 131q95 0 159.5 -50t77.5 -137h-108q-21 93 -133 93q-81 0 -135.5 -58t-73.5 -162q66 78 178 78zM379 788q72 0 121 54t49 129q0 67 -37 106t-102 39
q-73 0 -123.5 -51t-50.5 -129q0 -68 40 -108t103 -40z" />
    <glyph glyph-name="seven.numr" horiz-adv-x="530" 
d="M492 1346h-365l12 98h494l-10 -92q-271 -293 -371 -637h-109q94 329 349 631z" />
    <glyph glyph-name="eight.numr" horiz-adv-x="645" 
d="M543 1092q98 -46 98 -168q0 -102 -81 -166t-206 -64q-117 0 -188.5 56t-71.5 149q0 69 41 123.5t109 77.5q-72 44 -72 139q0 91 73 148t183 57q104 0 169 -52t65 -137q0 -58 -33 -100.5t-86 -62.5zM424 1358q-64 0 -107 -34t-43 -87q0 -47 36 -74.5t96 -27.5
q66 0 107.5 33.5t41.5 84.5q0 49 -36.5 77t-94.5 28zM360 786q75 0 123.5 38.5t48.5 99.5q0 55 -41.5 90t-109.5 35q-75 0 -125.5 -40.5t-50.5 -101.5q0 -55 42.5 -88t112.5 -33z" />
    <glyph glyph-name="nine.numr" horiz-adv-x="655" 
d="M412 1444q117 0 189.5 -84.5t72.5 -239.5q0 -176 -82 -301t-244 -125q-97 0 -162 52.5t-71 134.5h106q18 -93 129 -93q84 0 138.5 63t62.5 163q-66 -84 -180 -84q-93 0 -160.5 61t-67.5 172q0 123 76 202t193 79zM393 1020q69 0 116.5 49.5t47.5 122.5q0 69 -39 113.5
t-104 44.5q-68 0 -116 -50.5t-48 -123.5q0 -75 41.5 -115.5t101.5 -40.5z" />
    <glyph glyph-name="uni03060301" horiz-adv-x="0" 
d="M-866 1507l190 250h160l-225 -250h-125zM-655 1454h112q-10 -112 -86.5 -181t-189.5 -69q-117 0 -182.5 68.5t-57.5 181.5h107q-4 -66 29.5 -104.5t95.5 -38.5q72 0 118.5 38t53.5 105z" />
    <glyph glyph-name="uni03060300" horiz-adv-x="0" 
d="M-741 1499h-125l-226 250h160zM-655 1454h112q-10 -112 -86.5 -181t-189.5 -69q-117 0 -182.5 68.5t-57.5 181.5h107q-4 -66 29.5 -104.5t95.5 -38.5q72 0 118.5 38t53.5 105z" />
    <glyph glyph-name="uni03060309" horiz-adv-x="0" 
d="M-760 1784q64 0 102 -35.5t31 -91.5q-9 -57 -57.5 -106t-122.5 -81l-37 58q92 49 101 100q3 30 -13.5 48t-50.5 18q-38 0 -72 -17l-16 70q65 37 135 37zM-655 1454h112q-10 -112 -86.5 -181t-189.5 -69q-117 0 -182.5 68.5t-57.5 181.5h107q-4 -66 29.5 -104.5
t95.5 -38.5q72 0 118.5 38t53.5 105z" />
    <glyph glyph-name="uni03060303" horiz-adv-x="0" 
d="M-870 1710q50 0 122 -35q67 -37 97 -37q65 0 80 74h92q-7 -90 -53 -139t-119 -49q-51 0 -121 37q-69 34 -98 34q-68 0 -80 -73h-92q6 87 52.5 137.5t119.5 50.5zM-655 1454h112q-10 -112 -86.5 -181t-189.5 -69q-117 0 -182.5 68.5t-57.5 181.5h107q-4 -66 29.5 -104.5
t95.5 -38.5q72 0 118.5 38t53.5 105z" />
    <glyph glyph-name="uni03020301" horiz-adv-x="0" 
d="M-541 1337l191 250h160l-226 -250h-125zM-1073 1204l225 250h133l160 -250h-131l-107 158l-145 -158h-135z" />
    <glyph glyph-name="uni03020300" horiz-adv-x="0" 
d="M-389 1376h-125l-225 250h159zM-1073 1204l225 250h133l160 -250h-131l-107 158l-145 -158h-135z" />
    <glyph glyph-name="uni03020309" horiz-adv-x="0" 
d="M-473 1632q64 0 102 -35.5t31 -91.5q-9 -57 -57.5 -105.5t-122.5 -80.5l-37 57q91 48 100 101q3 30 -13 47.5t-50 17.5q-40 0 -72 -16l-16 69q65 37 135 37zM-1073 1204l225 250h133l160 -250h-131l-107 158l-145 -158h-135z" />
    <glyph glyph-name="uni03020303" horiz-adv-x="0" 
d="M-883 1683q54 0 123 -34q67 -37 96 -37q65 0 80 74h92q-7 -90 -53 -139.5t-119 -49.5q-50 0 -120 37q-72 35 -99 35q-68 0 -80 -74h-92q6 87 52.5 137.5t119.5 50.5zM-1073 1204l225 250h133l160 -250h-131l-107 158l-145 -158h-135z" />
    </font>
</defs>
</svg>
