<?xml version="1.0" standalone="no"?>
<!DOCTYPE svg PUBLIC "-//W3C//DTD SVG 1.1//EN" "http://www.w3.org/Graphics/SVG/1.1/DTD/svg11.dtd" >
<svg xmlns="http://www.w3.org/2000/svg" xmlns:xlink="http://www.w3.org/1999/xlink" version="1.1">
<metadata>
Created by FontForge 20170731 at Fri Dec 30 18:41:08 2022
 By Aleksey,,,
Copyright 2017 Fontstore Pte Ltd. All rights reserved.
</metadata>
<defs>
<font id="NeurialGrotesk-MediumItalic" horiz-adv-x="1388" >
  <font-face 
    font-family="Medium Italic"
    font-weight="400"
    font-style="italic"
    font-stretch="normal"
    units-per-em="2048"
    panose-1="0 0 6 0 0 0 0 0 0 0"
    ascent="1597"
    descent="-451"
    x-height="1049"
    cap-height="1458"
    bbox="-1300 -494 3502 2249"
    underline-thickness="163"
    underline-position="-562"
    slope="-7.95"
    unicode-range="U+0020-FB03"
  />
<missing-glyph horiz-adv-x="1206" 
d="M8 0l205 1448h1038l-204 -1448h-1039z" />
    <glyph glyph-name=".notdef" horiz-adv-x="1206" 
d="M8 0l205 1448h1038l-204 -1448h-1039z" />
    <glyph glyph-name=".null" horiz-adv-x="0" 
 />
    <glyph glyph-name="nonmarkingreturn" horiz-adv-x="681" 
 />
    <glyph glyph-name="space" unicode=" " horiz-adv-x="389" 
 />
    <glyph glyph-name="exclam" unicode="!" horiz-adv-x="548" 
d="M180 446q9 265 58 609l57 403h217l-57 -403q-38 -295 -113 -609h-162zM57 0l41 285h285l-41 -285h-285z" />
    <glyph glyph-name="quotedbl" unicode="&#x22;" horiz-adv-x="858" 
d="M242 907q-13 143 24 441l15 110h211l-17 -110q-48 -321 -92 -441h-141zM604 907q-15 151 25 441l12 110h211l-16 -110q-48 -330 -91 -441h-141z" />
    <glyph glyph-name="numbersign" unicode="#" horiz-adv-x="1284" 
d="M90 0l139 383h-190l65 188h193l111 310h-203l63 188h207l141 389h201l-139 -389h229l142 389h202l-141 -389h190l-61 -188h-197l-110 -310h205l-66 -188h-207l-139 -383h-201l138 383h-232l-137 -383h-203zM500 571h229l113 310h-232z" />
    <glyph glyph-name="dollar" unicode="$" horiz-adv-x="1292" 
d="M463 -190l24 180q-192 29 -298 144t-89 280h222q-11 -109 67.5 -173.5t239.5 -64.5q142 0 234.5 62t92.5 163q0 81 -47.5 129t-156.5 74l-187 45q-348 86 -348 375q0 184 131 309q132 123 346 144l25 172h186l-24 -179q192 -26 293.5 -138.5t82.5 -284.5h-219
q12 115 -60.5 177t-219.5 62q-138 0 -220.5 -65.5t-82.5 -165.5q0 -149 223 -201l174 -41q340 -82 340 -377q0 -198 -148 -319q-147 -120 -372 -135l-23 -172h-186z" />
    <glyph glyph-name="percent" unicode="%" horiz-adv-x="1921" 
d="M467 684q-138 0 -227.5 97t-89.5 261q0 188 100 312q101 125 264 125q144 0 232 -97.5t88 -265.5q0 -185 -103 -309q-102 -123 -264 -123zM328 0l1114 1458h211l-1114 -1458h-211zM473 854q83 0 127.5 75t44.5 187q0 193 -135 193q-81 0 -125.5 -75t-44.5 -190
q0 -190 133 -190zM1460 -20q-139 0 -228 97t-89 261q0 187 100 311q98 125 262 125q145 0 233.5 -97t88.5 -265q0 -186 -103 -310q-101 -122 -264 -122zM1466 150q82 0 126 75.5t44 186.5q0 190 -133 190q-81 0 -126.5 -75t-45.5 -187q0 -190 135 -190z" />
    <glyph glyph-name="ampersand" unicode="&#x26;" horiz-adv-x="1523" 
d="M569 -20q-201 0 -329 94q-131 94 -131 276q0 253 337 428l41 21l-2 2q-127 174 -127 309q0 162 113 266q112 103 293 103q167 0 271 -90.5t104 -233.5q0 -106 -62.5 -188t-191.5 -156l-94 -53l249 -330q103 139 138 340h192q-38 -288 -215 -492l2 -2q33 -44 66.5 -60.5
t97.5 -16.5h102l-26 -197h-133q-102 0 -161.5 27t-113.5 96q-180 -143 -420 -143zM692 887l78 45q162 94 162 213q0 72 -47.5 117t-122.5 45q-84 0 -137.5 -51.5t-53.5 -127.5q0 -79 88 -198zM592 164q167 0 293 100l-301 404l-35 -21q-114 -66 -161.5 -129.5t-47.5 -140.5
q0 -103 69 -158t183 -55z" />
    <glyph glyph-name="quotesingle" unicode="'" horiz-adv-x="501" 
d="M252 909q-19 165 20 422l19 127h211l-19 -127q-44 -296 -90 -422h-141z" />
    <glyph glyph-name="parenleft" unicode="(" horiz-adv-x="604" 
d="M270 -164q-153 310 -153 701q0 302 116 598q115 293 299 483h193q-160 -198 -270 -496q-109 -298 -109 -573q0 -379 111 -713h-187z" />
    <glyph glyph-name="parenright" unicode=")" horiz-adv-x="604" 
d="M-66 -164q165 192 273 490q106 293 106 589q0 463 -129 703h195q93 -158 133 -381q39 -218 20 -453q-17 -271 -123 -520t-282 -428h-193z" />
    <glyph glyph-name="asterisk" unicode="*" horiz-adv-x="774" 
d="M340 868l-109 74l88 115q51 65 84 84q-39 -3 -118 22l-131 45l43 121l131 -45q56 -18 102 -49q-14 41 -14 113v139h127v-139q0 -78 -15 -113q49 32 103 51l131 43l45 -121l-133 -45q-73 -25 -117 -22q39 -23 84 -84l86 -115l-104 -74l-82 111q-49 61 -62 108
q-13 -50 -57 -108z" />
    <glyph glyph-name="plus" unicode="+" horiz-adv-x="1226" 
d="M461 190l53 377h-373l29 207h373l53 377h209l-53 -377h372l-28 -207h-373l-53 -377h-209z" />
    <glyph glyph-name="comma" unicode="," horiz-adv-x="499" 
d="M25 -240l153 240h-141l39 283h286l-38 -283l-164 -240h-135z" />
    <glyph glyph-name="hyphen" unicode="-" horiz-adv-x="866" 
d="M98 494l29 206h661l-28 -206h-662z" />
    <glyph glyph-name="period" unicode="." horiz-adv-x="495" 
d="M33 0l41 283h284l-39 -283h-286z" />
    <glyph glyph-name="slash" unicode="/" horiz-adv-x="747" 
d="M-63 0l725 1458h204l-725 -1458h-204z" />
    <glyph glyph-name="zero" unicode="0" 
d="M664 -20q-262 0 -410 172t-148 475q0 358 189 606q187 246 493 246q252 0 402 -172q147 -175 147 -484q0 -361 -188 -602q-186 -241 -485 -241zM662 178q198 0 321 182t123 461q0 218 -84.5 338.5t-243.5 120.5q-203 0 -323 -184q-119 -186 -119 -459q0 -222 83.5 -340.5
t242.5 -118.5z" />
    <glyph glyph-name="one" unicode="1" horiz-adv-x="761" 
d="M289 0l166 1227l-351 -164l31 225l350 170h226l-199 -1458h-223z" />
    <glyph glyph-name="two" unicode="2" horiz-adv-x="1138" 
d="M0 0l31 205l616 495q140 113 195 188t55 163q0 101 -68 163t-184 62q-119 0 -198.5 -72.5t-100.5 -191.5h-221q30 222 176 344.5t365 122.5q205 0 333 -113q127 -115 127 -297q0 -140 -84 -256q-84 -112 -264 -254l-428 -346h651l-28 -213h-973z" />
    <glyph glyph-name="three" unicode="3" horiz-adv-x="1189" 
d="M563 -20q-235 0 -373 129q-136 127 -112 337h221q-8 -131 61.5 -201.5t208.5 -70.5q136 0 219.5 71.5t83.5 192.5q0 98 -67.5 155.5t-190.5 57.5h-118l26 187h121q138 0 215.5 65.5t77.5 179.5q0 94 -68 148.5t-186 54.5q-129 0 -210 -73t-95 -199h-221
q25 216 170.5 340.5t382.5 124.5q198 0 331 -103q131 -101 131 -278q0 -129 -69 -223t-195 -132q94 -35 149.5 -118t55.5 -191q0 -209 -156 -332q-155 -122 -393 -122z" />
    <glyph glyph-name="four" unicode="4" horiz-adv-x="1214" 
d="M668 0l39 285h-695l29 200l809 973h246l-129 -971h202l-28 -202h-203l-41 -285h-229zM281 487h454l88 650z" />
    <glyph glyph-name="five" unicode="5" horiz-adv-x="1181" 
d="M543 -20q-205 0 -348 116q-144 117 -144 324h221q-1 -110 77 -178t192 -68q142 0 235 100q94 101 94 254q0 129 -69.5 204t-188.5 75q-189 0 -290 -162h-220l260 813h809l-26 -198h-635l-113 -345q104 78 269 78q196 0 319 -123q123 -126 123 -338q0 -243 -160 -397
q-162 -155 -405 -155z" />
    <glyph glyph-name="six" unicode="6" horiz-adv-x="1234" 
d="M614 -20q-221 0 -366 151t-142 465q2 168 45.5 324.5t124.5 281.5q84 129 215 203t289 74q188 0 315 -100.5t150 -272.5h-221q-47 182 -250 182q-160 0 -265 -110t-147 -314q57 66 149.5 105t195.5 39q196 0 331 -129q134 -134 131 -353q-3 -238 -159 -391
q-155 -155 -396 -155zM606 174q150 0 244 107q93 103 96 254q2 130 -71.5 209t-200.5 79q-144 0 -244 -100q-99 -99 -102 -254q0 -137 77 -216t201 -79z" />
    <glyph glyph-name="seven" unicode="7" horiz-adv-x="1046" 
d="M143 0q85 300 279 645q195 345 422 612h-733l28 201h1004l-25 -186q-263 -278 -463 -621q-195 -337 -284 -651h-228z" />
    <glyph glyph-name="eight" unicode="8" horiz-adv-x="1261" 
d="M621 -18q-236 0 -379 110q-148 112 -148 303q0 139 81.5 249t215.5 151q-143 85 -143 278q0 184 149 297q150 111 371 111q201 0 334 -103q129 -105 129 -276q0 -115 -64.5 -202.5t-167.5 -125.5q88 -42 141.5 -128.5t53.5 -196.5q0 -211 -160 -338q-164 -129 -413 -129z
M717 866q128 0 210.5 65t82.5 169q0 93 -70.5 150t-183.5 57q-127 0 -209 -67.5t-82 -170.5q0 -92 68.5 -147.5t183.5 -55.5zM627 174q149 0 243.5 75t94.5 193q0 110 -79.5 178t-217.5 68q-149 0 -245.5 -78.5t-96.5 -199.5q0 -108 82.5 -172t218.5 -64z" />
    <glyph glyph-name="nine" unicode="9" horiz-adv-x="1249" 
d="M537 -20q-202 0 -328.5 102.5t-140.5 271.5h219q18 -90 85.5 -136t168.5 -46q156 0 266 115.5t133 306.5q-57 -64 -147 -102.5t-191 -38.5q-64 0 -126.5 14.5t-124 49.5t-108 86.5t-75.5 133t-29 181.5q0 249 156 405t393 156q222 0 367 -160q143 -158 143 -479
q0 -491 -293 -734q-153 -126 -368 -126zM645 637q138 0 232 94q96 93 96 242q0 137 -79 226t-208 89q-135 0 -229 -98q-95 -100 -95 -256q0 -142 80 -219.5t203 -77.5z" />
    <glyph glyph-name="colon" unicode=":" horiz-adv-x="499" 
d="M139 768l41 281h285l-39 -281h-287zM33 0l39 283h286l-39 -283h-286z" />
    <glyph glyph-name="semicolon" unicode=";" horiz-adv-x="489" 
d="M131 768l41 283h285l-39 -283h-287zM25 -240l153 240h-141l39 283h286l-38 -283l-164 -240h-135z" />
    <glyph glyph-name="less" unicode="&#x3c;" horiz-adv-x="1228" 
d="M989 145l-796 390l36 266l904 389l-33 -238l-701 -295l623 -282z" />
    <glyph glyph-name="equal" unicode="=" horiz-adv-x="1230" 
d="M240 805l26 194h830l-27 -194h-829zM176 354l25 195h829l-26 -195h-828z" />
    <glyph glyph-name="greater" unicode="&#x3e;" horiz-adv-x="1228" 
d="M135 145l33 238l700 295l-620 289l31 223l798 -387l-39 -268z" />
    <glyph glyph-name="question" unicode="?" horiz-adv-x="1058" 
d="M362 459q3 57 23.5 109t45.5 88t67.5 75.5t71.5 61t76 54.5q11 7 16 11q151 106 151 236q0 87 -54 136.5t-147 49.5q-108 0 -174.5 -63.5t-77.5 -169.5h-227q15 192 148 313q131 119 346 119q196 0 313 -101t117 -266q0 -58 -17.5 -110t-44.5 -90t-66 -74.5t-75.5 -63
t-79.5 -55.5q-18 -11 -26 -17q-175 -117 -185 -243h-201zM254 0l39 283h287l-39 -283h-287z" />
    <glyph glyph-name="at" unicode="@" horiz-adv-x="1794" 
d="M844 -154q-355 0 -559 207q-209 206 -209 537q0 377 256 633t645 256q335 0 559 -193q223 -192 223 -508q0 -251 -119 -403q-121 -154 -299 -154q-111 0 -178 50.5t-71 140.5q-37 -65 -108 -106.5t-161 -41.5q-139 0 -228 97.5t-89 261.5q0 188 112 327q116 140 291 140
q96 0 165 -43t95 -119l31 108h125l-104 -499q-38 -195 135 -195q104 0 178 121t74 315q0 259 -170 418q-175 158 -455 158q-335 0 -543 -217q-209 -218 -209 -545q0 -280 160 -451q159 -170 453 -170q201 0 375 80l45 -110q-182 -95 -420 -95zM840 393q94 -2 158.5 64.5
t93.5 195.5q32 141 -14.5 227.5t-151.5 86.5q-121 0 -185 -107q-65 -109 -65 -237q0 -106 42.5 -167.5t121.5 -62.5z" />
    <glyph glyph-name="A" unicode="A" 
d="M-51 0l764 1458h231l352 -1458h-239l-76 334h-612l-172 -334h-248zM465 520h473l-145 633z" />
    <glyph glyph-name="B" unicode="B" horiz-adv-x="1366" 
d="M76 0l196 1458h607q204 0 320 -96t116 -256q0 -119 -61.5 -215t-180.5 -137q96 -35 147.5 -113.5t51.5 -187.5q0 -202 -144 -328q-143 -125 -376 -125h-676zM418 834h385q127 0 198.5 63t71.5 174q0 88 -58 137t-171 49h-369zM334 201h395q142 0 221.5 66.5t79.5 183.5
q0 93 -58.5 143.5t-166.5 50.5h-412z" />
    <glyph glyph-name="C" unicode="C" horiz-adv-x="1513" 
d="M748 -20q-294 0 -469 178q-179 176 -179 483q0 352 226 596q224 242 575 242q246 0 414 -133q165 -136 192 -359h-247q-32 135 -130.5 207t-242.5 72q-241 0 -391 -172q-152 -178 -152 -445q0 -213 109.5 -334.5t300.5 -121.5q308 0 440 278h254q-82 -234 -264.5 -362.5
t-435.5 -128.5z" />
    <glyph glyph-name="D" unicode="D" horiz-adv-x="1472" 
d="M76 0l200 1458h486q305 0 485 -180t180 -483q0 -355 -229 -574q-232 -221 -618 -221h-504zM334 207h229q291 0 455 157t164 429q0 220 -116.5 340t-330.5 120h-260z" />
    <glyph glyph-name="E" unicode="E" horiz-adv-x="1214" 
d="M76 0l200 1458h955l-27 -205h-727l-57 -417h555l-29 -203h-553l-59 -426h770l-31 -207h-997z" />
    <glyph glyph-name="F" unicode="F" horiz-adv-x="1159" 
d="M76 0l200 1458h953l-29 -205h-723l-59 -436h612l-29 -201h-612l-84 -616h-229z" />
    <glyph glyph-name="G" unicode="G" horiz-adv-x="1581" 
d="M717 -18q-272 0 -443 174q-174 171 -174 475q0 351 228 600q227 248 569 248q256 0 424 -131q170 -132 197 -349h-244q-35 132 -135.5 200.5t-249.5 68.5q-233 0 -389 -172q-156 -176 -156 -443q0 -214 112.5 -338.5t303.5 -124.5q164 0 303 86q138 86 168 261q0 7 12 84
h-455l29 194h682l-115 -817h-188l6 182q-174 -198 -485 -198z" />
    <glyph glyph-name="H" unicode="H" horiz-adv-x="1470" 
d="M76 0l200 1458h230l-84 -610h715l82 610h231l-199 -1458h-229l86 635h-717l-86 -635h-229z" />
    <glyph glyph-name="I" unicode="I" horiz-adv-x="526" 
d="M76 0l200 1458h230l-201 -1458h-229z" />
    <glyph glyph-name="J" unicode="J" horiz-adv-x="1142" 
d="M508 -20q-219 0 -340 124q-123 120 -96 340h225q-14 -122 42.5 -188t178.5 -66q236 0 270 246l140 1022h229l-139 -1032q-30 -213 -166.5 -329.5t-343.5 -116.5z" />
    <glyph glyph-name="K" unicode="K" horiz-adv-x="1372" 
d="M76 0l200 1458h228l-101 -745l762 745h297l-649 -639l457 -819h-273l-360 653l-281 -274l-51 -379h-229z" />
    <glyph glyph-name="L" unicode="L" horiz-adv-x="1144" 
d="M76 0l198 1458h230l-166 -1245h715l-31 -213h-946z" />
    <glyph glyph-name="M" unicode="M" horiz-adv-x="1783" 
d="M76 0l198 1458h273l305 -1202l639 1202h272l-198 -1458h-226l91 666q30 246 73 409l-577 -1075h-217l-273 1100q-6 -177 -43 -434l-90 -666h-227z" />
    <glyph glyph-name="N" unicode="N" horiz-adv-x="1464" 
d="M76 0l200 1458h236l553 -1096l149 1096h230l-201 -1458h-237l-553 1083l-148 -1083h-229z" />
    <glyph glyph-name="O" unicode="O" horiz-adv-x="1574" 
d="M750 -10q-285 0 -467 182q-181 181 -181 492q0 345 230 581q231 234 547 234q286 0 469 -183q180 -183 180 -493q0 -345 -230 -578q-229 -235 -548 -235zM756 205q215 0 370 174q154 177 154 426q0 213 -113.5 336t-298.5 123q-216 0 -366 -172q-154 -177 -154 -428
q0 -213 111 -336t297 -123z" />
    <glyph glyph-name="P" unicode="P" horiz-adv-x="1325" 
d="M76 0l200 1458h576q217 0 342 -119t125 -315q0 -224 -162 -367q-165 -145 -418 -145h-360l-70 -512h-233zM408 713h311q161 0 257.5 84t96.5 221q0 111 -68 173t-194 62h-330z" />
    <glyph glyph-name="Q" unicode="Q" horiz-adv-x="1622" 
d="M750 -10q-285 0 -467 182q-181 181 -181 492q0 345 230 581q231 234 547 234q286 0 469 -183q180 -183 180 -493q0 -314 -201 -547l4 -6q28 -35 46 -43t81 -12h74l-29 -195h-139q-76 0 -119 22t-94 84q-186 -116 -401 -116zM756 205q134 0 256 78l-39 49
q-30 38 -53.5 48.5t-73.5 10.5h-107l29 191h154q73 0 115 -19t89 -74l43 -51q111 159 111 367q0 213 -113.5 336t-298.5 123q-216 0 -366 -172q-154 -177 -154 -428q0 -213 111 -336t297 -123z" />
    <glyph glyph-name="R" unicode="R" horiz-adv-x="1361" 
d="M76 0l200 1458h586q231 0 357.5 -116.5t126.5 -319.5q0 -182 -105 -308t-287 -171l211 -543h-258l-192 512h-338l-72 -512h-229zM403 713h338q170 0 264.5 80t94.5 223q0 237 -256 237h-367z" />
    <glyph glyph-name="S" unicode="S" horiz-adv-x="1273" 
d="M602 -20q-254 0 -401 118q-150 120 -129 316h229q-11 -110 71 -174t240 -64q154 0 248 65t94 171q0 78 -49 125.5t-155 72.5l-201 47q-365 82 -365 377q0 198 154 322q150 123 407 123q234 0 383 -107q148 -109 136 -323h-228q10 112 -67.5 174.5t-225.5 62.5
q-143 0 -229 -62t-86 -165q0 -79 50 -126t165 -73l205 -45q350 -77 350 -383q0 -212 -172 -332q-176 -120 -424 -120z" />
    <glyph glyph-name="T" unicode="T" horiz-adv-x="1284" 
d="M449 0l176 1253h-482l27 205h1196l-29 -205h-483l-176 -1253h-229z" />
    <glyph glyph-name="U" unicode="U" horiz-adv-x="1437" 
d="M717 -20q-275 0 -424 165q-155 169 -115 459l117 854h233l-120 -880q-25 -183 61 -288.5t252 -105.5t267 94.5t126 274.5l121 905h233l-125 -919q-36 -267 -197 -413t-429 -146z" />
    <glyph glyph-name="V" unicode="V" horiz-adv-x="1441" 
d="M508 0l-365 1458h250l283 -1184l606 1184h268l-770 -1458h-272z" />
    <glyph glyph-name="W" unicode="W" horiz-adv-x="2074" 
d="M340 0l-182 1458h248l118 -1145l506 1145h273l122 -1145l490 1145h254l-641 -1458h-268l-144 1147l-508 -1147h-268z" />
    <glyph glyph-name="X" unicode="X" horiz-adv-x="1380" 
d="M-37 0l586 741l-379 717h272l291 -565l451 565h280l-583 -725l391 -733h-273l-303 567l-452 -567h-281z" />
    <glyph glyph-name="Y" unicode="Y" horiz-adv-x="1349" 
d="M477 0l72 508l-408 950h258l289 -706l494 706h278l-682 -950l-71 -508h-230z" />
    <glyph glyph-name="Z" unicode="Z" horiz-adv-x="1224" 
d="M4 0l27 184l919 1069h-757l28 205h1047l-27 -184l-917 -1067h784l-29 -207h-1075z" />
    <glyph glyph-name="bracketleft" unicode="[" horiz-adv-x="645" 
d="M43 -184l258 1829h440l-24 -179h-248l-205 -1472h246l-25 -178h-442z" />
    <glyph glyph-name="backslash" unicode="\" horiz-adv-x="1050" 
d="M748 0l-609 1489h223l609 -1489h-223z" />
    <glyph glyph-name="bracketright" unicode="]" horiz-adv-x="645" 
d="M-43 -184l25 178h245l205 1472h-244l25 179h440l-256 -1829h-440z" />
    <glyph glyph-name="asciicircum" unicode="^" horiz-adv-x="1228" 
d="M297 948l356 510h183l208 -510h-208l-117 299l-207 -299h-215z" />
    <glyph glyph-name="underscore" unicode="_" horiz-adv-x="1026" 
d="M-100 -217l28 209h1026l-28 -209h-1026z" />
    <glyph glyph-name="grave" unicode="`" horiz-adv-x="485" 
d="M387 1257l-244 287h213l213 -287h-182z" />
    <glyph glyph-name="a" unicode="a" horiz-adv-x="1171" 
d="M401 -20q-163 0 -258.5 78t-95.5 218q0 149 107 241.5t309 92.5h336l6 54q17 111 -36 168t-165 57q-104 0 -171.5 -47.5t-84.5 -130.5h-205q29 168 155.5 263t322.5 95q72 0 136 -14.5t120 -47.5t93.5 -81t53 -121t2.5 -162l-55 -405q-9 -70 49 -70h51l-24 -168h-136
q-147 0 -147 139q-56 -73 -152.5 -116t-210.5 -43zM475 158q116 0 197 63.5t98 177.5l6 58h-291q-106 0 -155 -43t-49 -115q0 -141 194 -141z" />
    <glyph glyph-name="b" unicode="b" horiz-adv-x="1310" 
d="M670 -20q-122 0 -220 48t-145 130l-41 -158h-203l205 1522h230l-82 -600q57 68 151 108.5t207 40.5q193 0 324 -131q129 -132 129 -369q0 -273 -166 -432q-169 -159 -389 -159zM643 178q142 0 246 107q102 108 102 278q0 140 -75 224.5t-195 84.5q-157 0 -258 -110
q-105 -114 -105 -283q0 -139 79 -220t206 -81z" />
    <glyph glyph-name="c" unicode="c" horiz-adv-x="1179" 
d="M567 -20q-215 0 -346 131q-135 129 -135 356q0 262 166 434q167 170 414 170q198 0 325 -107.5t139 -291.5h-235q-12 95 -79 151t-163 56q-137 0 -237 -115q-99 -114 -99 -291q0 -147 72.5 -223t190.5 -76q98 0 173.5 56t110.5 159h238q-47 -190 -190.5 -299.5
t-344.5 -109.5z" />
    <glyph glyph-name="d" unicode="d" horiz-adv-x="1302" 
d="M530 -20q-154 0 -288 102q-71 54 -113.5 155t-42.5 232q0 276 162 438q164 164 395 164q116 0 209.5 -47t144.5 -129l86 627h222l-205 -1522h-205l2 129q-61 -71 -158 -110t-209 -39zM600 178q147 0 252 111q102 111 102 280q0 139 -79.5 220t-204.5 81q-142 0 -246 -104
q-105 -108 -105 -281q0 -146 80 -226.5t201 -80.5z" />
    <glyph glyph-name="e" unicode="e" horiz-adv-x="1224" 
d="M578 -20q-211 0 -345 131q-137 128 -137 360q-3 264 164 434q166 166 410 166q217 0 342.5 -127.5t130.5 -339.5q0 -64 -15 -141h-819q0 -148 72.5 -223.5t200.5 -75.5q213 0 295 172h225q-50 -164 -193 -258q-143 -98 -331 -98zM328 618h596q-9 275 -275 275
q-114 0 -202 -72t-119 -203z" />
    <glyph glyph-name="f" unicode="f" horiz-adv-x="731" 
d="M135 0l117 852h-172l29 197h170l24 172q24 158 100.5 229.5t229.5 71.5h190l-28 -189h-117q-72 0 -105.5 -29t-44.5 -96l-22 -159h250l-29 -197h-248l-119 -852h-225z" />
    <glyph glyph-name="g" unicode="g" horiz-adv-x="1255" 
d="M518 -430q-210 0 -341 99.5t-142 264.5h219q12 -84 83.5 -132t182.5 -48q134 0 214.5 69.5t99.5 199.5l18 135q-54 -63 -139.5 -99t-182.5 -36q-188 0 -313 122q-129 120 -129 351q0 248 150 411q146 162 372 162q117 0 208 -46.5t136 -125.5l41 152h201l-137 -1000
q-34 -241 -175.5 -360t-365.5 -119zM578 219q140 0 235 105q94 104 94 262q0 133 -72 209.5t-194 76.5q-143 0 -231 -110t-88 -264q0 -136 72.5 -207.5t183.5 -71.5z" />
    <glyph glyph-name="h" unicode="h" horiz-adv-x="1224" 
d="M61 0l209 1522h226l-86 -604q52 70 144.5 111.5t201.5 41.5q192 0 289.5 -127t68.5 -338l-84 -606h-223l74 573q22 149 -33 222t-166 73q-129 0 -214.5 -84.5t-105.5 -228.5l-77 -555h-224z" />
    <glyph glyph-name="i" unicode="i" horiz-adv-x="491" 
d="M219 1245l33 234h248l-33 -234h-248zM61 0l144 1049h223l-143 -1049h-224z" />
    <glyph glyph-name="j" unicode="j" horiz-adv-x="514" 
d="M242 1245l32 234h248l-33 -234h-247zM-186 -410l28 199h103q63 0 90 22.5t35 79.5l155 1158h226l-162 -1190q-20 -143 -97 -206t-235 -63h-143z" />
    <glyph glyph-name="k" unicode="k" horiz-adv-x="1114" 
d="M61 0l209 1522h226l-129 -947l518 476h276l-514 -473l363 -578h-254l-271 438l-157 -141l-41 -297h-226z" />
    <glyph glyph-name="l" unicode="l" horiz-adv-x="491" 
d="M61 0l209 1522h224l-209 -1522h-224z" />
    <glyph glyph-name="m" unicode="m" horiz-adv-x="1818" 
d="M61 0l144 1049h205l10 -121q105 141 301 141q111 0 191.5 -49.5t115.5 -142.5q56 92 150 142t200 50q184 0 273 -118.5t63 -321.5l-84 -629h-227l84 612q35 258 -182 258q-96 0 -166 -59.5t-99 -173.5l-88 -637h-217l82 598q19 134 -27.5 203t-150.5 69q-111 0 -182 -68
t-88 -194l-84 -608h-224z" />
    <glyph glyph-name="n" unicode="n" horiz-adv-x="1218" 
d="M61 0l144 1049h203l-5 -142q58 74 154 118t205 44q176 0 278 -117q104 -119 70 -346l-84 -606h-225l82 590q19 148 -37 217.5t-166 69.5q-127 0 -212 -86t-108 -236l-75 -555h-224z" />
    <glyph glyph-name="o" unicode="o" horiz-adv-x="1245" 
d="M582 -20q-211 0 -353 133q-143 131 -143 360q0 255 168 426q166 172 414 172q203 0 348 -133q141 -135 141 -371q0 -250 -164 -420q-161 -167 -411 -167zM584 170q144 0 247 115q101 113 101 284q0 146 -76.5 229t-198.5 83q-145 0 -245 -115q-101 -113 -101 -287
q0 -146 75.5 -227.5t197.5 -81.5z" />
    <glyph glyph-name="p" unicode="p" horiz-adv-x="1312" 
d="M6 -410l201 1459h205l-4 -125q132 147 352 147q194 0 330 -127q135 -126 135 -373q0 -265 -156 -428t-387 -163q-124 0 -227.5 50t-147.5 132l-78 -572h-223zM641 178q148 0 250 111q100 106 100 274q0 144 -79.5 225.5t-200.5 81.5q-142 0 -248 -106
q-107 -107 -107 -281q0 -143 79.5 -224t205.5 -81z" />
    <glyph glyph-name="q" unicode="q" horiz-adv-x="1314" 
d="M827 -410l72 537q-132 -147 -354 -147q-205 0 -330 131q-127 133 -127 356q0 267 160 438q156 166 397 166q244 0 363 -180l41 160h204l-200 -1461h-226zM602 178q137 0 246 109q106 106 106 278q0 142 -80.5 224.5t-203.5 82.5q-151 0 -248 -112q-100 -112 -100 -281
q0 -142 79.5 -221.5t200.5 -79.5z" />
    <glyph glyph-name="r" unicode="r" horiz-adv-x="796" 
d="M63 0l144 1049h205l8 -117q76 117 246 117h157l-28 -201h-154q-124 0 -188.5 -64.5t-83.5 -195.5l-82 -588h-224z" />
    <glyph glyph-name="s" unicode="s" horiz-adv-x="1044" 
d="M465 -20q-197 0 -312.5 89t-115.5 248h219q3 -172 219 -172q104 0 164.5 40.5t60.5 109.5q0 55 -36.5 85.5t-122.5 49.5l-144 35q-280 65 -280 270q0 152 127 244q128 90 321 90q200 0 312.5 -91t101.5 -241h-217q1 79 -54 122.5t-155 43.5q-96 0 -152.5 -38.5
t-56.5 -100.5q0 -53 34.5 -78.5t125.5 -46.5l147 -37q148 -36 215.5 -105t67.5 -180q0 -158 -133 -247q-134 -90 -336 -90z" />
    <glyph glyph-name="t" unicode="t" horiz-adv-x="735" 
d="M399 0q-279 0 -235 299l76 553h-179l27 197h82q53 0 77.5 18t31.5 66l26 196h223l-39 -280h244l-28 -197h-242l-72 -535q-11 -67 10 -92.5t88 -25.5h127l-28 -199h-189z" />
    <glyph glyph-name="u" unicode="u" horiz-adv-x="1185" 
d="M475 -20q-172 0 -270 116q-100 111 -72 324l86 631h217l-82 -600q-19 -136 34 -206.5t169 -70.5q123 0 204.5 81.5t98.5 219.5l80 576h213l-145 -1051h-201l4 145q-113 -165 -336 -165z" />
    <glyph glyph-name="v" unicode="v" horiz-adv-x="1130" 
d="M362 0l-274 1049h234l190 -811l428 811h244l-574 -1049h-248z" />
    <glyph glyph-name="w" unicode="w" horiz-adv-x="1632" 
d="M254 0l-150 1049h234l88 -797l342 797h240l122 -799l306 799h233l-436 -1049h-252l-121 805l-354 -805h-252z" />
    <glyph glyph-name="x" unicode="x" horiz-adv-x="1105" 
d="M-33 0l434 541l-295 508h259l206 -379l312 379h264l-447 -527l299 -522h-256l-213 385l-301 -385h-262z" />
    <glyph glyph-name="y" unicode="y" horiz-adv-x="1110" 
d="M-70 -410l29 199h213q174 0 174 158q0 25 -10 67l-248 1035h229l189 -869l416 871l241 -2l-622 -1242q-71 -145 -174 -184q-54 -20 -100 -26.5t-117 -6.5h-220z" />
    <glyph glyph-name="z" unicode="z" horiz-adv-x="1032" 
d="M18 0l27 197l655 653h-565l27 199h852l-27 -195l-653 -655h563l-29 -199h-850z" />
    <glyph glyph-name="braceleft" unicode="{" horiz-adv-x="620" 
d="M461 -184l-117 2q-130 0 -193.5 71t-44.5 201l58 414q18 132 -113 135l27 182q131 3 149 135l60 437q37 254 293 254h137l-25 -179h-88q-68 0 -94 -26t-37 -101l-61 -428q-18 -129 -136 -182q101 -67 86 -182l-63 -445q-7 -60 13.5 -84t72.5 -24l100 -2z" />
    <glyph glyph-name="bar" unicode="|" horiz-adv-x="589" 
d="M104 -166l250 1772h183l-250 -1772h-183z" />
    <glyph glyph-name="braceright" unicode="}" horiz-adv-x="618" 
d="M-41 -184l25 178h96q56 0 85 24t36 84l63 447q15 120 133 182q-99 57 -84 182l62 430q7 65 -12.5 93t-71.5 30l-101 2l25 179l129 -2q129 0 187 -71t38 -204l-57 -412q-18 -128 113 -137l-25 -180q-133 -9 -151 -137l-60 -418q-37 -270 -309 -270h-121z" />
    <glyph glyph-name="asciitilde" unicode="~" horiz-adv-x="1226" 
d="M829 416q-51 0 -104.5 19.5t-77.5 39.5q-14 10 -76 62q-65 55 -90.5 70.5t-58.5 15.5q-105 0 -111 -146h-176q0 150 76.5 241t204.5 91q45 0 94 -17.5t78 -37.5q34 -29 74 -60q70 -58 99 -75t60 -17q112 0 115 146h176q-5 -150 -80 -241t-203 -91z" />
    <glyph glyph-name="exclamdown" unicode="&#xa1;" horiz-adv-x="548" 
d="M225 1192l39 285h285l-39 -285h-285zM92 0l60 422q50 351 114 608h160q-10 -273 -57 -608l-60 -422h-217z" />
    <glyph glyph-name="cent" unicode="&#xa2;" horiz-adv-x="1161" 
d="M416 0l28 197q-162 31 -259 153t-97 299q0 245 139 416q139 170 367 197l27 196h167l-26 -201q149 -25 247 -126t111 -248h-229q-20 91 -83.5 140.5t-152.5 49.5q-149 0 -243 -110q-99 -114 -99 -301q0 -132 66 -205.5t180 -73.5q194 0 289 195h235q-56 -175 -178 -274
t-295 -116l-26 -188h-168z" />
    <glyph glyph-name="sterling" unicode="&#xa3;" horiz-adv-x="1277" 
d="M41 0l27 190q124 42 192 124t68 194q0 54 -15 125h-196l22 168h129q-28 112 -28 211q0 209 135 338t360 129q202 0 326.5 -104.5t134.5 -289.5h-229q-35 201 -242 201q-120 0 -189 -70t-69 -198q0 -84 37 -217h411l-30 -168h-340q8 -57 8 -105q0 -205 -176 -325h399
q161 0 176 157h211q-27 -360 -368 -360h-754z" />
    <glyph glyph-name="currency" unicode="&#xa4;" horiz-adv-x="1351" 
d="M201 111l-107 116l176 164q-94 128 -94 299q0 198 125 344l-139 152l127 117l141 -156q134 82 287 82q168 0 299 -96l184 170l109 -117l-181 -166q95 -130 95 -293q0 -193 -127 -344l145 -156l-127 -116l-147 159q-134 -84 -287 -84q-161 0 -295 93zM690 395
q131 0 223 92q93 90 93 228q0 130 -86 219q-89 86 -213 86q-138 0 -226 -94t-88 -230q0 -127 86 -213q85 -88 211 -88z" />
    <glyph glyph-name="yen" unicode="&#xa5;" horiz-adv-x="1384" 
d="M498 0l34 248h-370l24 168h371l21 153h-371l22 170h279l-346 719h264l291 -647l479 647h279l-549 -719h280l-24 -170h-375l-21 -153h375l-24 -168h-375l-35 -248h-229z" />
    <glyph glyph-name="brokenbar" unicode="&#xa6;" horiz-adv-x="589" 
d="M252 874l102 732h183l-103 -732h-182zM104 -166l103 729h182l-102 -729h-183z" />
    <glyph glyph-name="section" unicode="&#xa7;" horiz-adv-x="927" 
d="M463 -20q-189 0 -303 88.5t-119 236.5h203q5 -80 58 -123t151 -43q89 0 139.5 34.5t50.5 96.5q0 95 -131 129l-182 52q-262 71 -262 268q0 166 157 225q-153 76 -153 234q0 136 104 218.5t275 82.5q176 0 283.5 -88t109.5 -230h-197q-2 73 -53.5 116.5t-138.5 43.5
q-79 0 -126.5 -36.5t-47.5 -98.5q0 -52 34.5 -79t116.5 -48l160 -39q270 -74 270 -283q0 -152 -157 -217q151 -77 151 -244q0 -140 -108 -218t-285 -78zM420 604q106 -20 167.5 13.5t61.5 103.5q0 95 -133 133q-124 25 -189 -9t-65 -110q0 -53 37 -81.5t121 -49.5z" />
    <glyph glyph-name="dieresis" unicode="&#xa8;" horiz-adv-x="800" 
d="M178 1276l31 219h233l-30 -219h-234zM575 1276l29 219h234l-29 -219h-234z" />
    <glyph glyph-name="copyright" unicode="&#xa9;" horiz-adv-x="1648" 
d="M854 -20q-309 0 -530 221q-222 222 -222 528q0 312 222 531q219 219 530 219t530 -219q220 -220 220 -531q0 -309 -222 -528q-221 -221 -528 -221zM854 127q248 0 426 178q176 176 176 422q0 248 -178 426t-424 178q-248 0 -426 -178t-178 -426q0 -249 178 -424
q176 -176 426 -176zM850 295q-178 0 -293 121q-113 119 -113 309q0 192 113 317q114 123 297 123q152 0 255 -77.5t138 -217.5h-157q-59 160 -236 160q-117 0 -187.5 -83t-70.5 -218t70.5 -217t187.5 -82q177 0 236 158h157q-36 -136 -141 -214.5t-256 -78.5z" />
    <glyph glyph-name="ordfeminine" unicode="&#xaa;" horiz-adv-x="512" 
d="M313 954q-79 0 -131.5 45t-52.5 119q0 71 48 114.5t138 43.5h144v12q0 96 -111 96q-50 0 -81 -21.5t-31 -59.5h-99q0 84 63 131t154 47q97 0 154 -56t57 -155v-305h-96l-10 55q-12 -27 -54 -46.5t-92 -19.5zM334 1044q55 0 90 28.5t35 72.5v51h-129q-94 0 -94 -74
q0 -78 98 -78z" />
    <glyph glyph-name="guillemotleft" unicode="&#xab;" horiz-adv-x="1200" 
d="M358 119l-280 463l459 467h239l-463 -474l275 -456h-230zM786 119l-280 463l459 467h239l-463 -474l275 -456h-230z" />
    <glyph glyph-name="logicalnot" unicode="&#xac;" horiz-adv-x="1228" 
d="M758 203l45 313h-656l29 209h858l-71 -522h-205z" />
    <glyph glyph-name="registered" unicode="&#xae;" horiz-adv-x="1009" 
d="M578 621q-177 0 -304 127q-124 124 -124 303t124 303q125 125 304 125q180 0 305 -125q123 -126 123 -303q0 -180 -123 -306q-124 -124 -305 -124zM578 725q142 0 233 94q92 92 92 232q0 136 -92 231q-94 94 -233 94q-141 0 -232 -94q-94 -94 -94 -231q0 -136 94 -230
q93 -96 232 -96zM422 838v428h188q63 0 105.5 -38.5t42.5 -99.5q0 -93 -82 -127l84 -163h-107l-73 149h-64v-149h-94zM516 1059h76q70 0 70 63q0 62 -70 62h-76v-125z" />
    <glyph glyph-name="overscore" unicode="&#xaf;" horiz-adv-x="704" 
d="M162 1343l22 158h602l-22 -158h-602z" />
    <glyph glyph-name="degree" unicode="&#xb0;" horiz-adv-x="700" 
d="M440 907q-118 0 -200 82t-82 201q0 121 82 203t200 82q121 0 203 -82t82 -203q0 -119 -82 -201t-203 -82zM440 1051q59 0 100.5 41.5t41.5 99.5q0 57 -42.5 98t-99.5 41t-98 -41t-41 -98t41 -99t98 -42z" />
    <glyph glyph-name="plusminus" unicode="&#xb1;" horiz-adv-x="1230" 
d="M492 369l43 307h-377l28 207h377l43 305h209l-43 -305h373l-29 -207h-375l-43 -307h-206zM63 0l29 207h959l-29 -207h-959z" />
    <glyph glyph-name="acute" unicode="&#xb4;" horiz-adv-x="397" 
d="M145 1257l211 287h215l-243 -287h-183z" />
    <glyph glyph-name="uni00B5" unicode="&#xb5;" horiz-adv-x="1310" 
d="M18 -375l199 1424h215l-84 -609q-19 -135 41.5 -200.5t179.5 -67.5q106 -2 180 65.5t91 182.5l88 629h213l-101 -717q-11 -71 7 -101.5t83 -31.5l50 -2l-27 -197h-86q-77 0 -133.5 30.5t-73.5 84.5q-49 -63 -131.5 -99t-175.5 -36q-87 0 -158.5 31t-95.5 81l-66 -467
h-215z" />
    <glyph glyph-name="paragraph" unicode="&#xb6;" horiz-adv-x="1294" 
d="M504 -246v1073h-76q-135 0 -225 93q-89 89 -86 223q2 138 87 226.5t224 88.5h881v-217h-127v-1487h-215v1487h-246v-1487h-217z" />
    <glyph glyph-name="middot" unicode="&#xb7;" horiz-adv-x="591" 
d="M297 475q-62 0 -103.5 41t-41.5 102q0 68 48 117t119 49q60 0 103 -40.5t43 -100.5q0 -69 -49.5 -118.5t-118.5 -49.5z" />
    <glyph glyph-name="cedilla" unicode="&#xb8;" horiz-adv-x="552" 
d="M158 -385q-82 0 -131.5 43t-44.5 109h118q0 -50 60 -50q61 0 61 54q0 32 -27.5 46t-68.5 3l-47 26l84 166l82 -24l-43 -84q72 5 114.5 -31t42.5 -102q0 -72 -54.5 -114t-145.5 -42z" />
    <glyph glyph-name="ordmasculine" unicode="&#xba;" horiz-adv-x="612" 
d="M395 928q-114 0 -184 73q-74 74 -74 189q0 113 74 190q71 74 184 74t187 -74q73 -76 73 -190q0 -115 -71 -189q-73 -73 -189 -73zM397 1024q68 0 109 45.5t41 118.5q0 75 -41.5 122.5t-108.5 47.5q-68 0 -109.5 -47t-41.5 -123q0 -73 41.5 -118.5t109.5 -45.5z" />
    <glyph glyph-name="guillemotright" unicode="&#xbb;" horiz-adv-x="1214" 
d="M10 121l465 479l-278 451h233l279 -459l-459 -471h-240zM453 121l465 479l-279 451h233l279 -459l-459 -471h-239z" />
    <glyph glyph-name="onequarter" unicode="&#xbc;" horiz-adv-x="1566" 
d="M143 711l19 131h143l66 473l-174 -80l18 139l176 84h139l-84 -616h140l-19 -131h-424zM276 0l930 1458h160l-932 -1458h-158zM1217 0l18 139h-348l18 123l406 488h151l-65 -486h100l-18 -125h-101l-20 -139h-141zM1047 264h206l39 287z" />
    <glyph glyph-name="onehalf" unicode="&#xbd;" horiz-adv-x="1648" 
d="M143 711l19 131h143l66 473l-174 -80l18 139l176 84h139l-84 -616h140l-19 -131h-424zM276 0l930 1458h160l-932 -1458h-158zM1020 0l16 127l314 242q9 8 25 21.5t21 18t15 14t15 15t11.5 13.5t12.5 18q16 29 16 57q0 48 -29.5 77.5t-82.5 29.5q-56 0 -94 -35.5
t-46 -91.5h-135q10 121 86.5 187.5t194.5 66.5q111 0 179.5 -61t68.5 -160q0 -74 -42 -132.5t-136 -130.5l-185 -145h303l-18 -131h-510z" />
    <glyph glyph-name="threequarters" unicode="&#xbe;" horiz-adv-x="1603" 
d="M373 700q-125 0 -196 70t-58 180h137q-7 -61 24.5 -96t92.5 -35q62 0 100.5 32t38.5 87q0 44 -30.5 70t-84.5 26h-63l18 111h64q62 0 95.5 29t33.5 83q0 42 -29.5 67.5t-79.5 25.5q-63 0 -100.5 -35.5t-42.5 -95.5h-135q11 116 87.5 182.5t203.5 66.5q110 0 177.5 -54
t67.5 -144q0 -63 -35.5 -111.5t-95.5 -68.5q99 -38 99 -156q0 -107 -81.5 -170.5t-207.5 -63.5zM328 0l929 1458h160l-932 -1458h-157zM1266 0l18 139h-348l18 123l406 488h151l-65 -486h100l-18 -125h-101l-20 -139h-141zM1096 264h207l38 287z" />
    <glyph glyph-name="questiondown" unicode="&#xbf;" horiz-adv-x="1050" 
d="M530 1178l39 280h287l-39 -280h-287zM477 -20q-195 0 -309.5 98t-114.5 258q0 77 26.5 140.5t69 108t94 83.5t104 73.5t96.5 70.5t73 83.5t33 103.5h201q-6 -70 -32 -129t-70 -105.5t-82.5 -78t-92.5 -69.5q-15 -10 -22 -15q-154 -109 -154 -244q0 -84 54 -132t145 -48
q108 0 176.5 64.5t79.5 169.5h227q-15 -191 -152 -310q-137 -122 -350 -122z" />
    <glyph glyph-name="Agrave" unicode="&#xc0;" 
d="M758 1608l-146 260h193l119 -260h-166zM-51 0l764 1458h231l352 -1458h-239l-76 334h-612l-172 -334h-248zM465 520h473l-145 633z" />
    <glyph glyph-name="Aacute" unicode="&#xc1;" 
d="M766 1595l190 260h195l-221 -260h-164zM-51 0l764 1458h231l352 -1458h-239l-76 334h-612l-172 -334h-248zM465 520h473l-145 633z" />
    <glyph glyph-name="Acircumflex" unicode="&#xc2;" 
d="M561 1581l230 260h176l155 -260h-184l-80 135l-117 -135h-180zM-51 0l764 1458h231l352 -1458h-239l-76 334h-612l-172 -334h-248zM465 520h473l-145 633z" />
    <glyph glyph-name="Atilde" unicode="&#xc3;" 
d="M977 1585q-67 0 -133 41q-65 39 -103 39q-29 0 -49 -20t-26 -54h-119q12 103 62.5 161t131.5 58q70 0 136 -38q64 -41 100 -41q66 0 78 73h116q-12 -105 -62.5 -162t-131.5 -57zM-51 0l764 1458h231l352 -1458h-239l-76 334h-612l-172 -334h-248zM465 520h473l-145 633z
" />
    <glyph glyph-name="Adieresis" unicode="&#xc4;" 
d="M532 1585l31 219h234l-31 -219h-234zM930 1585l28 219h234l-29 -219h-233zM-51 0l764 1458h231l352 -1458h-239l-76 334h-612l-172 -334h-248zM465 520h473l-145 633z" />
    <glyph glyph-name="Aring" unicode="&#xc5;" 
d="M-51 0l756 1442q-105 64 -105 194q0 108 72.5 179t179.5 71q101 0 167 -63.5t66 -165.5q0 -159 -135 -223l346 -1434h-239l-76 334h-612l-172 -334h-248zM838 1532q51 0 83.5 34.5t32.5 88.5q0 45 -29 75.5t-75 30.5q-51 0 -84 -35.5t-33 -89.5q0 -48 30 -76t75 -28z
M465 520h473l-145 633z" />
    <glyph glyph-name="AE" unicode="&#xc6;" horiz-adv-x="2043" 
d="M-72 0l1102 1458h1041l-29 -205h-707l-57 -417h524l-28 -203h-525l-61 -426h745l-28 -207h-967l49 344h-528l-258 -344h-273zM598 537h416l94 680z" />
    <glyph glyph-name="Ccedilla" unicode="&#xc7;" horiz-adv-x="1513" 
d="M709 -379q-82 0 -132 43t-45 109h119q0 -49 60 -49q61 0 61 53q0 32 -27.5 46t-68.5 3l-47 27l65 129q-272 15 -432 192q-162 174 -162 467q0 352 226 596q224 242 575 242q246 0 414 -133q165 -136 192 -359h-247q-32 135 -130.5 207t-242.5 72q-241 0 -391 -172
q-152 -178 -152 -445q0 -213 109.5 -334.5t300.5 -121.5q308 0 440 278h254q-78 -226 -249.5 -353t-410.5 -138l-36 -70q72 5 114.5 -31t42.5 -102q0 -72 -54.5 -114t-145.5 -42z" />
    <glyph glyph-name="Egrave" unicode="&#xc8;" horiz-adv-x="1214" 
d="M672 1608l-146 260h193l119 -260h-166zM76 0l200 1458h955l-27 -205h-727l-57 -417h555l-29 -203h-553l-59 -426h770l-31 -207h-997z" />
    <glyph glyph-name="Eacute" unicode="&#xc9;" horiz-adv-x="1214" 
d="M680 1595l190 260h195l-221 -260h-164zM76 0l200 1458h955l-27 -205h-727l-57 -417h555l-29 -203h-553l-59 -426h770l-31 -207h-997z" />
    <glyph glyph-name="Ecircumflex" unicode="&#xca;" horiz-adv-x="1214" 
d="M475 1581l230 260h176l155 -260h-184l-80 135l-117 -135h-180zM76 0l200 1458h955l-27 -205h-727l-57 -417h555l-29 -203h-553l-59 -426h770l-31 -207h-997z" />
    <glyph glyph-name="Edieresis" unicode="&#xcb;" horiz-adv-x="1214" 
d="M442 1585l31 219h234l-31 -219h-234zM840 1585l28 219h234l-29 -219h-233zM76 0l200 1458h955l-27 -205h-727l-57 -417h555l-29 -203h-553l-59 -426h770l-31 -207h-997z" />
    <glyph glyph-name="Igrave" unicode="&#xcc;" horiz-adv-x="526" 
d="M328 1608l-146 260h193l119 -260h-166zM76 0l200 1458h230l-201 -1458h-229z" />
    <glyph glyph-name="Iacute" unicode="&#xcd;" horiz-adv-x="526" 
d="M336 1595l190 260h195l-221 -260h-164zM76 0l200 1458h230l-201 -1458h-229z" />
    <glyph glyph-name="Icircumflex" unicode="&#xce;" horiz-adv-x="526" 
d="M100 1567l250 286h197l170 -286h-199l-88 147l-129 -147h-201zM76 0l200 1458h230l-201 -1458h-229z" />
    <glyph glyph-name="Idieresis" unicode="&#xcf;" horiz-adv-x="526" 
d="M98 1585l31 219h233l-30 -219h-234zM496 1585l28 219h234l-29 -219h-233zM76 0l200 1458h230l-201 -1458h-229z" />
    <glyph glyph-name="Eth" unicode="&#xd0;" horiz-adv-x="1531" 
d="M137 0l88 647h-178l27 195h180l84 616h485q306 0 486 -180t180 -483q0 -355 -229 -574q-232 -221 -619 -221h-504zM395 207h230q291 0 454.5 157t163.5 429q0 220 -116 340t-330 120h-260l-56 -411h195l-29 -195h-192z" />
    <glyph glyph-name="Ntilde" unicode="&#xd1;" horiz-adv-x="1464" 
d="M1040 1589q-67 0 -141 45q-76 43 -113 43q-78 0 -90 -82h-127q4 112 64 177t155 65q66 0 142 -43q74 -45 110 -45q76 0 88 82h129q-6 -112 -65 -177t-152 -65zM76 0l200 1458h236l553 -1096l149 1096h230l-201 -1458h-237l-553 1083l-148 -1083h-229z" />
    <glyph glyph-name="Ograve" unicode="&#xd2;" horiz-adv-x="1574" 
d="M852 1608l-145 260h192l119 -260h-166zM750 -10q-285 0 -467 182q-181 181 -181 492q0 345 230 581q231 234 547 234q286 0 469 -183q180 -183 180 -493q0 -345 -230 -578q-229 -235 -548 -235zM756 205q215 0 370 174q154 177 154 426q0 213 -113.5 336t-298.5 123
q-216 0 -366 -172q-154 -177 -154 -428q0 -213 111 -336t297 -123z" />
    <glyph glyph-name="Oacute" unicode="&#xd3;" horiz-adv-x="1574" 
d="M860 1595l191 260h194l-221 -260h-164zM750 -10q-285 0 -467 182q-181 181 -181 492q0 345 230 581q231 234 547 234q286 0 469 -183q180 -183 180 -493q0 -345 -230 -578q-229 -235 -548 -235zM756 205q215 0 370 174q154 177 154 426q0 213 -113.5 336t-298.5 123
q-216 0 -366 -172q-154 -177 -154 -428q0 -213 111 -336t297 -123z" />
    <glyph glyph-name="Ocircumflex" unicode="&#xd4;" horiz-adv-x="1574" 
d="M655 1581l230 260h176l156 -260h-185l-80 135l-116 -135h-181zM750 -10q-285 0 -467 182q-181 181 -181 492q0 345 230 581q231 234 547 234q286 0 469 -183q180 -183 180 -493q0 -345 -230 -578q-229 -235 -548 -235zM756 205q215 0 370 174q154 177 154 426
q0 213 -113.5 336t-298.5 123q-216 0 -366 -172q-154 -177 -154 -428q0 -213 111 -336t297 -123z" />
    <glyph glyph-name="Otilde" unicode="&#xd5;" horiz-adv-x="1574" 
d="M1071 1585q-67 0 -133 41q-65 39 -102 39q-29 0 -49.5 -20t-26.5 -54h-119q12 102 63 160.5t132 58.5q69 0 135 -38q64 -41 100 -41q66 0 78 73h117q-12 -105 -62.5 -162t-132.5 -57zM750 -10q-285 0 -467 182q-181 181 -181 492q0 345 230 581q231 234 547 234
q286 0 469 -183q180 -183 180 -493q0 -345 -230 -578q-229 -235 -548 -235zM756 205q215 0 370 174q154 177 154 426q0 213 -113.5 336t-298.5 123q-216 0 -366 -172q-154 -177 -154 -428q0 -213 111 -336t297 -123z" />
    <glyph glyph-name="Odieresis" unicode="&#xd6;" horiz-adv-x="1574" 
d="M592 1593l31 219h233l-31 -219h-233zM989 1593l29 219h233l-28 -219h-234zM750 -10q-285 0 -467 182q-181 181 -181 492q0 345 230 581q231 234 547 234q286 0 469 -183q180 -183 180 -493q0 -345 -230 -578q-229 -235 -548 -235zM756 205q215 0 370 174q154 177 154 426
q0 213 -113.5 336t-298.5 123q-216 0 -366 -172q-154 -177 -154 -428q0 -213 111 -336t297 -123z" />
    <glyph glyph-name="multiply" unicode="&#xd7;" horiz-adv-x="1228" 
d="M281 205l-131 151l335 295l-249 291l159 143l252 -292l332 292l131 -153l-334 -291l254 -295l-162 -141l-252 295z" />
    <glyph glyph-name="Oslash" unicode="&#xd8;" horiz-adv-x="1589" 
d="M203 -29l116 172q-210 186 -210 521q0 344 231 581q231 234 545 234q165 0 303 -66l51 74h201l-113 -166q207 -189 207 -518q0 -346 -229 -578q-229 -235 -549 -235q-162 0 -297 63l-56 -82h-200zM453 338l610 891q-85 39 -189 39q-216 0 -368 -174q-154 -177 -154 -430
q0 -204 101 -326zM762 203q217 0 373 176q155 174 155 426q0 200 -98 319l-606 -886q81 -35 176 -35z" />
    <glyph glyph-name="Ugrave" unicode="&#xd9;" horiz-adv-x="1437" 
d="M782 1608l-145 260h192l119 -260h-166zM717 -20q-275 0 -424 165q-155 169 -115 459l117 854h233l-120 -880q-25 -183 61 -288.5t252 -105.5t267 94.5t126 274.5l121 905h233l-125 -919q-36 -267 -197 -413t-429 -146z" />
    <glyph glyph-name="Uacute" unicode="&#xda;" horiz-adv-x="1437" 
d="M791 1595l190 260h195l-222 -260h-163zM717 -20q-275 0 -424 165q-155 169 -115 459l117 854h233l-120 -880q-25 -183 61 -288.5t252 -105.5t267 94.5t126 274.5l121 905h233l-125 -919q-36 -267 -197 -413t-429 -146z" />
    <glyph glyph-name="Ucircumflex" unicode="&#xdb;" horiz-adv-x="1437" 
d="M588 1567l250 286h196l170 -286h-198l-88 147l-130 -147h-200zM717 -20q-275 0 -424 165q-155 169 -115 459l117 854h233l-120 -880q-25 -183 61 -288.5t252 -105.5t267 94.5t126 274.5l121 905h233l-125 -919q-36 -267 -197 -413t-429 -146z" />
    <glyph glyph-name="Udieresis" unicode="&#xdc;" horiz-adv-x="1437" 
d="M586 1585l30 219h234l-31 -219h-233zM983 1585l29 219h233l-28 -219h-234zM717 -20q-275 0 -424 165q-155 169 -115 459l117 854h233l-120 -880q-25 -183 61 -288.5t252 -105.5t267 94.5t126 274.5l121 905h233l-125 -919q-36 -267 -197 -413t-429 -146z" />
    <glyph glyph-name="Yacute" unicode="&#xdd;" horiz-adv-x="1349" 
d="M748 1595l190 260h195l-222 -260h-163zM477 0l72 508l-408 950h258l289 -706l494 706h278l-682 -950l-71 -508h-230z" />
    <glyph glyph-name="Thorn" unicode="&#xde;" horiz-adv-x="1329" 
d="M72 0l198 1458h234l-35 -254h324q231 0 358 -127q125 -125 125 -323q0 -218 -154 -357q-153 -141 -397 -141h-385l-35 -256h-233zM369 459h315q163 0 257.5 79.5t94.5 211.5q0 113 -70.5 179.5t-193.5 67.5l-332 2z" />
    <glyph glyph-name="germandbls" unicode="&#xdf;" horiz-adv-x="1230" 
d="M637 -20q-144 0 -234 43l25 184q80 -51 195 -51q133 0 217 78.5t84 216.5q0 134 -89.5 201t-250.5 61l26 176q138 -2 220.5 63.5t82.5 182.5q0 92 -57.5 146t-159.5 54q-234 0 -268 -272l-143 -1061h-226l140 1032q30 238 159.5 357.5t346.5 119.5q183 0 305 -96
q116 -94 116 -256q0 -124 -64 -212.5t-173 -127.5q122 -35 192 -132t70 -230q0 -212 -141 -344q-142 -133 -373 -133z" />
    <glyph glyph-name="agrave" unicode="&#xe0;" horiz-adv-x="1171" 
d="M553 1198l-145 260h192l119 -260h-166zM401 -20q-163 0 -258.5 78t-95.5 218q0 149 107 241.5t309 92.5h336l6 54q17 111 -36 168t-165 57q-104 0 -171.5 -47.5t-84.5 -130.5h-205q29 168 155.5 263t322.5 95q72 0 136 -14.5t120 -47.5t93.5 -81t53 -121t2.5 -162
l-55 -405q-9 -70 49 -70h51l-24 -168h-136q-147 0 -147 139q-56 -73 -152.5 -116t-210.5 -43zM475 158q116 0 197 63.5t98 177.5l6 58h-291q-106 0 -155 -43t-49 -115q0 -141 194 -141z" />
    <glyph glyph-name="aacute" unicode="&#xe1;" horiz-adv-x="1171" 
d="M561 1186l191 260h194l-221 -260h-164zM401 -20q-163 0 -258.5 78t-95.5 218q0 149 107 241.5t309 92.5h336l6 54q17 111 -36 168t-165 57q-104 0 -171.5 -47.5t-84.5 -130.5h-205q29 168 155.5 263t322.5 95q72 0 136 -14.5t120 -47.5t93.5 -81t53 -121t2.5 -162
l-55 -405q-9 -70 49 -70h51l-24 -168h-136q-147 0 -147 139q-56 -73 -152.5 -116t-210.5 -43zM475 158q116 0 197 63.5t98 177.5l6 58h-291q-106 0 -155 -43t-49 -115q0 -141 194 -141z" />
    <glyph glyph-name="acircumflex" unicode="&#xe2;" horiz-adv-x="1171" 
d="M356 1171l230 261h176l156 -261h-185l-80 136l-116 -136h-181zM401 -20q-163 0 -258.5 78t-95.5 218q0 149 107 241.5t309 92.5h336l6 54q17 111 -36 168t-165 57q-104 0 -171.5 -47.5t-84.5 -130.5h-205q29 168 155.5 263t322.5 95q72 0 136 -14.5t120 -47.5t93.5 -81
t53 -121t2.5 -162l-55 -405q-9 -70 49 -70h51l-24 -168h-136q-147 0 -147 139q-56 -73 -152.5 -116t-210.5 -43zM475 158q116 0 197 63.5t98 177.5l6 58h-291q-106 0 -155 -43t-49 -115q0 -141 194 -141z" />
    <glyph glyph-name="atilde" unicode="&#xe3;" horiz-adv-x="1171" 
d="M772 1176q-67 0 -133 41q-63 38 -102 38q-29 0 -49.5 -19.5t-26.5 -53.5h-119q12 102 63 160.5t132 58.5q67 0 135 -39q64 -41 100 -41q66 0 78 74h117q-12 -105 -62.5 -162t-132.5 -57zM401 -20q-163 0 -258.5 78t-95.5 218q0 149 107 241.5t309 92.5h336l6 54
q17 111 -36 168t-165 57q-104 0 -171.5 -47.5t-84.5 -130.5h-205q29 168 155.5 263t322.5 95q72 0 136 -14.5t120 -47.5t93.5 -81t53 -121t2.5 -162l-55 -405q-9 -70 49 -70h51l-24 -168h-136q-147 0 -147 139q-56 -73 -152.5 -116t-210.5 -43zM475 158q116 0 197 63.5
t98 177.5l6 58h-291q-106 0 -155 -43t-49 -115q0 -141 194 -141z" />
    <glyph glyph-name="adieresis" unicode="&#xe4;" horiz-adv-x="1171" 
d="M346 1198l31 219h233l-30 -219h-234zM743 1198l29 219h234l-29 -219h-234zM401 -20q-163 0 -258.5 78t-95.5 218q0 149 107 241.5t309 92.5h336l6 54q17 111 -36 168t-165 57q-104 0 -171.5 -47.5t-84.5 -130.5h-205q29 168 155.5 263t322.5 95q72 0 136 -14.5t120 -47.5
t93.5 -81t53 -121t2.5 -162l-55 -405q-9 -70 49 -70h51l-24 -168h-136q-147 0 -147 139q-56 -73 -152.5 -116t-210.5 -43zM475 158q116 0 197 63.5t98 177.5l6 58h-291q-106 0 -155 -43t-49 -115q0 -141 194 -141z" />
    <glyph glyph-name="aring" unicode="&#xe5;" horiz-adv-x="1171" 
d="M401 -20q-163 0 -258.5 78t-95.5 218q0 149 107 241.5t309 92.5h336l6 54q17 111 -36 168t-165 57q-104 0 -171.5 -47.5t-84.5 -130.5h-205q23 136 113 226.5t231 119.5q-65 62 -65 164q0 108 72.5 178.5t179.5 70.5q101 0 167 -63.5t66 -165.5q0 -131 -98 -201
q122 -45 180.5 -144.5t36.5 -252.5l-55 -405q-9 -70 49 -70h51l-24 -168h-136q-147 0 -147 139q-56 -73 -152.5 -116t-210.5 -43zM659 1116q51 0 84 34.5t33 88.5q0 45 -29 76t-75 31q-51 0 -84 -35.5t-33 -89.5q0 -48 30 -76.5t74 -28.5zM475 158q116 0 197 63.5t98 177.5
l6 58h-291q-106 0 -155 -43t-49 -115q0 -141 194 -141z" />
    <glyph glyph-name="ae" unicode="&#xe6;" horiz-adv-x="1906" 
d="M418 -20q-171 0 -271 77.5t-100 212.5q0 147 107 239.5t303 92.5h338l8 57q17 113 -40 172.5t-169 59.5q-106 0 -174 -52t-82 -134h-203q27 173 160 268q134 96 309 96q118 0 209 -44t137 -128q152 174 406 174q236 0 366 -151q127 -154 97 -390l-11 -71h-809
q-13 -139 58.5 -217t199.5 -78q99 0 179.5 46.5t117.5 125.5h224q-56 -168 -197 -262t-328 -94q-294 0 -405 225q-55 -102 -170 -163.5t-260 -61.5zM1020 612h588q10 131 -60.5 205t-195.5 74q-126 0 -217 -74t-115 -205zM469 158q123 0 204.5 66t94.5 190l4 35h-295
q-100 0 -148 -42.5t-48 -109.5q0 -139 188 -139z" />
    <glyph glyph-name="ccedilla" unicode="&#xe7;" horiz-adv-x="1179" 
d="M526 -358q-82 0 -131.5 42.5t-44.5 108.5h119q0 -49 59 -49q62 0 62 53q0 32 -27.5 46t-68.5 3l-48 27l56 111q-189 19 -302.5 148t-113.5 335q0 262 166 434q167 170 414 170q198 0 325 -107.5t139 -291.5h-235q-12 95 -79 151t-163 56q-137 0 -237 -115
q-99 -114 -99 -291q0 -147 72.5 -223t190.5 -76q98 0 173.5 56t110.5 159h238q-44 -184 -180.5 -292.5t-327.5 -116.5l-25 -50q72 5 115 -31t43 -102q0 -72 -55 -113.5t-146 -41.5z" />
    <glyph glyph-name="egrave" unicode="&#xe8;" horiz-adv-x="1224" 
d="M598 1198l-145 260h192l119 -260h-166zM578 -20q-211 0 -345 131q-137 128 -137 360q-3 264 164 434q166 166 410 166q217 0 342.5 -127.5t130.5 -339.5q0 -64 -15 -141h-819q0 -148 72.5 -223.5t200.5 -75.5q213 0 295 172h225q-50 -164 -193 -258q-143 -98 -331 -98z
M328 618h596q-9 275 -275 275q-114 0 -202 -72t-119 -203z" />
    <glyph glyph-name="eacute" unicode="&#xe9;" horiz-adv-x="1224" 
d="M606 1186l191 260h194l-221 -260h-164zM578 -20q-211 0 -345 131q-137 128 -137 360q-3 264 164 434q166 166 410 166q217 0 342.5 -127.5t130.5 -339.5q0 -64 -15 -141h-819q0 -148 72.5 -223.5t200.5 -75.5q213 0 295 172h225q-50 -164 -193 -258q-143 -98 -331 -98z
M328 618h596q-9 275 -275 275q-114 0 -202 -72t-119 -203z" />
    <glyph glyph-name="ecircumflex" unicode="&#xea;" horiz-adv-x="1224" 
d="M401 1171l230 261h176l156 -261h-185l-80 136l-116 -136h-181zM578 -20q-211 0 -345 131q-137 128 -137 360q-3 264 164 434q166 166 410 166q217 0 342.5 -127.5t130.5 -339.5q0 -64 -15 -141h-819q0 -148 72.5 -223.5t200.5 -75.5q213 0 295 172h225
q-50 -164 -193 -258q-143 -98 -331 -98zM328 618h596q-9 275 -275 275q-114 0 -202 -72t-119 -203z" />
    <glyph glyph-name="edieresis" unicode="&#xeb;" horiz-adv-x="1224" 
d="M371 1200l30 219h234l-31 -219h-233zM768 1200l29 219h233l-29 -219h-233zM578 -20q-211 0 -345 131q-137 128 -137 360q-3 264 164 434q166 166 410 166q217 0 342.5 -127.5t130.5 -339.5q0 -64 -15 -141h-819q0 -148 72.5 -223.5t200.5 -75.5q213 0 295 172h225
q-50 -164 -193 -258q-143 -98 -331 -98zM328 618h596q-9 275 -275 275q-114 0 -202 -72t-119 -203z" />
    <glyph glyph-name="igrave" unicode="&#xec;" horiz-adv-x="491" 
d="M252 1198l-146 260h193l119 -260h-166zM59 0l148 1049h223l-145 -1049h-226z" />
    <glyph glyph-name="iacute" unicode="&#xed;" horiz-adv-x="491" 
d="M260 1186l191 260h194l-221 -260h-164zM59 0l148 1049h223l-145 -1049h-226z" />
    <glyph glyph-name="icircumflex" unicode="&#xee;" horiz-adv-x="491" 
d="M27 1180l249 286h197l170 -286h-199l-88 147l-129 -147h-200zM59 0l148 1049h223l-145 -1049h-226z" />
    <glyph glyph-name="idieresis" unicode="&#xef;" horiz-adv-x="491" 
d="M25 1198l30 219h234l-31 -219h-233zM422 1198l29 219h233l-29 -219h-233zM59 0l148 1049h223l-145 -1049h-226z" />
    <glyph glyph-name="eth" unicode="&#xf0;" horiz-adv-x="1275" 
d="M598 -18q-223 0 -362 133q-142 133 -142 368q0 257 158 418q158 158 395 158q203 0 307 -131q-46 136 -131 260l-243 -94l22 166l125 47q-101 110 -235 196h307q76 -55 133 -117l256 99l-25 -166l-139 -53q174 -265 174 -609q0 -168 -52 -303t-142 -215
q-177 -157 -406 -157zM594 180q150 0 252 105q100 103 100 274q0 144 -81.5 227.5t-209.5 83.5q-151 0 -249 -104q-99 -105 -99 -272q0 -144 81 -229t206 -85z" />
    <glyph glyph-name="ntilde" unicode="&#xf1;" horiz-adv-x="1218" 
d="M874 1202q-67 0 -141 45q-76 43 -112 43q-79 0 -91 -82h-127q4 111 64.5 176.5t155.5 65.5q65 0 141 -43q74 -45 110 -45q77 0 89 82h129q-6 -112 -65.5 -177t-152.5 -65zM61 0l144 1049h203l-5 -142q58 74 154 118t205 44q176 0 278 -117q104 -119 70 -346l-84 -606
h-225l82 590q19 148 -37 217.5t-166 69.5q-127 0 -212 -86t-108 -236l-75 -555h-224z" />
    <glyph glyph-name="ograve" unicode="&#xf2;" horiz-adv-x="1245" 
d="M629 1198l-146 260h193l119 -260h-166zM582 -20q-211 0 -353 133q-143 131 -143 360q0 255 168 426q166 172 414 172q203 0 348 -133q141 -135 141 -371q0 -250 -164 -420q-161 -167 -411 -167zM584 170q144 0 247 115q101 113 101 284q0 146 -76.5 229t-198.5 83
q-145 0 -245 -115q-101 -113 -101 -287q0 -146 75.5 -227.5t197.5 -81.5z" />
    <glyph glyph-name="oacute" unicode="&#xf3;" horiz-adv-x="1245" 
d="M637 1186l190 260h195l-221 -260h-164zM582 -20q-211 0 -353 133q-143 131 -143 360q0 255 168 426q166 172 414 172q203 0 348 -133q141 -135 141 -371q0 -250 -164 -420q-161 -167 -411 -167zM584 170q144 0 247 115q101 113 101 284q0 146 -76.5 229t-198.5 83
q-145 0 -245 -115q-101 -113 -101 -287q0 -146 75.5 -227.5t197.5 -81.5z" />
    <glyph glyph-name="ocircumflex" unicode="&#xf4;" horiz-adv-x="1245" 
d="M432 1171l230 261h176l155 -261h-184l-80 136l-117 -136h-180zM582 -20q-211 0 -353 133q-143 131 -143 360q0 255 168 426q166 172 414 172q203 0 348 -133q141 -135 141 -371q0 -250 -164 -420q-161 -167 -411 -167zM584 170q144 0 247 115q101 113 101 284
q0 146 -76.5 229t-198.5 83q-145 0 -245 -115q-101 -113 -101 -287q0 -146 75.5 -227.5t197.5 -81.5z" />
    <glyph glyph-name="otilde" unicode="&#xf5;" horiz-adv-x="1245" 
d="M848 1176q-67 0 -133 41q-63 38 -103 38q-29 0 -49 -19.5t-26 -53.5h-119q12 103 62.5 161t131.5 58q68 0 136 -39q64 -41 100 -41q66 0 78 74h116q-12 -105 -62.5 -162t-131.5 -57zM582 -20q-211 0 -353 133q-143 131 -143 360q0 255 168 426q166 172 414 172
q203 0 348 -133q141 -135 141 -371q0 -250 -164 -420q-161 -167 -411 -167zM584 170q144 0 247 115q101 113 101 284q0 146 -76.5 229t-198.5 83q-145 0 -245 -115q-101 -113 -101 -287q0 -146 75.5 -227.5t197.5 -81.5z" />
    <glyph glyph-name="odieresis" unicode="&#xf6;" horiz-adv-x="1245" 
d="M369 1200l30 219h234l-31 -219h-233zM766 1200l29 219h233l-29 -219h-233zM582 -20q-211 0 -353 133q-143 131 -143 360q0 255 168 426q166 172 414 172q203 0 348 -133q141 -135 141 -371q0 -250 -164 -420q-161 -167 -411 -167zM584 170q144 0 247 115q101 113 101 284
q0 146 -76.5 229t-198.5 83q-145 0 -245 -115q-101 -113 -101 -287q0 -146 75.5 -227.5t197.5 -81.5z" />
    <glyph glyph-name="divide" unicode="&#xf7;" horiz-adv-x="1226" 
d="M678 915q-56 0 -94.5 37.5t-38.5 94.5q0 61 45 105t108 44q58 0 94.5 -37t36.5 -96q0 -62 -44 -105t-107 -43zM139 563l31 209h954l-28 -209h-957zM569 139q-56 0 -94.5 37.5t-38.5 93.5q0 61 45.5 105.5t108.5 44.5q58 0 94.5 -37t36.5 -96q0 -61 -44.5 -104.5
t-107.5 -43.5z" />
    <glyph glyph-name="oslash" unicode="&#xf8;" horiz-adv-x="1275" 
d="M37 -49l168 190q-115 133 -115 332q0 255 168 426q166 172 414 172q156 0 280 -80l95 107h194l-182 -207q102 -132 102 -324q0 -250 -164 -420q-161 -167 -411 -167q-152 0 -269 69l-86 -98h-194zM352 307l463 529q-62 45 -153 45q-146 0 -246 -115q-101 -113 -101 -287
q0 -102 37 -172zM588 170q145 0 248 115q100 112 100 284q0 82 -27 152l-456 -518q56 -33 135 -33z" />
    <glyph glyph-name="ugrave" unicode="&#xf9;" horiz-adv-x="1185" 
d="M600 1198l-145 260h192l119 -260h-166zM475 -20q-172 0 -270 116q-100 111 -72 324l86 631h217l-82 -600q-19 -136 34 -206.5t169 -70.5q123 0 204.5 81.5t98.5 219.5l80 576h213l-145 -1051h-201l4 145q-113 -165 -336 -165z" />
    <glyph glyph-name="uacute" unicode="&#xfa;" horiz-adv-x="1185" 
d="M608 1186l191 260h194l-221 -260h-164zM475 -20q-172 0 -270 116q-100 111 -72 324l86 631h217l-82 -600q-19 -136 34 -206.5t169 -70.5q123 0 204.5 81.5t98.5 219.5l80 576h213l-145 -1051h-201l4 145q-113 -165 -336 -165z" />
    <glyph glyph-name="ucircumflex" unicode="&#xfb;" horiz-adv-x="1185" 
d="M397 1180l250 286h197l170 -286h-199l-88 147l-129 -147h-201zM475 -20q-172 0 -270 116q-100 111 -72 324l86 631h217l-82 -600q-19 -136 34 -206.5t169 -70.5q123 0 204.5 81.5t98.5 219.5l80 576h213l-145 -1051h-201l4 145q-113 -165 -336 -165z" />
    <glyph glyph-name="udieresis" unicode="&#xfc;" horiz-adv-x="1185" 
d="M395 1198l31 219h233l-30 -219h-234zM793 1198l28 219h234l-29 -219h-233zM475 -20q-172 0 -270 116q-100 111 -72 324l86 631h217l-82 -600q-19 -136 34 -206.5t169 -70.5q123 0 204.5 81.5t98.5 219.5l80 576h213l-145 -1051h-201l4 145q-113 -165 -336 -165z" />
    <glyph glyph-name="yacute" unicode="&#xfd;" horiz-adv-x="1110" 
d="M569 1186l191 260h194l-221 -260h-164zM-70 -410l29 199h213q174 0 174 158q0 25 -10 67l-248 1035h229l189 -869l416 871l241 -2l-622 -1242q-71 -145 -174 -184q-54 -20 -100 -26.5t-117 -6.5h-220z" />
    <glyph glyph-name="thorn" unicode="&#xfe;" horiz-adv-x="1312" 
d="M6 -410l266 1932h224l-82 -600q128 149 346 149q194 0 330 -127q135 -126 135 -373q0 -262 -158 -428q-156 -163 -383 -163q-129 0 -230.5 51.5t-144.5 136.5l-80 -578h-223zM641 178q148 0 250 111q100 106 100 274q0 147 -79.5 227t-202.5 80q-143 0 -246 -106
q-107 -107 -107 -281q0 -144 79 -224.5t206 -80.5z" />
    <glyph glyph-name="ydieresis" unicode="&#xff;" horiz-adv-x="1110" 
d="M317 1198l31 219h234l-31 -219h-234zM715 1198l28 219h234l-29 -219h-233zM-70 -410l29 199h213q174 0 174 158q0 25 -10 67l-248 1035h229l189 -869l416 871l241 -2l-622 -1242q-71 -145 -174 -184q-54 -20 -100 -26.5t-117 -6.5h-220z" />
    <glyph glyph-name="Amacron" unicode="&#x100;" 
d="M549 1616l22 158h603l-23 -158h-602zM-51 0l764 1458h231l352 -1458h-239l-76 334h-612l-172 -334h-248zM465 520h473l-145 633z" />
    <glyph glyph-name="amacron" unicode="&#x101;" horiz-adv-x="1171" 
d="M365 1229l22 157h602l-22 -157h-602zM401 -20q-163 0 -258.5 78t-95.5 218q0 149 107 241.5t309 92.5h336l6 54q17 111 -36 168t-165 57q-104 0 -171.5 -47.5t-84.5 -130.5h-205q29 168 155.5 263t322.5 95q72 0 136 -14.5t120 -47.5t93.5 -81t53 -121t2.5 -162l-55 -405
q-9 -70 49 -70h51l-24 -168h-136q-147 0 -147 139q-56 -73 -152.5 -116t-210.5 -43zM475 158q116 0 197 63.5t98 177.5l6 58h-291q-106 0 -155 -43t-49 -115q0 -141 194 -141z" />
    <glyph glyph-name="Abreve" unicode="&#x102;" 
d="M844 1589q-118 0 -180 71t-43 191h143q-9 -58 16 -90t84 -32q56 0 91.5 32.5t41.5 89.5h142q-15 -120 -96.5 -191t-198.5 -71zM-51 0l764 1458h231l352 -1458h-239l-76 334h-612l-172 -334h-248zM465 520h473l-145 633z" />
    <glyph glyph-name="abreve" unicode="&#x103;" horiz-adv-x="1171" 
d="M639 1180q-118 0 -180 71t-43 191h143q-9 -58 16 -90.5t84 -32.5q56 0 92 33t42 90h141q-15 -120 -96.5 -191t-198.5 -71zM401 -20q-163 0 -258.5 78t-95.5 218q0 149 107 241.5t309 92.5h336l6 54q17 111 -36 168t-165 57q-104 0 -171.5 -47.5t-84.5 -130.5h-205
q29 168 155.5 263t322.5 95q72 0 136 -14.5t120 -47.5t93.5 -81t53 -121t2.5 -162l-55 -405q-9 -70 49 -70h51l-24 -168h-136q-147 0 -147 139q-56 -73 -152.5 -116t-210.5 -43zM475 158q116 0 197 63.5t98 177.5l6 58h-291q-106 0 -155 -43t-49 -115q0 -141 194 -141z" />
    <glyph glyph-name="Aogonek" unicode="&#x104;" 
d="M1120 -344q-73 0 -115 35t-42 98q0 129 163 211h-69l-76 334h-612l-172 -334h-248l764 1458h231l352 -1458h2q-170 -77 -170 -152q0 -47 60 -47q32 0 74 17l-21 -135q-53 -27 -121 -27zM465 520h473l-145 633z" />
    <glyph glyph-name="aogonek" unicode="&#x105;" horiz-adv-x="1171" 
d="M868 -344q-73 0 -115 35t-42 98q0 131 168 213q-115 15 -115 137q-56 -73 -152.5 -116t-210.5 -43q-163 0 -258.5 78t-95.5 218q0 149 107 241.5t309 92.5h336l6 54q17 111 -36 168t-165 57q-104 0 -171.5 -47.5t-84.5 -130.5h-205q29 168 155.5 263t322.5 95
q72 0 136 -14.5t120 -47.5t93.5 -81t53 -121t2.5 -162l-55 -405q-9 -70 49 -70h51l-24 -168q-170 -77 -170 -152q0 -47 59 -47q32 0 74 17l-21 -135q-53 -27 -121 -27zM475 158q116 0 197 63.5t98 177.5l6 58h-291q-106 0 -155 -43t-49 -115q0 -141 194 -141z" />
    <glyph glyph-name="Cacute" unicode="&#x106;" horiz-adv-x="1513" 
d="M827 1575l211 287h215l-243 -287h-183zM748 -20q-294 0 -469 178q-179 176 -179 483q0 352 226 596q224 242 575 242q246 0 414 -133q165 -136 192 -359h-247q-32 135 -130.5 207t-242.5 72q-241 0 -391 -172q-152 -178 -152 -445q0 -213 109.5 -334.5t300.5 -121.5
q308 0 440 278h254q-82 -234 -264.5 -362.5t-435.5 -128.5z" />
    <glyph glyph-name="cacute" unicode="&#x107;" horiz-adv-x="1179" 
d="M596 1182l211 286h215l-244 -286h-182zM567 -20q-215 0 -346 131q-135 129 -135 356q0 262 166 434q167 170 414 170q198 0 325 -107.5t139 -291.5h-235q-12 95 -79 151t-163 56q-137 0 -237 -115q-99 -114 -99 -291q0 -147 72.5 -223t190.5 -76q98 0 173.5 56t110.5 159
h238q-47 -190 -190.5 -299.5t-344.5 -109.5z" />
    <glyph glyph-name="Ccircumflex" unicode="&#x108;" horiz-adv-x="1513" 
d="M608 1575l250 287h197l170 -287h-199l-88 147l-129 -147h-201zM748 -20q-294 0 -469 178q-179 176 -179 483q0 352 226 596q224 242 575 242q246 0 414 -133q165 -136 192 -359h-247q-32 135 -130.5 207t-242.5 72q-241 0 -391 -172q-152 -178 -152 -445
q0 -213 109.5 -334.5t300.5 -121.5q308 0 440 278h254q-82 -234 -264.5 -362.5t-435.5 -128.5z" />
    <glyph glyph-name="ccircumflex" unicode="&#x109;" horiz-adv-x="1179" 
d="M379 1182l250 286h196l170 -286h-198l-88 147l-129 -147h-201zM567 -20q-215 0 -346 131q-135 129 -135 356q0 262 166 434q167 170 414 170q198 0 325 -107.5t139 -291.5h-235q-12 95 -79 151t-163 56q-137 0 -237 -115q-99 -114 -99 -291q0 -147 72.5 -223t190.5 -76
q98 0 173.5 56t110.5 159h238q-47 -190 -190.5 -299.5t-344.5 -109.5z" />
    <glyph glyph-name="Cdotaccent" unicode="&#x10a;" horiz-adv-x="1513" 
d="M795 1624l32 234h248l-33 -234h-247zM748 -20q-294 0 -469 178q-179 176 -179 483q0 352 226 596q224 242 575 242q246 0 414 -133q165 -136 192 -359h-247q-32 135 -130.5 207t-242.5 72q-241 0 -391 -172q-152 -178 -152 -445q0 -213 109.5 -334.5t300.5 -121.5
q308 0 440 278h254q-82 -234 -264.5 -362.5t-435.5 -128.5z" />
    <glyph glyph-name="cdotaccent" unicode="&#x10b;" horiz-adv-x="1179" 
d="M563 1229l33 233h248l-33 -233h-248zM567 -20q-215 0 -346 131q-135 129 -135 356q0 262 166 434q167 170 414 170q198 0 325 -107.5t139 -291.5h-235q-12 95 -79 151t-163 56q-137 0 -237 -115q-99 -114 -99 -291q0 -147 72.5 -223t190.5 -76q98 0 173.5 56t110.5 159
h238q-47 -190 -190.5 -299.5t-344.5 -109.5z" />
    <glyph glyph-name="Ccaron" unicode="&#x10c;" horiz-adv-x="1513" 
d="M819 1575l-168 287h197l88 -148l129 148h205l-254 -287h-197zM748 -20q-294 0 -469 178q-179 176 -179 483q0 352 226 596q224 242 575 242q246 0 414 -133q165 -136 192 -359h-247q-32 135 -130.5 207t-242.5 72q-241 0 -391 -172q-152 -178 -152 -445
q0 -213 109.5 -334.5t300.5 -121.5q308 0 440 278h254q-82 -234 -264.5 -362.5t-435.5 -128.5z" />
    <glyph glyph-name="ccaron" unicode="&#x10d;" horiz-adv-x="1179" 
d="M590 1182l-168 286h196l89 -147l129 147h204l-254 -286h-196zM567 -20q-215 0 -346 131q-135 129 -135 356q0 262 166 434q167 170 414 170q198 0 325 -107.5t139 -291.5h-235q-12 95 -79 151t-163 56q-137 0 -237 -115q-99 -114 -99 -291q0 -147 72.5 -223t190.5 -76
q98 0 173.5 56t110.5 159h238q-47 -190 -190.5 -299.5t-344.5 -109.5z" />
    <glyph glyph-name="Dcaron" unicode="&#x10e;" horiz-adv-x="1472" 
d="M643 1567l-168 286h197l88 -147l129 147h205l-254 -286h-197zM76 0l200 1458h486q305 0 485 -180t180 -483q0 -355 -229 -574q-232 -221 -618 -221h-504zM334 207h229q291 0 455 157t164 429q0 220 -116.5 340t-330.5 120h-260z" />
    <glyph glyph-name="dcaron" unicode="&#x10f;" horiz-adv-x="1382" 
d="M530 -20q-154 0 -288 102q-71 54 -113.5 155t-42.5 232q0 276 162 438q164 164 395 164q116 0 209.5 -47t144.5 -129l86 627h222l-205 -1522h-205l2 129q-61 -71 -158 -110t-209 -39zM1376 1149l49 373h199l-104 -373h-144zM600 178q147 0 252 111q102 111 102 280
q0 139 -79.5 220t-204.5 81q-142 0 -246 -104q-105 -108 -105 -281q0 -146 80 -226.5t201 -80.5z" />
    <glyph glyph-name="Dcroat" unicode="&#x110;" horiz-adv-x="1531" 
d="M137 0l88 647h-178l27 195h180l84 616h485q306 0 486 -180t180 -483q0 -355 -229 -574q-232 -221 -619 -221h-504zM395 207h230q291 0 454.5 157t163.5 429q0 220 -116 340t-330 120h-260l-56 -411h195l-29 -195h-192z" />
    <glyph glyph-name="dslash" unicode="&#x111;" horiz-adv-x="1323" 
d="M530 -20q-154 0 -288 102q-71 54 -113.5 155t-42.5 232q0 276 162 438q164 164 395 164q116 0 209.5 -47t144.5 -129l39 279h-321l24 178h322l22 170h222l-23 -170h127l-25 -178h-127l-157 -1174h-205l2 129q-61 -71 -158 -110t-209 -39zM600 178q147 0 252 111
q102 111 102 280q0 139 -79.5 220t-204.5 81q-142 0 -246 -104q-105 -108 -105 -281q0 -146 80 -226.5t201 -80.5z" />
    <glyph glyph-name="Emacron" unicode="&#x112;" horiz-adv-x="1214" 
d="M461 1616l22 158h602l-22 -158h-602zM76 0l200 1458h955l-27 -205h-727l-57 -417h555l-29 -203h-553l-59 -426h770l-31 -207h-997z" />
    <glyph glyph-name="emacron" unicode="&#x113;" horiz-adv-x="1224" 
d="M387 1229l23 157h602l-23 -157h-602zM578 -20q-211 0 -345 131q-137 128 -137 360q-3 264 164 434q166 166 410 166q217 0 342.5 -127.5t130.5 -339.5q0 -64 -15 -141h-819q0 -148 72.5 -223.5t200.5 -75.5q213 0 295 172h225q-50 -164 -193 -258q-143 -98 -331 -98z
M328 618h596q-9 275 -275 275q-114 0 -202 -72t-119 -203z" />
    <glyph glyph-name="Ebreve" unicode="&#x114;" horiz-adv-x="1214" 
d="M760 1556q-129 0 -203 80.5t-57 208.5h155q-7 -61 22 -98t85 -37q137 0 149 135h160q-12 -135 -95 -212t-216 -77zM76 0l200 1458h955l-27 -205h-727l-57 -417h555l-29 -203h-553l-59 -426h770l-31 -207h-997z" />
    <glyph glyph-name="ebreve" unicode="&#x115;" horiz-adv-x="1224" 
d="M686 1169q-129 0 -203 80.5t-57 208.5h156q-7 -61 21.5 -98t84.5 -37q138 0 150 135h159q-12 -135 -95 -212t-216 -77zM578 -20q-211 0 -345 131q-137 128 -137 360q-3 264 164 434q166 166 410 166q217 0 342.5 -127.5t130.5 -339.5q0 -64 -15 -141h-819
q0 -148 72.5 -223.5t200.5 -75.5q213 0 295 172h225q-50 -164 -193 -258q-143 -98 -331 -98zM328 618h596q-9 275 -275 275q-114 0 -202 -72t-119 -203z" />
    <glyph glyph-name="Edotaccent" unicode="&#x116;" horiz-adv-x="1214" 
d="M633 1614l33 233h247l-32 -233h-248zM76 0l200 1458h955l-27 -205h-727l-57 -417h555l-29 -203h-553l-59 -426h770l-31 -207h-997z" />
    <glyph glyph-name="edotaccent" unicode="&#x117;" horiz-adv-x="1224" 
d="M559 1229l33 233h248l-33 -233h-248zM578 -20q-211 0 -345 131q-137 128 -137 360q-3 264 164 434q166 166 410 166q217 0 342.5 -127.5t130.5 -339.5q0 -64 -15 -141h-819q0 -148 72.5 -223.5t200.5 -75.5q213 0 295 172h225q-50 -164 -193 -258q-143 -98 -331 -98z
M328 618h596q-9 275 -275 275q-114 0 -202 -72t-119 -203z" />
    <glyph glyph-name="Eogonek" unicode="&#x118;" horiz-adv-x="1214" 
d="M897 -344q-73 0 -115.5 35.5t-42.5 97.5q0 128 164 211h-827l200 1458h955l-27 -205h-727l-57 -417h555l-29 -203h-553l-59 -426h770l-31 -207h2q-170 -77 -170 -152q0 -47 60 -47q31 0 73 17l-20 -135q-52 -27 -121 -27z" />
    <glyph glyph-name="eogonek" unicode="&#x119;" horiz-adv-x="1224" 
d="M582 -334q-73 0 -115.5 35.5t-42.5 97.5q0 107 113 183q-195 12 -318 141t-123 348q-3 264 164 434q166 166 410 166q217 0 342.5 -127.5t130.5 -339.5q0 -64 -15 -141h-819q0 -148 72.5 -223.5t200.5 -75.5q213 0 295 172h225q-38 -126 -134.5 -214t-232.5 -124
q-145 -71 -145 -139q0 -47 59 -47q34 0 74 16l-21 -135q-52 -27 -120 -27zM328 618h596q-9 275 -275 275q-114 0 -202 -72t-119 -203z" />
    <glyph glyph-name="Ecaron" unicode="&#x11a;" horiz-adv-x="1214" 
d="M657 1567l-168 286h197l88 -147l129 147h205l-254 -286h-197zM76 0l200 1458h955l-27 -205h-727l-57 -417h555l-29 -203h-553l-59 -426h770l-31 -207h-997z" />
    <glyph glyph-name="ecaron" unicode="&#x11b;" horiz-adv-x="1224" 
d="M584 1182l-168 286h196l88 -147l129 147h205l-254 -286h-196zM578 -20q-211 0 -345 131q-137 128 -137 360q-3 264 164 434q166 166 410 166q217 0 342.5 -127.5t130.5 -339.5q0 -64 -15 -141h-819q0 -148 72.5 -223.5t200.5 -75.5q213 0 295 172h225q-50 -164 -193 -258
q-143 -98 -331 -98zM328 618h596q-9 275 -275 275q-114 0 -202 -72t-119 -203z" />
    <glyph glyph-name="Gcircumflex" unicode="&#x11c;" horiz-adv-x="1581" 
d="M610 1575l250 287h197l170 -287h-199l-88 147l-129 -147h-201zM717 -18q-272 0 -443 174q-174 171 -174 475q0 351 228 600q227 248 569 248q256 0 424 -131q170 -132 197 -349h-244q-35 132 -135.5 200.5t-249.5 68.5q-233 0 -389 -172q-156 -176 -156 -443
q0 -214 112.5 -338.5t303.5 -124.5q164 0 303 86q138 86 168 261q0 7 12 84h-455l29 194h682l-115 -817h-188l6 182q-174 -198 -485 -198z" />
    <glyph glyph-name="gcircumflex" unicode="&#x11d;" horiz-adv-x="1255" 
d="M383 1180l250 286h196l170 -286h-198l-88 147l-129 -147h-201zM518 -430q-210 0 -341 99.5t-142 264.5h219q12 -84 83.5 -132t182.5 -48q134 0 214.5 69.5t99.5 199.5l18 135q-54 -63 -139.5 -99t-182.5 -36q-188 0 -313 122q-129 120 -129 351q0 248 150 411
q146 162 372 162q117 0 208 -46.5t136 -125.5l41 152h201l-137 -1000q-34 -241 -175.5 -360t-365.5 -119zM578 219q140 0 235 105q94 104 94 262q0 133 -72 209.5t-194 76.5q-143 0 -231 -110t-88 -264q0 -136 72.5 -207.5t183.5 -71.5z" />
    <glyph glyph-name="Gbreve" unicode="&#x11e;" horiz-adv-x="1581" 
d="M924 1565q-129 0 -203 80t-57 208h155q-7 -61 22 -98t85 -37q137 0 149 135h160q-12 -135 -94.5 -211.5t-216.5 -76.5zM717 -18q-272 0 -443 174q-174 171 -174 475q0 351 228 600q227 248 569 248q256 0 424 -131q170 -132 197 -349h-244q-35 132 -135.5 200.5
t-249.5 68.5q-233 0 -389 -172q-156 -176 -156 -443q0 -214 112.5 -338.5t303.5 -124.5q164 0 303 86q138 86 168 261q0 7 12 84h-455l29 194h682l-115 -817h-188l6 182q-174 -198 -485 -198z" />
    <glyph glyph-name="gbreve" unicode="&#x11f;" horiz-adv-x="1255" 
d="M696 1169q-129 0 -203 80.5t-57 208.5h156q-7 -61 21.5 -98t84.5 -37q138 0 150 135h160q-12 -135 -95 -212t-217 -77zM518 -430q-210 0 -341 99.5t-142 264.5h219q12 -84 83.5 -132t182.5 -48q134 0 214.5 69.5t99.5 199.5l18 135q-54 -63 -139.5 -99t-182.5 -36
q-188 0 -313 122q-129 120 -129 351q0 248 150 411q146 162 372 162q117 0 208 -46.5t136 -125.5l41 152h201l-137 -1000q-34 -241 -175.5 -360t-365.5 -119zM578 219q140 0 235 105q94 104 94 262q0 133 -72 209.5t-194 76.5q-143 0 -231 -110t-88 -264q0 -136 72.5 -207.5
t183.5 -71.5z" />
    <glyph glyph-name="Gdotaccent" unicode="&#x120;" horiz-adv-x="1581" 
d="M797 1624l32 234h248l-33 -234h-247zM717 -18q-272 0 -443 174q-174 171 -174 475q0 351 228 600q227 248 569 248q256 0 424 -131q170 -132 197 -349h-244q-35 132 -135.5 200.5t-249.5 68.5q-233 0 -389 -172q-156 -176 -156 -443q0 -214 112.5 -338.5t303.5 -124.5
q164 0 303 86q138 86 168 261q0 7 12 84h-455l29 194h682l-115 -817h-188l6 182q-174 -198 -485 -198z" />
    <glyph glyph-name="gdotaccent" unicode="&#x121;" horiz-adv-x="1255" 
d="M569 1229l33 233h248l-33 -233h-248zM518 -430q-210 0 -341 99.5t-142 264.5h219q12 -84 83.5 -132t182.5 -48q134 0 214.5 69.5t99.5 199.5l18 135q-54 -63 -139.5 -99t-182.5 -36q-188 0 -313 122q-129 120 -129 351q0 248 150 411q146 162 372 162q117 0 208 -46.5
t136 -125.5l41 152h201l-137 -1000q-34 -241 -175.5 -360t-365.5 -119zM578 219q140 0 235 105q94 104 94 262q0 133 -72 209.5t-194 76.5q-143 0 -231 -110t-88 -264q0 -136 72.5 -207.5t183.5 -71.5z" />
    <glyph glyph-name="Gcommaaccent" unicode="&#x122;" horiz-adv-x="1581" 
d="M717 -18q-272 0 -443 174q-174 171 -174 475q0 351 228 600q227 248 569 248q256 0 424 -131q170 -132 197 -349h-244q-35 132 -135.5 200.5t-249.5 68.5q-233 0 -389 -172q-156 -176 -156 -443q0 -214 112.5 -338.5t303.5 -124.5q164 0 303 86q138 86 168 261q0 7 12 84
h-455l29 194h682l-115 -817h-188l6 182q-174 -198 -485 -198zM580 -487l108 176h-96l29 207h221l-29 -207l-106 -176h-127z" />
    <glyph glyph-name="gcommaaccent" unicode="&#x123;" horiz-adv-x="1255" 
d="M582 1198l28 207l107 176h127l-117 -176h102l-28 -207h-219zM518 -430q-210 0 -341 99.5t-142 264.5h219q12 -84 83.5 -132t182.5 -48q134 0 214.5 69.5t99.5 199.5l18 135q-54 -63 -139.5 -99t-182.5 -36q-188 0 -313 122q-129 120 -129 351q0 248 150 411
q146 162 372 162q117 0 208 -46.5t136 -125.5l41 152h201l-137 -1000q-34 -241 -175.5 -360t-365.5 -119zM578 219q140 0 235 105q94 104 94 262q0 133 -72 209.5t-194 76.5q-143 0 -231 -110t-88 -264q0 -136 72.5 -207.5t183.5 -71.5z" />
    <glyph glyph-name="Hcircumflex" unicode="&#x124;" horiz-adv-x="1470" 
d="M569 1567l250 286h197l170 -286h-199l-88 147l-129 -147h-201zM76 0l200 1458h230l-84 -610h715l82 610h231l-199 -1458h-229l86 635h-717l-86 -635h-229z" />
    <glyph glyph-name="hcircumflex" unicode="&#x125;" horiz-adv-x="1224" 
d="M84 1595l250 287h196l170 -287h-198l-88 148l-129 -148h-201zM61 0l209 1522h226l-86 -604q52 70 144.5 111.5t201.5 41.5q192 0 289.5 -127t68.5 -338l-84 -606h-223l74 573q22 149 -33 222t-166 73q-129 0 -214.5 -84.5t-105.5 -228.5l-77 -555h-224z" />
    <glyph glyph-name="Hbar" unicode="&#x126;" horiz-adv-x="1503" 
d="M90 0l146 1061h-125l20 166h127l33 231h229l-33 -231h715l31 231h231l-30 -231h141l-21 -166h-143l-145 -1061h-230l86 635h-716l-87 -635h-229zM436 848h715l29 213h-715z" />
    <glyph glyph-name="hbar" unicode="&#x127;" horiz-adv-x="1234" 
d="M72 0l161 1174h-124l24 178h125l23 170h225l-25 -170h328l-25 -178h-327l-37 -256q52 70 144.5 111.5t201.5 41.5q192 0 289.5 -127t68.5 -338l-84 -606h-223l74 573q22 149 -33 222t-166 73q-129 0 -214 -84.5t-105 -228.5l-78 -555h-223z" />
    <glyph glyph-name="Itilde" unicode="&#x128;" horiz-adv-x="526" 
d="M547 1585q-67 0 -133 41q-65 39 -103 39q-29 0 -49 -20t-26 -54h-119q12 103 62.5 161t131.5 58q69 0 135 -38q64 -41 101 -41q66 0 78 73h116q-12 -105 -62.5 -162t-131.5 -57zM76 0l200 1458h230l-201 -1458h-229z" />
    <glyph glyph-name="itilde" unicode="&#x129;" horiz-adv-x="491" 
d="M471 1176q-67 0 -133 41q-63 38 -102 38q-29 0 -49.5 -19.5t-26.5 -53.5h-119q12 102 63 160.5t132 58.5q67 0 135 -39q64 -41 100 -41q66 0 78 74h117q-12 -105 -62.5 -162t-132.5 -57zM59 0l148 1049h223l-145 -1049h-226z" />
    <glyph glyph-name="Imacron" unicode="&#x12a;" horiz-adv-x="526" 
d="M115 1616l22 158h602l-22 -158h-602zM76 0l200 1458h230l-201 -1458h-229z" />
    <glyph glyph-name="imacron" unicode="&#x12b;" horiz-adv-x="491" 
d="M41 1229l22 157h603l-23 -157h-602zM59 0l148 1049h223l-145 -1049h-226z" />
    <glyph glyph-name="Ibreve" unicode="&#x12c;" horiz-adv-x="526" 
d="M414 1556q-129 0 -203 80.5t-57 208.5h155q-7 -61 22 -98t85 -37q137 0 149 135h160q-12 -135 -95 -212t-216 -77zM76 0l200 1458h230l-201 -1458h-229z" />
    <glyph glyph-name="ibreve" unicode="&#x12d;" horiz-adv-x="491" 
d="M340 1169q-129 0 -203 80.5t-57 208.5h156q-7 -61 21.5 -98t84.5 -37q138 0 150 135h159q-12 -135 -95 -212t-216 -77zM59 0l148 1049h223l-145 -1049h-226z" />
    <glyph glyph-name="Iogonek" unicode="&#x12e;" horiz-adv-x="526" 
d="M129 -344q-73 0 -115.5 35.5t-42.5 97.5q0 128 164 211h-59l200 1458h230l-201 -1458h2q-170 -77 -170 -152q0 -47 60 -47q31 0 73 17l-20 -135q-52 -27 -121 -27z" />
    <glyph glyph-name="iogonek" unicode="&#x12f;" horiz-adv-x="491" 
d="M219 1245l33 234h248l-33 -234h-248zM106 -344q-73 0 -115 35t-42 98q0 128 164 211h-52l144 1049h223l-143 -1049q-170 -77 -170 -152q0 -47 59 -47q32 0 74 17l-21 -135q-53 -27 -121 -27z" />
    <glyph glyph-name="Idot" unicode="&#x130;" horiz-adv-x="526" 
d="M287 1614l32 233h248l-32 -233h-248zM76 0l200 1458h230l-201 -1458h-229z" />
    <glyph glyph-name="dotlessi" unicode="&#x131;" horiz-adv-x="491" 
d="M59 0l148 1049h223l-145 -1049h-226z" />
    <glyph glyph-name="IJ" unicode="&#x132;" horiz-adv-x="1622" 
d="M76 0l200 1458h230l-201 -1458h-229zM944 -20q-216 0 -340 124q-123 120 -96 340h225q-14 -122 42.5 -188t178.5 -66q236 0 271 246l139 1022h229l-139 -1032q-30 -213 -166.5 -329.5t-343.5 -116.5z" />
    <glyph glyph-name="ij" unicode="&#x133;" horiz-adv-x="993" 
d="M219 1245l33 234h248l-33 -234h-248zM725 1245l33 234h248l-33 -234h-248zM61 0l144 1049h223l-143 -1049h-224zM297 -410l29 199h102q63 0 90 22.5t35 79.5l156 1158h225l-162 -1190q-20 -143 -97 -206t-235 -63h-143z" />
    <glyph glyph-name="Jcircumflex" unicode="&#x134;" horiz-adv-x="1142" 
d="M748 1567l249 286h197l170 -286h-199l-88 147l-129 -147h-200zM508 -20q-219 0 -340 124q-123 120 -96 340h225q-14 -122 42.5 -188t178.5 -66q236 0 270 246l140 1022h229l-139 -1032q-30 -213 -166.5 -329.5t-343.5 -116.5z" />
    <glyph glyph-name="jcircumflex" unicode="&#x135;" horiz-adv-x="516" 
d="M49 1180l250 286h197l170 -286h-199l-88 147l-129 -147h-201zM-186 -410l28 199h103q63 0 90 22.5t35 79.5l155 1158h226l-162 -1190q-20 -143 -97 -206t-235 -63h-143z" />
    <glyph glyph-name="Kcommaaccent" unicode="&#x136;" horiz-adv-x="1372" 
d="M76 0l200 1458h228l-101 -745l762 745h297l-649 -639l457 -819h-273l-360 653l-281 -274l-51 -379h-229zM467 -481l108 176h-96l29 207h221l-29 -207l-106 -176h-127z" />
    <glyph glyph-name="kcommaaccent" unicode="&#x137;" horiz-adv-x="1114" 
d="M61 0l209 1522h226l-129 -947l518 476h276l-514 -473l363 -578h-254l-271 438l-157 -141l-41 -297h-226zM362 -471l109 176h-96l28 207h222l-29 -207l-107 -176h-127z" />
    <glyph glyph-name="Lacute" unicode="&#x139;" horiz-adv-x="1144" 
d="M313 1567l211 286h215l-243 -286h-183zM76 0l198 1458h230l-166 -1245h715l-31 -213h-946z" />
    <glyph glyph-name="lacute" unicode="&#x13a;" horiz-adv-x="491" 
d="M301 1608l211 286h215l-244 -286h-182zM61 0l209 1522h224l-209 -1522h-224z" />
    <glyph glyph-name="Lcommaaccent" unicode="&#x13b;" horiz-adv-x="1144" 
d="M76 0l198 1458h230l-166 -1245h715l-31 -213h-946zM387 -494l109 177h-97l29 206h221l-28 -206l-107 -177h-127z" />
    <glyph glyph-name="lcommaaccent" unicode="&#x13c;" horiz-adv-x="491" 
d="M61 0l209 1522h224l-209 -1522h-224zM12 -471l109 176h-96l28 207h221l-28 -207l-107 -176h-127z" />
    <glyph glyph-name="Lcaron" unicode="&#x13d;" horiz-adv-x="1144" 
d="M76 0l198 1458h230l-166 -1245h715l-31 -213h-946zM618 1085l50 373h198l-104 -373h-144z" />
    <glyph glyph-name="lcaron" unicode="&#x13e;" horiz-adv-x="567" 
d="M61 0l209 1522h224l-209 -1522h-224zM561 1149l49 373h199l-104 -373h-144z" />
    <glyph glyph-name="Ldot" unicode="&#x13f;" horiz-adv-x="1148" 
d="M76 0l198 1458h230l-166 -1245h715l-31 -213h-946zM850 739q-50 0 -83.5 33t-33.5 82q0 55 39 93t96 38q48 0 82.5 -33t34.5 -80q0 -56 -39 -94.5t-96 -38.5z" />
    <glyph glyph-name="ldot" unicode="&#x140;" horiz-adv-x="737" 
d="M61 0l209 1522h224l-209 -1522h-224zM635 651q-50 0 -83.5 33t-33.5 82q0 55 39 93t96 38q48 0 82.5 -33t34.5 -80q0 -56 -39 -94.5t-96 -38.5z" />
    <glyph glyph-name="Lslash" unicode="&#x141;" horiz-adv-x="1196" 
d="M123 0l92 670l-192 -115l28 209l191 115l80 579h229l-57 -430l241 143l-28 -208l-242 -144l-80 -606h715l-31 -213h-946z" />
    <glyph glyph-name="lslash" unicode="&#x142;" horiz-adv-x="548" 
d="M88 0l92 684l-160 -57l27 194l160 58l88 645h225l-76 -559l166 59l-28 -197l-164 -59l-105 -768h-225z" />
    <glyph glyph-name="Nacute" unicode="&#x143;" horiz-adv-x="1464" 
d="M811 1567l211 286h215l-244 -286h-182zM76 0l200 1458h236l553 -1096l149 1096h230l-201 -1458h-237l-553 1083l-148 -1083h-229z" />
    <glyph glyph-name="nacute" unicode="&#x144;" horiz-adv-x="1218" 
d="M645 1180l211 286h215l-244 -286h-182zM61 0l144 1049h203l-5 -142q58 74 154 118t205 44q176 0 278 -117q104 -119 70 -346l-84 -606h-225l82 590q19 148 -37 217.5t-166 69.5q-127 0 -212 -86t-108 -236l-75 -555h-224z" />
    <glyph glyph-name="Ncommaaccent" unicode="&#x145;" horiz-adv-x="1464" 
d="M76 0l200 1458h236l553 -1096l149 1096h230l-201 -1458h-237l-553 1083l-148 -1083h-229zM502 -467l108 176h-96l29 207h221l-29 -207l-106 -176h-127z" />
    <glyph glyph-name="ncommaaccent" unicode="&#x146;" horiz-adv-x="1218" 
d="M61 0l144 1049h203l-5 -142q58 74 154 118t205 44q176 0 278 -117q104 -119 70 -346l-84 -606h-225l82 590q19 148 -37 217.5t-166 69.5q-127 0 -212 -86t-108 -236l-75 -555h-224zM379 -471l108 176h-96l29 207h221l-29 -207l-106 -176h-127z" />
    <glyph glyph-name="Ncaron" unicode="&#x147;" horiz-adv-x="1464" 
d="M803 1567l-168 286h196l89 -147l129 147h204l-254 -286h-196zM76 0l200 1458h236l553 -1096l149 1096h230l-201 -1458h-237l-553 1083l-148 -1083h-229z" />
    <glyph glyph-name="ncaron" unicode="&#x148;" horiz-adv-x="1218" 
d="M639 1180l-168 286h197l88 -147l129 147h205l-254 -286h-197zM61 0l144 1049h203l-5 -142q58 74 154 118t205 44q176 0 278 -117q104 -119 70 -346l-84 -606h-225l82 590q19 148 -37 217.5t-166 69.5q-127 0 -212 -86t-108 -236l-75 -555h-224z" />
    <glyph glyph-name="Eng" unicode="&#x14a;" horiz-adv-x="1464" 
d="M750 -410l26 201h101q59 0 84.5 21t33.5 73l17 111l-561 1083l-146 -1079h-229l198 1458h240l555 -1093l145 1093h230l-221 -1610q-20 -140 -96 -199t-234 -59h-143z" />
    <glyph glyph-name="eng" unicode="&#x14b;" horiz-adv-x="1216" 
d="M496 -420l26 199h121q63 0 91.5 22t39.5 78l98 711q22 146 -34 214t-166 68q-129 0 -214.5 -84.5t-105.5 -232.5l-78 -555h-223l144 1049h204l-4 -144q56 75 151.5 119.5t205.5 44.5q176 0 278 -117q104 -119 70 -346l-105 -760q-40 -266 -340 -266h-159z" />
    <glyph glyph-name="Omacron" unicode="&#x14c;" horiz-adv-x="1574" 
d="M610 1624l23 158h602l-23 -158h-602zM750 -10q-285 0 -467 182q-181 181 -181 492q0 345 230 581q231 234 547 234q286 0 469 -183q180 -183 180 -493q0 -345 -230 -578q-229 -235 -548 -235zM756 205q215 0 370 174q154 177 154 426q0 213 -113.5 336t-298.5 123
q-216 0 -366 -172q-154 -177 -154 -428q0 -213 111 -336t297 -123z" />
    <glyph glyph-name="omacron" unicode="&#x14d;" horiz-adv-x="1245" 
d="M387 1229l23 157h602l-23 -157h-602zM582 -20q-211 0 -353 133q-143 131 -143 360q0 255 168 426q166 172 414 172q203 0 348 -133q141 -135 141 -371q0 -250 -164 -420q-161 -167 -411 -167zM584 170q144 0 247 115q101 113 101 284q0 146 -76.5 229t-198.5 83
q-145 0 -245 -115q-101 -113 -101 -287q0 -146 75.5 -227.5t197.5 -81.5z" />
    <glyph glyph-name="Obreve" unicode="&#x14e;" horiz-adv-x="1574" 
d="M907 1565q-129 0 -203 80t-57 208h156q-7 -61 21.5 -98t84.5 -37q138 0 150 135h160q-12 -135 -95 -211.5t-217 -76.5zM750 -10q-285 0 -467 182q-181 181 -181 492q0 345 230 581q231 234 547 234q286 0 469 -183q180 -183 180 -493q0 -345 -230 -578
q-229 -235 -548 -235zM756 205q215 0 370 174q154 177 154 426q0 213 -113.5 336t-298.5 123q-216 0 -366 -172q-154 -177 -154 -428q0 -213 111 -336t297 -123z" />
    <glyph glyph-name="obreve" unicode="&#x14f;" horiz-adv-x="1245" 
d="M684 1169q-129 0 -203 80.5t-57 208.5h156q-7 -61 21.5 -98t84.5 -37q138 0 150 135h159q-12 -135 -95 -212t-216 -77zM582 -20q-211 0 -353 133q-143 131 -143 360q0 255 168 426q166 172 414 172q203 0 348 -133q141 -135 141 -371q0 -250 -164 -420
q-161 -167 -411 -167zM584 170q144 0 247 115q101 113 101 284q0 146 -76.5 229t-198.5 83q-145 0 -245 -115q-101 -113 -101 -287q0 -146 75.5 -227.5t197.5 -81.5z" />
    <glyph glyph-name="Ohungarumlaut" unicode="&#x150;" horiz-adv-x="1574" 
d="M672 1575l211 287h211l-242 -287h-180zM958 1575l256 287h211l-284 -287h-183zM750 -10q-285 0 -467 182q-181 181 -181 492q0 345 230 581q231 234 547 234q286 0 469 -183q180 -183 180 -493q0 -345 -230 -578q-229 -235 -548 -235zM756 205q215 0 370 174
q154 177 154 426q0 213 -113.5 336t-298.5 123q-216 0 -366 -172q-154 -177 -154 -428q0 -213 111 -336t297 -123z" />
    <glyph glyph-name="ohungarumlaut" unicode="&#x151;" horiz-adv-x="1245" 
d="M449 1182l210 286h211l-241 -286h-180zM735 1182l256 286h211l-284 -286h-183zM582 -20q-211 0 -353 133q-143 131 -143 360q0 255 168 426q166 172 414 172q203 0 348 -133q141 -135 141 -371q0 -250 -164 -420q-161 -167 -411 -167zM584 170q144 0 247 115
q101 113 101 284q0 146 -76.5 229t-198.5 83q-145 0 -245 -115q-101 -113 -101 -287q0 -146 75.5 -227.5t197.5 -81.5z" />
    <glyph glyph-name="OE" unicode="&#x152;" horiz-adv-x="2334" 
d="M748 -18q-271 0 -455 178t-184 504q0 341 215 579q214 236 550 236q341 0 504 -254l33 233h948l-28 -205h-717l-60 -417h547l-26 -203h-549l-60 -426h756l-29 -207h-987l25 178q-79 -91 -209.5 -143.5t-273.5 -52.5zM778 199q216 0 363 166q145 165 145 419
q0 220 -116 349t-304 129q-222 0 -366 -170q-146 -175 -146 -420q0 -219 121 -346t303 -127z" />
    <glyph glyph-name="oe" unicode="&#x153;" horiz-adv-x="2054" 
d="M573 -20q-209 0 -348 133q-137 131 -137 362q0 256 170 426t410 170q134 0 242.5 -62t166.5 -169q69 109 185.5 170t255.5 61q231 0 354 -147q121 -145 94 -379l-12 -82h-805q-18 -137 56.5 -218t207.5 -81q100 0 177.5 46t115.5 128h219q-61 -170 -198 -263t-322 -93
q-136 0 -243.5 58.5t-151.5 160.5q-68 -101 -185.5 -161t-251.5 -60zM1169 616h580q10 131 -58 204t-192 73t-215 -74.5t-115 -202.5zM596 166q143 0 244 113q100 112 100 274q0 149 -76.5 238.5t-204.5 89.5q-150 0 -245 -115q-97 -120 -97 -287q0 -145 75.5 -229
t203.5 -84z" />
    <glyph glyph-name="Racute" unicode="&#x154;" horiz-adv-x="1361" 
d="M629 1567l211 286h215l-244 -286h-182zM76 0l200 1458h586q231 0 357.5 -116.5t126.5 -319.5q0 -182 -105 -308t-287 -171l211 -543h-258l-192 512h-338l-72 -512h-229zM403 713h338q170 0 264.5 80t94.5 223q0 237 -256 237h-367z" />
    <glyph glyph-name="racute" unicode="&#x155;" horiz-adv-x="796" 
d="M465 1180l211 286h215l-244 -286h-182zM63 0l144 1049h205l8 -117q76 117 246 117h157l-28 -201h-154q-124 0 -188.5 -64.5t-83.5 -195.5l-82 -588h-224z" />
    <glyph glyph-name="Rcommaaccent" unicode="&#x156;" horiz-adv-x="1361" 
d="M76 0l200 1458h586q231 0 357.5 -116.5t126.5 -319.5q0 -182 -105 -308t-287 -171l211 -543h-258l-192 512h-338l-72 -512h-229zM403 713h338q170 0 264.5 80t94.5 223q0 237 -256 237h-367zM418 -467l108 176h-96l29 207h221l-29 -207l-106 -176h-127z" />
    <glyph glyph-name="rcommaaccent" unicode="&#x157;" horiz-adv-x="796" 
d="M63 0l144 1049h205l8 -117q76 117 246 117h157l-28 -201h-154q-124 0 -188.5 -64.5t-83.5 -195.5l-82 -588h-224zM18 -467l109 176h-96l28 207h222l-29 -207l-107 -176h-127z" />
    <glyph glyph-name="Rcaron" unicode="&#x158;" horiz-adv-x="1361" 
d="M621 1567l-168 286h196l88 -147l129 147h205l-254 -286h-196zM76 0l200 1458h586q231 0 357.5 -116.5t126.5 -319.5q0 -182 -105 -308t-287 -171l211 -543h-258l-192 512h-338l-72 -512h-229zM403 713h338q170 0 264.5 80t94.5 223q0 237 -256 237h-367z" />
    <glyph glyph-name="rcaron" unicode="&#x159;" horiz-adv-x="796" 
d="M457 1180l-168 286h196l88 -147l129 147h205l-254 -286h-196zM63 0l144 1049h205l8 -117q76 117 246 117h157l-28 -201h-154q-124 0 -188.5 -64.5t-83.5 -195.5l-82 -588h-224z" />
    <glyph glyph-name="Sacute" unicode="&#x15a;" horiz-adv-x="1273" 
d="M721 1575l211 287h215l-244 -287h-182zM602 -20q-254 0 -401 118q-150 120 -129 316h229q-11 -110 71 -174t240 -64q154 0 248 65t94 171q0 78 -49 125.5t-155 72.5l-201 47q-365 82 -365 377q0 198 154 322q150 123 407 123q234 0 383 -107q148 -109 136 -323h-228
q10 112 -67.5 174.5t-225.5 62.5q-143 0 -229 -62t-86 -165q0 -79 50 -126t165 -73l205 -45q350 -77 350 -383q0 -212 -172 -332q-176 -120 -424 -120z" />
    <glyph glyph-name="sacute" unicode="&#x15b;" horiz-adv-x="1044" 
d="M489 1180l211 286h215l-243 -286h-183zM465 -20q-197 0 -312.5 89t-115.5 248h219q3 -172 219 -172q104 0 164.5 40.5t60.5 109.5q0 55 -36.5 85.5t-122.5 49.5l-144 35q-280 65 -280 270q0 152 127 244q128 90 321 90q200 0 312.5 -91t101.5 -241h-217q1 79 -54 122.5
t-155 43.5q-96 0 -152.5 -38.5t-56.5 -100.5q0 -53 34.5 -78.5t125.5 -46.5l147 -37q148 -36 215.5 -105t67.5 -180q0 -158 -133 -247q-134 -90 -336 -90z" />
    <glyph glyph-name="Scircumflex" unicode="&#x15c;" horiz-adv-x="1273" 
d="M442 1575l250 287h197l170 -287h-199l-88 147l-129 -147h-201zM602 -20q-254 0 -401 118q-150 120 -129 316h229q-11 -110 71 -174t240 -64q154 0 248 65t94 171q0 78 -49 125.5t-155 72.5l-201 47q-365 82 -365 377q0 198 154 322q150 123 407 123q234 0 383 -107
q148 -109 136 -323h-228q10 112 -67.5 174.5t-225.5 62.5q-143 0 -229 -62t-86 -165q0 -79 50 -126t165 -73l205 -45q350 -77 350 -383q0 -212 -172 -332q-176 -120 -424 -120z" />
    <glyph glyph-name="scircumflex" unicode="&#x15d;" horiz-adv-x="1044" 
d="M272 1180l250 286h197l170 -286h-199l-88 147l-129 -147h-201zM465 -20q-197 0 -312.5 89t-115.5 248h219q3 -172 219 -172q104 0 164.5 40.5t60.5 109.5q0 55 -36.5 85.5t-122.5 49.5l-144 35q-280 65 -280 270q0 152 127 244q128 90 321 90q200 0 312.5 -91t101.5 -241
h-217q1 79 -54 122.5t-155 43.5q-96 0 -152.5 -38.5t-56.5 -100.5q0 -53 34.5 -78.5t125.5 -46.5l147 -37q148 -36 215.5 -105t67.5 -180q0 -158 -133 -247q-134 -90 -336 -90z" />
    <glyph glyph-name="Scedilla" unicode="&#x15e;" horiz-adv-x="1273" 
d="M522 -373q-82 0 -131.5 43t-44.5 109h119q0 -49 59 -49q62 0 62 53q0 32 -27.5 46t-69.5 3l-47 27l64 125q-213 21 -334 139q-120 114 -102 291h229q-11 -110 71 -174t240 -64q154 0 248 65t94 171q0 78 -49 125.5t-155 72.5l-201 47q-365 82 -365 377q0 198 154 322
q150 123 407 123q234 0 383 -107q148 -109 136 -323h-228q10 112 -67.5 174.5t-225.5 62.5q-143 0 -229 -62t-86 -165q0 -79 50 -126t165 -73l205 -45q350 -77 350 -383q0 -212 -172 -332q-176 -120 -424 -120h-2l-33 -64q72 5 115 -31t43 -102q0 -72 -55 -114t-146 -42z
" />
    <glyph glyph-name="scedilla" unicode="&#x15f;" horiz-adv-x="1044" 
d="M430 -365q-82 0 -131.5 43t-44.5 109h119q0 -49 59 -49q62 0 62 53q0 32 -27.5 46t-69.5 3l-47 27l58 115q-172 12 -271.5 100t-99.5 235h219q3 -172 219 -172q104 0 164.5 40.5t60.5 109.5q0 55 -36.5 85.5t-122.5 49.5l-144 35q-280 65 -280 270q0 152 127 244
q128 90 321 90q200 0 312.5 -91t101.5 -241h-217q1 79 -54 122.5t-155 43.5q-96 0 -152.5 -38.5t-56.5 -100.5q0 -53 34.5 -78.5t125.5 -46.5l147 -37q148 -36 215.5 -105t67.5 -180q0 -149 -118.5 -237.5t-313.5 -99.5l-29 -56q72 5 115 -31t43 -102q0 -72 -55 -114
t-146 -42z" />
    <glyph glyph-name="Scaron" unicode="&#x160;" horiz-adv-x="1273" 
d="M713 1575l-168 287h196l88 -148l129 148h205l-254 -287h-196zM602 -20q-254 0 -401 118q-150 120 -129 316h229q-11 -110 71 -174t240 -64q154 0 248 65t94 171q0 78 -49 125.5t-155 72.5l-201 47q-365 82 -365 377q0 198 154 322q150 123 407 123q234 0 383 -107
q148 -109 136 -323h-228q10 112 -67.5 174.5t-225.5 62.5q-143 0 -229 -62t-86 -165q0 -79 50 -126t165 -73l205 -45q350 -77 350 -383q0 -212 -172 -332q-176 -120 -424 -120z" />
    <glyph glyph-name="scaron" unicode="&#x161;" horiz-adv-x="1044" 
d="M483 1180l-168 286h197l88 -147l129 147h205l-254 -286h-197zM465 -20q-197 0 -312.5 89t-115.5 248h219q3 -172 219 -172q104 0 164.5 40.5t60.5 109.5q0 55 -36.5 85.5t-122.5 49.5l-144 35q-280 65 -280 270q0 152 127 244q128 90 321 90q200 0 312.5 -91t101.5 -241
h-217q1 79 -54 122.5t-155 43.5q-96 0 -152.5 -38.5t-56.5 -100.5q0 -53 34.5 -78.5t125.5 -46.5l147 -37q148 -36 215.5 -105t67.5 -180q0 -158 -133 -247q-134 -90 -336 -90z" />
    <glyph glyph-name="uni0162" unicode="&#x162;" horiz-adv-x="1284" 
d="M449 0l176 1253h-482l27 205h1196l-29 -205h-483l-176 -1253h-229zM416 -473l108 176h-96l29 207h221l-29 -207l-106 -176h-127z" />
    <glyph glyph-name="uni0163" unicode="&#x163;" horiz-adv-x="735" 
d="M399 0q-279 0 -235 299l76 553h-179l27 197h82q53 0 77.5 18t31.5 66l26 196h223l-39 -280h244l-28 -197h-242l-72 -535q-11 -67 10 -92.5t88 -25.5h127l-28 -199h-189zM209 -467l108 176h-96l29 207h221l-29 -207l-106 -176h-127z" />
    <glyph glyph-name="Tcaron" unicode="&#x164;" horiz-adv-x="1284" 
d="M684 1567l-168 286h197l88 -147l129 147h205l-254 -286h-197zM449 0l176 1253h-482l27 205h1196l-29 -205h-483l-176 -1253h-229z" />
    <glyph glyph-name="tcaron" unicode="&#x165;" horiz-adv-x="741" 
d="M604 1149l49 373h199l-104 -373h-144zM399 0q-279 0 -235 299l76 553h-179l27 197h82q53 0 77.5 18t31.5 66l26 196h223l-39 -280h244l-28 -197h-242l-72 -535q-11 -67 10 -92.5t88 -25.5h127l-28 -199h-189z" />
    <glyph glyph-name="Tbar" unicode="&#x166;" horiz-adv-x="1284" 
d="M449 0l90 635h-226l27 182h223l62 436h-482l27 205h1196l-29 -205h-483l-61 -436h223l-27 -182h-221l-90 -635h-229z" />
    <glyph glyph-name="tbar" unicode="&#x167;" horiz-adv-x="774" 
d="M416 0q-280 0 -236 299l25 180h-162l25 178h161l27 195h-178l26 197h82q53 0 77.5 18t31.5 66l27 196h223l-39 -280h244l-29 -197h-242l-26 -195h252l-23 -178h-252l-22 -162q-11 -67 10 -92.5t88 -25.5h127l-29 -199h-188z" />
    <glyph glyph-name="Utilde" unicode="&#x168;" horiz-adv-x="1437" 
d="M1001 1585q-67 0 -133 41q-65 39 -102 39q-29 0 -49.5 -20t-26.5 -54h-119q12 102 63 160.5t132 58.5q69 0 135 -38q64 -41 100 -41q66 0 78 73h117q-12 -105 -62.5 -162t-132.5 -57zM717 -20q-275 0 -424 165q-155 169 -115 459l117 854h233l-120 -880
q-25 -183 61 -288.5t252 -105.5t267 94.5t126 274.5l121 905h233l-125 -919q-36 -267 -197 -413t-429 -146z" />
    <glyph glyph-name="utilde" unicode="&#x169;" horiz-adv-x="1185" 
d="M819 1176q-67 0 -133 41q-63 38 -102 38q-29 0 -49.5 -19.5t-26.5 -53.5h-119q12 102 63 160.5t132 58.5q67 0 135 -39q64 -41 100 -41q66 0 78 74h117q-12 -105 -62.5 -162t-132.5 -57zM475 -20q-172 0 -270 116q-100 111 -72 324l86 631h217l-82 -600
q-19 -136 34 -206.5t169 -70.5q123 0 204.5 81.5t98.5 219.5l80 576h213l-145 -1051h-201l4 145q-113 -165 -336 -165z" />
    <glyph glyph-name="Umacron" unicode="&#x16a;" horiz-adv-x="1437" 
d="M602 1616l23 158h602l-23 -158h-602zM717 -20q-275 0 -424 165q-155 169 -115 459l117 854h233l-120 -880q-25 -183 61 -288.5t252 -105.5t267 94.5t126 274.5l121 905h233l-125 -919q-36 -267 -197 -413t-429 -146z" />
    <glyph glyph-name="umacron" unicode="&#x16b;" horiz-adv-x="1185" 
d="M412 1229l22 157h602l-22 -157h-602zM475 -20q-172 0 -270 116q-100 111 -72 324l86 631h217l-82 -600q-19 -136 34 -206.5t169 -70.5q123 0 204.5 81.5t98.5 219.5l80 576h213l-145 -1051h-201l4 145q-113 -165 -336 -165z" />
    <glyph glyph-name="Ubreve" unicode="&#x16c;" horiz-adv-x="1437" 
d="M901 1556q-129 0 -203 80.5t-57 208.5h156q-7 -61 21.5 -98t84.5 -37q138 0 150 135h159q-12 -135 -95 -212t-216 -77zM717 -20q-275 0 -424 165q-155 169 -115 459l117 854h233l-120 -880q-25 -183 61 -288.5t252 -105.5t267 94.5t126 274.5l121 905h233l-125 -919
q-36 -267 -197 -413t-429 -146z" />
    <glyph glyph-name="ubreve" unicode="&#x16d;" horiz-adv-x="1185" 
d="M711 1169q-129 0 -203 80.5t-57 208.5h155q-7 -61 22 -98t85 -37q137 0 149 135h160q-12 -135 -95 -212t-216 -77zM475 -20q-172 0 -270 116q-100 111 -72 324l86 631h217l-82 -600q-19 -136 34 -206.5t169 -70.5q123 0 204.5 81.5t98.5 219.5l80 576h213l-145 -1051
h-201l4 145q-113 -165 -336 -165z" />
    <glyph glyph-name="Uring" unicode="&#x16e;" horiz-adv-x="1437" 
d="M889 1481q-101 0 -167.5 63.5t-66.5 165.5q0 108 72.5 179t179.5 71q101 0 167.5 -63.5t66.5 -165.5q0 -109 -73 -179.5t-179 -70.5zM893 1606q51 0 84 34.5t33 88.5q0 45 -29.5 75.5t-75.5 30.5q-51 0 -84 -35.5t-33 -89.5q0 -48 30 -76t75 -28zM717 -20
q-275 0 -424 165q-155 169 -115 459l117 854h233l-120 -880q-25 -183 61 -288.5t252 -105.5t267 94.5t126 274.5l121 905h233l-125 -919q-36 -267 -197 -413t-429 -146z" />
    <glyph glyph-name="uring" unicode="&#x16f;" horiz-adv-x="1185" 
d="M698 1096q-101 0 -167 63.5t-66 165.5q0 108 72.5 179t179.5 71q101 0 167 -63.5t66 -165.5q0 -109 -73 -179.5t-179 -70.5zM702 1221q51 0 84 34t33 88q0 45 -29 76t-75 31q-51 0 -84 -35.5t-33 -89.5q0 -48 30 -76t74 -28zM475 -20q-172 0 -270 116q-100 111 -72 324
l86 631h217l-82 -600q-19 -136 34 -206.5t169 -70.5q123 0 204.5 81.5t98.5 219.5l80 576h213l-145 -1051h-201l4 145q-113 -165 -336 -165z" />
    <glyph glyph-name="Uhungarumlaut" unicode="&#x170;" horiz-adv-x="1437" 
d="M664 1567l210 286h211l-241 -286h-180zM950 1567l256 286h211l-284 -286h-183zM717 -20q-275 0 -424 165q-155 169 -115 459l117 854h233l-120 -880q-25 -183 61 -288.5t252 -105.5t267 94.5t126 274.5l121 905h233l-125 -919q-36 -267 -197 -413t-429 -146z" />
    <glyph glyph-name="uhungarumlaut" unicode="&#x171;" horiz-adv-x="1185" 
d="M473 1180l211 286h211l-242 -286h-180zM760 1180l256 286h211l-285 -286h-182zM475 -20q-172 0 -270 116q-100 111 -72 324l86 631h217l-82 -600q-19 -136 34 -206.5t169 -70.5q123 0 204.5 81.5t98.5 219.5l80 576h213l-145 -1051h-201l4 145q-113 -165 -336 -165z" />
    <glyph glyph-name="Uogonek" unicode="&#x172;" horiz-adv-x="1437" 
d="M653 -354q-73 0 -115 35t-42 98q0 124 149 203q-242 21 -375 186q-131 162 -96 436l117 854h233l-121 -880q-24 -183 62 -288.5t252 -105.5t267 94.5t126 274.5l121 905h233l-125 -919q-32 -239 -163 -380.5t-351 -172.5q-163 -70 -163 -148q0 -47 59 -47q34 0 74 16
l-21 -135q-51 -26 -121 -26z" />
    <glyph glyph-name="uogonek" unicode="&#x173;" horiz-adv-x="1185" 
d="M829 -344q-73 0 -115 35t-42 98q0 128 164 211h-29l4 145q-113 -165 -336 -165q-172 0 -270 116q-100 111 -72 324l86 631h217l-82 -600q-19 -136 34 -206.5t169 -70.5q123 0 204.5 81.5t98.5 219.5l80 576h213l-145 -1051q-170 -77 -170 -152q0 -47 59 -47q31 0 74 17
l-21 -135q-53 -27 -121 -27z" />
    <glyph glyph-name="Wcircumflex" unicode="&#x174;" horiz-adv-x="2074" 
d="M870 1567l250 286h197l170 -286h-199l-88 147l-129 -147h-201zM340 0l-182 1458h248l118 -1145l506 1145h273l122 -1145l490 1145h254l-641 -1458h-268l-144 1147l-508 -1147h-268z" />
    <glyph glyph-name="wcircumflex" unicode="&#x175;" horiz-adv-x="1632" 
d="M598 1180l250 286h196l170 -286h-198l-88 147l-129 -147h-201zM254 0l-150 1049h234l88 -797l342 797h240l122 -799l306 799h233l-436 -1049h-252l-121 805l-354 -805h-252z" />
    <glyph glyph-name="Ycircumflex" unicode="&#x176;" horiz-adv-x="1349" 
d="M500 1567l250 286h196l170 -286h-198l-89 147l-129 -147h-200zM477 0l72 508l-408 950h258l289 -706l494 706h278l-682 -950l-71 -508h-230z" />
    <glyph glyph-name="ycircumflex" unicode="&#x177;" horiz-adv-x="1110" 
d="M322 1180l249 286h197l170 -286h-199l-88 147l-129 -147h-200zM-70 -410l29 199h213q174 0 174 158q0 25 -10 67l-248 1035h229l189 -869l416 871l241 -2l-622 -1242q-71 -145 -174 -184q-54 -20 -100 -26.5t-117 -6.5h-220z" />
    <glyph glyph-name="Ydieresis" unicode="&#x178;" horiz-adv-x="1349" 
d="M498 1585l30 219h234l-31 -219h-233zM895 1585l29 219h233l-29 -219h-233zM477 0l72 508l-408 950h258l289 -706l494 706h278l-682 -950l-71 -508h-230z" />
    <glyph glyph-name="Zacute" unicode="&#x179;" horiz-adv-x="1224" 
d="M668 1567l211 286h215l-244 -286h-182zM4 0l27 184l919 1069h-757l28 205h1047l-27 -184l-917 -1067h784l-29 -207h-1075z" />
    <glyph glyph-name="zacute" unicode="&#x17a;" horiz-adv-x="1032" 
d="M514 1169l211 287h215l-244 -287h-182zM18 0l27 197l655 653h-565l27 199h852l-27 -195l-653 -655h563l-29 -199h-850z" />
    <glyph glyph-name="Zdotaccent" unicode="&#x17b;" horiz-adv-x="1224" 
d="M637 1614l33 233h248l-33 -233h-248zM4 0l27 184l919 1069h-757l28 205h1047l-27 -184l-917 -1067h784l-29 -207h-1075z" />
    <glyph glyph-name="zdotaccent" unicode="&#x17c;" horiz-adv-x="1032" 
d="M481 1217l33 233h248l-33 -233h-248zM18 0l27 197l655 653h-565l27 199h852l-27 -195l-653 -655h563l-29 -199h-850z" />
    <glyph glyph-name="Zcaron" unicode="&#x17d;" horiz-adv-x="1224" 
d="M662 1567l-168 286h196l88 -147l129 147h205l-254 -286h-196zM4 0l27 184l919 1069h-757l28 205h1047l-27 -184l-917 -1067h784l-29 -207h-1075z" />
    <glyph glyph-name="zcaron" unicode="&#x17e;" horiz-adv-x="1032" 
d="M506 1169l-168 287h197l88 -147l129 147h204l-254 -287h-196zM18 0l27 197l655 653h-565l27 199h852l-27 -195l-653 -655h563l-29 -199h-850z" />
    <glyph glyph-name="florin" unicode="&#x192;" horiz-adv-x="1155" 
d="M-31 -274l29 194h100q80 0 118 25t58 92l189 571h-246l27 180h278l140 418q43 134 124.5 193t227.5 59h170l-27 -194h-121q-87 0 -127 -29.5t-61 -99.5l-115 -347h291l-25 -180h-325l-205 -620q-53 -155 -131 -209q-80 -53 -229 -53h-140z" />
    <glyph glyph-name="Ohorn" unicode="&#x1a0;" horiz-adv-x="1574" 
d="M1348 1296q180 -183 180 -493q0 -345 -230 -578q-229 -235 -548 -235q-285 0 -467 182q-181 181 -181 492q0 345 230 581q231 234 547 234q95 0 180 -21h12q33 0 50.5 1t46.5 7.5t45 20t31 40.5t20 66h155q-21 -162 -143 -235q36 -26 72 -62zM1126 379q154 177 154 426
q0 213 -113.5 336t-298.5 123q-216 0 -366 -172q-154 -177 -154 -428q0 -213 111 -336t297 -123q215 0 370 174z" />
    <glyph glyph-name="ohorn" unicode="&#x1a1;" horiz-adv-x="1245" 
d="M1016 938q141 -135 141 -371q0 -250 -164 -420q-161 -167 -411 -167q-211 0 -353 133q-143 131 -143 360q0 255 168 426q166 172 414 172q80 0 157 -22q33 0 50.5 1t46 8t44.5 20t30.5 40t19.5 66h155q-24 -174 -157 -244zM831 285q101 113 101 284q0 146 -76.5 229
t-198.5 83q-145 0 -245 -115q-101 -113 -101 -287q0 -146 75.5 -227.5t197.5 -81.5q144 0 247 115z" />
    <glyph glyph-name="Uhorn" unicode="&#x1af;" horiz-adv-x="1437" 
d="M1667 1593q-30 -208 -217 -266l-107 -788q-36 -267 -197 -413t-429 -146q-275 0 -424 165q-155 169 -115 459l117 854h233l-120 -880q-25 -183 61 -288.5t252 -105.5t267 94.5t126 274.5l121 905h115q32 1 54.5 5.5t47 17.5t39.5 41t20 71h156z" />
    <glyph glyph-name="uhorn" unicode="&#x1b0;" horiz-adv-x="1185" 
d="M1440 1184q-36 -255 -307 -285l-125 -899h-201l4 145q-113 -165 -336 -165q-172 0 -270 116q-100 111 -72 324l86 631h217l-82 -600q-19 -136 34 -206.5t169 -70.5q123 0 204.5 81.5t98.5 219.5l80 576h213q54 5 88.5 34t42.5 99h156z" />
    <glyph glyph-name="Aringacute" unicode="&#x1fa;" 
d="M780 1894l211 287h215l-243 -287h-183zM-51 0l731 1397q-84 69 -84 182q0 108 72.5 179t179.5 71q101 0 167 -64t66 -166q0 -146 -118 -215l333 -1384h-239l-76 334h-612l-172 -334h-248zM834 1475q51 0 83.5 34t32.5 88q0 45 -29 76t-75 31q-51 0 -84 -35.5t-33 -89.5
q0 -48 30 -76t75 -28zM465 520h473l-145 633z" />
    <glyph glyph-name="aringacute" unicode="&#x1fb;" horiz-adv-x="1171" 
d="M592 1477l211 286h215l-244 -286h-182zM401 -20q-163 0 -258.5 78t-95.5 218q0 149 107 241.5t309 92.5h336l6 54q17 111 -36 168t-165 57q-104 0 -171.5 -47.5t-84.5 -130.5h-205q20 128 101.5 215t210.5 123q-41 59 -41 137q0 108 72.5 179t179.5 71q101 0 167 -64
t66 -166q0 -106 -70 -176q237 -95 197 -387l-55 -405q-9 -70 49 -70h51l-24 -168h-136q-147 0 -147 139q-56 -73 -152.5 -116t-210.5 -43zM651 1081q51 0 84 34.5t33 88.5q0 45 -29 76t-75 31q-51 0 -84 -35.5t-33 -89.5q0 -48 30 -76.5t74 -28.5zM475 158q116 0 197 63.5
t98 177.5l6 58h-291q-106 0 -155 -43t-49 -115q0 -141 194 -141z" />
    <glyph glyph-name="AEacute" unicode="&#x1fc;" horiz-adv-x="2043" 
d="M1411 1591l211 287h215l-244 -287h-182zM-72 0l1102 1458h1041l-29 -205h-707l-57 -417h524l-28 -203h-525l-61 -426h745l-28 -207h-967l49 344h-528l-258 -344h-273zM598 537h416l94 680z" />
    <glyph glyph-name="aeacute" unicode="&#x1fd;" horiz-adv-x="1906" 
d="M887 1178l211 286h215l-244 -286h-182zM418 -20q-171 0 -271 77.5t-100 212.5q0 147 107 239.5t303 92.5h338l8 57q17 113 -40 172.5t-169 59.5q-106 0 -174 -52t-82 -134h-203q27 173 160 268q134 96 309 96q118 0 209 -44t137 -128q152 174 406 174q236 0 366 -151
q127 -154 97 -390l-11 -71h-809q-13 -139 58.5 -217t199.5 -78q99 0 179.5 46.5t117.5 125.5h224q-56 -168 -197 -262t-328 -94q-294 0 -405 225q-55 -102 -170 -163.5t-260 -61.5zM1020 612h588q10 131 -60.5 205t-195.5 74q-126 0 -217 -74t-115 -205zM469 158
q123 0 204.5 66t94.5 190l4 35h-295q-100 0 -148 -42.5t-48 -109.5q0 -139 188 -139z" />
    <glyph glyph-name="Oslashacute" unicode="&#x1fe;" horiz-adv-x="1589" 
d="M725 1575l211 287h215l-244 -287h-182zM203 -29l116 172q-210 186 -210 521q0 344 231 581q231 234 545 234q165 0 303 -66l51 74h201l-113 -166q207 -189 207 -518q0 -346 -229 -578q-229 -235 -549 -235q-162 0 -297 63l-56 -82h-200zM453 338l610 891q-85 39 -189 39
q-216 0 -368 -174q-154 -177 -154 -430q0 -204 101 -326zM762 203q217 0 373 176q155 174 155 426q0 200 -98 319l-606 -886q81 -35 176 -35z" />
    <glyph glyph-name="Scommaaccent" unicode="&#x218;" horiz-adv-x="1273" 
d="M602 -20q-254 0 -401 118q-150 120 -129 316h229q-11 -110 71 -174t240 -64q154 0 248 65t94 171q0 78 -49 125.5t-155 72.5l-201 47q-365 82 -365 377q0 198 154 322q150 123 407 123q234 0 383 -107q148 -109 136 -323h-228q10 112 -67.5 174.5t-225.5 62.5
q-143 0 -229 -62t-86 -165q0 -79 50 -126t165 -73l205 -45q350 -77 350 -383q0 -212 -172 -332q-176 -120 -424 -120zM406 -481l108 176h-96l28 207h222l-29 -207l-107 -176h-126z" />
    <glyph glyph-name="scommaaccent" unicode="&#x219;" horiz-adv-x="1044" 
d="M465 -20q-197 0 -312.5 89t-115.5 248h219q3 -172 219 -172q104 0 164.5 40.5t60.5 109.5q0 55 -36.5 85.5t-122.5 49.5l-144 35q-280 65 -280 270q0 152 127 244q128 90 321 90q200 0 312.5 -91t101.5 -241h-217q1 79 -54 122.5t-155 43.5q-96 0 -152.5 -38.5
t-56.5 -100.5q0 -53 34.5 -78.5t125.5 -46.5l147 -37q148 -36 215.5 -105t67.5 -180q0 -158 -133 -247q-134 -90 -336 -90zM301 -473l109 176h-97l29 207h221l-28 -207l-107 -176h-127z" />
    <glyph glyph-name="uni021A" unicode="&#x21a;" horiz-adv-x="1284" 
d="M449 0l176 1253h-482l27 205h1196l-29 -205h-483l-176 -1253h-229zM416 -473l108 176h-96l29 207h221l-29 -207l-106 -176h-127z" />
    <glyph glyph-name="uni021B" unicode="&#x21b;" horiz-adv-x="735" 
d="M399 0q-279 0 -235 299l76 553h-179l27 197h82q53 0 77.5 18t31.5 66l26 196h223l-39 -280h244l-28 -197h-242l-72 -535q-11 -67 10 -92.5t88 -25.5h127l-28 -199h-189zM209 -467l108 176h-96l29 207h221l-29 -207l-106 -176h-127z" />
    <glyph glyph-name="uni0237" unicode="&#x237;" horiz-adv-x="516" 
d="M-186 -410l28 199h103q63 0 90 22.5t35 79.5l155 1158h226l-162 -1190q-20 -143 -97 -206t-235 -63h-143z" />
    <glyph glyph-name="uni02BB" unicode="&#x2bb;" horiz-adv-x="319" 
d="M147 1239l29 207l107 176h127l-117 -176h102l-28 -207h-220z" />
    <glyph glyph-name="uni02BC" unicode="&#x2bc;" horiz-adv-x="546" 
d="M344 1149l49 373h199l-105 -373h-143z" />
    <glyph glyph-name="circumflex" unicode="&#x2c6;" horiz-adv-x="753" 
d="M166 1257l250 287h196l170 -287h-198l-88 148l-129 -148h-201z" />
    <glyph glyph-name="caron" unicode="&#x2c7;" horiz-adv-x="755" 
d="M375 1257l-168 287h196l89 -147l129 147h204l-254 -287h-196z" />
    <glyph glyph-name="breve" unicode="&#x2d8;" horiz-adv-x="655" 
d="M457 1255q-129 0 -203 80.5t-57 208.5h155q-7 -61 22 -98t85 -37q137 0 149 135h160q-12 -135 -95 -212t-216 -77z" />
    <glyph glyph-name="dotaccent" unicode="&#x2d9;" horiz-adv-x="438" 
d="M203 1307l33 233h247l-32 -233h-248z" />
    <glyph glyph-name="ring" unicode="&#x2da;" horiz-adv-x="573" 
d="M387 1145q-101 0 -167 63.5t-66 165.5q0 108 72.5 179t179.5 71q101 0 167 -63.5t66 -165.5q0 -109 -73 -179.5t-179 -70.5zM391 1270q51 0 84 34.5t33 88.5q0 45 -29.5 75.5t-75.5 30.5q-51 0 -83.5 -35.5t-32.5 -89.5q0 -48 30 -76t74 -28z" />
    <glyph glyph-name="ogonek" unicode="&#x2db;" horiz-adv-x="505" 
d="M154 -344q-73 0 -115.5 35.5t-42.5 97.5q0 142 194 225l142 -14q-170 -77 -170 -152q0 -47 59 -47q31 0 74 17l-21 -135q-52 -27 -120 -27z" />
    <glyph glyph-name="tilde" unicode="&#x2dc;" horiz-adv-x="743" 
d="M639 1280q-67 0 -141 45q-76 43 -113 43q-78 0 -90 -82h-127q4 112 64 177t155 65q67 0 143 -43q74 -45 109 -45q76 0 88 82h129q-6 -112 -65 -177t-152 -65z" />
    <glyph glyph-name="hungarumlaut" unicode="&#x2dd;" horiz-adv-x="800" 
d="M174 1257l211 287h211l-242 -287h-180zM461 1257l256 287h211l-285 -287h-182z" />
    <glyph glyph-name="gravecomb" unicode="&#x300;" horiz-adv-x="0" 
d="M-203 1257l-145 261h192l119 -261h-166z" />
    <glyph glyph-name="acutecomb" unicode="&#x301;" horiz-adv-x="0" 
d="M-332 1257l191 261h194l-221 -261h-164z" />
    <glyph glyph-name="circumflexcomb" unicode="&#x302;" horiz-adv-x="0" 
d="M-659 1257l229 261h176l156 -261h-185l-79 136l-117 -136h-180z" />
    <glyph glyph-name="tildecomb" unicode="&#x303;" horiz-adv-x="0" 
d="M-209 1280q-67 0 -133 41q-65 39 -102 39q-29 0 -49.5 -20t-26.5 -54h-119q12 102 63 160.5t132 58.5q67 0 135 -39q64 -41 100 -41q66 0 78 74h117q-12 -105 -62.5 -162t-132.5 -57z" />
    <glyph glyph-name="brevecomb" unicode="&#x306;" horiz-adv-x="0" 
d="M-326 1255q-118 0 -180 71.5t-43 191.5h143q-9 -58 16.5 -90.5t84.5 -32.5q56 0 91.5 33t41.5 90h141q-15 -120 -96.5 -191.5t-198.5 -71.5z" />
    <glyph glyph-name="hookabovecomb" unicode="&#x309;" horiz-adv-x="0" 
d="M-209 1165l-47 58l17.5 14t16.5 13.5t14 11.5t13.5 12t10.5 10.5t10 10.5t7.5 9.5t6.5 10.5l4 10q13 32 3.5 53t-48.5 21q-21 0 -52 -10.5t-48 -20.5l-37 102q44 26 95.5 43t84.5 17q79 0 125 -41.5t37 -108.5q-9 -64 -64.5 -119.5t-148.5 -95.5z" />
    <glyph glyph-name="horncomb" unicode="&#x31b;" horiz-adv-x="0" 
d="M-326 895l23 154q85 0 115 9q81 23 94 126h155q-40 -289 -387 -289z" />
    <glyph glyph-name="dotbelowcomb" unicode="&#x323;" horiz-adv-x="0" 
d="M-391 -399l33 233h247l-32 -233h-248z" />
    <glyph glyph-name="uni0326" unicode="&#x326;" horiz-adv-x="0" 
d="M-451 -403l109 176h-96l28 207h222l-29 -207l-107 -176h-127z" />
    <glyph glyph-name="uni0335" unicode="&#x335;" horiz-adv-x="0" 
d="M-666 498l27 182h676l-27 -182h-676z" />
    <glyph glyph-name="uni0336" unicode="&#x336;" horiz-adv-x="0" 
d="M-1243 502l16 166h1092l-17 -166h-1091z" />
    <glyph glyph-name="uni0337" unicode="&#x337;" horiz-adv-x="0" 
d="M-1083 -63l1005 1171h195l-1006 -1171h-194z" />
    <glyph glyph-name="uni0338" unicode="&#x338;" horiz-adv-x="0" 
d="M-1300 -29l1161 1516h200l-1161 -1516h-200z" />
    <glyph glyph-name="pi" unicode="&#x3c0;" horiz-adv-x="1452" 
d="M340 0v887h-211v205h1257v-205h-227v-565q0 -58 27.5 -80.5t85.5 -22.5h114v-219h-165q-137 0 -211 76t-74 209v602h-371v-887h-225z" />
    <glyph glyph-name="Wgrave" unicode="&#x1e80;" horiz-adv-x="2074" 
d="M1081 1567l-243 286h213l213 -286h-183zM340 0l-182 1458h248l118 -1145l506 1145h273l122 -1145l490 1145h254l-641 -1458h-268l-144 1147l-508 -1147h-268z" />
    <glyph glyph-name="wgrave" unicode="&#x1e81;" horiz-adv-x="1632" 
d="M809 1180l-244 286h213l213 -286h-182zM254 0l-150 1049h234l88 -797l342 797h240l122 -799l306 799h233l-436 -1049h-252l-121 805l-354 -805h-252z" />
    <glyph glyph-name="Wacute" unicode="&#x1e82;" horiz-adv-x="2074" 
d="M1090 1567l210 286h216l-244 -286h-182zM340 0l-182 1458h248l118 -1145l506 1145h273l122 -1145l490 1145h254l-641 -1458h-268l-144 1147l-508 -1147h-268z" />
    <glyph glyph-name="wacute" unicode="&#x1e83;" horiz-adv-x="1632" 
d="M815 1180l211 286h215l-244 -286h-182zM254 0l-150 1049h234l88 -797l342 797h240l122 -799l306 799h233l-436 -1049h-252l-121 805l-354 -805h-252z" />
    <glyph glyph-name="Wdieresis" unicode="&#x1e84;" horiz-adv-x="2074" 
d="M868 1585l31 219h234l-31 -219h-234zM1266 1585l28 219h234l-29 -219h-233zM340 0l-182 1458h248l118 -1145l506 1145h273l122 -1145l490 1145h254l-641 -1458h-268l-144 1147l-508 -1147h-268z" />
    <glyph glyph-name="wdieresis" unicode="&#x1e85;" horiz-adv-x="1632" 
d="M594 1198l31 219h233l-31 -219h-233zM991 1198l29 219h233l-28 -219h-234zM254 0l-150 1049h234l88 -797l342 797h240l122 -799l306 799h233l-436 -1049h-252l-121 805l-354 -805h-252z" />
    <glyph glyph-name="uni1EA0" unicode="&#x1ea0;" 
d="M-51 0l764 1458h231l352 -1458h-239l-76 334h-612l-172 -334h-248zM465 520h473l-145 633zM449 -399l32 233h248l-33 -233h-247z" />
    <glyph glyph-name="uni1EA1" unicode="&#x1ea1;" horiz-adv-x="1171" 
d="M401 -20q-163 0 -258.5 78t-95.5 218q0 149 107 241.5t309 92.5h336l6 54q17 111 -36 168t-165 57q-104 0 -171.5 -47.5t-84.5 -130.5h-205q29 168 155.5 263t322.5 95q72 0 136 -14.5t120 -47.5t93.5 -81t53 -121t2.5 -162l-55 -405q-9 -70 49 -70h51l-24 -168h-136
q-147 0 -147 139q-56 -73 -152.5 -116t-210.5 -43zM475 158q116 0 197 63.5t98 177.5l6 58h-291q-106 0 -155 -43t-49 -115q0 -141 194 -141zM340 -399l33 233h248l-33 -233h-248z" />
    <glyph glyph-name="uni1EA2" unicode="&#x1ea2;" 
d="M836 1575l-48 57q5 4 16 13t15 12.5t13 10.5t12.5 10.5t10.5 10t10 10t8 9t7.5 9.5t5 8.5t3.5 9.5q13 32 3.5 52.5t-48.5 20.5q-22 0 -53 -10t-48 -20l-36 102q43 26 95 42.5t85 16.5q79 0 125 -41t37 -108q-9 -64 -64.5 -119.5t-148.5 -95.5zM-51 0l764 1458h231
l352 -1458h-239l-76 334h-612l-172 -334h-248zM465 520h473l-145 633z" />
    <glyph glyph-name="uni1EA3" unicode="&#x1ea3;" horiz-adv-x="1171" 
d="M631 1165l-47 58l17.5 14t16.5 13.5t14 11.5t13.5 12t10.5 10.5t10 10.5t7.5 9.5t6.5 10.5l4 10q13 32 3.5 53t-48.5 21q-21 0 -52 -10.5t-48 -20.5l-37 102q44 26 95.5 43t84.5 17q79 0 125 -41.5t37 -108.5q-9 -64 -64.5 -119.5t-148.5 -95.5zM401 -20
q-163 0 -258.5 78t-95.5 218q0 149 107 241.5t309 92.5h336l6 54q17 111 -36 168t-165 57q-104 0 -171.5 -47.5t-84.5 -130.5h-205q29 168 155.5 263t322.5 95q72 0 136 -14.5t120 -47.5t93.5 -81t53 -121t2.5 -162l-55 -405q-9 -70 49 -70h51l-24 -168h-136
q-147 0 -147 139q-56 -73 -152.5 -116t-210.5 -43zM475 158q116 0 197 63.5t98 177.5l6 58h-291q-106 0 -155 -43t-49 -115q0 -141 194 -141z" />
    <glyph glyph-name="uni1EA4" unicode="&#x1ea4;" 
d="M1167 1745l191 260h194l-221 -260h-164zM561 1581l230 260h176l155 -260h-184l-80 135l-117 -135h-180zM-51 0l764 1458h231l352 -1458h-239l-76 334h-612l-172 -334h-248zM465 520h473l-145 633z" />
    <glyph glyph-name="uni1EA5" unicode="&#x1ea5;" horiz-adv-x="1171" 
d="M963 1335l190 260h195l-222 -260h-163zM356 1171l230 261h176l156 -261h-185l-80 136l-116 -136h-181zM401 -20q-163 0 -258.5 78t-95.5 218q0 149 107 241.5t309 92.5h336l6 54q17 111 -36 168t-165 57q-104 0 -171.5 -47.5t-84.5 -130.5h-205q29 168 155.5 263
t322.5 95q72 0 136 -14.5t120 -47.5t93.5 -81t53 -121t2.5 -162l-55 -405q-9 -70 49 -70h51l-24 -168h-136q-147 0 -147 139q-56 -73 -152.5 -116t-210.5 -43zM475 158q116 0 197 63.5t98 177.5l6 58h-291q-106 0 -155 -43t-49 -115q0 -141 194 -141z" />
    <glyph glyph-name="uni1EA6" unicode="&#x1ea6;" 
d="M1145 1749l-146 260h193l119 -260h-166zM561 1581l230 260h176l155 -260h-184l-80 135l-117 -135h-180zM-51 0l764 1458h231l352 -1458h-239l-76 334h-612l-172 -334h-248zM465 520h473l-145 633z" />
    <glyph glyph-name="uni1EA7" unicode="&#x1ea7;" horiz-adv-x="1171" 
d="M940 1339l-145 260h192l119 -260h-166zM356 1171l230 261h176l156 -261h-185l-80 136l-116 -136h-181zM401 -20q-163 0 -258.5 78t-95.5 218q0 149 107 241.5t309 92.5h336l6 54q17 111 -36 168t-165 57q-104 0 -171.5 -47.5t-84.5 -130.5h-205q29 168 155.5 263
t322.5 95q72 0 136 -14.5t120 -47.5t93.5 -81t53 -121t2.5 -162l-55 -405q-9 -70 49 -70h51l-24 -168h-136q-147 0 -147 139q-56 -73 -152.5 -116t-210.5 -43zM475 158q116 0 197 63.5t98 177.5l6 58h-291q-106 0 -155 -43t-49 -115q0 -141 194 -141z" />
    <glyph glyph-name="uni1EA8" unicode="&#x1ea8;" 
d="M1200 1726l-47 58l17.5 14t16.5 13.5t14 11.5t13.5 12t10.5 10.5t10 10.5t7.5 9.5t6.5 10.5l4 10q13 32 3.5 53t-48.5 21q-21 0 -52 -10.5t-48 -20.5l-37 103q43 26 95 42.5t85 16.5q79 0 125 -41t37 -108q-9 -64 -64.5 -120t-148.5 -96zM561 1581l230 260h176l155 -260
h-184l-80 135l-117 -135h-180zM-51 0l764 1458h231l352 -1458h-239l-76 334h-612l-172 -334h-248zM465 520h473l-145 633z" />
    <glyph glyph-name="uni1EA9" unicode="&#x1ea9;" horiz-adv-x="1171" 
d="M995 1317l-47 57q5 4 16 13t15 12.5t13 10.5t12.5 10.5t10.5 10t10 10t8 9t7.5 9.5t5 8.5t3.5 9.5q13 32 3.5 52.5t-48.5 20.5q-22 0 -53 -10t-48 -20l-37 102q43 26 95.5 42.5t85.5 16.5q79 0 124.5 -41t36.5 -108q-9 -64 -64.5 -119.5t-148.5 -95.5zM356 1171l230 261
h176l156 -261h-185l-80 136l-116 -136h-181zM401 -20q-163 0 -258.5 78t-95.5 218q0 149 107 241.5t309 92.5h336l6 54q17 111 -36 168t-165 57q-104 0 -171.5 -47.5t-84.5 -130.5h-205q29 168 155.5 263t322.5 95q72 0 136 -14.5t120 -47.5t93.5 -81t53 -121t2.5 -162
l-55 -405q-9 -70 49 -70h51l-24 -168h-136q-147 0 -147 139q-56 -73 -152.5 -116t-210.5 -43zM475 158q116 0 197 63.5t98 177.5l6 58h-291q-106 0 -155 -43t-49 -115q0 -141 194 -141z" />
    <glyph glyph-name="uni1EAA" unicode="&#x1eaa;" 
d="M975 1917q-67 0 -133 41q-65 39 -103 39q-29 0 -49 -20t-26 -54h-119q12 103 62.5 161t131.5 58q67 0 135 -39q64 -41 101 -41q66 0 78 74h116q-12 -105 -62.5 -162t-131.5 -57zM561 1581l230 260h176l155 -260h-184l-80 135l-117 -135h-180zM-51 0l764 1458h231
l352 -1458h-239l-76 334h-612l-172 -334h-248zM465 520h473l-145 633z" />
    <glyph glyph-name="uni1EAB" unicode="&#x1eab;" horiz-adv-x="1171" 
d="M770 1507q-67 0 -133 41q-65 39 -102 39q-29 0 -49.5 -20t-26.5 -54h-119q12 103 63 161.5t132 58.5q67 0 135 -39q64 -41 100 -41q66 0 78 73h117q-12 -105 -62.5 -162t-132.5 -57zM356 1171l230 261h176l156 -261h-185l-80 136l-116 -136h-181zM401 -20
q-163 0 -258.5 78t-95.5 218q0 149 107 241.5t309 92.5h336l6 54q17 111 -36 168t-165 57q-104 0 -171.5 -47.5t-84.5 -130.5h-205q29 168 155.5 263t322.5 95q72 0 136 -14.5t120 -47.5t93.5 -81t53 -121t2.5 -162l-55 -405q-9 -70 49 -70h51l-24 -168h-136
q-147 0 -147 139q-56 -73 -152.5 -116t-210.5 -43zM475 158q116 0 197 63.5t98 177.5l6 58h-291q-106 0 -155 -43t-49 -115q0 -141 194 -141z" />
    <glyph glyph-name="uni1EAC" unicode="&#x1eac;" 
d="M561 1581l230 260h176l155 -260h-184l-80 135l-117 -135h-180zM-51 0l764 1458h231l352 -1458h-239l-76 334h-612l-172 -334h-248zM465 520h473l-145 633zM449 -399l32 233h248l-33 -233h-247z" />
    <glyph glyph-name="uni1EAD" unicode="&#x1ead;" horiz-adv-x="1171" 
d="M356 1171l230 261h176l156 -261h-185l-80 136l-116 -136h-181zM401 -20q-163 0 -258.5 78t-95.5 218q0 149 107 241.5t309 92.5h336l6 54q17 111 -36 168t-165 57q-104 0 -171.5 -47.5t-84.5 -130.5h-205q29 168 155.5 263t322.5 95q72 0 136 -14.5t120 -47.5t93.5 -81
t53 -121t2.5 -162l-55 -405q-9 -70 49 -70h51l-24 -168h-136q-147 0 -147 139q-56 -73 -152.5 -116t-210.5 -43zM475 158q116 0 197 63.5t98 177.5l6 58h-291q-106 0 -155 -43t-49 -115q0 -141 194 -141zM340 -399l33 233h248l-33 -233h-248z" />
    <glyph glyph-name="uni1EAE" unicode="&#x1eae;" 
d="M776 1923l191 260h194l-221 -260h-164zM844 1589q-118 0 -180 71t-43 191h143q-9 -58 16 -90t84 -32q56 0 91.5 32.5t41.5 89.5h142q-15 -120 -96.5 -191t-198.5 -71zM-51 0l764 1458h231l352 -1458h-239l-76 334h-612l-172 -334h-248zM465 520h473l-145 633z" />
    <glyph glyph-name="uni1EAF" unicode="&#x1eaf;" horiz-adv-x="1171" 
d="M571 1513l191 261h194l-221 -261h-164zM639 1180q-118 0 -180 71t-43 191h143q-9 -58 16 -90.5t84 -32.5q56 0 92 33t42 90h141q-15 -120 -96.5 -191t-198.5 -71zM401 -20q-163 0 -258.5 78t-95.5 218q0 149 107 241.5t309 92.5h336l6 54q17 111 -36 168t-165 57
q-104 0 -171.5 -47.5t-84.5 -130.5h-205q29 168 155.5 263t322.5 95q72 0 136 -14.5t120 -47.5t93.5 -81t53 -121t2.5 -162l-55 -405q-9 -70 49 -70h51l-24 -168h-136q-147 0 -147 139q-56 -73 -152.5 -116t-210.5 -43zM475 158q116 0 197 63.5t98 177.5l6 58h-291
q-106 0 -155 -43t-49 -115q0 -141 194 -141z" />
    <glyph glyph-name="uni1EB0" unicode="&#x1eb0;" 
d="M745 1919l-145 260h193l118 -260h-166zM844 1589q-118 0 -180 71t-43 191h143q-9 -58 16 -90t84 -32q56 0 91.5 32.5t41.5 89.5h142q-15 -120 -96.5 -191t-198.5 -71zM-51 0l764 1458h231l352 -1458h-239l-76 334h-612l-172 -334h-248zM465 520h473l-145 633z" />
    <glyph glyph-name="uni1EB1" unicode="&#x1eb1;" horiz-adv-x="1171" 
d="M541 1509l-146 260h193l119 -260h-166zM639 1180q-118 0 -180 71t-43 191h143q-9 -58 16 -90.5t84 -32.5q56 0 92 33t42 90h141q-15 -120 -96.5 -191t-198.5 -71zM401 -20q-163 0 -258.5 78t-95.5 218q0 149 107 241.5t309 92.5h336l6 54q17 111 -36 168t-165 57
q-104 0 -171.5 -47.5t-84.5 -130.5h-205q29 168 155.5 263t322.5 95q72 0 136 -14.5t120 -47.5t93.5 -81t53 -121t2.5 -162l-55 -405q-9 -70 49 -70h51l-24 -168h-136q-147 0 -147 139q-56 -73 -152.5 -116t-210.5 -43zM475 158q116 0 197 63.5t98 177.5l6 58h-291
q-106 0 -155 -43t-49 -115q0 -141 194 -141z" />
    <glyph glyph-name="uni1EB2" unicode="&#x1eb2;" 
d="M838 1884l-47 58l17.5 14t16.5 13.5t14 11.5t13.5 12t10.5 10.5t10 10.5t7.5 9.5t6.5 10.5l4 10q13 32 3.5 53t-48.5 21q-21 0 -52.5 -10.5t-48.5 -20.5l-36 102q44 26 95.5 43t84.5 17q79 0 125 -41.5t37 -108.5q-9 -64 -64.5 -119.5t-148.5 -95.5zM844 1589
q-118 0 -180 71t-43 191h143q-9 -58 16 -90t84 -32q56 0 91.5 32.5t41.5 89.5h142q-15 -120 -96.5 -191t-198.5 -71zM-51 0l764 1458h231l352 -1458h-239l-76 334h-612l-172 -334h-248zM465 520h473l-145 633z" />
    <glyph glyph-name="uni1EB3" unicode="&#x1eb3;" horiz-adv-x="1171" 
d="M633 1475l-47 57l17.5 14t16.5 13.5t14 11.5t13.5 12t10.5 10.5t10 10.5t7.5 9.5t6.5 10.5l4 10q13 32 3.5 53t-48.5 21q-21 0 -52 -10.5t-48 -20.5l-37 103q43 26 95 42.5t85 16.5q79 0 125 -41t37 -108q-9 -64 -64.5 -119.5t-148.5 -95.5zM639 1180q-118 0 -180 71
t-43 191h143q-9 -58 16 -90.5t84 -32.5q56 0 92 33t42 90h141q-15 -120 -96.5 -191t-198.5 -71zM401 -20q-163 0 -258.5 78t-95.5 218q0 149 107 241.5t309 92.5h336l6 54q17 111 -36 168t-165 57q-104 0 -171.5 -47.5t-84.5 -130.5h-205q29 168 155.5 263t322.5 95
q72 0 136 -14.5t120 -47.5t93.5 -81t53 -121t2.5 -162l-55 -405q-9 -70 49 -70h51l-24 -168h-136q-147 0 -147 139q-56 -73 -152.5 -116t-210.5 -43zM475 158q116 0 197 63.5t98 177.5l6 58h-291q-106 0 -155 -43t-49 -115q0 -141 194 -141z" />
    <glyph glyph-name="uni1EB4" unicode="&#x1eb4;" 
d="M977 1946q-67 0 -133 41q-63 38 -103 38q-29 0 -49 -19.5t-26 -53.5h-119q12 103 62.5 161t131.5 58q68 0 136 -39q64 -41 100 -41q66 0 78 74h116q-12 -105 -62.5 -162t-131.5 -57zM844 1589q-118 0 -180 71t-43 191h143q-9 -58 16 -90t84 -32q56 0 91.5 32.5t41.5 89.5
h142q-15 -120 -96.5 -191t-198.5 -71zM-51 0l764 1458h231l352 -1458h-239l-76 334h-612l-172 -334h-248zM465 520h473l-145 633z" />
    <glyph glyph-name="uni1EB5" unicode="&#x1eb5;" horiz-adv-x="1171" 
d="M772 1536q-67 0 -133 41q-65 39 -102 39q-29 0 -49.5 -20t-26.5 -54h-119q12 102 63 160.5t132 58.5q67 0 135 -39q64 -41 100 -41q66 0 78 74h117q-12 -105 -62.5 -162t-132.5 -57zM639 1180q-118 0 -180 71t-43 191h143q-9 -58 16 -90.5t84 -32.5q56 0 92 33t42 90h141
q-15 -120 -96.5 -191t-198.5 -71zM401 -20q-163 0 -258.5 78t-95.5 218q0 149 107 241.5t309 92.5h336l6 54q17 111 -36 168t-165 57q-104 0 -171.5 -47.5t-84.5 -130.5h-205q29 168 155.5 263t322.5 95q72 0 136 -14.5t120 -47.5t93.5 -81t53 -121t2.5 -162l-55 -405
q-9 -70 49 -70h51l-24 -168h-136q-147 0 -147 139q-56 -73 -152.5 -116t-210.5 -43zM475 158q116 0 197 63.5t98 177.5l6 58h-291q-106 0 -155 -43t-49 -115q0 -141 194 -141z" />
    <glyph glyph-name="uni1EB6" unicode="&#x1eb6;" 
d="M844 1589q-118 0 -180 71t-43 191h143q-9 -58 16 -90t84 -32q56 0 91.5 32.5t41.5 89.5h142q-15 -120 -96.5 -191t-198.5 -71zM-51 0l764 1458h231l352 -1458h-239l-76 334h-612l-172 -334h-248zM465 520h473l-145 633zM449 -399l32 233h248l-33 -233h-247z" />
    <glyph glyph-name="uni1EB7" unicode="&#x1eb7;" horiz-adv-x="1171" 
d="M639 1180q-118 0 -180 71t-43 191h143q-9 -58 16 -90.5t84 -32.5q56 0 92 33t42 90h141q-15 -120 -96.5 -191t-198.5 -71zM401 -20q-163 0 -258.5 78t-95.5 218q0 149 107 241.5t309 92.5h336l6 54q17 111 -36 168t-165 57q-104 0 -171.5 -47.5t-84.5 -130.5h-205
q29 168 155.5 263t322.5 95q72 0 136 -14.5t120 -47.5t93.5 -81t53 -121t2.5 -162l-55 -405q-9 -70 49 -70h51l-24 -168h-136q-147 0 -147 139q-56 -73 -152.5 -116t-210.5 -43zM475 158q116 0 197 63.5t98 177.5l6 58h-291q-106 0 -155 -43t-49 -115q0 -141 194 -141z
M340 -399l33 233h248l-33 -233h-248z" />
    <glyph glyph-name="uni1EB8" unicode="&#x1eb8;" horiz-adv-x="1214" 
d="M76 0l200 1458h955l-27 -205h-727l-57 -417h555l-29 -203h-553l-59 -426h770l-31 -207h-997zM362 -399l33 233h248l-33 -233h-248z" />
    <glyph glyph-name="uni1EB9" unicode="&#x1eb9;" horiz-adv-x="1224" 
d="M578 -20q-211 0 -345 131q-137 128 -137 360q-3 264 164 434q166 166 410 166q217 0 342.5 -127.5t130.5 -339.5q0 -64 -15 -141h-819q0 -148 72.5 -223.5t200.5 -75.5q213 0 295 172h225q-50 -164 -193 -258q-143 -98 -331 -98zM328 618h596q-9 275 -275 275
q-114 0 -202 -72t-119 -203zM367 -399l32 233h248l-33 -233h-247z" />
    <glyph glyph-name="uni1EBA" unicode="&#x1eba;" horiz-adv-x="1214" 
d="M750 1575l-48 57q5 4 16 13t15 12.5t13 10.5t12.5 10.5t10.5 10t10 10t8 9t7.5 9.5t5 8.5t3.5 9.5q13 32 3.5 52.5t-48.5 20.5q-22 0 -53 -10t-48 -20l-36 102q43 26 95 42.5t85 16.5q79 0 125 -41t37 -108q-9 -64 -64.5 -119.5t-148.5 -95.5zM76 0l200 1458h955
l-27 -205h-727l-57 -417h555l-29 -203h-553l-59 -426h770l-31 -207h-997z" />
    <glyph glyph-name="uni1EBB" unicode="&#x1ebb;" horiz-adv-x="1224" 
d="M676 1165l-47 58l17.5 14t16.5 13.5t14 11.5t13.5 12t10.5 10.5t10 10.5t7.5 9.5t6.5 10.5l4 10q13 32 3.5 53t-48.5 21q-21 0 -52 -10.5t-48 -20.5l-37 102q44 26 95.5 43t84.5 17q79 0 125 -41.5t37 -108.5q-9 -64 -64.5 -119.5t-148.5 -95.5zM578 -20q-211 0 -345 131
q-137 128 -137 360q-3 264 164 434q166 166 410 166q217 0 342.5 -127.5t130.5 -339.5q0 -64 -15 -141h-819q0 -148 72.5 -223.5t200.5 -75.5q213 0 295 172h225q-50 -164 -193 -258q-143 -98 -331 -98zM328 618h596q-9 275 -275 275q-114 0 -202 -72t-119 -203z" />
    <glyph glyph-name="uni1EBC" unicode="&#x1ebc;" horiz-adv-x="1214" 
d="M891 1585q-67 0 -133 41q-65 39 -103 39q-29 0 -49 -20t-26 -54h-119q12 103 62.5 161t131.5 58q70 0 136 -38q64 -41 100 -41q66 0 78 73h116q-12 -105 -62.5 -162t-131.5 -57zM76 0l200 1458h955l-27 -205h-727l-57 -417h555l-29 -203h-553l-59 -426h770l-31 -207h-997
z" />
    <glyph glyph-name="uni1EBD" unicode="&#x1ebd;" horiz-adv-x="1224" 
d="M817 1176q-67 0 -133 41q-63 38 -102 38q-29 0 -49.5 -19.5t-26.5 -53.5h-119q12 102 63 160.5t132 58.5q67 0 135 -39q64 -41 100 -41q66 0 78 74h117q-12 -105 -62.5 -162t-132.5 -57zM578 -20q-211 0 -345 131q-137 128 -137 360q-3 264 164 434q166 166 410 166
q217 0 342.5 -127.5t130.5 -339.5q0 -64 -15 -141h-819q0 -148 72.5 -223.5t200.5 -75.5q213 0 295 172h225q-50 -164 -193 -258q-143 -98 -331 -98zM328 618h596q-9 275 -275 275q-114 0 -202 -72t-119 -203z" />
    <glyph glyph-name="uni1EBE" unicode="&#x1ebe;" horiz-adv-x="1214" 
d="M1081 1745l191 260h194l-221 -260h-164zM475 1581l230 260h176l155 -260h-184l-80 135l-117 -135h-180zM76 0l200 1458h955l-27 -205h-727l-57 -417h555l-29 -203h-553l-59 -426h770l-31 -207h-997z" />
    <glyph glyph-name="uni1EBF" unicode="&#x1ebf;" horiz-adv-x="1224" 
d="M1008 1335l190 260h195l-222 -260h-163zM401 1171l230 261h176l156 -261h-185l-80 136l-116 -136h-181zM578 -20q-211 0 -345 131q-137 128 -137 360q-3 264 164 434q166 166 410 166q217 0 342.5 -127.5t130.5 -339.5q0 -64 -15 -141h-819q0 -148 72.5 -223.5
t200.5 -75.5q213 0 295 172h225q-50 -164 -193 -258q-143 -98 -331 -98zM328 618h596q-9 275 -275 275q-114 0 -202 -72t-119 -203z" />
    <glyph glyph-name="uni1EC0" unicode="&#x1ec0;" horiz-adv-x="1214" 
d="M1059 1749l-146 260h193l119 -260h-166zM475 1581l230 260h176l155 -260h-184l-80 135l-117 -135h-180zM76 0l200 1458h955l-27 -205h-727l-57 -417h555l-29 -203h-553l-59 -426h770l-31 -207h-997z" />
    <glyph glyph-name="uni1EC1" unicode="&#x1ec1;" horiz-adv-x="1224" 
d="M985 1339l-145 260h192l119 -260h-166zM401 1171l230 261h176l156 -261h-185l-80 136l-116 -136h-181zM578 -20q-211 0 -345 131q-137 128 -137 360q-3 264 164 434q166 166 410 166q217 0 342.5 -127.5t130.5 -339.5q0 -64 -15 -141h-819q0 -148 72.5 -223.5
t200.5 -75.5q213 0 295 172h225q-50 -164 -193 -258q-143 -98 -331 -98zM328 618h596q-9 275 -275 275q-114 0 -202 -72t-119 -203z" />
    <glyph glyph-name="uni1EC2" unicode="&#x1ec2;" horiz-adv-x="1214" 
d="M1114 1726l-47 58l17.5 14t16.5 13.5t14 11.5t13.5 12t10.5 10.5t10 10.5t7.5 9.5t6.5 10.5l4 10q13 32 3.5 53t-48.5 21q-21 0 -52 -10.5t-48 -20.5l-37 103q43 26 95 42.5t85 16.5q79 0 125 -41t37 -108q-9 -64 -64.5 -120t-148.5 -96zM475 1581l230 260h176l155 -260
h-184l-80 135l-117 -135h-180zM76 0l200 1458h955l-27 -205h-727l-57 -417h555l-29 -203h-553l-59 -426h770l-31 -207h-997z" />
    <glyph glyph-name="uni1EC3" unicode="&#x1ec3;" horiz-adv-x="1224" 
d="M1040 1317l-47 57q5 4 16 13t15 12.5t13 10.5t12.5 10.5t10.5 10t10 10t8 9t7.5 9.5t5 8.5t3.5 9.5q13 32 3.5 52.5t-48.5 20.5q-22 0 -53 -10t-48 -20l-37 102q43 26 95.5 42.5t85.5 16.5q79 0 124.5 -41t36.5 -108q-9 -64 -64.5 -119.5t-148.5 -95.5zM401 1171l230 261
h176l156 -261h-185l-80 136l-116 -136h-181zM578 -20q-211 0 -345 131q-137 128 -137 360q-3 264 164 434q166 166 410 166q217 0 342.5 -127.5t130.5 -339.5q0 -64 -15 -141h-819q0 -148 72.5 -223.5t200.5 -75.5q213 0 295 172h225q-50 -164 -193 -258q-143 -98 -331 -98z
M328 618h596q-9 275 -275 275q-114 0 -202 -72t-119 -203z" />
    <glyph glyph-name="uni1EC4" unicode="&#x1ec4;" horiz-adv-x="1214" 
d="M889 1917q-67 0 -133 41q-65 39 -103 39q-29 0 -49 -20t-26 -54h-119q12 103 62.5 161t131.5 58q67 0 135 -39q64 -41 101 -41q66 0 78 74h116q-12 -105 -62.5 -162t-131.5 -57zM475 1581l230 260h176l155 -260h-184l-80 135l-117 -135h-180zM76 0l200 1458h955l-27 -205
h-727l-57 -417h555l-29 -203h-553l-59 -426h770l-31 -207h-997z" />
    <glyph glyph-name="uni1EC5" unicode="&#x1ec5;" horiz-adv-x="1224" 
d="M815 1507q-67 0 -133 41q-65 39 -102 39q-29 0 -49.5 -20t-26.5 -54h-119q12 103 63 161.5t132 58.5q67 0 135 -39q64 -41 100 -41q66 0 78 73h117q-12 -105 -62.5 -162t-132.5 -57zM401 1171l230 261h176l156 -261h-185l-80 136l-116 -136h-181zM578 -20
q-211 0 -345 131q-137 128 -137 360q-3 264 164 434q166 166 410 166q217 0 342.5 -127.5t130.5 -339.5q0 -64 -15 -141h-819q0 -148 72.5 -223.5t200.5 -75.5q213 0 295 172h225q-50 -164 -193 -258q-143 -98 -331 -98zM328 618h596q-9 275 -275 275q-114 0 -202 -72
t-119 -203z" />
    <glyph glyph-name="uni1EC6" unicode="&#x1ec6;" horiz-adv-x="1214" 
d="M475 1581l230 260h176l155 -260h-184l-80 135l-117 -135h-180zM76 0l200 1458h955l-27 -205h-727l-57 -417h555l-29 -203h-553l-59 -426h770l-31 -207h-997zM362 -399l33 233h248l-33 -233h-248z" />
    <glyph glyph-name="uni1EC7" unicode="&#x1ec7;" horiz-adv-x="1224" 
d="M401 1171l230 261h176l156 -261h-185l-80 136l-116 -136h-181zM578 -20q-211 0 -345 131q-137 128 -137 360q-3 264 164 434q166 166 410 166q217 0 342.5 -127.5t130.5 -339.5q0 -64 -15 -141h-819q0 -148 72.5 -223.5t200.5 -75.5q213 0 295 172h225
q-50 -164 -193 -258q-143 -98 -331 -98zM328 618h596q-9 275 -275 275q-114 0 -202 -72t-119 -203zM367 -399l32 233h248l-33 -233h-247z" />
    <glyph glyph-name="uni1EC8" unicode="&#x1ec8;" horiz-adv-x="526" 
d="M406 1575l-48 57q5 4 16 13t15 12.5t13 10.5t12.5 10.5t10.5 10t10 10t8 9t7.5 9.5t5 8.5t3.5 9.5q13 32 3.5 52.5t-48.5 20.5q-22 0 -53 -10t-48 -20l-37 102q43 26 95.5 42.5t85.5 16.5q79 0 124.5 -41t36.5 -108q-9 -64 -64 -119.5t-148 -95.5zM76 0l200 1458h230
l-201 -1458h-229z" />
    <glyph glyph-name="uni1EC9" unicode="&#x1ec9;" horiz-adv-x="491" 
d="M330 1165l-47 58l17.5 14t16.5 13.5t14 11.5t13.5 12t10.5 10.5t10 10.5t7.5 9.5t6.5 10.5l4 10q13 32 3.5 53t-48.5 21q-21 0 -52 -10.5t-48 -20.5l-37 102q44 26 95.5 43t84.5 17q79 0 125 -41.5t37 -108.5q-9 -64 -64.5 -119.5t-148.5 -95.5zM59 0l148 1049h223
l-145 -1049h-226z" />
    <glyph glyph-name="uni1ECA" unicode="&#x1eca;" horiz-adv-x="526" 
d="M76 0l200 1458h230l-201 -1458h-229zM18 -399l33 233h248l-33 -233h-248z" />
    <glyph glyph-name="uni1ECB" unicode="&#x1ecb;" horiz-adv-x="491" 
d="M219 1245l33 234h248l-33 -234h-248zM61 0l144 1049h223l-143 -1049h-224zM0 -399l33 233h248l-33 -233h-248z" />
    <glyph glyph-name="uni1ECC" unicode="&#x1ecc;" horiz-adv-x="1574" 
d="M750 -10q-285 0 -467 182q-181 181 -181 492q0 345 230 581q231 234 547 234q286 0 469 -183q180 -183 180 -493q0 -345 -230 -578q-229 -235 -548 -235zM756 205q215 0 370 174q154 177 154 426q0 213 -113.5 336t-298.5 123q-216 0 -366 -172q-154 -177 -154 -428
q0 -213 111 -336t297 -123zM543 -399l32 233h248l-32 -233h-248z" />
    <glyph glyph-name="uni1ECD" unicode="&#x1ecd;" horiz-adv-x="1245" 
d="M582 -20q-211 0 -353 133q-143 131 -143 360q0 255 168 426q166 172 414 172q203 0 348 -133q141 -135 141 -371q0 -250 -164 -420q-161 -167 -411 -167zM584 170q144 0 247 115q101 113 101 284q0 146 -76.5 229t-198.5 83q-145 0 -245 -115q-101 -113 -101 -287
q0 -146 75.5 -227.5t197.5 -81.5zM377 -399l33 233h247l-32 -233h-248z" />
    <glyph glyph-name="uni1ECE" unicode="&#x1ece;" horiz-adv-x="1574" 
d="M930 1575l-47 57q73 60 88 80q8 12 12 23q13 32 3.5 52.5t-48.5 20.5q-22 0 -52.5 -10t-47.5 -20l-37 102q43 26 95 42.5t85 16.5q79 0 125 -41t37 -108q-9 -64 -64.5 -119.5t-148.5 -95.5zM750 -10q-285 0 -467 182q-181 181 -181 492q0 345 230 581q231 234 547 234
q286 0 469 -183q180 -183 180 -493q0 -345 -230 -578q-229 -235 -548 -235zM756 205q215 0 370 174q154 177 154 426q0 213 -113.5 336t-298.5 123q-216 0 -366 -172q-154 -177 -154 -428q0 -213 111 -336t297 -123z" />
    <glyph glyph-name="uni1ECF" unicode="&#x1ecf;" horiz-adv-x="1245" 
d="M707 1165l-48 58q7 5 19.5 15.5t18 15t15.5 13t14.5 13l11.5 11.5t10 11.5t6.5 10.5t5.5 12q13 32 3.5 53t-48.5 21q-21 0 -52.5 -10.5t-48.5 -20.5l-36 102q44 26 95.5 43t84.5 17q79 0 125 -41.5t37 -108.5q-9 -64 -64.5 -119.5t-148.5 -95.5zM582 -20q-211 0 -353 133
q-143 131 -143 360q0 255 168 426q166 172 414 172q203 0 348 -133q141 -135 141 -371q0 -250 -164 -420q-161 -167 -411 -167zM584 170q144 0 247 115q101 113 101 284q0 146 -76.5 229t-198.5 83q-145 0 -245 -115q-101 -113 -101 -287q0 -146 75.5 -227.5t197.5 -81.5z
" />
    <glyph glyph-name="uni1ED0" unicode="&#x1ed0;" horiz-adv-x="1574" 
d="M1262 1745l190 260h195l-222 -260h-163zM655 1581l230 260h176l156 -260h-185l-80 135l-116 -135h-181zM750 -10q-285 0 -467 182q-181 181 -181 492q0 345 230 581q231 234 547 234q286 0 469 -183q180 -183 180 -493q0 -345 -230 -578q-229 -235 -548 -235zM756 205
q215 0 370 174q154 177 154 426q0 213 -113.5 336t-298.5 123q-216 0 -366 -172q-154 -177 -154 -428q0 -213 111 -336t297 -123z" />
    <glyph glyph-name="uni1ED1" unicode="&#x1ed1;" horiz-adv-x="1245" 
d="M1038 1335l191 260h194l-221 -260h-164zM432 1171l230 261h176l155 -261h-184l-80 136l-117 -136h-180zM582 -20q-211 0 -353 133q-143 131 -143 360q0 255 168 426q166 172 414 172q203 0 348 -133q141 -135 141 -371q0 -250 -164 -420q-161 -167 -411 -167zM584 170
q144 0 247 115q101 113 101 284q0 146 -76.5 229t-198.5 83q-145 0 -245 -115q-101 -113 -101 -287q0 -146 75.5 -227.5t197.5 -81.5z" />
    <glyph glyph-name="uni1ED2" unicode="&#x1ed2;" horiz-adv-x="1574" 
d="M1239 1749l-145 260h192l119 -260h-166zM655 1581l230 260h176l156 -260h-185l-80 135l-116 -135h-181zM750 -10q-285 0 -467 182q-181 181 -181 492q0 345 230 581q231 234 547 234q286 0 469 -183q180 -183 180 -493q0 -345 -230 -578q-229 -235 -548 -235zM756 205
q215 0 370 174q154 177 154 426q0 213 -113.5 336t-298.5 123q-216 0 -366 -172q-154 -177 -154 -428q0 -213 111 -336t297 -123z" />
    <glyph glyph-name="uni1ED3" unicode="&#x1ed3;" horiz-adv-x="1245" 
d="M1016 1339l-146 260h193l119 -260h-166zM432 1171l230 261h176l155 -261h-184l-80 136l-117 -136h-180zM582 -20q-211 0 -353 133q-143 131 -143 360q0 255 168 426q166 172 414 172q203 0 348 -133q141 -135 141 -371q0 -250 -164 -420q-161 -167 -411 -167zM584 170
q144 0 247 115q101 113 101 284q0 146 -76.5 229t-198.5 83q-145 0 -245 -115q-101 -113 -101 -287q0 -146 75.5 -227.5t197.5 -81.5z" />
    <glyph glyph-name="uni1ED4" unicode="&#x1ed4;" horiz-adv-x="1574" 
d="M1294 1726l-47 58q7 5 19.5 15.5t18 15t15.5 13t14.5 13l11.5 11.5t10 11.5t6.5 10.5t5.5 12q13 32 3.5 53t-48.5 21q-21 0 -52.5 -10.5t-48.5 -20.5l-37 103q43 26 95.5 42.5t85.5 16.5q79 0 124.5 -41t36.5 -108q-9 -64 -64.5 -120t-148.5 -96zM655 1581l230 260h176
l156 -260h-185l-80 135l-116 -135h-181zM750 -10q-285 0 -467 182q-181 181 -181 492q0 345 230 581q231 234 547 234q286 0 469 -183q180 -183 180 -493q0 -345 -230 -578q-229 -235 -548 -235zM756 205q215 0 370 174q154 177 154 426q0 213 -113.5 336t-298.5 123
q-216 0 -366 -172q-154 -177 -154 -428q0 -213 111 -336t297 -123z" />
    <glyph glyph-name="uni1ED5" unicode="&#x1ed5;" horiz-adv-x="1245" 
d="M1071 1317l-47 57q73 60 88 80q8 12 12 23q13 32 3.5 52.5t-48.5 20.5q-22 0 -52.5 -10t-47.5 -20l-37 102q43 26 95 42.5t85 16.5q79 0 125 -41t37 -108q-9 -64 -64.5 -119.5t-148.5 -95.5zM432 1171l230 261h176l155 -261h-184l-80 136l-117 -136h-180zM582 -20
q-211 0 -353 133q-143 131 -143 360q0 255 168 426q166 172 414 172q203 0 348 -133q141 -135 141 -371q0 -250 -164 -420q-161 -167 -411 -167zM584 170q144 0 247 115q101 113 101 284q0 146 -76.5 229t-198.5 83q-145 0 -245 -115q-101 -113 -101 -287
q0 -146 75.5 -227.5t197.5 -81.5z" />
    <glyph glyph-name="uni1ED6" unicode="&#x1ed6;" horiz-adv-x="1574" 
d="M1069 1917q-67 0 -133 41q-65 39 -102 39q-29 0 -49.5 -20t-26.5 -54h-119q12 102 63 160.5t132 58.5q67 0 135 -39q64 -41 100 -41q66 0 78 74h117q-12 -105 -62.5 -162t-132.5 -57zM655 1581l230 260h176l156 -260h-185l-80 135l-116 -135h-181zM750 -10
q-285 0 -467 182q-181 181 -181 492q0 345 230 581q231 234 547 234q286 0 469 -183q180 -183 180 -493q0 -345 -230 -578q-229 -235 -548 -235zM756 205q215 0 370 174q154 177 154 426q0 213 -113.5 336t-298.5 123q-216 0 -366 -172q-154 -177 -154 -428q0 -213 111 -336
t297 -123z" />
    <glyph glyph-name="uni1ED7" unicode="&#x1ed7;" horiz-adv-x="1245" 
d="M846 1507q-67 0 -133 41q-65 39 -103 39q-29 0 -49 -20t-26 -54h-119q12 103 62.5 161.5t131.5 58.5q67 0 135 -39q64 -41 101 -41q66 0 78 73h116q-12 -105 -62.5 -162t-131.5 -57zM432 1171l230 261h176l155 -261h-184l-80 136l-117 -136h-180zM582 -20
q-211 0 -353 133q-143 131 -143 360q0 255 168 426q166 172 414 172q203 0 348 -133q141 -135 141 -371q0 -250 -164 -420q-161 -167 -411 -167zM584 170q144 0 247 115q101 113 101 284q0 146 -76.5 229t-198.5 83q-145 0 -245 -115q-101 -113 -101 -287
q0 -146 75.5 -227.5t197.5 -81.5z" />
    <glyph glyph-name="uni1ED8" unicode="&#x1ed8;" horiz-adv-x="1574" 
d="M655 1581l230 260h176l156 -260h-185l-80 135l-116 -135h-181zM750 -10q-285 0 -467 182q-181 181 -181 492q0 345 230 581q231 234 547 234q286 0 469 -183q180 -183 180 -493q0 -345 -230 -578q-229 -235 -548 -235zM756 205q215 0 370 174q154 177 154 426
q0 213 -113.5 336t-298.5 123q-216 0 -366 -172q-154 -177 -154 -428q0 -213 111 -336t297 -123zM543 -399l32 233h248l-32 -233h-248z" />
    <glyph glyph-name="uni1ED9" unicode="&#x1ed9;" horiz-adv-x="1245" 
d="M432 1171l230 261h176l155 -261h-184l-80 136l-117 -136h-180zM582 -20q-211 0 -353 133q-143 131 -143 360q0 255 168 426q166 172 414 172q203 0 348 -133q141 -135 141 -371q0 -250 -164 -420q-161 -167 -411 -167zM584 170q144 0 247 115q101 113 101 284
q0 146 -76.5 229t-198.5 83q-145 0 -245 -115q-101 -113 -101 -287q0 -146 75.5 -227.5t197.5 -81.5zM377 -399l33 233h247l-32 -233h-248z" />
    <glyph glyph-name="uni1EDA" unicode="&#x1eda;" horiz-adv-x="1574" 
d="M1245 1855l-221 -260h-164l191 260h194zM1348 1296q180 -183 180 -493q0 -345 -230 -578q-229 -235 -548 -235q-285 0 -467 182q-181 181 -181 492q0 345 230 581q231 234 547 234q95 0 180 -21h12q33 0 50.5 1t46.5 7.5t45 20t31 40.5t20 66h155q-21 -162 -143 -235
q36 -26 72 -62zM1126 379q154 177 154 426q0 213 -113.5 336t-298.5 123q-216 0 -366 -172q-154 -177 -154 -428q0 -213 111 -336t297 -123q215 0 370 174z" />
    <glyph glyph-name="uni1EDB" unicode="&#x1edb;" horiz-adv-x="1245" 
d="M1022 1446l-221 -260h-164l190 260h195zM1016 938q141 -135 141 -371q0 -250 -164 -420q-161 -167 -411 -167q-211 0 -353 133q-143 131 -143 360q0 255 168 426q166 172 414 172q80 0 157 -22q33 0 50.5 1t46 8t44.5 20t30.5 40t19.5 66h155q-24 -174 -157 -244z
M831 285q101 113 101 284q0 146 -76.5 229t-198.5 83q-145 0 -245 -115q-101 -113 -101 -287q0 -146 75.5 -227.5t197.5 -81.5q144 0 247 115z" />
    <glyph glyph-name="uni1EDC" unicode="&#x1edc;" horiz-adv-x="1574" 
d="M1018 1608h-166l-145 260h192zM1348 1296q180 -183 180 -493q0 -345 -230 -578q-229 -235 -548 -235q-285 0 -467 182q-181 181 -181 492q0 345 230 581q231 234 547 234q95 0 180 -21h12q33 0 50.5 1t46.5 7.5t45 20t31 40.5t20 66h155q-21 -162 -143 -235
q36 -26 72 -62zM1126 379q154 177 154 426q0 213 -113.5 336t-298.5 123q-216 0 -366 -172q-154 -177 -154 -428q0 -213 111 -336t297 -123q215 0 370 174z" />
    <glyph glyph-name="uni1EDD" unicode="&#x1edd;" horiz-adv-x="1245" 
d="M795 1198h-166l-146 260h193zM1016 938q141 -135 141 -371q0 -250 -164 -420q-161 -167 -411 -167q-211 0 -353 133q-143 131 -143 360q0 255 168 426q166 172 414 172q80 0 157 -22q33 0 50.5 1t46 8t44.5 20t30.5 40t19.5 66h155q-24 -174 -157 -244zM831 285
q101 113 101 284q0 146 -76.5 229t-198.5 83q-145 0 -245 -115q-101 -113 -101 -287q0 -146 75.5 -227.5t197.5 -81.5q144 0 247 115z" />
    <glyph glyph-name="uni1EDE" unicode="&#x1ede;" horiz-adv-x="1574" 
d="M938 1808q-22 0 -52.5 -10t-47.5 -20l-37 102q43 26 95 42.5t85 16.5q79 0 125 -41t37 -108q-9 -64 -64.5 -119.5t-148.5 -95.5l-47 57q73 60 88 80q8 12 12 23q13 32 3.5 52.5t-48.5 20.5zM1348 1296q180 -183 180 -493q0 -345 -230 -578q-229 -235 -548 -235
q-285 0 -467 182q-181 181 -181 492q0 345 230 581q231 234 547 234q95 0 180 -21h12q33 0 50.5 1t46.5 7.5t45 20t31 40.5t20 66h155q-21 -162 -143 -235q36 -26 72 -62zM1126 379q154 177 154 426q0 213 -113.5 336t-298.5 123q-216 0 -366 -172q-154 -177 -154 -428
q0 -213 111 -336t297 -123q215 0 370 174z" />
    <glyph glyph-name="uni1EDF" unicode="&#x1edf;" horiz-adv-x="1245" 
d="M715 1399q-21 0 -52.5 -10.5t-48.5 -20.5l-36 102q44 26 95.5 43t84.5 17q79 0 125 -41.5t37 -108.5q-9 -64 -64.5 -119.5t-148.5 -95.5l-48 58q7 5 19.5 15.5t18 15t15.5 13t14.5 13l11.5 11.5t10 11.5t6.5 10.5t5.5 12q13 32 3.5 53t-48.5 21zM1016 938
q141 -135 141 -371q0 -250 -164 -420q-161 -167 -411 -167q-211 0 -353 133q-143 131 -143 360q0 255 168 426q166 172 414 172q80 0 157 -22q33 0 50.5 1t46 8t44.5 20t30.5 40t19.5 66h155q-24 -174 -157 -244zM831 285q101 113 101 284q0 146 -76.5 229t-198.5 83
q-145 0 -245 -115q-101 -113 -101 -287q0 -146 75.5 -227.5t197.5 -81.5q144 0 247 115z" />
    <glyph glyph-name="uni1EE0" unicode="&#x1ee0;" horiz-adv-x="1574" 
d="M836 1665q-29 0 -49.5 -20t-26.5 -54h-119q12 102 63 160.5t132 58.5q69 0 135 -38q64 -41 100 -41q66 0 78 73h117q-12 -105 -62.5 -162t-132.5 -57q-67 0 -133 41q-65 39 -102 39zM1348 1296q180 -183 180 -493q0 -345 -230 -578q-229 -235 -548 -235q-285 0 -467 182
q-181 181 -181 492q0 345 230 581q231 234 547 234q95 0 180 -21h12q33 0 50.5 1t46.5 7.5t45 20t31 40.5t20 66h155q-21 -162 -143 -235q36 -26 72 -62zM1126 379q154 177 154 426q0 213 -113.5 336t-298.5 123q-216 0 -366 -172q-154 -177 -154 -428q0 -213 111 -336
t297 -123q215 0 370 174z" />
    <glyph glyph-name="uni1EE1" unicode="&#x1ee1;" horiz-adv-x="1245" 
d="M612 1255q-29 0 -49 -19.5t-26 -53.5h-119q12 103 62.5 161t131.5 58q68 0 136 -39q64 -41 100 -41q66 0 78 74h116q-12 -105 -62.5 -162t-131.5 -57q-67 0 -133 41q-63 38 -103 38zM1016 938q141 -135 141 -371q0 -250 -164 -420q-161 -167 -411 -167q-211 0 -353 133
q-143 131 -143 360q0 255 168 426q166 172 414 172q80 0 157 -22q33 0 50.5 1t46 8t44.5 20t30.5 40t19.5 66h155q-24 -174 -157 -244zM831 285q101 113 101 284q0 146 -76.5 229t-198.5 83q-145 0 -245 -115q-101 -113 -101 -287q0 -146 75.5 -227.5t197.5 -81.5
q144 0 247 115z" />
    <glyph glyph-name="uni1EE2" unicode="&#x1ee2;" horiz-adv-x="1574" 
d="M1348 1296q180 -183 180 -493q0 -345 -230 -578q-229 -235 -548 -235q-285 0 -467 182q-181 181 -181 492q0 345 230 581q231 234 547 234q95 0 180 -21h12q33 0 50.5 1t46.5 7.5t45 20t31 40.5t20 66h155q-21 -162 -143 -235q36 -26 72 -62zM1126 379q154 177 154 426
q0 213 -113.5 336t-298.5 123q-216 0 -366 -172q-154 -177 -154 -428q0 -213 111 -336t297 -123q215 0 370 174zM543 -399l32 233h248l-32 -233h-248z" />
    <glyph glyph-name="uni1EE3" unicode="&#x1ee3;" horiz-adv-x="1245" 
d="M1016 938q141 -135 141 -371q0 -250 -164 -420q-161 -167 -411 -167q-211 0 -353 133q-143 131 -143 360q0 255 168 426q166 172 414 172q80 0 157 -22q33 0 50.5 1t46 8t44.5 20t30.5 40t19.5 66h155q-24 -174 -157 -244zM831 285q101 113 101 284q0 146 -76.5 229
t-198.5 83q-145 0 -245 -115q-101 -113 -101 -287q0 -146 75.5 -227.5t197.5 -81.5q144 0 247 115zM377 -399l33 233h247l-32 -233h-248z" />
    <glyph glyph-name="uni1EE4" unicode="&#x1ee4;" horiz-adv-x="1437" 
d="M717 -20q-275 0 -424 165q-155 169 -115 459l117 854h233l-120 -880q-25 -183 61 -288.5t252 -105.5t267 94.5t126 274.5l121 905h233l-125 -919q-36 -267 -197 -413t-429 -146zM473 -399l33 233h248l-33 -233h-248z" />
    <glyph glyph-name="uni1EE5" unicode="&#x1ee5;" horiz-adv-x="1185" 
d="M475 -20q-172 0 -270 116q-100 111 -72 324l86 631h217l-82 -600q-19 -136 34 -206.5t169 -70.5q123 0 204.5 81.5t98.5 219.5l80 576h213l-145 -1051h-201l4 145q-113 -165 -336 -165zM348 -399l33 233h248l-33 -233h-248z" />
    <glyph glyph-name="uni1EE6" unicode="&#x1ee6;" horiz-adv-x="1437" 
d="M860 1575l-47 57q73 60 88 80q8 12 12 23q13 32 3.5 52.5t-48.5 20.5q-22 0 -52.5 -10t-47.5 -20l-37 102q43 26 95 42.5t85 16.5q79 0 125 -41t37 -108q-9 -64 -64.5 -119.5t-148.5 -95.5zM717 -20q-275 0 -424 165q-155 169 -115 459l117 854h233l-120 -880
q-25 -183 61 -288.5t252 -105.5t267 94.5t126 274.5l121 905h233l-125 -919q-36 -267 -197 -413t-429 -146z" />
    <glyph glyph-name="uni1EE7" unicode="&#x1ee7;" horiz-adv-x="1185" 
d="M678 1165l-47 58l17.5 14t16.5 13.5t14 11.5t13.5 12t10.5 10.5t10 10.5t7.5 9.5t6.5 10.5l4 10q13 32 3.5 53t-48.5 21q-21 0 -52 -10.5t-48 -20.5l-37 102q44 26 95.5 43t84.5 17q79 0 125 -41.5t37 -108.5q-9 -64 -64.5 -119.5t-148.5 -95.5zM475 -20q-172 0 -270 116
q-100 111 -72 324l86 631h217l-82 -600q-19 -136 34 -206.5t169 -70.5q123 0 204.5 81.5t98.5 219.5l80 576h213l-145 -1051h-201l4 145q-113 -165 -336 -165z" />
    <glyph glyph-name="uni1EE8" unicode="&#x1ee8;" horiz-adv-x="1437" 
d="M1176 1855l-222 -260h-163l190 260h195zM1667 1593q-30 -208 -217 -266l-107 -788q-36 -267 -197 -413t-429 -146q-275 0 -424 165q-155 169 -115 459l117 854h233l-120 -880q-25 -183 61 -288.5t252 -105.5t267 94.5t126 274.5l121 905h115q32 1 54.5 5.5t47 17.5
t39.5 41t20 71h156z" />
    <glyph glyph-name="uni1EE9" unicode="&#x1ee9;" horiz-adv-x="1185" 
d="M993 1446l-221 -260h-164l191 260h194zM1440 1184q-36 -255 -307 -285l-125 -899h-201l4 145q-113 -165 -336 -165q-172 0 -270 116q-100 111 -72 324l86 631h217l-82 -600q-19 -136 34 -206.5t169 -70.5q123 0 204.5 81.5t98.5 219.5l80 576h213q54 5 88.5 34t42.5 99
h156z" />
    <glyph glyph-name="uni1EEA" unicode="&#x1eea;" horiz-adv-x="1437" 
d="M948 1608h-166l-145 260h192zM1667 1593q-30 -208 -217 -266l-107 -788q-36 -267 -197 -413t-429 -146q-275 0 -424 165q-155 169 -115 459l117 854h233l-120 -880q-25 -183 61 -288.5t252 -105.5t267 94.5t126 274.5l121 905h115q32 1 54.5 5.5t47 17.5t39.5 41t20 71
h156z" />
    <glyph glyph-name="uni1EEB" unicode="&#x1eeb;" horiz-adv-x="1185" 
d="M766 1198h-166l-145 260h192zM1440 1184q-36 -255 -307 -285l-125 -899h-201l4 145q-113 -165 -336 -165q-172 0 -270 116q-100 111 -72 324l86 631h217l-82 -600q-19 -136 34 -206.5t169 -70.5q123 0 204.5 81.5t98.5 219.5l80 576h213q54 5 88.5 34t42.5 99h156z" />
    <glyph glyph-name="uni1EEC" unicode="&#x1eec;" horiz-adv-x="1437" 
d="M868 1808q-22 0 -52.5 -10t-47.5 -20l-37 102q43 26 95 42.5t85 16.5q79 0 125 -41t37 -108q-9 -64 -64.5 -119.5t-148.5 -95.5l-47 57q73 60 88 80q8 12 12 23q13 32 3.5 52.5t-48.5 20.5zM1667 1593q-30 -208 -217 -266l-107 -788q-36 -267 -197 -413t-429 -146
q-275 0 -424 165q-155 169 -115 459l117 854h233l-120 -880q-25 -183 61 -288.5t252 -105.5t267 94.5t126 274.5l121 905h115q32 1 54.5 5.5t47 17.5t39.5 41t20 71h156z" />
    <glyph glyph-name="uni1EED" unicode="&#x1eed;" horiz-adv-x="1185" 
d="M686 1399q-21 0 -52 -10.5t-48 -20.5l-37 102q44 26 95.5 43t84.5 17q79 0 125 -41.5t37 -108.5q-9 -64 -64.5 -119.5t-148.5 -95.5l-47 58l17.5 14t16.5 13.5t14 11.5t13.5 12t10.5 10.5t10 10.5t7.5 9.5t6.5 10.5l4 10q13 32 3.5 53t-48.5 21zM1440 1184
q-36 -255 -307 -285l-125 -899h-201l4 145q-113 -165 -336 -165q-172 0 -270 116q-100 111 -72 324l86 631h217l-82 -600q-19 -136 34 -206.5t169 -70.5q123 0 204.5 81.5t98.5 219.5l80 576h213q54 5 88.5 34t42.5 99h156z" />
    <glyph glyph-name="uni1EEE" unicode="&#x1eee;" horiz-adv-x="1437" 
d="M766 1665q-29 0 -49.5 -20t-26.5 -54h-119q12 102 63 160.5t132 58.5q69 0 135 -38q64 -41 100 -41q66 0 78 73h117q-12 -105 -62.5 -162t-132.5 -57q-67 0 -133 41q-65 39 -102 39zM1667 1593q-30 -208 -217 -266l-107 -788q-36 -267 -197 -413t-429 -146
q-275 0 -424 165q-155 169 -115 459l117 854h233l-120 -880q-25 -183 61 -288.5t252 -105.5t267 94.5t126 274.5l121 905h115q32 1 54.5 5.5t47 17.5t39.5 41t20 71h156z" />
    <glyph glyph-name="uni1EEF" unicode="&#x1eef;" horiz-adv-x="1185" 
d="M584 1255q-29 0 -49.5 -19.5t-26.5 -53.5h-119q12 102 63 160.5t132 58.5q67 0 135 -39q64 -41 100 -41q66 0 78 74h117q-12 -105 -62.5 -162t-132.5 -57q-67 0 -133 41q-63 38 -102 38zM1440 1184q-36 -255 -307 -285l-125 -899h-201l4 145q-113 -165 -336 -165
q-172 0 -270 116q-100 111 -72 324l86 631h217l-82 -600q-19 -136 34 -206.5t169 -70.5q123 0 204.5 81.5t98.5 219.5l80 576h213q54 5 88.5 34t42.5 99h156z" />
    <glyph glyph-name="uni1EF0" unicode="&#x1ef0;" horiz-adv-x="1437" 
d="M1667 1593q-30 -208 -217 -266l-107 -788q-36 -267 -197 -413t-429 -146q-275 0 -424 165q-155 169 -115 459l117 854h233l-120 -880q-25 -183 61 -288.5t252 -105.5t267 94.5t126 274.5l121 905h115q32 1 54.5 5.5t47 17.5t39.5 41t20 71h156zM473 -399l33 233h248
l-33 -233h-248z" />
    <glyph glyph-name="uni1EF1" unicode="&#x1ef1;" horiz-adv-x="1185" 
d="M1440 1184q-36 -255 -307 -285l-125 -899h-201l4 145q-113 -165 -336 -165q-172 0 -270 116q-100 111 -72 324l86 631h217l-82 -600q-19 -136 34 -206.5t169 -70.5q123 0 204.5 81.5t98.5 219.5l80 576h213q54 5 88.5 34t42.5 99h156zM348 -399l33 233h248l-33 -233h-248
z" />
    <glyph glyph-name="Ygrave" unicode="&#x1ef2;" horiz-adv-x="1349" 
d="M739 1608l-145 260h192l119 -260h-166zM477 0l72 508l-408 950h258l289 -706l494 706h278l-682 -950l-71 -508h-230z" />
    <glyph glyph-name="ygrave" unicode="&#x1ef3;" horiz-adv-x="1110" 
d="M561 1198l-145 260h192l119 -260h-166zM-70 -410l29 199h213q174 0 174 158q0 25 -10 67l-248 1035h229l189 -869l416 871l241 -2l-622 -1242q-71 -145 -174 -184q-54 -20 -100 -26.5t-117 -6.5h-220z" />
    <glyph glyph-name="uni1EF4" unicode="&#x1ef4;" horiz-adv-x="1349" 
d="M477 0l72 508l-408 950h258l289 -706l494 706h278l-682 -950l-71 -508h-230zM430 -399l33 233h248l-33 -233h-248z" />
    <glyph glyph-name="uni1EF5" unicode="&#x1ef5;" horiz-adv-x="1110" 
d="M-70 -410l29 199h213q174 0 174 158q0 25 -10 67l-248 1035h229l189 -869l416 871l241 -2l-622 -1242q-71 -145 -174 -184q-54 -20 -100 -26.5t-117 -6.5h-220zM690 -399l33 233h248l-33 -233h-248z" />
    <glyph glyph-name="uni1EF6" unicode="&#x1ef6;" horiz-adv-x="1349" 
d="M817 1575l-47 57q73 60 88 80q8 12 12 23q13 32 3.5 52.5t-48.5 20.5q-22 0 -52.5 -10t-47.5 -20l-37 102q43 26 95 42.5t85 16.5q79 0 125 -41t37 -108q-9 -64 -64.5 -119.5t-148.5 -95.5zM477 0l72 508l-408 950h258l289 -706l494 706h278l-682 -950l-71 -508h-230z
" />
    <glyph glyph-name="uni1EF7" unicode="&#x1ef7;" horiz-adv-x="1110" 
d="M639 1165l-47 58l17.5 14t16.5 13.5t14 11.5t13.5 12t10.5 10.5t10 10.5t7.5 9.5t6.5 10.5l4 10q13 32 3.5 53t-48.5 21q-21 0 -52 -10.5t-48 -20.5l-37 102q44 26 95.5 43t84.5 17q79 0 125 -41.5t37 -108.5q-9 -64 -64.5 -119.5t-148.5 -95.5zM-70 -410l29 199h213
q174 0 174 158q0 25 -10 67l-248 1035h229l189 -869l416 871l241 -2l-622 -1242q-71 -145 -174 -184q-54 -20 -100 -26.5t-117 -6.5h-220z" />
    <glyph glyph-name="uni1EF8" unicode="&#x1ef8;" horiz-adv-x="1349" 
d="M958 1585q-67 0 -133 41q-65 39 -102 39q-29 0 -49.5 -20t-26.5 -54h-119q12 102 63 160.5t132 58.5q69 0 135 -38q64 -41 100 -41q66 0 78 73h117q-12 -105 -62.5 -162t-132.5 -57zM477 0l72 508l-408 950h258l289 -706l494 706h278l-682 -950l-71 -508h-230z" />
    <glyph glyph-name="uni1EF9" unicode="&#x1ef9;" horiz-adv-x="1110" 
d="M780 1176q-67 0 -133 41q-63 38 -102 38q-29 0 -49.5 -19.5t-26.5 -53.5h-119q12 102 63 160.5t132 58.5q67 0 135 -39q64 -41 100 -41q66 0 78 74h117q-12 -105 -62.5 -162t-132.5 -57zM-70 -410l29 199h213q174 0 174 158q0 25 -10 67l-248 1035h229l189 -869l416 871
l241 -2l-622 -1242q-71 -145 -174 -184q-54 -20 -100 -26.5t-117 -6.5h-220z" />
    <glyph glyph-name="endash" unicode="&#x2013;" horiz-adv-x="1306" 
d="M90 494l29 206h1118l-29 -206h-1118z" />
    <glyph glyph-name="emdash" unicode="&#x2014;" horiz-adv-x="2043" 
d="M90 494l29 206h1855l-28 -206h-1856z" />
    <glyph glyph-name="quoteleft" unicode="&#x2018;" horiz-adv-x="499" 
d="M164 967l41 282l162 238h135l-154 -238h141l-40 -282h-285z" />
    <glyph glyph-name="quoteright" unicode="&#x2019;" horiz-adv-x="499" 
d="M188 967l154 239h-141l39 281h286l-39 -281l-163 -239h-136z" />
    <glyph glyph-name="quotesinglbase" unicode="&#x201a;" horiz-adv-x="499" 
d="M25 -240l153 240h-141l39 283h286l-38 -283l-164 -240h-135z" />
    <glyph glyph-name="quotedblleft" unicode="&#x201c;" horiz-adv-x="888" 
d="M164 967l41 282l162 238h135l-154 -238h141l-40 -282h-285zM553 967l41 282l162 238h135l-154 -238h142l-41 -282h-285z" />
    <glyph glyph-name="quotedblright" unicode="&#x201d;" horiz-adv-x="894" 
d="M186 967l154 239h-141l39 281h286l-39 -281l-163 -239h-136zM584 967l153 239h-141l39 281h287l-39 -281l-164 -239h-135z" />
    <glyph glyph-name="quotedblbase" unicode="&#x201e;" horiz-adv-x="886" 
d="M25 -240l153 240h-141l39 283h286l-38 -283l-164 -240h-135zM414 -240l153 240h-141l39 283h287l-39 -283l-164 -240h-135z" />
    <glyph glyph-name="dagger" unicode="&#x2020;" horiz-adv-x="980" 
d="M467 209v727h-311v186h311v336h184v-336h312v-186h-312v-727h-184z" />
    <glyph glyph-name="daggerdbl" unicode="&#x2021;" horiz-adv-x="925" 
d="M412 209v323h-310v187h310v229h-310v187h310v323h186v-323h309v-187h-309v-229h309v-187h-309v-323h-186z" />
    <glyph glyph-name="bullet" unicode="&#x2022;" horiz-adv-x="819" 
d="M395 289q-131 0 -217 86q-88 82 -88 213q0 147 107 254q107 104 256 104q133 0 217 -85t84 -216q0 -147 -105 -252q-107 -104 -254 -104z" />
    <glyph glyph-name="ellipsis" unicode="&#x2026;" horiz-adv-x="1427" 
d="M35 0l41 287h284l-38 -287h-287zM500 0l39 287h286l-41 -287h-284zM963 0l41 287h286l-41 -287h-286z" />
    <glyph glyph-name="perthousand" unicode="&#x2030;" horiz-adv-x="2682" 
d="M467 684q-138 0 -227.5 97t-89.5 261q0 188 100 312q101 125 264 125q144 0 232 -97.5t88 -265.5q0 -185 -103 -309q-102 -123 -264 -123zM322 0l1114 1458h211l-1115 -1458h-210zM473 854q83 0 127.5 75t44.5 187q0 193 -135 193q-81 0 -125.5 -75t-44.5 -190
q0 -190 133 -190zM1454 -20q-138 0 -227.5 97t-89.5 261q0 187 100 311q101 125 264 125q144 0 232 -97t88 -265q0 -186 -103 -310q-101 -122 -264 -122zM2220 -20q-139 0 -228 97t-89 261q0 187 100 311q101 125 264 125q144 0 232 -97t88 -265q0 -186 -103 -310
q-101 -122 -264 -122zM1460 150q83 0 127.5 75t44.5 187q0 190 -135 190q-81 0 -125.5 -74t-44.5 -188q0 -190 133 -190zM2226 150q82 0 126 75.5t44 186.5q0 190 -133 190q-81 0 -125.5 -74t-44.5 -188q0 -190 133 -190z" />
    <glyph glyph-name="guilsinglleft" unicode="&#x2039;" horiz-adv-x="772" 
d="M360 119l-280 463l459 467h239l-463 -474l275 -456h-230z" />
    <glyph glyph-name="guilsinglright" unicode="&#x203a;" horiz-adv-x="772" 
d="M10 121l465 479l-278 451h233l279 -459l-459 -471h-240z" />
    <glyph glyph-name="uni2042" unicode="&#x2042;" horiz-adv-x="1392" 
d="M586 920l-92 65l75 98q48 57 76 74q-35 -2 -104 21l-115 39l37 102l112 -37q64 -22 93 -45q-13 44 -13 100v121h109v-121q0 -65 -12 -100q41 32 90 45l114 39l37 -104l-114 -39q-78 -23 -105 -21q36 -22 76 -74l74 -98l-90 -65l-70 96q-37 45 -53 98q-11 -39 -54 -98z
M223 328l-94 65l78 99q39 50 76 73q-43 0 -107 21l-113 41l35 102l115 -39q59 -19 92 -45q-14 35 -14 100v123h108v-123q0 -65 -12 -100q41 32 92 45l113 39l39 -104l-117 -39q-58 -21 -102 -21q36 -21 75 -73l74 -99l-90 -65l-72 96q-42 57 -53 98q-13 -43 -51 -98z
M950 328l-92 65l76 99q39 50 76 73q-43 0 -107 21l-112 41l34 102l115 -39q59 -19 92 -45q-14 35 -14 100v123h110v-123q0 -72 -14 -100q41 32 92 45l113 39l39 -104l-117 -39q-59 -21 -102 -21q36 -21 75 -73l74 -99l-90 -65l-70 96q-43 52 -55 98q-9 -42 -51 -98z" />
    <glyph glyph-name="fraction" unicode="&#x2044;" horiz-adv-x="409" 
d="M-317 0l929 1458h160l-932 -1458h-157z" />
    <glyph glyph-name="Euro" unicode="&#x20ac;" horiz-adv-x="1304" 
d="M784 -20q-245 0 -411 133.5t-213 367.5h-144l25 166h104q0 73 15 168h-97l25 166h121q87 221 285 362q195 136 444 136q248 0 422 -119l-148 -186q-113 90 -284 90q-149 0 -268.5 -74.5t-188.5 -208.5h524l-43 -166h-540q-19 -84 -19 -168h520l-41 -166h-460
q71 -286 383 -286q171 0 299 84l94 -185q-176 -114 -404 -114z" />
    <glyph glyph-name="uni2116" unicode="&#x2116;" horiz-adv-x="2390" 
d="M1944 672q-165 0 -273 102t-108 275q0 183 118 307q119 125 304 125q165 0 274 -103q106 -103 106 -276q0 -181 -118 -305q-119 -125 -303 -125zM78 0l205 1458h209l604 -1061l149 1061h223l-202 -1458h-209l-606 1061l-148 -1061h-225zM1952 846q97 0 162 74t65 180
q0 96 -56 152.5t-143 56.5q-99 0 -164 -73.5t-65 -182.5q0 -97 56 -152t145 -55zM1591 377l25 178h573l-26 -178h-572z" />
    <glyph glyph-name="uni2117" unicode="&#x2117;" horiz-adv-x="1009" 
d="M578 621q-177 0 -304 127q-124 124 -124 303t124 303q125 125 304 125q180 0 305 -125q123 -126 123 -303q0 -180 -123 -306q-124 -124 -305 -124zM578 725q142 0 233 94q92 92 92 232q0 136 -92 231q-94 94 -233 94q-141 0 -232 -94q-94 -94 -94 -231q0 -136 94 -230
q93 -96 232 -96zM436 834v426h187q67 0 109 -41t42 -107t-43.5 -105.5t-112.5 -39.5h-88v-133h-94zM530 1047h78q47 -4 63 39q14 40 -9 71q-19 26 -54 21h-78v-131z" />
    <glyph glyph-name="trademark" unicode="&#x2122;" horiz-adv-x="1271" 
d="M682 1458l-18 -125h-185l-65 -471h-138l64 471h-180l16 125h506zM1206 1458h133l-84 -596h-125l31 230q9 87 29 125l-182 -355h-107l-86 359q6 -27 -6 -129l-33 -230h-127l84 596h127l109 -450z" />
    <glyph glyph-name="estimated" unicode="&#x212e;" horiz-adv-x="1566" 
d="M840 -18q-320 0 -516 208q-198 210 -195 545q3 333 195 537q195 207 493 207q307 0 496 -183q188 -185 188 -501q3 -59 0 -111h-1163v-375q172 -246 506 -246q154 0 295 78q137 78 200 201l78 -29q-75 -154 -228.5 -242.5t-348.5 -88.5zM338 760h956v416
q-80 106 -204.5 164t-272.5 57q-150 -1 -275 -69.5t-204 -188.5v-379z" />
    <glyph glyph-name="oneeighth" unicode="&#x215b;" horiz-adv-x="1658" 
d="M143 711l19 131h143l66 473l-174 -80l18 139l176 84h139l-84 -616h140l-19 -131h-424zM276 0l930 1458h160l-932 -1458h-158zM1280 -10q-124 0 -199 59.5t-75 161.5q0 65 37 118.5t98 76.5q-70 52 -70 141q0 93 76 153t192 60q109 0 177.5 -55.5t68.5 -145.5
q0 -55 -28.5 -98t-73.5 -64q94 -52 94 -166q0 -108 -83 -174.5t-214 -66.5zM1321 451q56 0 92.5 29.5t36.5 76.5q0 43 -33 69.5t-84 26.5q-56 0 -91.5 -30.5t-35.5 -77.5q0 -43 30.5 -68.5t84.5 -25.5zM1284 106q67 0 109.5 34.5t42.5 88.5q0 50 -37.5 81.5t-98.5 31.5
q-66 0 -108.5 -34.5t-42.5 -88.5q0 -51 37 -82t98 -31z" />
    <glyph glyph-name="threeeighths" unicode="&#x215c;" horiz-adv-x="1695" 
d="M373 700q-125 0 -196 70t-58 180h137q-7 -61 24.5 -96t92.5 -35q62 0 100.5 32t38.5 87q0 44 -30.5 70t-84.5 26h-63l18 111h64q62 0 95.5 29t33.5 83q0 42 -29.5 67.5t-79.5 25.5q-63 0 -100.5 -35.5t-42.5 -95.5h-135q11 116 87.5 182.5t203.5 66.5q110 0 177.5 -54
t67.5 -144q0 -63 -35.5 -111.5t-95.5 -68.5q99 -38 99 -156q0 -107 -81.5 -170.5t-207.5 -63.5zM328 0l929 1458h160l-932 -1458h-157zM1329 -10q-124 0 -199 59.5t-75 161.5q0 65 37 118.5t98 76.5q-70 52 -70 141q0 93 76.5 153t192.5 60q109 0 177 -55.5t68 -145.5
q0 -55 -28.5 -98t-73.5 -64q94 -52 94 -166q0 -108 -83 -174.5t-214 -66.5zM1370 451q56 0 92.5 29.5t36.5 76.5q0 43 -33 69.5t-84 26.5q-56 0 -91.5 -30.5t-35.5 -77.5q0 -43 30.5 -68.5t84.5 -25.5zM1333 106q67 0 109.5 34.5t42.5 88.5q0 50 -37 81.5t-98 31.5
q-66 0 -109 -34.5t-43 -88.5q0 -51 37 -82t98 -31z" />
    <glyph glyph-name="fiveeighths" unicode="&#x215d;" horiz-adv-x="1708" 
d="M365 700q-113 0 -187.5 64t-73.5 176h136q-1 -54 34.5 -87.5t90.5 -33.5q64 0 107.5 45.5t43.5 116.5q0 60 -32.5 94.5t-88.5 34.5q-93 0 -137 -80h-133l137 428h430l-16 -121h-322l-49 -143q48 31 127 31q104 0 168 -64.5t64 -175.5q0 -126 -84.5 -205.5t-214.5 -79.5z
M328 0l929 1458h160l-932 -1458h-157zM1329 -10q-124 0 -199 59.5t-75 161.5q0 65 37 118.5t98 76.5q-70 52 -70 141q0 93 76.5 153t192.5 60q109 0 177 -55.5t68 -145.5q0 -55 -28.5 -98t-73.5 -64q94 -52 94 -166q0 -108 -83 -174.5t-214 -66.5zM1370 451q56 0 92.5 29.5
t36.5 76.5q0 43 -33 69.5t-84 26.5q-56 0 -91.5 -30.5t-35.5 -77.5q0 -43 30.5 -68.5t84.5 -25.5zM1333 106q67 0 109.5 34.5t42.5 88.5q0 50 -37 81.5t-98 31.5q-66 0 -109 -34.5t-43 -88.5q0 -51 37 -82t98 -31z" />
    <glyph glyph-name="seveneighths" unicode="&#x215e;" horiz-adv-x="1599" 
d="M141 715q84 312 342 626h-354l16 123h521l-15 -114q-282 -301 -370 -635h-140zM217 0l930 1458h160l-932 -1458h-158zM1219 -10q-124 0 -199.5 59.5t-75.5 161.5q0 65 37 118.5t98 76.5q-69 51 -69 141q0 93 76 153t192 60q109 0 177.5 -55.5t68.5 -145.5q0 -55 -29 -98
t-74 -64q95 -53 95 -166q0 -108 -83 -174.5t-214 -66.5zM1260 451q56 0 92.5 29.5t36.5 76.5q0 43 -33 69.5t-84 26.5q-56 0 -91.5 -30.5t-35.5 -77.5q0 -43 30.5 -68.5t84.5 -25.5zM1223 106q67 0 109 34.5t42 88.5q0 50 -37 81.5t-98 31.5q-66 0 -109 -34.5t-43 -88.5
q0 -51 37.5 -82t98.5 -31z" />
    <glyph glyph-name="uni2160" unicode="&#x2160;" horiz-adv-x="1067" 
d="M123 0v158h301v1142h-301v158h821v-158h-299v-1142h299v-158h-821z" />
    <glyph glyph-name="uni2161" unicode="&#x2161;" horiz-adv-x="1691" 
d="M123 0v158h283v1142h-283v158h1446v-158h-281v-1142h281v-158h-1446zM629 158h436v1142h-436v-1142z" />
    <glyph glyph-name="uni2162" unicode="&#x2162;" horiz-adv-x="2361" 
d="M123 0v162h287v1136h-287v160h2115v-160h-288v-1136h288v-162h-2115zM633 162h436v1136h-436v-1136zM1292 162h434v1136h-434v-1136z" />
    <glyph glyph-name="uni2163" unicode="&#x2163;" horiz-adv-x="2367" 
d="M123 0v160h305v1138h-305v160h2120v-160h-228l-373 -1138h603v-160h-2122zM651 160h572l-379 1138h-193v-1138zM1434 199l348 1099h-699z" />
    <glyph glyph-name="uni2164" unicode="&#x2164;" horiz-adv-x="1822" 
d="M133 0v158h574l-377 1140h-207v160h1577v-160h-197l-379 -1140h570v-158h-1561zM915 197l353 1101h-705z" />
    <glyph glyph-name="uni2165" unicode="&#x2165;" horiz-adv-x="2367" 
d="M123 0v162h604l-377 1136h-227v160h2122v-160h-291v-1136h291v-162h-2122zM936 201l350 1097h-700zM1143 162h590v1136h-211z" />
    <glyph glyph-name="uni2166" unicode="&#x2166;" horiz-adv-x="3006" 
d="M123 0v162h594l-373 1136h-221v160h2759v-160h-304v-1136h306v-162h-2761zM926 201l352 1097h-700zM1130 162h590v1136h-207zM1944 162h411v1136h-411v-1136z" />
    <glyph glyph-name="uni2167" unicode="&#x2167;" horiz-adv-x="3624" 
d="M123 0v162h582l-367 1136h-215v160h3377v-160h-293v-1136h295v-162h-3379zM911 201l338 1097h-676zM1118 162h592v1136h-225zM1933 162h414v1136h-414v-1136zM2570 162h416v1136h-416v-1136z" />
    <glyph glyph-name="uni2168" unicode="&#x2168;" horiz-adv-x="2258" 
d="M123 0v158h285v1140h-285v160h2011v-160h-184l-414 -583l397 -557h203v-158h-2013zM629 158h209l405 557l-414 583h-200v-1140zM1389 848l313 450h-623zM1085 158h594l-295 426z" />
    <glyph glyph-name="uni2169" unicode="&#x2169;" horiz-adv-x="1789" 
d="M123 0v158h223l402 559l-416 581h-209v160h1542v-160h-211l-412 -581l396 -559h229v-158h-1544zM893 848l313 450h-622zM590 158h594l-293 426z" />
    <glyph glyph-name="arrowleft" unicode="&#x2190;" horiz-adv-x="1705" 
d="M780 -119l-657 658l657 659l99 -98l-496 -496h1200v-133h-1202l496 -496z" />
    <glyph glyph-name="arrowup" unicode="&#x2191;" horiz-adv-x="1568" 
d="M715 0v1202l-498 -491l-94 94l659 653l664 -653l-94 -94l-502 491v-1202h-135z" />
    <glyph glyph-name="arrowright" unicode="&#x2192;" horiz-adv-x="1705" 
d="M926 -119l-99 96l498 498l-1202 -2v135h1202l-494 494l95 94l657 -657z" />
    <glyph glyph-name="arrowdown" unicode="&#x2193;" horiz-adv-x="1562" 
d="M780 -76l-657 658l98 98l496 -498v1202h133v-1202l496 494l94 -94z" />
    <glyph glyph-name="arrowboth" unicode="&#x2194;" horiz-adv-x="2000" 
d="M594 61l-471 476l469 475v-199l-209 -209l475 4v2h289v-2l471 -2l-207 209v197l467 -473l-465 -476v197l207 211l-758 -2v2l-479 -2l211 -213v-195z" />
    <glyph glyph-name="arrowupdn" unicode="&#x2195;" horiz-adv-x="1191" 
d="M594 -344l-471 469h192l211 -207l-2 473v289l2 471l-211 -207h-192l471 467l475 -467h-197l-210 207v-1233l210 207h197z" />
    <glyph glyph-name="uni2196" unicode="&#x2196;" horiz-adv-x="1325" 
d="M1108 -6l-852 852v-701h-133v932h930v-139h-701l850 -848z" />
    <glyph glyph-name="uni2197" unicode="&#x2197;" horiz-adv-x="1327" 
d="M217 0l-94 96l848 848h-697v135h930v-932h-137v703z" />
    <glyph glyph-name="uni2198" unicode="&#x2198;" horiz-adv-x="1325" 
d="M270 0v137h703l-850 850l96 94l848 -848v697h135v-930h-932z" />
    <glyph glyph-name="uni2199" unicode="&#x2199;" horiz-adv-x="1327" 
d="M123 0v932h137v-703l850 850l94 -94l-848 -850h697v-135h-930z" />
    <glyph glyph-name="partialdiff" unicode="&#x2202;" horiz-adv-x="1245" 
d="M590 -20q-228 0 -371 131q-145 133 -145 362q0 234 147 393t381 162q224 3 330 -127q-46 190 -156 316q-105 117 -287 241h336q166 -108 265 -325q96 -221 96 -457q0 -301 -158 -500q-159 -196 -438 -196zM586 180q146 0 237 99q92 100 92 247q0 135 -75.5 219t-204.5 84
q-147 0 -240 -100q-94 -101 -94 -252q0 -134 77.5 -215.5t207.5 -81.5z" />
    <glyph glyph-name="emptyset" unicode="&#x2205;" horiz-adv-x="1284" 
d="M100 -51l-86 90l179 162q-76 122 -76 286q0 241 159 410q156 170 396 170q199 0 336 -119l170 156l86 -90l-177 -162q78 -128 78 -287q0 -244 -161 -411q-164 -170 -396 -170q-200 0 -338 120zM352 348l502 459q-75 63 -182 63q-149 0 -248 -114q-98 -113 -98 -271
q0 -75 26 -137zM608 182q145 0 248 115q98 113 98 268q0 75 -26 140l-502 -459q73 -64 182 -64z" />
    <glyph glyph-name="product" unicode="&#x220f;" horiz-adv-x="1421" 
d="M250 -4l176 1253h-223l26 209h1217l-29 -209h-231l-176 -1253h-219l176 1253h-324l-174 -1253h-219z" />
    <glyph glyph-name="summation" unicode="&#x2211;" horiz-adv-x="1220" 
d="M10 -174l27 207l526 616l-350 623l25 186h1005l-29 -207l-739 2l342 -622l-506 -594l733 -2l-30 -209h-1004z" />
    <glyph glyph-name="minus" unicode="&#x2212;" horiz-adv-x="1228" 
d="M141 571l29 209h956l-30 -209h-955z" />
    <glyph glyph-name="radical" unicode="&#x221a;" horiz-adv-x="1648" 
d="M397 -209l-295 787h215l187 -502l596 1583h606v-199h-467l-629 -1669h-213z" />
    <glyph glyph-name="infinity" unicode="&#x221e;" horiz-adv-x="1974" 
d="M524 111q-190 0 -315 125q-129 126 -129 309q0 185 129 311q128 125 315 125q98 0 190.5 -41t155.5 -100q51 -51 119 -138q71 92 126.5 143.5t141.5 92.5q90 43 197 43q185 0 315 -127q127 -127 127 -309t-127 -309q-125 -125 -315 -125q-142 0 -250.5 69.5t-214.5 208.5
q-208 -278 -465 -278zM535 317q85 0 159 51.5t174 176.5q-99 125 -173 177t-160 52q-99 0 -165.5 -66t-66.5 -163q0 -93 67.5 -160.5t164.5 -67.5zM1442 317q99 0 166 66.5t67 161.5t-67 162t-166 67q-86 0 -159 -51t-173 -178q101 -126 173.5 -177t158.5 -51z" />
    <glyph glyph-name="integral" unicode="&#x222b;" horiz-adv-x="808" 
d="M6 -360l21 206h118q108 0 117 107l90 1425q7 137 90.5 212t216.5 75h179l-23 -207h-145q-111 0 -117 -112l-92 -1426q-7 -137 -87 -208.5t-216 -71.5h-152z" />
    <glyph glyph-name="approxequal" unicode="&#x2248;" horiz-adv-x="1193" 
d="M868 698q-51 0 -104.5 20t-77.5 40q-22 15 -76 61q-65 55 -90.5 70.5t-58.5 15.5q-105 0 -111 -145h-176q0 150 77 241t204 91q45 0 93.5 -17.5t78.5 -38.5q31 -27 73 -59q70 -57 99.5 -74.5t60.5 -17.5q112 0 115 145h176q-5 -150 -80 -241t-203 -91zM774 229
q-51 0 -104.5 20t-77.5 40q-22 15 -76 61q-65 55 -90.5 70.5t-58.5 15.5q-105 0 -111 -145h-176q0 150 76.5 241t203.5 91q45 0 93.5 -17.5t78.5 -38.5q22 -19 74 -59q70 -57 99.5 -74.5t60.5 -17.5q112 0 115 145h176q-5 -150 -80 -241t-203 -91z" />
    <glyph glyph-name="notequal" unicode="&#x2260;" horiz-adv-x="1230" 
d="M266 152l111 202h-205l29 195h284l140 256h-385l26 194h467l109 199h166l-109 -199h197l-27 -194h-278l-140 -256h379l-29 -195h-458l-111 -202h-166z" />
    <glyph glyph-name="lessequal" unicode="&#x2264;" horiz-adv-x="1228" 
d="M1010 295l-807 352l35 238l905 352l-31 -223l-674 -250l604 -250zM113 0l30 207h856l-28 -207h-858z" />
    <glyph glyph-name="greaterequal" unicode="&#x2265;" horiz-adv-x="1228" 
d="M154 295l30 221l674 254l-604 250l31 215l809 -350l-33 -238zM113 0l28 207h858l-30 -207h-856z" />
    <glyph glyph-name="filledbox" unicode="&#x25a0;" horiz-adv-x="1624" 
d="M84 2v1456h1456v-1456h-1456z" />
    <glyph glyph-name="uni25A1" unicode="&#x25a1;" horiz-adv-x="1626" 
d="M84 0v1458h1458v-1458h-1458zM211 129h1204v1202h-1204v-1202z" />
    <glyph glyph-name="triagup" unicode="&#x25b2;" horiz-adv-x="1941" 
d="M84 0l885 1464l889 -1464h-1774z" />
    <glyph glyph-name="uni25B3" unicode="&#x25b3;" horiz-adv-x="1933" 
d="M84 0l881 1458l884 -1458h-1765zM313 129h1307l-653 1079z" />
    <glyph glyph-name="lozenge" unicode="&#x25ca;" horiz-adv-x="1245" 
d="M526 0l-442 727l442 731h189l446 -731l-446 -727h-189zM623 98l383 627l-383 637l-383 -637z" />
    <glyph glyph-name="circle" unicode="&#x25cb;" horiz-adv-x="1675" 
d="M836 -20q-313 0 -531 221q-221 221 -221 532q0 312 221 533q218 221 531 221q308 0 534 -221q221 -221 221 -533q0 -311 -221 -532q-226 -221 -534 -221zM836 109q260 0 444 184q182 182 182 440q0 261 -182 443q-185 182 -444 182t-441 -182q-184 -181 -184 -443
q0 -261 184 -442q182 -182 441 -182z" />
    <glyph glyph-name="uni25CF" unicode="&#x25cf;" horiz-adv-x="1687" 
d="M844 -39q-318 0 -537 223q-223 219 -223 537q0 317 223 536q222 222 537 222q311 0 538 -222q222 -222 222 -536q0 -315 -222 -537q-223 -223 -538 -223z" />
    <glyph glyph-name="uni262E" unicode="&#x262e;" horiz-adv-x="1675" 
d="M836 -25q-313 0 -535 222q-221 221 -221 536q0 314 223 537q221 221 533 221q310 0 536 -221q223 -223 223 -537q0 -311 -223 -534q-224 -224 -536 -224zM260 471l510 313v580q-241 -27 -403 -207q-164 -182 -164 -424q0 -139 57 -262zM1415 473q58 125 58 260
q0 244 -162 424q-163 178 -406 205v-580zM770 102v525l-442 -275q172 -223 442 -250zM905 102q270 30 441 252l-441 273v-525z" />
    <glyph glyph-name="uni2713" unicode="&#x2713;" horiz-adv-x="1546" 
d="M588 160l-441 493l113 105l332 -373l784 741l103 -106z" />
    <glyph glyph-name="uniA7B6" unicode="&#xa7b6;" horiz-adv-x="1507" 
d="M31 0v197h301q-126 130 -197.5 295t-71.5 331q0 299 181 477q179 179 483 179q303 0 485 -179q179 -179 179 -477q0 -166 -71.5 -331t-197.5 -295h297v-197h-569v193q139 114 220 268.5t81 333.5q0 215 -113.5 337.5t-310.5 120.5q-197 0 -310.5 -121.5t-113.5 -336.5
q0 -356 301 -602v-193h-573z" />
    <glyph glyph-name="f_f" unicode="&#xfb00;" horiz-adv-x="1404" 
d="M135 0l117 852h-172l29 197h170l24 172q24 158 100.5 229.5t229.5 71.5h182l-29 -189h-108q-72 0 -105.5 -29t-44.5 -96l-22 -159h448l25 172q20 157 98 229t232 72h188l-27 -189h-116q-73 0 -107 -29t-45 -96l-22 -159h250l-27 -197h-250l-117 -852h-225l117 852h-449
l-119 -852h-225z" />
    <glyph glyph-name="fi" unicode="&#xfb01;" horiz-adv-x="1243" 
d="M135 0l117 852h-172l29 197h170l24 172q24 158 100.5 229.5t229.5 71.5h180l-27 -189h-108q-72 0 -105.5 -29t-44.5 -96l-22 -159h674l-144 -1049h-223l117 852h-451l-119 -852h-225zM971 1245l33 234h247l-32 -234h-248z" />
    <glyph glyph-name="fl" unicode="&#xfb02;" horiz-adv-x="1204" 
d="M135 0l117 852h-172l29 197h170l24 172q24 158 100.5 229.5t229.5 71.5h190l-28 -189h-117q-72 0 -105.5 -29t-44.5 -96l-22 -159h250l-29 -197h-248l-119 -852h-225zM776 0l209 1522h223l-209 -1522h-223z" />
    <glyph glyph-name="f_f_i" unicode="&#xfb03;" horiz-adv-x="1918" 
d="M135 0l117 852h-172l29 197h170l24 172q24 158 100.5 229.5t229.5 71.5h180l-27 -189h-108q-72 0 -105.5 -29t-44.5 -96l-22 -159h450l23 172q24 157 101.5 229t230.5 72h182l-27 -189h-112q-71 0 -105 -29t-45 -96l-22 -159h676l-146 -1049h-223l117 852h-451l-117 -852
h-225l117 852h-451l-119 -852h-225zM1649 1255l30 232h250l-33 -232h-247z" />
    <glyph glyph-name="null" horiz-adv-x="0" 
 />
    <glyph glyph-name="i.loclTRK" horiz-adv-x="491" 
d="M213 1229l33 233h248l-33 -233h-248zM59 0l148 1049h223l-145 -1049h-226z" />
    <glyph glyph-name="f_f_t" horiz-adv-x="2093" 
d="M135 0l117 852h-172l29 197h170l24 172q24 158 100.5 229.5t229.5 71.5h180l-27 -189h-108q-72 0 -105.5 -29t-44.5 -96l-22 -159h450l23 172q24 157 101.5 229t230.5 72h180l-29 -189h-108q-71 0 -105 -29t-45 -96l-22 -159h346q52 0 76.5 18t31.5 66l27 196h223
l-39 -280h244l-27 -197h-243l-72 -535q-11 -67 10 -92.5t88 -25.5h127l-28 -199h-185q-283 0 -239 299l75 553h-442l-117 -852h-225l117 852h-451l-119 -852h-225z" />
    <glyph glyph-name="f_t" horiz-adv-x="1415" 
d="M135 0l117 852h-172l29 197h170l24 172q24 158 100.5 229.5t229.5 71.5h180l-27 -189h-108q-72 0 -105.5 -29t-44.5 -96l-22 -159h346q51 0 75 18t31 66l27 196h225l-39 -280h242l-27 -197h-241l-74 -535q-11 -67 10.5 -92.5t89.5 -25.5h125l-26 -199h-185
q-282 0 -241 299l76 553h-441l-119 -852h-225z" />
    <glyph glyph-name="t_t" horiz-adv-x="1419" 
d="M403 0q-283 0 -239 299l76 553h-179l27 197h82q53 0 77.5 18t31.5 66l26 196h223l-39 -280h367q53 0 77 18t30 66l26 196h225l-38 -280h241l-26 -197h-242l-74 -535q-8 -68 13 -93t88 -25h124l-26 -199h-184q-283 0 -242 299l76 553h-461l-72 -535q-11 -67 10 -92.5
t88 -25.5h127l-28 -199h-185z" />
    <glyph glyph-name="zero.tf" horiz-adv-x="1331" 
d="M627 -20q-246 0 -382 170t-136 477q0 359 176 606q175 246 467 246q233 0 369 -174.5t136 -481.5q0 -361 -176 -602q-177 -241 -454 -241zM377 385l565 801q-76 104 -199 104q-187 0 -294 -186q-109 -189 -109 -467q0 -151 37 -252zM623 170q182 0 295 186
q110 183 110 465q0 131 -31 226l-559 -793q69 -84 185 -84z" />
    <glyph glyph-name="one.tf" horiz-adv-x="1331" 
d="M172 0l29 215h354l137 1012l-422 -164l31 225l424 170h223l-170 -1243h346l-30 -215h-922z" />
    <glyph glyph-name="two.tf" horiz-adv-x="1331" 
d="M84 0l29 205l616 495q140 113 195 188t55 163q0 101 -68 163t-182 62q-120 0 -200 -72.5t-99 -191.5h-221q27 225 178 346q148 121 361 121q205 0 333 -113q129 -114 129 -297q0 -141 -84 -254q-82 -109 -264 -256l-428 -346h651l-30 -213h-971z" />
    <glyph glyph-name="three.tf" horiz-adv-x="1331" 
d="M629 -20q-235 0 -373 129q-137 128 -113 337h222q-7 -130 63 -201t207 -71q136 0 219.5 71.5t83.5 192.5q0 98 -67.5 155.5t-190.5 57.5h-119l27 187h121q138 0 215 65.5t77 179.5q0 94 -67 148.5t-184 54.5q-132 0 -213 -73t-95 -199h-221q25 216 170.5 340.5
t382.5 124.5q199 0 332 -103q131 -101 131 -278q0 -129 -69 -223t-195 -132q94 -35 149.5 -118t55.5 -191q0 -209 -156 -332q-155 -122 -393 -122z" />
    <glyph glyph-name="four.tf" horiz-adv-x="1331" 
d="M737 0l39 285h-694l29 200l807 973h245l-129 -971h205l-29 -202h-204l-39 -285h-230zM350 487h455l86 650z" />
    <glyph glyph-name="five.tf" horiz-adv-x="1331" 
d="M610 -20q-205 0 -348 116t-143 324h221q-1 -110 76.5 -178t191.5 -68q143 0 236 100q94 101 94 254q0 129 -69.5 204t-188.5 75q-190 0 -291 -162h-219l258 813h811l-29 -198h-632l-115 -347q106 80 270 80q197 0 320 -123q123 -126 123 -338q0 -243 -160 -397
q-162 -155 -406 -155z" />
    <glyph glyph-name="six.tf" horiz-adv-x="1331" 
d="M635 -20q-222 0 -367 151q-146 152 -143 465q2 167 46 323.5t126 282.5q81 128 213 202.5t291 74.5q188 0 315 -100.5t150 -272.5h-222q-47 182 -249 182q-160 0 -265 -110t-147 -314q123 144 344 144q197 0 332 -129q132 -132 129 -353q-3 -237 -160 -391
q-155 -155 -393 -155zM627 174q149 0 243 107t97 254q2 130 -72 209t-201 79q-143 0 -243 -100t-103 -254q-1 -137 76 -216t203 -79z" />
    <glyph glyph-name="seven.tf" horiz-adv-x="1331" 
d="M256 0q86 303 279 645q193 341 423 612h-733l27 201h1003l-24 -186q-263 -278 -463 -621q-196 -341 -285 -651h-227z" />
    <glyph glyph-name="eight.tf" horiz-adv-x="1331" 
d="M623 -20q-236 0 -377 112q-148 112 -148 301q0 141 80.5 250t214.5 150q-143 85 -143 278q0 184 149 297q150 111 371 111q201 0 334 -103q131 -104 131 -276q0 -115 -64 -202.5t-167 -125.5q88 -42 141 -128.5t53 -199.5q0 -210 -162 -335q-164 -129 -413 -129zM721 862
q126 0 209.5 66.5t83.5 169.5q0 93 -71 149t-185 56q-125 0 -208 -67t-83 -169q0 -93 69 -149t185 -56zM631 172q150 0 244 74t94 192q0 110 -80.5 179t-218.5 69q-148 0 -244 -78q-98 -79 -98 -200q0 -108 83.5 -172t219.5 -64z" />
    <glyph glyph-name="nine.tf" horiz-adv-x="1331" 
d="M561 -20q-202 0 -327 101t-142 273h219q18 -90 85.5 -136t170.5 -46q156 0 265.5 115.5t132.5 306.5q-57 -64 -147 -102.5t-191 -38.5q-64 0 -126.5 14.5t-124 49.5t-108 86.5t-75.5 133t-29 181.5q0 245 158 403t391 158q223 0 368 -160q144 -159 144 -479
q0 -491 -293 -734q-156 -126 -371 -126zM670 637q137 0 231 94q96 93 96 242q0 137 -78.5 226t-205.5 89q-136 0 -230 -98q-96 -101 -96 -256q0 -142 80 -219.5t203 -77.5z" />
    <glyph glyph-name="zero.dnom" horiz-adv-x="735" 
d="M324 -10q-141 0 -221 90t-80 246q0 184 98 309q94 125 256 125q134 0 214.5 -92.5t80.5 -251.5q0 -182 -97 -305q-100 -121 -251 -121zM324 113q91 0 147.5 83.5t56.5 217.5q0 106 -40 163.5t-117 57.5q-95 0 -151 -83.5t-56 -215.5q0 -108 42 -165.5t118 -57.5z" />
    <glyph glyph-name="one.dnom" horiz-adv-x="548" 
d="M47 0l19 131h141l65 475l-176 -80l19 138l176 86h139l-84 -619h143l-20 -131h-422z" />
    <glyph glyph-name="two.dnom" horiz-adv-x="624" 
d="M-2 0l16 127l314 242q9 8 25 21.5t21 18t15 14t15 15t11.5 13.5t12.5 18q16 29 16 57q0 48 -29.5 77.5t-82.5 29.5q-56 0 -93.5 -35.5t-45.5 -91.5h-136q10 121 86.5 187.5t194.5 66.5q111 0 179.5 -61t68.5 -160q0 -74 -42 -132.5t-136 -130.5l-185 -145h303l-18 -131
h-510z" />
    <glyph glyph-name="three.dnom" horiz-adv-x="632" 
d="M276 -10q-125 0 -197 70t-59 182h138q-7 -61 25 -96t93 -35t100.5 31.5t39.5 84.5q0 44 -30.5 71.5t-84.5 27.5h-63l16 110h63q132 0 132 111q0 43 -29 67.5t-80 24.5q-63 0 -100.5 -35.5t-42.5 -95.5h-138q12 116 89.5 184t201.5 68q110 0 178 -55t68 -146
q0 -63 -34.5 -111t-94.5 -67q98 -40 98 -158q0 -107 -81.5 -170t-207.5 -63z" />
    <glyph glyph-name="four.dnom" horiz-adv-x="663" 
d="M313 0l19 139h-348l18 123l406 488h151l-65 -486h100l-19 -125h-100l-20 -139h-142zM143 264h207l39 287z" />
    <glyph glyph-name="five.dnom" horiz-adv-x="643" 
d="M268 -10q-114 0 -187.5 63.5t-72.5 175.5h135q-1 -54 34 -86t91 -32q64 0 107 45t43 116q0 60 -32.5 94.5t-88.5 34.5q-92 0 -135 -82h-133l137 431h430l-16 -123h-322l-49 -144q48 31 127 31q102 0 166.5 -65t64.5 -175q0 -126 -84.5 -205t-214.5 -79z" />
    <glyph glyph-name="six.dnom" horiz-adv-x="663" 
d="M299 -10q-131 0 -201.5 80.5t-70.5 242.5q0 183 92 316q88 131 252 131q102 0 168.5 -54t83.5 -149h-136q-21 84 -122 84q-149 0 -183 -186q57 63 160 63q105 0 174.5 -68t69.5 -178q0 -124 -84 -202q-83 -80 -203 -80zM295 109q66 0 110 46.5t44 114.5q0 61 -35 97
t-95 36q-64 0 -108.5 -44.5t-44.5 -112.5q0 -61 36 -99t93 -38z" />
    <glyph glyph-name="seven.dnom" horiz-adv-x="557" 
d="M45 0q85 311 342 627h-352l14 123h520l-14 -115q-277 -297 -371 -635h-139z" />
    <glyph glyph-name="eight.dnom" horiz-adv-x="655" 
d="M274 -10q-124 0 -199 59.5t-75 161.5q0 65 37 118.5t98 76.5q-69 51 -69 141q0 93 76 153t192 60q109 0 177.5 -55.5t68.5 -145.5q0 -55 -29 -98t-74 -64q94 -52 94 -166q0 -108 -83 -174.5t-214 -66.5zM315 451q56 0 92.5 29.5t36.5 76.5q0 43 -32.5 69.5t-83.5 26.5
q-56 0 -91.5 -30.5t-35.5 -77.5q0 -43 30.5 -68.5t83.5 -25.5zM279 106q67 0 109 34.5t42 88.5q0 50 -37 81.5t-98 31.5q-66 0 -109 -34.5t-43 -88.5q0 -51 37.5 -82t98.5 -31z" />
    <glyph glyph-name="nine.dnom" horiz-adv-x="673" 
d="M264 -10q-104 0 -175.5 56.5t-72.5 143.5h134q15 -81 118 -81q70 0 120.5 51.5t57.5 136.5q-60 -66 -165 -66q-88 0 -160 60q-74 59 -74 178q0 129 79 210t202 81q121 0 198.5 -86t77.5 -246q0 -186 -88 -311q-89 -127 -252 -127zM313 344q62 0 105 43.5t43 110.5
q0 61 -35 101t-94 40q-63 0 -106.5 -44.5t-43.5 -111.5q0 -66 37 -102.5t94 -36.5z" />
    <glyph glyph-name="zero.numr" horiz-adv-x="731" 
d="M418 700q-141 0 -221 90t-80 246q0 185 98 310q94 122 256 122q134 0 214.5 -92.5t80.5 -251.5q0 -181 -96 -303q-100 -121 -252 -121zM418 823q91 0 149 84t58 215q0 105 -41.5 164.5t-118.5 59.5q-95 0 -150 -83.5t-55 -215.5q0 -224 158 -224z" />
    <glyph glyph-name="one.numr" horiz-adv-x="548" 
d="M143 711l19 131h143l66 473l-174 -80l18 139l176 84h139l-84 -616h140l-19 -131h-424z" />
    <glyph glyph-name="two.numr" horiz-adv-x="624" 
d="M94 711l17 127l313 241q66 53 90.5 85t24.5 73q0 48 -29 76t-82 28q-56 0 -93.5 -34.5t-45.5 -92.5h-137q12 122 88 188t194 66q111 0 179.5 -60t68.5 -159q0 -74 -40.5 -130.5t-137.5 -133.5l-182 -143h301l-21 -131h-508z" />
    <glyph glyph-name="three.numr" horiz-adv-x="630" 
d="M373 700q-125 0 -196 70t-58 180h137q-7 -61 24.5 -96t92.5 -35q62 0 100.5 32t38.5 87q0 44 -30.5 70t-84.5 26h-63l18 111h64q62 0 95.5 29t33.5 83q0 42 -29.5 67.5t-79.5 25.5q-63 0 -100.5 -35.5t-42.5 -95.5h-135q11 116 87.5 182.5t203.5 66.5q110 0 177.5 -54
t67.5 -144q0 -63 -35.5 -111.5t-95.5 -68.5q99 -38 99 -156q0 -107 -81.5 -170.5t-207.5 -63.5z" />
    <glyph glyph-name="four.numr" horiz-adv-x="665" 
d="M412 715l18 139h-350l18 123l402 487h155l-65 -485h100l-18 -125h-99l-18 -139h-143zM258 979h188l39 276z" />
    <glyph glyph-name="five.numr" horiz-adv-x="643" 
d="M365 700q-113 0 -187.5 64t-73.5 176h136q-1 -54 34.5 -87.5t90.5 -33.5q64 0 107.5 45.5t43.5 116.5q0 60 -32.5 94.5t-88.5 34.5q-93 0 -137 -80h-133l137 428h430l-16 -121h-322l-49 -143q48 31 127 31q104 0 168 -64.5t64 -175.5q0 -126 -84.5 -205.5t-214.5 -79.5z
" />
    <glyph glyph-name="six.numr" horiz-adv-x="663" 
d="M393 700q-128 0 -199 80.5t-71 243.5q0 180 92 313q88 131 252 131q102 0 168.5 -53t83.5 -147h-137q-15 84 -123 84q-71 0 -118.5 -50t-61.5 -137q58 64 159 64q102 0 172 -69t70 -177q0 -123 -82 -203t-205 -80zM391 819q65 0 108.5 47t43.5 115q0 60 -35 96.5
t-92 36.5q-65 0 -110.5 -45t-45.5 -115q0 -61 36.5 -98t94.5 -37z" />
    <glyph glyph-name="seven.numr" horiz-adv-x="557" 
d="M141 715q84 312 342 626h-354l16 123h521l-15 -114q-282 -301 -370 -635h-140z" />
    <glyph glyph-name="eight.numr" horiz-adv-x="665" 
d="M369 700q-123 0 -198 58t-75 157q0 71 40 125.5t104 75.5q-68 41 -68 137q0 97 76.5 156t193.5 59q107 0 176.5 -54.5t69.5 -143.5q0 -59 -30 -101.5t-80 -62.5q88 -46 88 -166q0 -108 -83 -174t-214 -66zM420 1161q55 0 93 31t38 76q0 42 -32 68t-83 26q-57 0 -94 -31
t-37 -78q0 -41 32 -66.5t83 -25.5zM375 817q68 0 109.5 34t41.5 89q0 50 -37 81.5t-98 31.5q-66 0 -109.5 -36t-43.5 -91q0 -49 37.5 -79t99.5 -30z" />
    <glyph glyph-name="nine.numr" horiz-adv-x="673" 
d="M362 700q-104 0 -175 57t-72 144h133q12 -82 117 -82q72 0 121.5 51.5t56.5 137.5q-62 -68 -164 -68q-89 0 -162 61q-74 59 -74 177q0 128 79.5 209t203.5 81q121 0 198.5 -86t77.5 -245q0 -185 -88 -310q-89 -127 -252 -127zM412 1055q63 0 105 43t42 110
q0 61 -36 101.5t-95 40.5q-62 0 -104.5 -44.5t-42.5 -111.5q0 -66 37 -102.5t94 -36.5z" />
    <glyph glyph-name="brevecomb_acutecomb" horiz-adv-x="0" 
d="M-961 1589l191 260h195l-222 -260h-164zM-893 1255q-118 0 -180 71.5t-43 191.5h143q-9 -58 16.5 -90.5t84.5 -32.5q56 0 91.5 33t41.5 90h141q-15 -120 -96.5 -191.5t-198.5 -71.5z" />
    <glyph glyph-name="brevecomb_gravecomb" horiz-adv-x="0" 
d="M-991 1585l-146 260h193l119 -260h-166zM-893 1255q-118 0 -180 71.5t-43 191.5h143q-9 -58 16.5 -90.5t84.5 -32.5q56 0 91.5 33t41.5 90h141q-15 -120 -96.5 -191.5t-198.5 -71.5z" />
    <glyph glyph-name="brevecomb_hookabovecomb" horiz-adv-x="0" 
d="M-899 1550l-47 58l17.5 14t16.5 13.5t14 11.5t13.5 12t10.5 10.5t10 10.5t7.5 9.5t6.5 10.5l4 10q13 32 3.5 53t-48.5 21q-21 0 -52 -10.5t-48 -20.5l-37 102q44 26 95.5 43t84.5 17q79 0 125 -41.5t37 -108.5q-9 -64 -64.5 -119.5t-148.5 -95.5zM-893 1255
q-118 0 -180 71.5t-43 191.5h143q-9 -58 16.5 -90.5t84.5 -32.5q56 0 91.5 33t41.5 90h141q-15 -120 -96.5 -191.5t-198.5 -71.5z" />
    <glyph glyph-name="brevecomb_tildecomb" horiz-adv-x="0" 
d="M-760 1612q-67 0 -133 41q-65 39 -102 39q-29 0 -49.5 -20t-26.5 -54h-119q12 102 63 160.5t132 58.5q67 0 135 -39q64 -41 100 -41q66 0 78 74h117q-12 -105 -62.5 -162t-132.5 -57zM-893 1255q-118 0 -180 71.5t-43 191.5h143q-9 -58 16.5 -90.5t84.5 -32.5
q56 0 91.5 33t41.5 90h141q-15 -120 -96.5 -191.5t-198.5 -71.5z" />
    <glyph glyph-name="circumflexcomb_acutecomb" horiz-adv-x="0" 
d="M-526 1421l190 260h195l-221 -260h-164zM-1133 1257l230 261h176l156 -261h-185l-80 136l-116 -136h-181z" />
    <glyph glyph-name="circumflexcomb_gravecomb" horiz-adv-x="0" 
d="M-549 1425l-145 261h192l119 -261h-166zM-1133 1257l230 261h176l156 -261h-185l-80 136l-116 -136h-181z" />
    <glyph glyph-name="circumflexcomb_hookabovecomb" horiz-adv-x="0" 
d="M-494 1403l-47 57q5 4 16 13t15 12.5t13 10.5t12.5 10.5t10.5 10t10 10t8 9t7.5 9.5t5 8.5t3.5 9.5q13 32 3.5 52.5t-48.5 20.5q-22 0 -53 -10t-48 -20l-37 102q43 26 95.5 42.5t85.5 16.5q79 0 124.5 -41t36.5 -108q-9 -64 -64.5 -119.5t-148.5 -95.5zM-1133 1257
l230 261h176l156 -261h-185l-80 136l-116 -136h-181z" />
    <glyph glyph-name="circumflexcomb_tildecomb" horiz-adv-x="0" 
d="M-719 1593q-67 0 -133 41q-65 39 -102 39q-29 0 -49.5 -20t-26.5 -54h-119q12 103 63 161.5t132 58.5q67 0 135 -39q64 -41 100 -41q66 0 78 73h117q-12 -105 -62.5 -162t-132.5 -57zM-1133 1257l230 261h176l156 -261h-185l-80 136l-116 -136h-181z" />
    </font>
</defs>
</svg>
