<?xml version="1.0" standalone="no"?>
<!DOCTYPE svg PUBLIC "-//W3C//DTD SVG 1.1//EN" "http://www.w3.org/Graphics/SVG/1.1/DTD/svg11.dtd" >
<svg xmlns="http://www.w3.org/2000/svg" xmlns:xlink="http://www.w3.org/1999/xlink" version="1.1">
<metadata>
Created by FontForge 20170731 at Fri Dec 30 18:41:06 2022
 By Aleksey,,,
Copyright 2017 Fontstore Pte Ltd. All rights reserved.
</metadata>
<defs>
<font id="NeurialGrotesk-BoldItalic" horiz-adv-x="1193" >
  <font-face 
    font-family="Neurial Grotesk Bold"
    font-weight="400"
    font-style="italic"
    font-stretch="normal"
    units-per-em="2048"
    panose-1="0 0 8 0 0 0 0 0 0 0"
    ascent="1599"
    descent="-449"
    x-height="1065"
    cap-height="1475"
    bbox="-1399 -516 3566 2308"
    underline-thickness="163"
    underline-position="-562"
    slope="-7.95"
    unicode-range="U+0020-FB03"
  />
<missing-glyph horiz-adv-x="1206" 
d="M6 0l205 1448h1038l-205 -1448h-1038z" />
    <glyph glyph-name=".notdef" horiz-adv-x="1206" 
d="M6 0l205 1448h1038l-205 -1448h-1038z" />
    <glyph glyph-name=".null" horiz-adv-x="0" 
 />
    <glyph glyph-name="nonmarkingreturn" horiz-adv-x="681" 
 />
    <glyph glyph-name="space" unicode=" " horiz-adv-x="378" 
 />
    <glyph glyph-name="exclam" unicode="!" horiz-adv-x="577" 
d="M178 467q3 274 51 606l56 402h268l-55 -402q-44 -314 -119 -606h-201zM43 0l49 342h340l-47 -342h-342z" />
    <glyph glyph-name="quotedbl" unicode="&#x22;" horiz-adv-x="903" 
d="M242 887q-19 167 20 473l17 115h256l-17 -115q-50 -340 -98 -473h-178zM625 887q-18 177 22 473l15 115h256l-17 -115q-50 -348 -98 -473h-178z" />
    <glyph glyph-name="numbersign" unicode="#" horiz-adv-x="1323" 
d="M80 0l133 375h-188l79 233h191l90 254h-197l78 232h199l135 381h250l-133 -381h198l136 381h252l-136 -381h189l-78 -232h-193l-90 -254h197l-80 -233h-199l-133 -375h-250l132 375h-199l-133 -375h-250zM545 608h200l91 254h-201z" />
    <glyph glyph-name="dollar" unicode="$" horiz-adv-x="1308" 
d="M459 -180l24 174q-194 33 -298.5 151.5t-84.5 288.5h273q-11 -96 56 -152.5t214 -56.5q124 0 202.5 50t78.5 135q0 67 -40.5 106t-140.5 68l-178 49q-173 47 -263.5 138.5t-90.5 246.5q0 185 129 317t354 156l23 164h223l-25 -170q191 -31 287.5 -147.5t73.5 -293.5h-266
q12 103 -51.5 156t-188.5 53q-123 0 -190.5 -54.5t-67.5 -137.5q0 -65 52 -106t159 -68l158 -43q340 -94 340 -383q0 -200 -144 -326q-146 -128 -370 -149l-23 -166h-225z" />
    <glyph glyph-name="percent" unicode="%" horiz-adv-x="1982" 
d="M492 666q-145 0 -242 100q-98 101 -98 281q0 189 104 317q105 129 276 129q154 0 248 -104t94 -279q0 -193 -108 -319q-107 -125 -274 -125zM336 0l1126 1475h252l-1126 -1475h-252zM498 872q69 0 107 69t38 171q0 174 -113 174q-70 0 -108.5 -67.5t-38.5 -171.5
q0 -175 115 -175zM1503 -20q-144 0 -241 100q-99 102 -99 278q0 189 107 320q105 129 276 129q154 0 248 -104t94 -281q0 -192 -108 -318q-109 -124 -277 -124zM1509 186q69 0 107.5 69t38.5 171q0 172 -113 172q-69 0 -108 -68t-39 -170q0 -174 114 -174z" />
    <glyph glyph-name="ampersand" unicode="&#x26;" horiz-adv-x="1521" 
d="M563 -20q-216 0 -346.5 99.5t-130.5 280.5q0 259 328 428l32 17q-116 162 -116 301q0 168 121 280q121 109 311 109q182 0 292.5 -95t110.5 -245q0 -210 -266 -356l-76 -41l215 -283q102 138 129 320h238q-40 -296 -225 -502q46 -49 139 -49h108l-34 -244h-156
q-99 0 -157.5 23t-108.5 79q-174 -122 -408 -122zM705 913l53 33q151 95 151 197q0 63 -41 102t-108 39q-72 0 -118 -45t-46 -113t74 -168zM600 207q123 0 238 74l-271 362l-20 -12q-168 -94 -168 -230q0 -94 60 -144t161 -50z" />
    <glyph glyph-name="quotesingle" unicode="'" horiz-adv-x="524" 
d="M248 889q-22 181 18 448l19 138h256l-19 -138q-46 -322 -96 -448h-178z" />
    <glyph glyph-name="parenleft" unicode="(" horiz-adv-x="645" 
d="M276 -215q-172 331 -172 745q0 319 125 633q121 312 320 514h239q-174 -227 -280 -532q-111 -311 -111 -598q3 -415 115 -762h-236z" />
    <glyph glyph-name="parenright" unicode=")" horiz-adv-x="647" 
d="M-86 -215q173 207 281 522q106 311 106 625q0 499 -123 745h240q107 -186 151 -446q41 -260 11 -510q-59 -561 -428 -936h-238z" />
    <glyph glyph-name="asterisk" unicode="*" horiz-adv-x="845" 
d="M360 817l-127 92l101 129q52 67 84 86q-36 0 -119 25l-152 53l52 141l149 -51q65 -20 105 -47q-13 67 -13 113v162h152v-162q0 -76 -12 -113q44 31 104 51l152 50l49 -146l-152 -51q-80 -25 -117 -25q40 -27 84 -86l97 -129l-123 -92l-94 129q-42 51 -64 109
q-14 -44 -61 -109z" />
    <glyph glyph-name="plus" unicode="+" horiz-adv-x="1226" 
d="M436 182l51 357h-354l37 258h352l51 356h256l-49 -356h353l-37 -258h-353l-49 -357h-258z" />
    <glyph glyph-name="comma" unicode="," horiz-adv-x="532" 
d="M27 -246l157 246h-161l47 334h342l-47 -334l-175 -246h-163z" />
    <glyph glyph-name="hyphen" unicode="-" horiz-adv-x="882" 
d="M86 477l35 260h696l-35 -260h-696z" />
    <glyph glyph-name="period" unicode="." horiz-adv-x="530" 
d="M20 0l48 334h342l-48 -334h-342z" />
    <glyph glyph-name="slash" unicode="/" horiz-adv-x="794" 
d="M-70 0l734 1475h256l-734 -1475h-256z" />
    <glyph glyph-name="zero" unicode="0" horiz-adv-x="1431" 
d="M688 -20q-277 0 -430 176q-156 176 -156 477q0 361 195 612q194 250 512 250q264 0 420 -178q157 -180 157 -490q0 -367 -194 -608q-196 -239 -504 -239zM692 231q175 0 289 164q113 162 113 422q0 201 -77.5 313.5t-223.5 112.5q-184 0 -291 -168q-109 -171 -109 -422
q0 -206 77.5 -314t221.5 -108z" />
    <glyph glyph-name="one" unicode="1" horiz-adv-x="798" 
d="M279 0l163 1184l-342 -158l39 283l342 166h287l-205 -1475h-284z" />
    <glyph glyph-name="two" unicode="2" horiz-adv-x="1175" 
d="M6 0l37 260l612 469q70 54 121 102q33 28 72 91q31 54 31 110q0 92 -59.5 147.5t-162.5 55.5q-107 0 -175.5 -66.5t-86.5 -179.5h-276q24 244 178 377q153 129 381 129q222 0 356 -119q135 -120 135 -319q0 -153 -90 -269q-93 -116 -270 -247l-354 -273h596l-37 -268
h-1008z" />
    <glyph glyph-name="three" unicode="3" horiz-adv-x="1218" 
d="M586 -20q-246 0 -391 139q-142 136 -115 360h278q-13 -121 50 -187.5t182 -66.5q112 0 185 61.5t73 162.5q0 84 -57.5 135t-163.5 51h-125l30 225h132q121 0 185 55t64 156q0 82 -59 131t-158 49q-116 0 -186.5 -68t-81.5 -186h-274q23 229 175.5 363.5t397.5 134.5
q213 0 352 -109q135 -108 135 -290q0 -129 -68 -222.5t-185 -128.5q91 -37 141.5 -118t50.5 -191q0 -214 -164 -334q-162 -122 -403 -122z" />
    <glyph glyph-name="four" unicode="4" horiz-adv-x="1253" 
d="M651 0l37 270h-682l37 252l797 953h307l-129 -953h194l-36 -252h-195l-37 -270h-293zM334 522h391l74 547z" />
    <glyph glyph-name="five" unicode="5" horiz-adv-x="1226" 
d="M571 -20q-220 0 -368 124q-152 128 -146 353h275q-1 -103 67 -167.5t172 -64.5q122 0 205 86q84 87 84 224q0 115 -62.5 182t-168.5 67q-92 0 -159 -44t-105 -115h-269l271 850h852l-33 -248h-631l-92 -273q92 62 248 62q198 0 325 -127t127 -346q0 -250 -166 -406
q-171 -157 -426 -157z" />
    <glyph glyph-name="six" unicode="6" horiz-adv-x="1265" 
d="M641 -18q-243 0 -391 161q-151 160 -148 475q5 240 83 432.5t233 317.5q157 127 370 127q198 0 332 -108t160 -291h-274q-37 159 -230 159q-134 0 -224 -89t-126 -251q114 105 299 105q205 0 344 -133q137 -131 131 -363q-6 -240 -166 -391t-393 -151zM625 223
q127 0 211 90q83 89 86 219q2 117 -64 188t-178 71q-121 0 -211 -84q-87 -84 -90 -220q-1 -120 67 -192t179 -72z" />
    <glyph glyph-name="seven" unicode="7" horiz-adv-x="1075" 
d="M127 0q76 291 258 614q176 314 416 611h-695l35 250h1033l-31 -232q-274 -293 -457 -610q-189 -325 -272 -633h-287z" />
    <glyph glyph-name="eight" unicode="8" horiz-adv-x="1280" 
d="M616 -18q-239 0 -389 114q-149 113 -149 314q0 139 76 246t200 145q-129 89 -129 270q0 191 154 309q154 115 383 115q209 0 344 -106q137 -107 137 -289q0 -113 -59.5 -198.5t-153.5 -123.5q78 -40 126 -124t48 -193q0 -214 -164 -346q-168 -133 -424 -133zM715 891
q107 0 178.5 58.5t71.5 148.5q0 81 -60 130.5t-157 49.5q-108 0 -178 -59.5t-70 -147.5q0 -82 59 -131t156 -49zM629 221q127 0 206.5 65.5t79.5 168.5q0 97 -70 157t-186 60q-127 0 -208.5 -68.5t-81.5 -173.5q0 -96 71 -152.5t189 -56.5z" />
    <glyph glyph-name="nine" unicode="9" horiz-adv-x="1275" 
d="M551 -18q-214 0 -347 109t-147 290h273q12 -79 73.5 -119.5t153.5 -40.5q130 0 224 90t118 248q-119 -104 -293 -104q-64 0 -127 14.5t-126.5 50t-111.5 87.5t-78 134.5t-30 184.5q0 255 164 411q166 158 401 158q83 0 158.5 -21t145 -70t119.5 -122.5t80 -185.5t30 -252
q0 -136 -26.5 -261t-82 -235t-134.5 -191t-191.5 -128t-245.5 -47zM666 684q120 0 202 82q84 84 84 213q0 119 -72 196.5t-182 77.5q-119 0 -202 -86q-82 -85 -82 -219q0 -121 72 -192.5t180 -71.5z" />
    <glyph glyph-name="colon" unicode=":" horiz-adv-x="532" 
d="M123 729l47 336h342l-47 -336h-342zM20 0l48 334h342l-48 -334h-342z" />
    <glyph glyph-name="semicolon" unicode=";" horiz-adv-x="516" 
d="M106 729l48 334h342l-47 -334h-343zM27 -246l157 246h-161l47 334h342l-47 -334l-175 -246h-163z" />
    <glyph glyph-name="less" unicode="&#x3c;" horiz-adv-x="1228" 
d="M995 131l-821 365l47 340l922 364l-39 -293l-678 -252l610 -239z" />
    <glyph glyph-name="equal" unicode="=" horiz-adv-x="1228" 
d="M223 791l31 235h858l-33 -235h-856zM158 326l30 237h859l-33 -237h-856z" />
    <glyph glyph-name="greater" unicode="&#x3e;" horiz-adv-x="1228" 
d="M123 131l41 293l676 254l-609 246l39 276l824 -362l-50 -340z" />
    <glyph glyph-name="question" unicode="?" horiz-adv-x="1093" 
d="M352 467q1 44 12.5 85t26 72.5t41.5 64.5t47 54t55.5 48.5t54 40.5t54.5 38q152 103 152 215q0 77 -46.5 119.5t-125.5 42.5q-97 0 -152.5 -58.5t-60.5 -158.5h-285q9 207 147 336t375 129q214 0 338 -106q123 -108 123 -275q0 -59 -19 -111.5t-47 -90.5t-71.5 -75
t-80 -61.5t-84.5 -54.5q-14 -8 -20 -12q-176 -109 -184 -242h-250zM242 0l45 334h342l-45 -334h-342z" />
    <glyph glyph-name="at" unicode="@" horiz-adv-x="1847" 
d="M866 -168q-365 0 -577 209q-215 206 -215 549q0 383 260 643q257 260 663 260q351 0 584 -199q234 -200 234 -520q0 -258 -127 -418q-129 -159 -314 -159q-115 0 -185 50.5t-71 141.5q-39 -61 -112 -102t-162 -41q-148 0 -242 102q-98 101 -98 277q0 195 119 338t307 143
q208 0 272 -162l31 107h147l-112 -543q-18 -85 15.5 -128.5t107.5 -43.5q98 0 174 119q73 116 73 319q0 265 -174 420q-178 158 -460 158q-336 0 -543 -213q-209 -212 -209 -545q0 -289 163 -454t455 -165q209 0 371 76l51 -127q-176 -92 -426 -92zM862 399q193 -12 254 252
q34 142 -13.5 227t-148.5 85q-116 0 -184 -105q-68 -109 -68 -235q0 -99 43 -159t117 -65z" />
    <glyph glyph-name="A" unicode="A" horiz-adv-x="1437" 
d="M-55 0l766 1475h284l351 -1475h-306l-67 309h-555l-158 -309h-315zM532 532h392l-117 539z" />
    <glyph glyph-name="B" unicode="B" horiz-adv-x="1376" 
d="M63 0l203 1475h617q212 0 334 -100.5t122 -264.5q0 -118 -58 -213.5t-175 -136.5q91 -35 139.5 -113t48.5 -184q0 -209 -145 -336q-148 -127 -383 -127h-703zM473 856h324q114 0 174.5 55t60.5 150q0 75 -49.5 118.5t-144.5 43.5h-316zM391 252h344q119 0 186.5 55.5
t67.5 153.5q0 78 -51 121t-143 43h-355z" />
    <glyph glyph-name="C" unicode="C" horiz-adv-x="1523" 
d="M754 -18q-301 0 -482 178q-182 176 -182 489q0 355 227 600q229 244 590 244q257 0 428 -139q172 -143 193 -373h-311q-24 117 -113.5 181.5t-220.5 64.5q-214 0 -351 -158q-135 -159 -135 -403q0 -195 98 -305.5t269 -110.5q275 0 389 246h322q-75 -244 -265.5 -379
t-455.5 -135z" />
    <glyph glyph-name="D" unicode="D" horiz-adv-x="1492" 
d="M63 0l203 1475h506q310 0 498 -185t188 -495q0 -359 -233 -576q-239 -219 -631 -219h-531zM391 258h187q272 0 421.5 142t149.5 391q0 208 -111 317t-315 109h-201z" />
    <glyph glyph-name="E" unicode="E" horiz-adv-x="1216" 
d="M63 0l203 1475h979l-35 -258h-686l-49 -351h510l-35 -252h-510l-51 -356h727l-37 -258h-1016z" />
    <glyph glyph-name="F" unicode="F" horiz-adv-x="1175" 
d="M63 0l203 1475h985l-34 -258h-693l-51 -365h571l-34 -252h-572l-84 -600h-291z" />
    <glyph glyph-name="G" unicode="G" horiz-adv-x="1601" 
d="M707 -20q-268 0 -443 172q-176 173 -176 481q0 358 231 610t580 252q263 0 438 -135q174 -137 201 -361h-311q-30 113 -119 170.5t-217 57.5q-210 0 -352 -154t-142 -405q0 -197 101 -309.5t272 -112.5q144 0 268 71q119 70 154 226q0 4 2 16.5t4.5 27t3.5 19.5h-436
l35 240h727l-119 -846h-244l4 156q-182 -176 -462 -176z" />
    <glyph glyph-name="H" unicode="H" horiz-adv-x="1490" 
d="M63 0l203 1475h293l-80 -590h633l80 590h293l-203 -1475h-293l86 618h-635l-86 -618h-291z" />
    <glyph glyph-name="I" unicode="I" horiz-adv-x="565" 
d="M63 0l203 1475h293l-205 -1475h-291z" />
    <glyph glyph-name="J" unicode="J" horiz-adv-x="1187" 
d="M537 -20q-230 0 -361 131q-132 129 -98 366h284q-27 -231 191 -231q210 0 240 219l137 1010h293l-138 -1012q-32 -230 -178.5 -356.5t-369.5 -126.5z" />
    <glyph glyph-name="K" unicode="K" horiz-adv-x="1431" 
d="M63 0l203 1475h293l-92 -674l688 674h377l-655 -646l444 -829h-348l-320 614l-245 -239l-54 -375h-291z" />
    <glyph glyph-name="L" unicode="L" horiz-adv-x="1165" 
d="M63 0l203 1475h293l-166 -1207h690l-36 -268h-984z" />
    <glyph glyph-name="M" unicode="M" horiz-adv-x="1828" 
d="M63 0l203 1475h359l260 -1153l581 1153h357l-203 -1475h-289l76 545q44 308 84 463l-514 -1008h-270l-230 1047q-3 -202 -51 -502l-76 -545h-287z" />
    <glyph glyph-name="N" unicode="N" horiz-adv-x="1478" 
d="M63 0l203 1475h297l479 -1004l138 1004h290l-202 -1475h-297l-482 981l-135 -981h-291z" />
    <glyph glyph-name="O" unicode="O" horiz-adv-x="1585" 
d="M764 -4q-292 0 -481 186q-191 185 -191 502q0 350 232 582q229 229 550 229q295 0 484 -186q190 -187 190 -508q0 -348 -231 -576q-229 -229 -553 -229zM768 268q190 0 328 156q137 155 137 383q0 197 -103 306.5t-268 109.5q-188 0 -321 -154q-135 -156 -135 -387
q0 -194 99.5 -304t262.5 -110z" />
    <glyph glyph-name="P" unicode="P" horiz-adv-x="1341" 
d="M63 0l203 1475h592q218 0 350 -123q133 -127 133 -332q0 -235 -167 -377q-171 -145 -424 -145h-320l-70 -498h-297zM465 750h254q142 0 225.5 71.5t83.5 190.5q0 99 -60.5 152t-176.5 53h-261z" />
    <glyph glyph-name="Q" unicode="Q" horiz-adv-x="1640" 
d="M764 -4q-292 0 -481 186q-191 185 -191 502q0 350 232 582q229 229 550 229q295 0 484 -186q190 -187 190 -508q0 -299 -178 -516q21 -25 44 -34t73 -9h69l-32 -242h-168q-127 0 -203 98q-181 -102 -389 -102zM768 268q113 0 211 58l-16 20q-31 39 -55 50.5t-74 11.5
h-105l33 235h168q74 0 120.5 -19.5t94.5 -74.5l20 -25q68 130 68 283q0 197 -103 306.5t-268 109.5q-188 0 -321 -154q-135 -156 -135 -387q0 -194 99.5 -304t262.5 -110z" />
    <glyph glyph-name="R" unicode="R" horiz-adv-x="1390" 
d="M63 0l203 1475h617q232 0 363.5 -122t131.5 -333q0 -182 -99.5 -308t-270.5 -177l196 -535h-327l-172 496h-281l-70 -496h-291zM457 743h301q146 0 227.5 70.5t81.5 194.5q0 209 -225 209h-318z" />
    <glyph glyph-name="S" unicode="S" horiz-adv-x="1308" 
d="M621 -20q-262 0 -416 124t-133 330h286q-11 -97 64.5 -153t216.5 -56q139 0 220 55t81 148q0 65 -42.5 103.5t-137.5 62.5l-203 49q-379 95 -379 389q0 202 156 334q156 129 438 129q88 0 165.5 -14t148.5 -47.5t121 -83.5t77.5 -127.5t22.5 -175.5h-283q12 102 -57 155
t-201 53q-130 0 -204.5 -51.5t-74.5 -138.5q0 -63 46.5 -103.5t152.5 -64.5l207 -49q358 -82 358 -393q0 -225 -182 -351q-182 -124 -448 -124z" />
    <glyph glyph-name="T" unicode="T" horiz-adv-x="1300" 
d="M426 0l172 1217h-461l35 258h1214l-34 -258h-461l-172 -1217h-293z" />
    <glyph glyph-name="U" unicode="U" horiz-adv-x="1454" 
d="M727 -20q-284 0 -440 170q-159 170 -119 471l119 854h297l-125 -900q-23 -158 53.5 -248.5t220.5 -90.5q143 0 235.5 82t112.5 235l127 922h297l-129 -930q-37 -271 -203 -418t-446 -147z" />
    <glyph glyph-name="V" unicode="V" horiz-adv-x="1484" 
d="M494 0l-351 1475h324l242 -1123l544 1123h349l-758 -1475h-350z" />
    <glyph glyph-name="W" unicode="W" horiz-adv-x="2152" 
d="M338 0l-180 1475h321l94 -1078l459 1078h352l107 -1078l436 1078h326l-625 -1475h-344l-135 1090l-467 -1090h-344z" />
    <glyph glyph-name="X" unicode="X" horiz-adv-x="1458" 
d="M-41 0l573 748l-362 727h350l254 -537l410 537h356l-569 -732l379 -743h-351l-274 537l-410 -537h-356z" />
    <glyph glyph-name="Y" unicode="Y" horiz-adv-x="1417" 
d="M477 0l72 522l-412 953h332l258 -644l453 644h358l-696 -953l-74 -522h-291z" />
    <glyph glyph-name="Z" unicode="Z" horiz-adv-x="1247" 
d="M4 0l33 225l862 992h-717l39 258h1082l-33 -226l-856 -991h725l-35 -258h-1100z" />
    <glyph glyph-name="bracketleft" unicode="[" horiz-adv-x="679" 
d="M27 -233l272 1941h483l-30 -231h-246l-207 -1481h244l-33 -229h-483z" />
    <glyph glyph-name="backslash" unicode="\" horiz-adv-x="1171" 
d="M807 0l-666 1522h285l668 -1522h-287z" />
    <glyph glyph-name="bracketright" unicode="]" horiz-adv-x="679" 
d="M-49 -233l33 229h241l209 1481h-241l30 231h486l-273 -1941h-485z" />
    <glyph glyph-name="asciicircum" unicode="^" horiz-adv-x="1228" 
d="M285 958l358 517h207l209 -517h-256l-92 240l-166 -240h-260z" />
    <glyph glyph-name="underscore" unicode="_" horiz-adv-x="1089" 
d="M-111 -272l35 258h1090l-37 -258h-1088z" />
    <glyph glyph-name="grave" unicode="`" horiz-adv-x="522" 
d="M397 1288l-254 309h246l225 -309h-217z" />
    <glyph glyph-name="a" unicode="a" 
d="M395 -20q-167 0 -262.5 79t-95.5 224q0 154 111 249t315 95h307l6 47q12 88 -33 136t-141 48q-91 0 -149 -42.5t-70 -115.5h-258q25 179 159 282t343 103q184 0 315 -90q70 -49 102 -139.5t15 -208.5l-51 -377q-9 -61 47 -61h49l-31 -209h-160q-161 0 -170 127
q-111 -147 -348 -147zM498 205q99 0 163 50.5t76 137.5l6 47h-243q-162 0 -162 -125q0 -110 160 -110z" />
    <glyph glyph-name="b" unicode="b" horiz-adv-x="1333" 
d="M698 -20q-115 0 -208.5 41.5t-143.5 113.5l-35 -135h-266l211 1538h291l-80 -577q118 124 330 124q199 0 331 -135q129 -135 129 -375q0 -279 -167 -436q-170 -159 -392 -159zM657 236q126 0 215 92t89 237q0 120 -67.5 192t-174.5 72q-133 0 -221 -94q-90 -96 -90 -237
q0 -120 68.5 -191t180.5 -71z" />
    <glyph glyph-name="c" unicode="c" 
d="M567 -20q-223 0 -356 133q-135 132 -135 364q0 265 170 438q170 170 420 170q213 0 348 -114t141 -320h-303q-4 88 -60.5 138.5t-140.5 50.5q-121 0 -200 -101q-82 -101 -82 -256q0 -126 59.5 -190t157.5 -64q81 0 143.5 49.5t91.5 141.5h305q-41 -203 -191.5 -321.5
t-367.5 -118.5z" />
    <glyph glyph-name="d" unicode="d" horiz-adv-x="1327" 
d="M524 -20q-165 0 -295 104q-71 55 -112 157t-41 234q0 279 160 447q159 163 399 163q233 0 344 -153l84 606h285l-211 -1538h-267l2 109q-129 -129 -348 -129zM621 236q129 0 217 94q88 91 88 237q0 122 -69.5 192t-178.5 70q-123 0 -213 -90q-90 -93 -90 -239
q0 -124 69 -194t177 -70z" />
    <glyph glyph-name="e" unicode="e" horiz-adv-x="1226" 
d="M578 -23q-210 0 -351 132q-142 130 -145 372q-3 266 168 437q167 167 418 167q222 0 354 -129t135 -338q3 -86 -18 -163h-789q9 -246 238 -246q176 0 241 139h289q-54 -172 -197.5 -271.5t-342.5 -99.5zM373 643h510q-9 219 -236 219q-97 0 -170 -56t-104 -163z" />
    <glyph glyph-name="f" unicode="f" horiz-adv-x="774" 
d="M125 0l113 815h-164l32 250h166l19 131q25 181 108 261.5t258 80.5h213l-32 -235h-115q-71 0 -104 -29t-44 -96l-16 -113h244l-35 -250h-244l-112 -815h-287z" />
    <glyph glyph-name="g" unicode="g" horiz-adv-x="1280" 
d="M530 -430q-225 0 -360 106q-142 109 -145 279h276q10 -71 73.5 -111.5t162.5 -40.5q240 0 274 228l14 98q-110 -104 -290 -104q-207 0 -332 129.5t-125 355.5q0 249 151 414q148 161 377 161q111 0 200 -40.5t132 -108.5l39 129h260l-141 -1010q-34 -245 -182 -365
t-384 -120zM604 274q119 0 201 88t82 222q0 114 -63.5 180.5t-168.5 66.5q-122 0 -200 -90q-80 -92 -80 -223q0 -117 64 -180.5t165 -63.5z" />
    <glyph glyph-name="h" unicode="h" horiz-adv-x="1261" 
d="M45 0l213 1538h289l-82 -584q107 131 326 131q202 0 302.5 -133.5t69.5 -359.5l-84 -592h-286l71 561q19 135 -31 200.5t-149 65.5q-113 0 -183 -71t-89 -197l-80 -559h-287z" />
    <glyph glyph-name="i" unicode="i" horiz-adv-x="526" 
d="M211 1229l39 276h291l-37 -276h-293zM45 0l148 1065h286l-147 -1065h-287z" />
    <glyph glyph-name="j" unicode="j" horiz-adv-x="546" 
d="M233 1229l39 276h291l-37 -276h-293zM-186 -410l34 252h91q61 0 86.5 21.5t33.5 77.5l154 1124h289l-160 -1167q-23 -166 -110 -237t-269 -71h-149z" />
    <glyph glyph-name="k" unicode="k" horiz-adv-x="1183" 
d="M45 0l213 1538h289l-125 -903l467 430h350l-524 -483l358 -582h-323l-240 403l-135 -120l-41 -283h-289z" />
    <glyph glyph-name="l" unicode="l" horiz-adv-x="526" 
d="M45 0l213 1538h289l-215 -1538h-287z" />
    <glyph glyph-name="m" unicode="m" horiz-adv-x="1861" 
d="M1399 -2l82 600q34 233 -160 233q-90 0 -152 -58.5t-82 -168.5l-83 -604h-277l80 584q34 247 -158 247q-96 0 -158 -60.5t-75 -174.5l-84 -596h-287l148 1065h268l12 -119q109 139 299 139q108 0 188 -48t115 -138q59 90 151 138t199 48q191 0 283.5 -127.5t63.5 -343.5
l-84 -616h-289z" />
    <glyph glyph-name="n" unicode="n" horiz-adv-x="1251" 
d="M45 0l148 1065h266v-127q56 68 147 107.5t195 39.5q189 0 288.5 -128.5t67.5 -356.5l-84 -600h-287l80 578q18 131 -31 196.5t-149 65.5q-112 0 -184.5 -73.5t-91.5 -207.5l-78 -559h-287z" />
    <glyph glyph-name="o" unicode="o" horiz-adv-x="1259" 
d="M588 -20q-222 0 -365 137q-147 138 -147 368q0 262 174 433q172 169 426 169q207 0 358 -139q148 -142 148 -383q0 -253 -170 -420q-168 -165 -424 -165zM596 223q128 0 213 99q86 95 86 247q0 131 -67 203t-173 72q-127 0 -209 -101q-86 -103 -86 -251q0 -131 64 -200
t172 -69z" />
    <glyph glyph-name="p" unicode="p" horiz-adv-x="1337" 
d="M-10 -410l205 1475h266l-2 -100q122 122 321 122q202 0 340 -129q140 -134 140 -385q0 -269 -160 -434q-158 -162 -389 -162q-117 0 -215.5 44t-145.5 116l-74 -547h-286zM655 233q126 0 217 97q89 95 89 235q0 122 -69.5 193t-176.5 71q-123 0 -215 -92
q-92 -95 -92 -239q0 -122 68.5 -193.5t178.5 -71.5z" />
    <glyph glyph-name="q" unicode="q" horiz-adv-x="1337" 
d="M799 -408l69 510q-125 -122 -333 -122q-206 0 -332 135q-127 133 -127 356q0 276 157 447q154 167 406 167q235 0 350 -157l35 137h266l-203 -1473h-288zM618 236q123 0 218 92q92 89 92 235q0 122 -70.5 194t-177.5 72q-130 0 -217 -96q-88 -94 -88 -237
q0 -123 68 -191.5t175 -68.5z" />
    <glyph glyph-name="r" unicode="r" horiz-adv-x="835" 
d="M49 0l148 1065h266l14 -104q70 104 225 104h168l-34 -256h-164q-120 0 -178 -54.5t-76 -174.5l-82 -580h-287z" />
    <glyph glyph-name="s" unicode="s" horiz-adv-x="1064" 
d="M475 -20q-207 0 -329.5 93t-122.5 261h278q-1 -73 46.5 -111.5t139.5 -38.5q86 0 136.5 32t50.5 87q0 46 -33.5 71.5t-112.5 43.5l-133 31q-293 65 -293 280q0 160 136 260q137 96 344 96q214 0 332.5 -95t101.5 -251h-279q6 67 -40.5 104.5t-133.5 37.5
q-77 0 -123.5 -31.5t-46.5 -81.5q0 -42 30 -62t114 -40l147 -35q151 -36 220 -108t69 -189q0 -170 -142 -262q-145 -92 -356 -92z" />
    <glyph glyph-name="t" unicode="t" horiz-adv-x="778" 
d="M418 0q-311 0 -264 336l67 479h-168l35 250h68q56 0 80.5 18t31.5 70l27 203h287l-39 -291h241l-32 -250h-244l-62 -442q-10 -72 11 -96.5t90 -24.5h127l-37 -252h-219z" />
    <glyph glyph-name="u" unicode="u" horiz-adv-x="1208" 
d="M459 -20q-172 0 -269 112q-99 110 -71 320l90 653h272l-80 -590q-35 -250 177 -250q108 0 176.5 68t85.5 188l82 584h268l-148 -1065h-260l2 129q-113 -149 -325 -149z" />
    <glyph glyph-name="v" unicode="v" horiz-adv-x="1183" 
d="M346 0l-258 1065h295l160 -774l387 774h313l-571 -1065h-326z" />
    <glyph glyph-name="w" unicode="w" horiz-adv-x="1685" 
d="M244 0l-144 1065h299l64 -748l301 748h309l88 -752l271 752h299l-439 -1065h-317l-92 762l-320 -762h-319z" />
    <glyph glyph-name="x" unicode="x" horiz-adv-x="1179" 
d="M-31 0l426 553l-291 512h330l178 -346l275 346h338l-445 -535l293 -530h-325l-187 352l-262 -352h-330z" />
    <glyph glyph-name="y" unicode="y" horiz-adv-x="1165" 
d="M-70 -410l35 254h250q129 0 129 115q0 22 -10 64l-252 1042h293l164 -807l379 807h307l-625 -1247q-78 -159 -190 -197q-58 -19 -103.5 -25t-124.5 -6h-252z" />
    <glyph glyph-name="z" unicode="z" horiz-adv-x="1048" 
d="M8 0l35 252l594 559h-514l35 254h882l-32 -252l-594 -561h514l-37 -252h-883z" />
    <glyph glyph-name="braceleft" unicode="{" horiz-adv-x="655" 
d="M362 -233q-145 0 -216.5 78.5t-51.5 224.5l58 417q18 137 -105 140l31 223q125 3 143 139l64 451q37 270 315 270h160l-33 -229h-102q-56 0 -81 -23.5t-32 -85.5l-63 -444q-21 -136 -132 -189q99 -67 78 -192l-63 -449q-7 -57 12 -78.5t66 -21.5l108 -2l-33 -229h-123z
" />
    <glyph glyph-name="bar" unicode="|" horiz-adv-x="583" 
d="M88 -168l250 1790h209l-250 -1790h-209z" />
    <glyph glyph-name="braceright" unicode="}" horiz-adv-x="653" 
d="M-47 -233l31 229h108q50 0 76 21.5t33 78.5l61 451q21 128 131 192q-97 54 -76 189l62 446q7 58 -11 81.5t-67 25.5h-106l30 229h146q140 0 203.5 -78t43.5 -225l-59 -418q-18 -136 107 -139l-31 -221q-125 -3 -146 -142l-59 -419q-40 -301 -338 -301h-139z" />
    <glyph glyph-name="asciitilde" unicode="~" horiz-adv-x="1226" 
d="M829 381q-52 0 -103 18t-83 41q-45 35 -80 64q-4 4 -22 19t-21 18l-35 26q-38 19 -61 19q-96 0 -102 -142h-211q0 164 81 264.5t220 100.5q65 0 117.5 -25t129.5 -88q7 -6 23.5 -18.5t22.5 -17t18.5 -14t18 -13t16 -10t16.5 -9t14.5 -5.5t15.5 -4t15 -1q100 0 103 141
h211q-2 -164 -83.5 -264t-220.5 -100z" />
    <glyph glyph-name="exclamdown" unicode="&#xa1;" horiz-adv-x="577" 
d="M207 1161l47 342h342l-49 -342h-340zM80 0l59 430q46 333 121 606h201q-6 -295 -51 -606l-62 -430h-268z" />
    <glyph glyph-name="cent" unicode="&#xa2;" horiz-adv-x="1185" 
d="M406 0l26 193q-162 35 -257 159.5t-95 302.5q0 249 137 420q136 174 367 201l26 199h197l-29 -203q156 -29 254 -137.5t105 -262.5h-291q-17 79 -69 121.5t-126 42.5q-128 0 -207 -99.5t-79 -264.5q0 -115 54 -178.5t148 -63.5q165 0 238 162h295q-49 -179 -172.5 -284
t-302.5 -124l-25 -184h-194z" />
    <glyph glyph-name="sterling" unicode="&#xa3;" horiz-adv-x="1325" 
d="M55 0l33 238q111 27 178.5 100.5t67.5 175.5q0 42 -15 104h-196l29 199h112q-28 109 -28 197q0 207 137 344t377 137q215 0 344 -112t135 -304h-287q-15 173 -203 176q-101 0 -160 -60t-59 -169q0 -84 41 -209h385l-33 -199h-301q6 -38 6 -73q0 -188 -153 -293h340
q149 0 158 147h254q-6 -190 -103 -294.5t-283 -104.5h-776z" />
    <glyph glyph-name="currency" unicode="&#xa4;" horiz-adv-x="1474" 
d="M219 66l-123 137l201 178q-92 133 -92 305q0 214 139 379l-139 158l153 137l146 -166q136 74 287 74q170 0 309 -97l209 189l123 -137l-203 -181q90 -137 90 -299q0 -207 -141 -376l147 -164l-156 -137l-151 170q-134 -76 -287 -76q-172 0 -305 92zM748 426q120 0 210 84
q86 83 86 215q0 125 -79 201q-78 75 -191 75q-134 0 -213 -88q-82 -88 -82 -215q0 -117 77.5 -194.5t191.5 -77.5z" />
    <glyph glyph-name="yen" unicode="&#xa5;" horiz-adv-x="1464" 
d="M508 0l31 227h-340l28 199h340l17 125h-340l26 199h230l-332 725h336l258 -621l446 621h348l-538 -725h233l-26 -199h-348l-17 -125h348l-28 -199h-349l-30 -227h-293z" />
    <glyph glyph-name="brokenbar" unicode="&#xa6;" horiz-adv-x="583" 
d="M236 885l102 737h209l-103 -737h-208zM88 -168l102 737h209l-102 -737h-209z" />
    <glyph glyph-name="section" unicode="&#xa7;" horiz-adv-x="974" 
d="M479 -20q-198 0 -319.5 92.5t-122.5 246.5h256q3 -143 174 -143q69 0 110 27.5t41 77.5q0 72 -112 106l-187 57q-256 77 -256 277q0 161 148 223q-139 83 -139 236q0 142 109.5 228.5t289.5 86.5q184 0 297 -92t113 -240h-250q-1 61 -44 97t-112 36q-63 0 -101 -28.5
t-38 -75.5q0 -42 29.5 -63.5t103.5 -41.5l152 -43q278 -82 278 -294q0 -147 -154 -215q144 -80 144 -244q0 -149 -111.5 -230t-298.5 -81zM457 629q77 -13 122.5 14t45.5 82q0 83 -111 113q-100 25 -153.5 -2t-53.5 -91q7 -53 41.5 -76t108.5 -40z" />
    <glyph glyph-name="dieresis" unicode="&#xa8;" horiz-adv-x="874" 
d="M193 1298l34 256h271l-35 -256h-270zM618 1298l35 256h271l-35 -256h-271z" />
    <glyph glyph-name="copyright" unicode="&#xa9;" horiz-adv-x="1667" 
d="M864 -20q-311 0 -534 223q-226 226 -226 532q0 313 224 537q221 221 536 221q317 0 535 -221q219 -222 219 -537q0 -311 -221 -532q-219 -223 -533 -223zM862 154q241 0 414 170q170 170 170 407q0 242 -170 418q-172 172 -414 172t-411 -172q-172 -175 -172 -418
q0 -238 172 -407q170 -170 411 -170zM862 303q-182 0 -295 119q-112 115 -112 309t112 318q113 122 303 122q153 0 257.5 -79t136.5 -220h-191q-53 140 -209 140q-105 0 -168 -75t-63 -200t62.5 -199.5t168.5 -74.5q159 0 209 139h191q-32 -137 -140.5 -218t-261.5 -81z" />
    <glyph glyph-name="ordfeminine" unicode="&#xaa;" horiz-adv-x="518" 
d="M313 969q-77 0 -129.5 46.5t-52.5 119.5q0 71 47.5 113t136.5 42h142v15q0 90 -105 90q-48 0 -77 -20.5t-29 -55.5h-105q0 86 62.5 132t156.5 46q99 0 156 -57t57 -160v-299h-106l-12 49q-37 -61 -142 -61zM338 1069q52 0 85.5 26t33.5 70v43h-121q-88 0 -88 -69
q0 -70 90 -70z" />
    <glyph glyph-name="guillemotleft" unicode="&#xab;" horiz-adv-x="1300" 
d="M377 117l-299 475l457 473h301l-459 -475l295 -473h-295zM854 117l-299 475l457 473h301l-459 -475l295 -473h-295z" />
    <glyph glyph-name="logicalnot" unicode="&#xac;" horiz-adv-x="1228" 
d="M733 182l41 297h-643l37 258h891l-2 -18l-25 -176l-8 -64l-41 -297h-250z" />
    <glyph glyph-name="registered" unicode="&#xae;" horiz-adv-x="1052" 
d="M598 594q-186 0 -319 133q-132 132 -132 317q0 186 132 318q133 133 319 133q194 0 322 -131q127 -133 127 -320q0 -186 -127 -319q-128 -131 -322 -131zM598 713q150 0 240 96t90 235q0 141 -92 236q-93 96 -238 96t-238 -96q-92 -95 -92 -236q0 -140 92 -235
q93 -96 238 -96zM438 831v435h195q63 0 106 -39t43 -101q0 -93 -82 -127l88 -168h-120l-74 152h-49v-152h-107zM545 1063h65q64 0 64 57q0 54 -64 54h-65v-111z" />
    <glyph glyph-name="overscore" unicode="&#xaf;" horiz-adv-x="753" 
d="M172 1358l29 190h635l-29 -190h-635z" />
    <glyph glyph-name="degree" unicode="&#xb0;" horiz-adv-x="731" 
d="M457 889q-128 0 -213 88q-88 85 -88 211q0 125 88 213q89 86 213 86t213 -86q86 -89 86 -213q0 -127 -86 -213q-89 -86 -213 -86zM365 1096q27 -31 67 -37.5t75 8.5t59 48.5t22 74.5q0 54 -38.5 92.5t-92.5 38.5t-92.5 -38.5t-38.5 -92.5q0 -55 39 -94z" />
    <glyph glyph-name="plusminus" unicode="&#xb1;" horiz-adv-x="1230" 
d="M471 406l39 268h-358l36 258h357l39 268h256l-37 -268h352l-35 -258h-354l-37 -268h-258zM57 0l35 258h969l-37 -258h-967z" />
    <glyph glyph-name="acute" unicode="&#xb4;" horiz-adv-x="436" 
d="M166 1288l225 309h246l-254 -309h-217z" />
    <glyph glyph-name="uni00B5" unicode="&#xb5;" horiz-adv-x="1357" 
d="M10 -391l205 1456h272l-86 -604q-17 -114 38.5 -175t158.5 -61q98 -1 163 59t77 158l88 623h272l-98 -686q-11 -70 7.5 -99t82.5 -30l55 -2l-35 -248h-110q-176 0 -219 113q-44 -61 -125 -97t-174 -36q-80 0 -145.5 26t-88.5 68l-65 -465h-273z" />
    <glyph glyph-name="paragraph" unicode="&#xb6;" horiz-adv-x="1413" 
d="M526 -313v1089h-49q-140 0 -244 96q-100 93 -100 248q0 156 95.5 255.5t248.5 99.5h963v-279h-140v-1509h-274v1509h-223v-1509h-277z" />
    <glyph glyph-name="middot" unicode="&#xb7;" horiz-adv-x="612" 
d="M303 449q-70 0 -120 48t-50 119q0 80 56.5 136.5t140.5 56.5q70 0 120 -47.5t50 -118.5q0 -80 -57.5 -137t-139.5 -57z" />
    <glyph glyph-name="cedilla" unicode="&#xb8;" horiz-adv-x="573" 
d="M182 -406q-92 0 -146 47t-46 119h135q0 -47 55 -47q60 0 60 54q0 31 -26 44.5t-64 2.5l-54 32l82 166l94 -26l-39 -82q73 5 118.5 -34.5t45.5 -107.5q0 -77 -59 -122.5t-156 -45.5z" />
    <glyph glyph-name="ordmasculine" unicode="&#xba;" horiz-adv-x="614" 
d="M397 926q-115 0 -186.5 74t-71.5 190q0 117 71.5 191.5t186.5 74.5q113 0 185.5 -74.5t72.5 -191.5q0 -115 -72.5 -189.5t-185.5 -74.5zM397 1030q67 0 105.5 43.5t38.5 116.5q0 72 -39 117q-38 44 -104 44t-103 -44q-38 -44 -38 -116.5t38 -115.5q36 -45 102 -45z" />
    <glyph glyph-name="guillemotright" unicode="&#xbb;" horiz-adv-x="1310" 
d="M4 119l461 483l-299 463h299l297 -467l-457 -479h-301zM494 119l460 483l-299 463h299l297 -467l-456 -479h-301z" />
    <glyph glyph-name="onequarter" unicode="&#xbc;" horiz-adv-x="1609" 
d="M135 713l23 149h147l64 451l-174 -80l20 156l174 86h160l-86 -613h143l-22 -149h-449zM285 0l936 1475h182l-936 -1475h-182zM1241 0l19 137h-349l21 139l407 484h168l-65 -484h98l-20 -139h-99l-18 -137h-162zM1090 276h190l35 261z" />
    <glyph glyph-name="onehalf" unicode="&#xbd;" horiz-adv-x="1677" 
d="M135 713l23 149h147l64 451l-174 -80l20 156l174 86h160l-86 -613h143l-22 -149h-449zM285 0l936 1475h182l-936 -1475h-182zM1036 0l21 143l313 238q63 46 84 72t27 73q0 45 -28.5 73t-78.5 28q-53 0 -87 -33.5t-40 -89.5h-153q10 128 88 197t202 69q117 0 187.5 -61.5
t70.5 -165.5q0 -78 -42.5 -137.5t-139.5 -131.5l-166 -127h289l-20 -147h-527z" />
    <glyph glyph-name="threequarters" unicode="&#xbe;" horiz-adv-x="1648" 
d="M381 702q-128 0 -202.5 74.5t-61.5 190.5h155q-7 -60 23.5 -93.5t87.5 -33.5q55 0 90 28.5t35 77.5q0 40 -27.5 65t-79.5 25h-65l18 123h68q121 0 121 103q0 41 -27.5 64.5t-75.5 23.5q-56 0 -91 -34.5t-40 -92.5h-153q11 119 91 190.5t208 71.5q115 0 185.5 -57.5
t70.5 -151.5q0 -63 -34.5 -111t-94.5 -67q96 -41 96 -158q0 -110 -84.5 -174t-212.5 -64zM336 0l936 1475h182l-936 -1475h-182zM1292 0l19 137h-348l20 139l408 484h168l-66 -484h98l-20 -139h-98l-19 -137h-162zM1141 276h190l35 261z" />
    <glyph glyph-name="questiondown" unicode="&#xbf;" horiz-adv-x="1081" 
d="M514 1139l47 336h342l-45 -336h-344zM496 -20q-211 0 -335 103t-124 269q0 77 25.5 139.5t81.5 115.5t93 79.5t112 72.5q7 5 11 7q180 109 183 242h250q-2 -44 -13.5 -85.5t-25.5 -72.5t-41 -64.5t-46.5 -54t-55.5 -48.5t-53.5 -40.5t-55.5 -38.5q-152 -107 -152 -219
q0 -73 47 -115.5t123 -42.5q97 0 153.5 58.5t61.5 156.5h285q-9 -202 -150 -331q-140 -131 -374 -131z" />
    <glyph glyph-name="Agrave" unicode="&#xc0;" horiz-adv-x="1437" 
d="M764 1636l-152 281h226l125 -281h-199zM-55 0l766 1475h284l351 -1475h-306l-67 309h-555l-158 -309h-315zM532 532h392l-117 539z" />
    <glyph glyph-name="Aacute" unicode="&#xc1;" horiz-adv-x="1437" 
d="M782 1624l203 281h225l-229 -281h-199zM-55 0l766 1475h284l351 -1475h-306l-67 309h-555l-158 -309h-315zM532 532h392l-117 539z" />
    <glyph glyph-name="Acircumflex" unicode="&#xc2;" horiz-adv-x="1437" 
d="M559 1587l242 281h209l164 -281h-218l-71 131l-109 -131h-217zM-55 0l766 1475h284l351 -1475h-306l-67 309h-555l-158 -309h-315zM532 532h392l-117 539z" />
    <glyph glyph-name="Atilde" unicode="&#xc3;" horiz-adv-x="1437" 
d="M1018 1620q-73 0 -150 45q-79 45 -106 45q-73 0 -82 -80h-135q10 118 67 183t148 65q70 0 149 -43q73 -43 105 -43q33 0 55.5 20.5t26.5 55.5h135q-9 -117 -65.5 -182.5t-147.5 -65.5zM-55 0l766 1475h284l351 -1475h-306l-67 309h-555l-158 -309h-315zM532 532h392
l-117 539z" />
    <glyph glyph-name="Adieresis" unicode="&#xc4;" horiz-adv-x="1437" 
d="M522 1589l35 256h270l-34 -256h-271zM948 1589l35 256h270l-34 -256h-271zM-55 0l766 1475h284l351 -1475h-306l-67 309h-555l-158 -309h-315zM532 532h392l-117 539z" />
    <glyph glyph-name="Aring" unicode="&#xc5;" horiz-adv-x="1437" 
d="M-55 0l766 1475h4q-109 68 -109 204q0 116 79 190.5t194 74.5q107 0 177 -68t70 -176q0 -160 -131 -230l351 -1470h-306l-67 309h-555l-158 -309h-315zM862 1581q49 0 81 33t32 84q0 43 -29.5 72.5t-73.5 29.5q-49 0 -80.5 -34t-31.5 -85q0 -44 29.5 -72t72.5 -28z
M532 532h392l-117 539z" />
    <glyph glyph-name="AE" unicode="&#xc6;" horiz-adv-x="2078" 
d="M-78 0l1088 1475h1101l-34 -258h-676l-49 -351h493l-35 -252h-493l-51 -356h712l-36 -258h-990l45 324h-493l-234 -324h-348zM672 561h358l84 610z" />
    <glyph glyph-name="Ccedilla" unicode="&#xc7;" horiz-adv-x="1523" 
d="M715 -395q-92 0 -146.5 47t-46.5 119h135q0 -47 56 -47q59 0 59 53q0 31 -26 44.5t-64 2.5l-53 33l63 127q-274 18 -438 194t-164 471q0 355 227 600q229 244 590 244q257 0 428 -139q172 -143 193 -373h-311q-24 117 -113.5 181.5t-220.5 64.5q-214 0 -351 -158
q-135 -159 -135 -403q0 -195 98 -305.5t269 -110.5q275 0 389 246h322q-73 -233 -250.5 -367t-425.5 -145l-33 -70q73 5 118.5 -34t45.5 -107q0 -77 -59 -122.5t-156 -45.5z" />
    <glyph glyph-name="Egrave" unicode="&#xc8;" horiz-adv-x="1216" 
d="M653 1636l-151 281h225l125 -281h-199zM63 0l203 1475h979l-35 -258h-686l-49 -351h510l-35 -252h-510l-51 -356h727l-37 -258h-1016z" />
    <glyph glyph-name="Eacute" unicode="&#xc9;" horiz-adv-x="1216" 
d="M672 1624l202 281h226l-230 -281h-198zM63 0l203 1475h979l-35 -258h-686l-49 -351h510l-35 -252h-510l-51 -356h727l-37 -258h-1016z" />
    <glyph glyph-name="Ecircumflex" unicode="&#xca;" horiz-adv-x="1216" 
d="M449 1587l241 281h209l164 -281h-217l-72 131l-108 -131h-217zM63 0l203 1475h979l-35 -258h-686l-49 -351h510l-35 -252h-510l-51 -356h727l-37 -258h-1016z" />
    <glyph glyph-name="Edieresis" unicode="&#xcb;" horiz-adv-x="1216" 
d="M418 1589l35 256h270l-35 -256h-270zM844 1589l35 256h270l-35 -256h-270zM63 0l203 1475h979l-35 -258h-686l-49 -351h510l-35 -252h-510l-51 -356h727l-37 -258h-1016z" />
    <glyph glyph-name="Igrave" unicode="&#xcc;" horiz-adv-x="565" 
d="M328 1636l-152 281h225l125 -281h-198zM63 0l203 1475h293l-205 -1475h-291z" />
    <glyph glyph-name="Iacute" unicode="&#xcd;" horiz-adv-x="565" 
d="M346 1624l203 281h225l-229 -281h-199zM63 0l203 1475h293l-205 -1475h-291z" />
    <glyph glyph-name="Icircumflex" unicode="&#xce;" horiz-adv-x="565" 
d="M92 1579l264 309h234l176 -309h-238l-77 141l-119 -141h-240zM63 0l203 1475h293l-205 -1475h-291z" />
    <glyph glyph-name="Idieresis" unicode="&#xcf;" horiz-adv-x="565" 
d="M84 1589l35 256h270l-35 -256h-270zM510 1589l35 256h270l-35 -256h-270zM63 0l203 1475h293l-205 -1475h-291z" />
    <glyph glyph-name="Eth" unicode="&#xd0;" horiz-adv-x="1542" 
d="M113 0l86 625h-160l35 241h157l84 609h506q310 0 498 -185t188 -495q0 -359 -233 -576q-239 -219 -631 -219h-530zM440 258h187q272 0 421.5 142t149.5 391q0 208 -111 317t-315 109h-201l-47 -351h189l-33 -241h-191z" />
    <glyph glyph-name="Ntilde" unicode="&#xd1;" horiz-adv-x="1478" 
d="M1042 1593q-72 0 -151 49q-83 50 -121 50q-82 0 -94 -86h-150q4 124 72 198t174 74q71 0 154 -47q82 -49 121 -49q37 0 61.5 23t30.5 61h149q-6 -124 -73.5 -198.5t-172.5 -74.5zM63 0l203 1475h297l479 -1004l138 1004h290l-202 -1475h-297l-482 981l-135 -981h-291z
" />
    <glyph glyph-name="Ograve" unicode="&#xd2;" horiz-adv-x="1585" 
d="M838 1636l-152 281h225l125 -281h-198zM764 -4q-292 0 -481 186q-191 185 -191 502q0 350 232 582q229 229 550 229q295 0 484 -186q190 -187 190 -508q0 -348 -231 -576q-229 -229 -553 -229zM768 268q190 0 328 156q137 155 137 383q0 197 -103 306.5t-268 109.5
q-188 0 -321 -154q-135 -156 -135 -387q0 -194 99.5 -304t262.5 -110z" />
    <glyph glyph-name="Oacute" unicode="&#xd3;" horiz-adv-x="1585" 
d="M856 1624l203 281h225l-229 -281h-199zM764 -4q-292 0 -481 186q-191 185 -191 502q0 350 232 582q229 229 550 229q295 0 484 -186q190 -187 190 -508q0 -348 -231 -576q-229 -229 -553 -229zM768 268q190 0 328 156q137 155 137 383q0 197 -103 306.5t-268 109.5
q-188 0 -321 -154q-135 -156 -135 -387q0 -194 99.5 -304t262.5 -110z" />
    <glyph glyph-name="Ocircumflex" unicode="&#xd4;" horiz-adv-x="1585" 
d="M633 1587l241 281h209l164 -281h-217l-72 131l-108 -131h-217zM764 -4q-292 0 -481 186q-191 185 -191 502q0 350 232 582q229 229 550 229q295 0 484 -186q190 -187 190 -508q0 -348 -231 -576q-229 -229 -553 -229zM768 268q190 0 328 156q137 155 137 383
q0 197 -103 306.5t-268 109.5q-188 0 -321 -154q-135 -156 -135 -387q0 -194 99.5 -304t262.5 -110z" />
    <glyph glyph-name="Otilde" unicode="&#xd5;" horiz-adv-x="1585" 
d="M1092 1620q-73 0 -150 45q-79 45 -106 45q-73 0 -82 -80h-136q10 118 67.5 183t148.5 65q70 0 149 -43q73 -43 104 -43q33 0 55.5 20.5t26.5 55.5h136q-9 -117 -65.5 -182.5t-147.5 -65.5zM764 -4q-292 0 -481 186q-191 185 -191 502q0 350 232 582q229 229 550 229
q295 0 484 -186q190 -187 190 -508q0 -348 -231 -576q-229 -229 -553 -229zM768 268q190 0 328 156q137 155 137 383q0 197 -103 306.5t-268 109.5q-188 0 -321 -154q-135 -156 -135 -387q0 -194 99.5 -304t262.5 -110z" />
    <glyph glyph-name="Odieresis" unicode="&#xd6;" horiz-adv-x="1585" 
d="M549 1604l35 256h270l-35 -256h-270zM975 1604l35 256h270l-35 -256h-270zM764 -4q-292 0 -481 186q-191 185 -191 502q0 350 232 582q229 229 550 229q295 0 484 -186q190 -187 190 -508q0 -348 -231 -576q-229 -229 -553 -229zM768 268q190 0 328 156q137 155 137 383
q0 197 -103 306.5t-268 109.5q-188 0 -321 -154q-135 -156 -135 -387q0 -194 99.5 -304t262.5 -110z" />
    <glyph glyph-name="multiply" unicode="&#xd7;" horiz-adv-x="1228" 
d="M285 170l-158 182l326 285l-240 278l197 175l239 -281l322 281l155 -183l-319 -280l244 -283l-197 -174l-244 285z" />
    <glyph glyph-name="Oslash" unicode="&#xd8;" horiz-adv-x="1591" 
d="M186 -45l131 199q-221 188 -221 530q0 350 232 582q229 229 551 229q162 0 288 -57l52 80h241l-123 -187q213 -198 213 -530q0 -348 -231 -576q-229 -229 -553 -229q-152 0 -274 51l-62 -92h-244zM481 403l531 799q-64 27 -146 27q-192 0 -327 -156q-136 -157 -136 -391
q0 -169 78 -279zM772 264q192 0 332 158q139 157 139 385q0 161 -74 270l-522 -794q62 -19 125 -19z" />
    <glyph glyph-name="Ugrave" unicode="&#xd9;" horiz-adv-x="1454" 
d="M772 1636l-151 281h225l125 -281h-199zM727 -20q-284 0 -440 170q-159 170 -119 471l119 854h297l-125 -900q-23 -158 53.5 -248.5t220.5 -90.5q143 0 235.5 82t112.5 235l127 922h297l-129 -930q-37 -271 -203 -418t-446 -147z" />
    <glyph glyph-name="Uacute" unicode="&#xda;" horiz-adv-x="1454" 
d="M791 1624l202 281h226l-230 -281h-198zM727 -20q-284 0 -440 170q-159 170 -119 471l119 854h297l-125 -900q-23 -158 53.5 -248.5t220.5 -90.5q143 0 235.5 82t112.5 235l127 922h297l-129 -930q-37 -271 -203 -418t-446 -147z" />
    <glyph glyph-name="Ucircumflex" unicode="&#xdb;" horiz-adv-x="1454" 
d="M573 1579l265 309h233l176 -309h-237l-78 141l-119 -141h-240zM727 -20q-284 0 -440 170q-159 170 -119 471l119 854h297l-125 -900q-23 -158 53.5 -248.5t220.5 -90.5q143 0 235.5 82t112.5 235l127 922h297l-129 -930q-37 -271 -203 -418t-446 -147z" />
    <glyph glyph-name="Udieresis" unicode="&#xdc;" horiz-adv-x="1454" 
d="M565 1589l35 256h270l-34 -256h-271zM991 1589l35 256h270l-34 -256h-271zM727 -20q-284 0 -440 170q-159 170 -119 471l119 854h297l-125 -900q-23 -158 53.5 -248.5t220.5 -90.5q143 0 235.5 82t112.5 235l127 922h297l-129 -930q-37 -271 -203 -418t-446 -147z" />
    <glyph glyph-name="Yacute" unicode="&#xdd;" horiz-adv-x="1417" 
d="M772 1624l203 281h225l-229 -281h-199zM477 0l72 522l-412 953h332l258 -644l453 644h358l-696 -953l-74 -522h-291z" />
    <glyph glyph-name="Thorn" unicode="&#xde;" horiz-adv-x="1333" 
d="M55 0l205 1475h297l-35 -248h271q234 0 366 -129q131 -131 131 -338q0 -226 -153 -367q-155 -143 -394 -143h-356l-35 -250h-297zM422 502h258q145 0 227 67t82 183q0 99 -62.5 158t-170.5 59l-269 2z" />
    <glyph glyph-name="germandbls" unicode="&#xdf;" horiz-adv-x="1273" 
d="M666 -20q-160 0 -240 45l31 227q77 -51 182 -51q117 0 191.5 66.5t74.5 185.5q0 125 -83.5 183.5t-227.5 47.5l31 215q129 -2 200.5 55.5t71.5 165.5q0 79 -49 125.5t-135 46.5q-208 0 -238 -233l-143 -1059h-289l137 1010q68 501 535 501q203 0 325.5 -99t122.5 -263
q0 -118 -60 -204t-157 -126q117 -35 184.5 -132t67.5 -230q0 -213 -143 -344q-145 -133 -389 -133z" />
    <glyph glyph-name="agrave" unicode="&#xe0;" 
d="M561 1247l-151 281h225l125 -281h-199zM395 -20q-167 0 -262.5 79t-95.5 224q0 154 111 249t315 95h307l6 47q12 88 -33 136t-141 48q-91 0 -149 -42.5t-70 -115.5h-258q25 179 159 282t343 103q184 0 315 -90q70 -49 102 -139.5t15 -208.5l-51 -377q-9 -61 47 -61h49
l-31 -209h-160q-161 0 -170 127q-111 -147 -348 -147zM498 205q99 0 163 50.5t76 137.5l6 47h-243q-162 0 -162 -125q0 -110 160 -110z" />
    <glyph glyph-name="aacute" unicode="&#xe1;" 
d="M580 1235l202 281h226l-230 -281h-198zM395 -20q-167 0 -262.5 79t-95.5 224q0 154 111 249t315 95h307l6 47q12 88 -33 136t-141 48q-91 0 -149 -42.5t-70 -115.5h-258q25 179 159 282t343 103q184 0 315 -90q70 -49 102 -139.5t15 -208.5l-51 -377q-9 -61 47 -61h49
l-31 -209h-160q-161 0 -170 127q-111 -147 -348 -147zM498 205q99 0 163 50.5t76 137.5l6 47h-243q-162 0 -162 -125q0 -110 160 -110z" />
    <glyph glyph-name="acircumflex" unicode="&#xe2;" 
d="M356 1198l242 281h209l164 -281h-217l-72 131l-109 -131h-217zM395 -20q-167 0 -262.5 79t-95.5 224q0 154 111 249t315 95h307l6 47q12 88 -33 136t-141 48q-91 0 -149 -42.5t-70 -115.5h-258q25 179 159 282t343 103q184 0 315 -90q70 -49 102 -139.5t15 -208.5
l-51 -377q-9 -61 47 -61h49l-31 -209h-160q-161 0 -170 127q-111 -147 -348 -147zM498 205q99 0 163 50.5t76 137.5l6 47h-243q-162 0 -162 -125q0 -110 160 -110z" />
    <glyph glyph-name="atilde" unicode="&#xe3;" 
d="M815 1231q-72 0 -149 45q-79 45 -107 45q-73 0 -82 -80h-135q10 118 67 183t148 65q71 0 150 -43q73 -43 104 -43q33 0 55.5 20.5t26.5 55.5h135q-9 -117 -65.5 -182.5t-147.5 -65.5zM395 -20q-167 0 -262.5 79t-95.5 224q0 154 111 249t315 95h307l6 47q12 88 -33 136
t-141 48q-91 0 -149 -42.5t-70 -115.5h-258q25 179 159 282t343 103q184 0 315 -90q70 -49 102 -139.5t15 -208.5l-51 -377q-9 -61 47 -61h49l-31 -209h-160q-161 0 -170 127q-111 -147 -348 -147zM498 205q99 0 163 50.5t76 137.5l6 47h-243q-162 0 -162 -125
q0 -110 160 -110z" />
    <glyph glyph-name="adieresis" unicode="&#xe4;" 
d="M326 1192l34 256h271l-35 -256h-270zM752 1192l34 256h271l-35 -256h-270zM395 -20q-167 0 -262.5 79t-95.5 224q0 154 111 249t315 95h307l6 47q12 88 -33 136t-141 48q-91 0 -149 -42.5t-70 -115.5h-258q25 179 159 282t343 103q184 0 315 -90q70 -49 102 -139.5
t15 -208.5l-51 -377q-9 -61 47 -61h49l-31 -209h-160q-161 0 -170 127q-111 -147 -348 -147zM498 205q99 0 163 50.5t76 137.5l6 47h-243q-162 0 -162 -125q0 -110 160 -110z" />
    <glyph glyph-name="aring" unicode="&#xe5;" 
d="M395 -20q-167 0 -262.5 79t-95.5 224q0 154 111 249t315 95h307l6 47q12 88 -33 136t-141 48q-91 0 -149 -42.5t-70 -115.5h-258q20 146 114 243t246 128q-71 68 -71 176q0 116 78.5 190t193.5 74q107 0 177.5 -67.5t70.5 -175.5q0 -137 -107 -213q276 -95 232 -408
l-51 -377q-9 -61 47 -61h49l-31 -209h-160q-161 0 -170 127q-111 -147 -348 -147zM670 1149q49 0 80.5 33t31.5 84q0 43 -29 72.5t-73 29.5q-49 0 -81 -34t-32 -85q0 -44 30 -72t73 -28zM498 205q99 0 163 50.5t76 137.5l6 47h-243q-162 0 -162 -125q0 -110 160 -110z" />
    <glyph glyph-name="ae" unicode="&#xe6;" horiz-adv-x="1892" 
d="M1243 -23q-285 0 -405 205q-56 -93 -167.5 -147.5t-252.5 -54.5q-177 0 -279 80t-102 219q0 156 113 250t309 94h309l8 53q12 89 -35.5 135.5t-142.5 46.5q-91 0 -149 -44.5t-70 -115.5h-260q24 174 166 283q137 104 329 104q236 0 338 -147q150 147 383 147
q244 0 377 -157q130 -157 100 -400l-10 -75h-774q-10 -118 51 -181t170 -63q81 0 149.5 37t98.5 102h279q-59 -180 -200.5 -275.5t-332.5 -95.5zM1053 641h489q7 103 -52 161t-161 58t-177.5 -58t-98.5 -161zM496 203q103 0 165.5 52t73.5 146l4 35h-241q-84 0 -122 -35
t-38 -88q0 -110 158 -110z" />
    <glyph glyph-name="ccedilla" unicode="&#xe7;" 
d="M526 -375q-92 0 -146 47t-46 119h135q0 -47 55 -47q60 0 60 53q0 31 -26 44.5t-64 2.5l-54 33l54 107q-194 23 -306 153.5t-112 339.5q0 265 170 438q170 170 420 170q213 0 348 -114t141 -320h-303q-4 88 -60.5 138.5t-140.5 50.5q-121 0 -200 -101q-82 -101 -82 -256
q0 -126 59.5 -190t157.5 -64q81 0 143.5 49.5t91.5 141.5h305q-41 -196 -182 -314.5t-344 -125.5l-22 -46q73 5 118 -34t45 -107q0 -77 -59 -122.5t-156 -45.5z" />
    <glyph glyph-name="egrave" unicode="&#xe8;" horiz-adv-x="1226" 
d="M602 1227l-151 280h225l125 -280h-199zM578 -23q-210 0 -351 132q-142 130 -145 372q-3 266 168 437q167 167 418 167q222 0 354 -129t135 -338q3 -86 -18 -163h-789q9 -246 238 -246q176 0 241 139h289q-54 -172 -197.5 -271.5t-342.5 -99.5zM373 643h510
q-9 219 -236 219q-97 0 -170 -56t-104 -163z" />
    <glyph glyph-name="eacute" unicode="&#xe9;" horiz-adv-x="1226" 
d="M621 1214l202 281h226l-230 -281h-198zM578 -23q-210 0 -351 132q-142 130 -145 372q-3 266 168 437q167 167 418 167q222 0 354 -129t135 -338q3 -86 -18 -163h-789q9 -246 238 -246q176 0 241 139h289q-54 -172 -197.5 -271.5t-342.5 -99.5zM373 643h510
q-9 219 -236 219q-97 0 -170 -56t-104 -163z" />
    <glyph glyph-name="ecircumflex" unicode="&#xea;" horiz-adv-x="1226" 
d="M397 1178l242 280h209l164 -280h-217l-72 131l-109 -131h-217zM578 -23q-210 0 -351 132q-142 130 -145 372q-3 266 168 437q167 167 418 167q222 0 354 -129t135 -338q3 -86 -18 -163h-789q9 -246 238 -246q176 0 241 139h289q-54 -172 -197.5 -271.5t-342.5 -99.5z
M373 643h510q-9 219 -236 219q-97 0 -170 -56t-104 -163z" />
    <glyph glyph-name="edieresis" unicode="&#xeb;" horiz-adv-x="1226" 
d="M334 1194l35 256h270l-35 -256h-270zM760 1194l35 256h270l-35 -256h-270zM578 -23q-210 0 -351 132q-142 130 -145 372q-3 266 168 437q167 167 418 167q222 0 354 -129t135 -338q3 -86 -18 -163h-789q9 -246 238 -246q176 0 241 139h289q-54 -172 -197.5 -271.5
t-342.5 -99.5zM373 643h510q-9 219 -236 219q-97 0 -170 -56t-104 -163z" />
    <glyph glyph-name="igrave" unicode="&#xec;" horiz-adv-x="526" 
d="M252 1227l-152 280h226l125 -280h-199zM45 0l150 1065h286l-149 -1065h-287z" />
    <glyph glyph-name="iacute" unicode="&#xed;" horiz-adv-x="526" 
d="M270 1214l203 281h225l-229 -281h-199zM45 0l150 1065h286l-149 -1065h-287z" />
    <glyph glyph-name="icircumflex" unicode="&#xee;" horiz-adv-x="526" 
d="M14 1182l265 309h233l176 -309h-237l-78 141l-119 -141h-240zM45 0l150 1065h286l-149 -1065h-287z" />
    <glyph glyph-name="idieresis" unicode="&#xef;" horiz-adv-x="526" 
d="M6 1192l35 256h270l-35 -256h-270zM432 1192l35 256h270l-35 -256h-270zM45 0l150 1065h286l-149 -1065h-287z" />
    <glyph glyph-name="eth" unicode="&#xf0;" horiz-adv-x="1304" 
d="M604 -18q-230 0 -375 139q-143 137 -143 373q0 257 158 415t405 158q186 0 287 -113q-40 126 -117 240l-248 -96l29 196l107 41q-98 109 -252 211h385q70 -51 123 -110l262 100l-29 -197l-125 -49q164 -265 164 -606q0 -175 -54.5 -315.5t-148.5 -221.5
q-186 -165 -428 -165zM602 238q138 0 225.5 90t87.5 235q0 120 -71 193t-185 73q-136 0 -221.5 -90t-85.5 -233q0 -120 70 -194t180 -74z" />
    <glyph glyph-name="ntilde" unicode="&#xf1;" horiz-adv-x="1251" 
d="M899 1196q-72 0 -151 49q-82 49 -121 49q-83 0 -95 -86h-149q4 124 72 198.5t174 74.5q70 0 153 -47q83 -50 121 -50q37 0 61.5 23t30.5 61h150q-6 -124 -73.5 -198t-172.5 -74zM45 0l148 1065h266v-127q56 68 147 107.5t195 39.5q189 0 288.5 -128.5t67.5 -356.5
l-84 -600h-287l80 578q18 131 -31 196.5t-149 65.5q-112 0 -184.5 -73.5t-91.5 -207.5l-78 -559h-287z" />
    <glyph glyph-name="ograve" unicode="&#xf2;" horiz-adv-x="1259" 
d="M618 1227l-151 280h225l125 -280h-199zM588 -20q-222 0 -365 137q-147 138 -147 368q0 262 174 433q172 169 426 169q207 0 358 -139q148 -142 148 -383q0 -253 -170 -420q-168 -165 -424 -165zM596 223q128 0 213 99q86 95 86 247q0 131 -67 203t-173 72
q-127 0 -209 -101q-86 -103 -86 -251q0 -131 64 -200t172 -69z" />
    <glyph glyph-name="oacute" unicode="&#xf3;" horiz-adv-x="1259" 
d="M637 1214l203 281h225l-229 -281h-199zM588 -20q-222 0 -365 137q-147 138 -147 368q0 262 174 433q172 169 426 169q207 0 358 -139q148 -142 148 -383q0 -253 -170 -420q-168 -165 -424 -165zM596 223q128 0 213 99q86 95 86 247q0 131 -67 203t-173 72
q-127 0 -209 -101q-86 -103 -86 -251q0 -131 64 -200t172 -69z" />
    <glyph glyph-name="ocircumflex" unicode="&#xf4;" horiz-adv-x="1259" 
d="M414 1178l241 280h209l164 -280h-217l-72 131l-108 -131h-217zM588 -20q-222 0 -365 137q-147 138 -147 368q0 262 174 433q172 169 426 169q207 0 358 -139q148 -142 148 -383q0 -253 -170 -420q-168 -165 -424 -165zM596 223q128 0 213 99q86 95 86 247q0 131 -67 203
t-173 72q-127 0 -209 -101q-86 -103 -86 -251q0 -131 64 -200t172 -69z" />
    <glyph glyph-name="otilde" unicode="&#xf5;" horiz-adv-x="1259" 
d="M872 1210q-72 0 -149 45q-79 45 -107 45q-72 0 -81 -79h-136q10 118 67 182.5t148 64.5q71 0 150 -43q73 -43 104 -43q33 0 55.5 20.5t26.5 55.5h135q-9 -117 -65.5 -182.5t-147.5 -65.5zM588 -20q-222 0 -365 137q-147 138 -147 368q0 262 174 433q172 169 426 169
q207 0 358 -139q148 -142 148 -383q0 -253 -170 -420q-168 -165 -424 -165zM596 223q128 0 213 99q86 95 86 247q0 131 -67 203t-173 72q-127 0 -209 -101q-86 -103 -86 -251q0 -131 64 -200t172 -69z" />
    <glyph glyph-name="odieresis" unicode="&#xf6;" horiz-adv-x="1259" 
d="M344 1194l35 256h270l-35 -256h-270zM770 1194l35 256h270l-35 -256h-270zM588 -20q-222 0 -365 137q-147 138 -147 368q0 262 174 433q172 169 426 169q207 0 358 -139q148 -142 148 -383q0 -253 -170 -420q-168 -165 -424 -165zM596 223q128 0 213 99q86 95 86 247
q0 131 -67 203t-173 72q-127 0 -209 -101q-86 -103 -86 -251q0 -131 64 -200t172 -69z" />
    <glyph glyph-name="divide" unicode="&#xf7;" horiz-adv-x="1228" 
d="M676 891q-67 0 -109.5 41t-42.5 108q0 69 52.5 120.5t125.5 51.5q66 0 107 -41.5t41 -107.5q0 -72 -50.5 -122t-123.5 -50zM133 535l37 258h960l-36 -258h-961zM565 113q-67 0 -109 41t-42 108q0 69 52.5 120.5t125.5 51.5q66 0 107.5 -41.5t41.5 -107.5q0 -72 -51 -122
t-125 -50z" />
    <glyph glyph-name="oslash" unicode="&#xf8;" horiz-adv-x="1286" 
d="M14 -49l181 207q-109 136 -109 327q0 262 174 433q172 169 426 169q145 0 264 -67l86 98h240l-191 -217q107 -137 107 -336q0 -253 -170 -420q-168 -165 -424 -165q-147 0 -264 63l-80 -92h-240zM387 377l387 442q-52 25 -108 25q-127 0 -209 -101q-86 -103 -86 -251
q0 -59 16 -115zM606 223q128 0 213 99q86 95 86 247q0 60 -14 109l-383 -436q49 -19 98 -19z" />
    <glyph glyph-name="ugrave" unicode="&#xf9;" horiz-adv-x="1208" 
d="M592 1227l-152 280h226l125 -280h-199zM459 -20q-172 0 -269 112q-99 110 -71 320l90 653h272l-80 -590q-35 -250 177 -250q108 0 176.5 68t85.5 188l82 584h268l-148 -1065h-260l2 129q-113 -149 -325 -149z" />
    <glyph glyph-name="uacute" unicode="&#xfa;" horiz-adv-x="1208" 
d="M610 1214l203 281h225l-229 -281h-199zM459 -20q-172 0 -269 112q-99 110 -71 320l90 653h272l-80 -590q-35 -250 177 -250q108 0 176.5 68t85.5 188l82 584h268l-148 -1065h-260l2 129q-113 -149 -325 -149z" />
    <glyph glyph-name="ucircumflex" unicode="&#xfb;" horiz-adv-x="1208" 
d="M381 1182l264 309h234l176 -309h-238l-78 141l-118 -141h-240zM459 -20q-172 0 -269 112q-99 110 -71 320l90 653h272l-80 -590q-35 -250 177 -250q108 0 176.5 68t85.5 188l82 584h268l-148 -1065h-260l2 129q-113 -149 -325 -149z" />
    <glyph glyph-name="udieresis" unicode="&#xfc;" horiz-adv-x="1208" 
d="M373 1192l35 256h270l-35 -256h-270zM799 1192l35 256h270l-35 -256h-270zM459 -20q-172 0 -269 112q-99 110 -71 320l90 653h272l-80 -590q-35 -250 177 -250q108 0 176.5 68t85.5 188l82 584h268l-148 -1065h-260l2 129q-113 -149 -325 -149z" />
    <glyph glyph-name="yacute" unicode="&#xfd;" horiz-adv-x="1165" 
d="M590 1214l203 281h225l-230 -281h-198zM-70 -410l35 254h250q129 0 129 115q0 22 -10 64l-252 1042h293l164 -807l379 807h307l-625 -1247q-78 -159 -190 -197q-58 -19 -103.5 -25t-124.5 -6h-252z" />
    <glyph glyph-name="thorn" unicode="&#xfe;" horiz-adv-x="1337" 
d="M-10 -410l270 1948h287l-78 -573q116 122 313 122q202 0 340 -129q138 -132 138 -385q0 -266 -158 -432q-157 -161 -387 -161q-124 0 -221 43.5t-140 117.5l-78 -551h-286zM655 233q130 0 219 95q87 93 87 235q0 125 -70 195.5t-178 70.5q-125 0 -215 -90
q-90 -93 -90 -239q0 -125 68 -196t179 -71z" />
    <glyph glyph-name="ydieresis" unicode="&#xff;" horiz-adv-x="1165" 
d="M303 1192l35 256h270l-35 -256h-270zM729 1192l35 256h270l-35 -256h-270zM-70 -410l35 254h250q129 0 129 115q0 22 -10 64l-252 1042h293l164 -807l379 807h307l-625 -1247q-78 -159 -190 -197q-58 -19 -103.5 -25t-124.5 -6h-252z" />
    <glyph glyph-name="Amacron" unicode="&#x100;" horiz-adv-x="1437" 
d="M557 1628l29 191h635l-29 -191h-635zM-55 0l766 1475h284l351 -1475h-306l-67 309h-555l-158 -309h-315zM532 532h392l-117 539z" />
    <glyph glyph-name="amacron" unicode="&#x101;" 
d="M358 1231l29 190h635l-29 -190h-635zM395 -20q-167 0 -262.5 79t-95.5 224q0 154 111 249t315 95h307l6 47q12 88 -33 136t-141 48q-91 0 -149 -42.5t-70 -115.5h-258q25 179 159 282t343 103q184 0 315 -90q70 -49 102 -139.5t15 -208.5l-51 -377q-9 -61 47 -61h49
l-31 -209h-160q-161 0 -170 127q-111 -147 -348 -147zM498 205q99 0 163 50.5t76 137.5l6 47h-243q-162 0 -162 -125q0 -110 160 -110z" />
    <glyph glyph-name="Abreve" unicode="&#x102;" horiz-adv-x="1437" 
d="M868 1608q-125 0 -189.5 76t-43.5 208h170q-24 -118 86 -118q52 0 84.5 31t40.5 87h168q-17 -132 -103.5 -208t-212.5 -76zM-55 0l766 1475h284l351 -1475h-306l-67 309h-555l-158 -309h-315zM532 532h392l-117 539z" />
    <glyph glyph-name="abreve" unicode="&#x103;" 
d="M666 1219q-125 0 -190 76.5t-44 207.5h170q-24 -119 86 -119q52 0 84.5 31.5t40.5 87.5h168q-17 -132 -103 -208t-212 -76zM395 -20q-167 0 -262.5 79t-95.5 224q0 154 111 249t315 95h307l6 47q12 88 -33 136t-141 48q-91 0 -149 -42.5t-70 -115.5h-258q25 179 159 282
t343 103q184 0 315 -90q70 -49 102 -139.5t15 -208.5l-51 -377q-9 -61 47 -61h49l-31 -209h-160q-161 0 -170 127q-111 -147 -348 -147zM498 205q99 0 163 50.5t76 137.5l6 47h-243q-162 0 -162 -125q0 -110 160 -110z" />
    <glyph glyph-name="Aogonek" unicode="&#x104;" horiz-adv-x="1437" 
d="M1153 -373q-80 0 -128 39t-48 107q0 145 178 227h-115l-67 309h-555l-158 -309h-315l766 1475h284l351 -1475h2q-172 -70 -172 -152q0 -45 57 -45q28 0 74 17l-25 -162q-60 -31 -129 -31zM532 532h392l-117 539z" />
    <glyph glyph-name="aogonek" unicode="&#x105;" 
d="M879 -373q-81 0 -129 39t-48 107q0 147 181 229q-131 9 -140 125q-111 -147 -348 -147q-167 0 -262.5 79t-95.5 224q0 154 111 249t315 95h307l6 47q12 88 -33 136t-141 48q-91 0 -149 -42.5t-70 -115.5h-258q25 179 159 282t343 103q184 0 315 -90q70 -49 102 -139.5
t15 -208.5l-51 -377q-9 -61 47 -61h49l-31 -209q-172 -70 -172 -152q0 -45 57 -45q28 0 74 17l-24 -162q-60 -31 -129 -31zM498 205q99 0 163 50.5t76 137.5l6 47h-243q-162 0 -162 -125q0 -110 160 -110z" />
    <glyph glyph-name="Cacute" unicode="&#x106;" horiz-adv-x="1523" 
d="M813 1593l225 310h246l-254 -310h-217zM754 -18q-301 0 -482 178q-182 176 -182 489q0 355 227 600q229 244 590 244q257 0 428 -139q172 -143 193 -373h-311q-24 117 -113.5 181.5t-220.5 64.5q-214 0 -351 -158q-135 -159 -135 -403q0 -195 98 -305.5t269 -110.5
q275 0 389 246h322q-75 -244 -265.5 -379t-455.5 -135z" />
    <glyph glyph-name="cacute" unicode="&#x107;" 
d="M575 1184l226 309h246l-254 -309h-218zM567 -20q-223 0 -356 133q-135 132 -135 364q0 265 170 438q170 170 420 170q213 0 348 -114t141 -320h-303q-4 88 -60.5 138.5t-140.5 50.5q-121 0 -200 -101q-82 -101 -82 -256q0 -126 59.5 -190t157.5 -64q81 0 143.5 49.5
t91.5 141.5h305q-41 -203 -191.5 -321.5t-367.5 -118.5z" />
    <glyph glyph-name="Ccircumflex" unicode="&#x108;" horiz-adv-x="1523" 
d="M586 1593l264 310h233l177 -310h-238l-78 142l-119 -142h-239zM754 -18q-301 0 -482 178q-182 176 -182 489q0 355 227 600q229 244 590 244q257 0 428 -139q172 -143 193 -373h-311q-24 117 -113.5 181.5t-220.5 64.5q-214 0 -351 -158q-135 -159 -135 -403
q0 -195 98 -305.5t269 -110.5q275 0 389 246h322q-75 -244 -265.5 -379t-455.5 -135z" />
    <glyph glyph-name="ccircumflex" unicode="&#x109;" 
d="M348 1184l264 309h234l176 -309h-238l-77 141l-119 -141h-240zM567 -20q-223 0 -356 133q-135 132 -135 364q0 265 170 438q170 170 420 170q213 0 348 -114t141 -320h-303q-4 88 -60.5 138.5t-140.5 50.5q-121 0 -200 -101q-82 -101 -82 -256q0 -126 59.5 -190
t157.5 -64q81 0 143.5 49.5t91.5 141.5h305q-41 -203 -191.5 -321.5t-367.5 -118.5z" />
    <glyph glyph-name="Cdotaccent" unicode="&#x10a;" horiz-adv-x="1523" 
d="M778 1632l39 277h291l-37 -277h-293zM754 -18q-301 0 -482 178q-182 176 -182 489q0 355 227 600q229 244 590 244q257 0 428 -139q172 -143 193 -373h-311q-24 117 -113.5 181.5t-220.5 64.5q-214 0 -351 -158q-135 -159 -135 -403q0 -195 98 -305.5t269 -110.5
q275 0 389 246h322q-75 -244 -265.5 -379t-455.5 -135z" />
    <glyph glyph-name="cdotaccent" unicode="&#x10b;" 
d="M541 1223l39 276h290l-36 -276h-293zM567 -20q-223 0 -356 133q-135 132 -135 364q0 265 170 438q170 170 420 170q213 0 348 -114t141 -320h-303q-4 88 -60.5 138.5t-140.5 50.5q-121 0 -200 -101q-82 -101 -82 -256q0 -126 59.5 -190t157.5 -64q81 0 143.5 49.5
t91.5 141.5h305q-41 -203 -191.5 -321.5t-367.5 -118.5z" />
    <glyph glyph-name="Ccaron" unicode="&#x10c;" horiz-adv-x="1523" 
d="M807 1593l-176 310h237l78 -142l119 142h242l-269 -310h-231zM754 -18q-301 0 -482 178q-182 176 -182 489q0 355 227 600q229 244 590 244q257 0 428 -139q172 -143 193 -373h-311q-24 117 -113.5 181.5t-220.5 64.5q-214 0 -351 -158q-135 -159 -135 -403
q0 -195 98 -305.5t269 -110.5q275 0 389 246h322q-75 -244 -265.5 -379t-455.5 -135z" />
    <glyph glyph-name="ccaron" unicode="&#x10d;" 
d="M569 1184l-176 309h238l78 -141l118 141h242l-268 -309h-232zM567 -20q-223 0 -356 133q-135 132 -135 364q0 265 170 438q170 170 420 170q213 0 348 -114t141 -320h-303q-4 88 -60.5 138.5t-140.5 50.5q-121 0 -200 -101q-82 -101 -82 -256q0 -126 59.5 -190t157.5 -64
q81 0 143.5 49.5t91.5 141.5h305q-41 -203 -191.5 -321.5t-367.5 -118.5z" />
    <glyph glyph-name="Dcaron" unicode="&#x10e;" horiz-adv-x="1492" 
d="M635 1579l-176 309h237l78 -141l119 141h242l-269 -309h-231zM63 0l203 1475h506q310 0 498 -185t188 -495q0 -359 -233 -576q-239 -219 -631 -219h-531zM391 258h187q272 0 421.5 142t149.5 391q0 208 -111 317t-315 109h-201z" />
    <glyph glyph-name="dcaron" unicode="&#x10f;" horiz-adv-x="1419" 
d="M524 -20q-165 0 -295 104q-71 55 -112 157t-41 234q0 279 160 447q159 163 399 163q233 0 344 -153l84 606h285l-211 -1538h-267l2 109q-129 -129 -348 -129zM1407 1149l53 389h236l-111 -389h-178zM621 236q129 0 217 94q88 91 88 237q0 122 -69.5 192t-178.5 70
q-123 0 -213 -90q-90 -93 -90 -239q0 -124 69 -194t177 -70z" />
    <glyph glyph-name="Dcroat" unicode="&#x110;" horiz-adv-x="1542" 
d="M113 0l86 625h-160l35 241h157l84 609h506q310 0 498 -185t188 -495q0 -359 -233 -576q-239 -219 -631 -219h-530zM440 258h187q272 0 421.5 142t149.5 391q0 208 -111 317t-315 109h-201l-47 -351h189l-33 -241h-191z" />
    <glyph glyph-name="dslash" unicode="&#x111;" horiz-adv-x="1363" 
d="M524 -20q-165 0 -295 104q-71 55 -112 157t-41 234q0 279 160 447q159 163 399 163q233 0 344 -153l33 235h-312l31 219h311l21 152h285l-21 -152h137l-30 -219h-138l-159 -1167h-267l2 109q-129 -129 -348 -129zM621 236q129 0 217 94q88 91 88 237q0 122 -69.5 192
t-178.5 70q-123 0 -213 -90q-90 -93 -90 -239q0 -124 69 -194t177 -70z" />
    <glyph glyph-name="Emacron" unicode="&#x112;" horiz-adv-x="1216" 
d="M453 1628l28 191h635l-29 -191h-634zM63 0l203 1475h979l-35 -258h-686l-49 -351h510l-35 -252h-510l-51 -356h727l-37 -258h-1016z" />
    <glyph glyph-name="emacron" unicode="&#x113;" horiz-adv-x="1226" 
d="M369 1233l28 190h635l-28 -190h-635zM578 -23q-210 0 -351 132q-142 130 -145 372q-3 266 168 437q167 167 418 167q222 0 354 -129t135 -338q3 -86 -18 -163h-789q9 -246 238 -246q176 0 241 139h289q-54 -172 -197.5 -271.5t-342.5 -99.5zM373 643h510q-9 219 -236 219
q-97 0 -170 -56t-104 -163z" />
    <glyph glyph-name="Ebreve" unicode="&#x114;" horiz-adv-x="1216" 
d="M772 1561q-137 0 -214.5 87.5t-57.5 225.5h184q-10 -60 16 -95.5t80 -35.5q124 0 133 131h189q-12 -149 -99.5 -231t-230.5 -82zM63 0l203 1475h979l-35 -258h-686l-49 -351h510l-35 -252h-510l-51 -356h727l-37 -258h-1016z" />
    <glyph glyph-name="ebreve" unicode="&#x115;" horiz-adv-x="1226" 
d="M688 1165q-136 0 -214 88t-58 226h184q-10 -60 16 -95.5t80 -35.5q124 0 133 131h189q-12 -149 -99.5 -231.5t-230.5 -82.5zM578 -23q-210 0 -351 132q-142 130 -145 372q-3 266 168 437q167 167 418 167q222 0 354 -129t135 -338q3 -86 -18 -163h-789q9 -246 238 -246
q176 0 241 139h289q-54 -172 -197.5 -271.5t-342.5 -99.5zM373 643h510q-9 219 -236 219q-97 0 -170 -56t-104 -163z" />
    <glyph glyph-name="Edotaccent" unicode="&#x116;" horiz-adv-x="1216" 
d="M621 1618l38 276h291l-37 -276h-292zM63 0l203 1475h979l-35 -258h-686l-49 -351h510l-35 -252h-510l-51 -356h727l-37 -258h-1016z" />
    <glyph glyph-name="edotaccent" unicode="&#x117;" horiz-adv-x="1226" 
d="M537 1223l38 276h291l-37 -276h-292zM578 -23q-210 0 -351 132q-142 130 -145 372q-3 266 168 437q167 167 418 167q222 0 354 -129t135 -338q3 -86 -18 -163h-789q9 -246 238 -246q176 0 241 139h289q-54 -172 -197.5 -271.5t-342.5 -99.5zM373 643h510q-9 219 -236 219
q-97 0 -170 -56t-104 -163z" />
    <glyph glyph-name="Eogonek" unicode="&#x118;" horiz-adv-x="1216" 
d="M885 -373q-80 0 -128 39t-48 107q0 145 178 227h-824l203 1475h979l-35 -258h-686l-49 -351h510l-35 -252h-510l-51 -356h727l-37 -258q-172 -70 -172 -152q0 -45 58 -45q27 0 73 17l-24 -162q-60 -31 -129 -31z" />
    <glyph glyph-name="eogonek" unicode="&#x119;" horiz-adv-x="1226" 
d="M586 -360q-81 0 -128.5 38.5t-47.5 106.5q0 120 118 195q-193 15 -317 145q-126 129 -129 356q-3 266 168 437q167 167 418 167q222 0 354 -129t135 -338q3 -86 -18 -163h-789q9 -246 238 -246q176 0 241 139h289q-41 -131 -136.5 -222t-231.5 -128q-142 -62 -142 -137
q0 -45 58 -45q30 0 73 16l-24 -162q-59 -30 -129 -30zM373 643h510q-9 219 -236 219q-97 0 -170 -56t-104 -163z" />
    <glyph glyph-name="Ecaron" unicode="&#x11a;" horiz-adv-x="1216" 
d="M647 1579l-176 309h238l77 -141l119 141h242l-268 -309h-232zM63 0l203 1475h979l-35 -258h-686l-49 -351h510l-35 -252h-510l-51 -356h727l-37 -258h-1016z" />
    <glyph glyph-name="ecaron" unicode="&#x11b;" horiz-adv-x="1226" 
d="M563 1184l-176 309h238l77 -141l119 141h242l-268 -309h-232zM578 -23q-210 0 -351 132q-142 130 -145 372q-3 266 168 437q167 167 418 167q222 0 354 -129t135 -338q3 -86 -18 -163h-789q9 -246 238 -246q176 0 241 139h289q-54 -172 -197.5 -271.5t-342.5 -99.5z
M373 643h510q-9 219 -236 219q-97 0 -170 -56t-104 -163z" />
    <glyph glyph-name="Gcircumflex" unicode="&#x11c;" horiz-adv-x="1601" 
d="M580 1593l264 310h233l176 -310h-237l-78 142l-119 -142h-239zM707 -20q-268 0 -443 172q-176 173 -176 481q0 358 231 610t580 252q263 0 438 -135q174 -137 201 -361h-311q-30 113 -119 170.5t-217 57.5q-210 0 -352 -154t-142 -405q0 -197 101 -309.5t272 -112.5
q144 0 268 71q119 70 154 226q0 4 2 16.5t4.5 27t3.5 19.5h-436l35 240h727l-119 -846h-244l4 156q-182 -176 -462 -176z" />
    <glyph glyph-name="gcircumflex" unicode="&#x11d;" horiz-adv-x="1280" 
d="M381 1182l264 309h234l176 -309h-238l-78 141l-118 -141h-240zM530 -430q-225 0 -360 106q-142 109 -145 279h276q10 -71 73.5 -111.5t162.5 -40.5q240 0 274 228l14 98q-110 -104 -290 -104q-207 0 -332 129.5t-125 355.5q0 249 151 414q148 161 377 161
q111 0 200 -40.5t132 -108.5l39 129h260l-141 -1010q-34 -245 -182 -365t-384 -120zM604 274q119 0 201 88t82 222q0 114 -63.5 180.5t-168.5 66.5q-122 0 -200 -90q-80 -92 -80 -223q0 -117 64 -180.5t165 -63.5z" />
    <glyph glyph-name="Gbreve" unicode="&#x11e;" horiz-adv-x="1601" 
d="M926 1575q-137 0 -215 87.5t-58 225.5h185q-10 -60 16 -95.5t80 -35.5q124 0 133 131h188q-12 -149 -99 -231t-230 -82zM707 -20q-268 0 -443 172q-176 173 -176 481q0 358 231 610t580 252q263 0 438 -135q174 -137 201 -361h-311q-30 113 -119 170.5t-217 57.5
q-210 0 -352 -154t-142 -405q0 -197 101 -309.5t272 -112.5q144 0 268 71q119 70 154 226q0 4 2 16.5t4.5 27t3.5 19.5h-436l35 240h727l-119 -846h-244l4 156q-182 -176 -462 -176z" />
    <glyph glyph-name="gbreve" unicode="&#x11f;" horiz-adv-x="1280" 
d="M727 1163q-136 0 -214 88t-58 226h184q-10 -60 16 -95.5t80 -35.5q124 0 133 131h189q-12 -149 -99.5 -231.5t-230.5 -82.5zM530 -430q-225 0 -360 106q-142 109 -145 279h276q10 -71 73.5 -111.5t162.5 -40.5q240 0 274 228l14 98q-110 -104 -290 -104
q-207 0 -332 129.5t-125 355.5q0 249 151 414q148 161 377 161q111 0 200 -40.5t132 -108.5l39 129h260l-141 -1010q-34 -245 -182 -365t-384 -120zM604 274q119 0 201 88t82 222q0 114 -63.5 180.5t-168.5 66.5q-122 0 -200 -90q-80 -92 -80 -223q0 -117 64 -180.5
t165 -63.5z" />
    <glyph glyph-name="Gdotaccent" unicode="&#x120;" horiz-adv-x="1601" 
d="M772 1632l39 277h291l-37 -277h-293zM707 -20q-268 0 -443 172q-176 173 -176 481q0 358 231 610t580 252q263 0 438 -135q174 -137 201 -361h-311q-30 113 -119 170.5t-217 57.5q-210 0 -352 -154t-142 -405q0 -197 101 -309.5t272 -112.5q144 0 268 71q119 70 154 226
q0 4 2 16.5t4.5 27t3.5 19.5h-436l35 240h727l-119 -846h-244l4 156q-182 -176 -462 -176z" />
    <glyph glyph-name="gdotaccent" unicode="&#x121;" horiz-adv-x="1280" 
d="M575 1221l39 276h291l-37 -276h-293zM530 -430q-225 0 -360 106q-142 109 -145 279h276q10 -71 73.5 -111.5t162.5 -40.5q240 0 274 228l14 98q-110 -104 -290 -104q-207 0 -332 129.5t-125 355.5q0 249 151 414q148 161 377 161q111 0 200 -40.5t132 -108.5l39 129h260
l-141 -1010q-34 -245 -182 -365t-384 -120zM604 274q119 0 201 88t82 222q0 114 -63.5 180.5t-168.5 66.5q-122 0 -200 -90q-80 -92 -80 -223q0 -117 64 -180.5t165 -63.5z" />
    <glyph glyph-name="Gcommaaccent" unicode="&#x122;" horiz-adv-x="1601" 
d="M707 -20q-268 0 -443 172q-176 173 -176 481q0 358 231 610t580 252q263 0 438 -135q174 -137 201 -361h-311q-30 113 -119 170.5t-217 57.5q-210 0 -352 -154t-142 -405q0 -197 101 -309.5t272 -112.5q144 0 268 71q119 70 154 226q0 4 2 16.5t4.5 27t3.5 19.5h-436
l35 240h727l-119 -846h-244l4 156q-182 -176 -462 -176zM567 -508l121 176h-108l32 238h254l-30 -238l-119 -176h-150z" />
    <glyph glyph-name="gcommaaccent" unicode="&#x123;" horiz-adv-x="1280" 
d="M586 1192l32 235l119 177h150l-125 -177h112l-32 -235h-256zM530 -430q-225 0 -360 106q-142 109 -145 279h276q10 -71 73.5 -111.5t162.5 -40.5q240 0 274 228l14 98q-110 -104 -290 -104q-207 0 -332 129.5t-125 355.5q0 249 151 414q148 161 377 161q111 0 200 -40.5
t132 -108.5l39 129h260l-141 -1010q-34 -245 -182 -365t-384 -120zM604 274q119 0 201 88t82 222q0 114 -63.5 180.5t-168.5 66.5q-122 0 -200 -90q-80 -92 -80 -223q0 -117 64 -180.5t165 -63.5z" />
    <glyph glyph-name="Hcircumflex" unicode="&#x124;" horiz-adv-x="1490" 
d="M553 1579l264 309h234l176 -309h-238l-78 141l-118 -141h-240zM63 0l203 1475h293l-80 -590h633l80 590h293l-203 -1475h-293l86 618h-635l-86 -618h-291z" />
    <glyph glyph-name="hcircumflex" unicode="&#x125;" horiz-adv-x="1261" 
d="M78 1626l264 309h233l177 -309h-238l-78 141l-119 -141h-239zM45 0l213 1538h289l-82 -584q107 131 326 131q202 0 302.5 -133.5t69.5 -359.5l-84 -592h-286l71 561q19 135 -31 200.5t-149 65.5q-113 0 -183 -71t-89 -197l-80 -559h-287z" />
    <glyph glyph-name="Hbar" unicode="&#x126;" horiz-adv-x="1523" 
d="M78 0l143 1044h-115l25 195h117l33 236h292l-32 -236h633l32 236h293l-33 -236h129l-26 -195h-129l-144 -1044h-292l86 618h-635l-86 -618h-291zM494 885h632l23 159h-633z" />
    <glyph glyph-name="hbar" unicode="&#x127;" horiz-adv-x="1275" 
d="M61 0l162 1167h-131l31 219h131l20 152h289l-20 -152h323l-30 -219h-324l-31 -213q107 131 326 131q202 0 303 -133.5t70 -359.5l-84 -592h-287l72 561q19 135 -31 200.5t-150 65.5q-113 0 -183 -71t-89 -197l-80 -559h-287z" />
    <glyph glyph-name="Itilde" unicode="&#x128;" horiz-adv-x="565" 
d="M582 1620q-73 0 -150 45q-79 45 -106 45q-73 0 -82 -80h-135q10 118 67 183t148 65q70 0 149 -43q73 -43 105 -43t54.5 20.5t26.5 55.5h136q-9 -117 -65.5 -182.5t-147.5 -65.5zM63 0l203 1475h293l-205 -1475h-291z" />
    <glyph glyph-name="itilde" unicode="&#x129;" horiz-adv-x="526" 
d="M506 1210q-73 0 -150 45q-79 45 -106 45q-73 0 -82 -79h-135q10 118 67 182.5t148 64.5q70 0 149 -43q73 -43 105 -43q33 0 55.5 20.5t26.5 55.5h135q-9 -117 -65.5 -182.5t-147.5 -65.5zM45 0l150 1065h286l-149 -1065h-287z" />
    <glyph glyph-name="Imacron" unicode="&#x12a;" horiz-adv-x="565" 
d="M117 1628l28 191h635l-28 -191h-635zM63 0l203 1475h293l-205 -1475h-291z" />
    <glyph glyph-name="imacron" unicode="&#x12b;" horiz-adv-x="526" 
d="M41 1231l29 190h635l-29 -190h-635zM45 0l150 1065h286l-149 -1065h-287z" />
    <glyph glyph-name="Ibreve" unicode="&#x12c;" horiz-adv-x="565" 
d="M438 1561q-137 0 -214.5 87.5t-57.5 225.5h184q-10 -60 16 -95.5t80 -35.5q125 0 134 131h188q-12 -149 -99.5 -231t-230.5 -82zM63 0l203 1475h293l-205 -1475h-291z" />
    <glyph glyph-name="ibreve" unicode="&#x12d;" horiz-adv-x="526" 
d="M360 1163q-136 0 -214 88t-58 226h184q-10 -60 16.5 -95.5t80.5 -35.5q124 0 133 131h188q-12 -149 -99.5 -231.5t-230.5 -82.5zM45 0l150 1065h286l-149 -1065h-287z" />
    <glyph glyph-name="Iogonek" unicode="&#x12e;" horiz-adv-x="565" 
d="M162 -373q-80 0 -128 39t-48 107q0 145 178 227h-101l203 1475h293l-205 -1475h2q-172 -70 -172 -152q0 -45 58 -45q27 0 73 17l-24 -162q-60 -31 -129 -31z" />
    <glyph glyph-name="iogonek" unicode="&#x12f;" horiz-adv-x="526" 
d="M211 1229l39 276h291l-37 -276h-293zM139 -373q-80 0 -128 39t-48 107q0 145 178 227h-96l148 1065h286l-147 -1065h2q-172 -70 -172 -152q0 -45 57 -45q28 0 74 17l-25 -162q-60 -31 -129 -31z" />
    <glyph glyph-name="Idot" unicode="&#x130;" horiz-adv-x="565" 
d="M287 1618l39 276h290l-36 -276h-293zM63 0l203 1475h293l-205 -1475h-291z" />
    <glyph glyph-name="dotlessi" unicode="&#x131;" horiz-adv-x="526" 
d="M45 0l150 1065h286l-149 -1065h-287z" />
    <glyph glyph-name="IJ" unicode="&#x132;" horiz-adv-x="1699" 
d="M63 0l203 1475h293l-205 -1475h-291zM1008 -20q-230 0 -361 131q-132 129 -98 366h285q-27 -231 190 -231q210 0 240 219l137 1010h293l-138 -1012q-32 -230 -178.5 -356.5t-369.5 -126.5z" />
    <glyph glyph-name="ij" unicode="&#x133;" horiz-adv-x="1058" 
d="M211 1229l39 276h291l-37 -276h-293zM748 1229l38 276h291l-37 -276h-292zM45 0l148 1065h286l-147 -1065h-287zM328 -410l34 252h91q61 0 86.5 21.5t33.5 77.5l154 1124h289l-160 -1167q-23 -166 -110 -237t-269 -71h-149z" />
    <glyph glyph-name="Jcircumflex" unicode="&#x134;" horiz-adv-x="1187" 
d="M754 1579l264 309h233l176 -309h-237l-78 141l-119 -141h-239zM537 -20q-230 0 -361 131q-132 129 -98 366h284q-27 -231 191 -231q210 0 240 219l137 1010h293l-138 -1012q-32 -230 -178.5 -356.5t-369.5 -126.5z" />
    <glyph glyph-name="jcircumflex" unicode="&#x135;" horiz-adv-x="548" 
d="M39 1182l264 309h234l176 -309h-238l-78 141l-118 -141h-240zM-186 -410l34 252h91q61 0 86.5 21.5t33.5 77.5l154 1124h289l-160 -1167q-23 -166 -110 -237t-269 -71h-149z" />
    <glyph glyph-name="Kcommaaccent" unicode="&#x136;" horiz-adv-x="1431" 
d="M63 0l203 1475h293l-92 -674l688 674h377l-655 -646l444 -829h-348l-320 614l-245 -239l-54 -375h-291zM451 -500l120 176h-108l33 238h254l-31 -238l-119 -176h-149z" />
    <glyph glyph-name="kcommaaccent" unicode="&#x137;" horiz-adv-x="1183" 
d="M45 0l213 1538h289l-125 -903l467 430h350l-524 -483l358 -582h-323l-240 403l-135 -120l-41 -283h-289zM369 -489l120 176h-108l33 237h254l-31 -237l-119 -176h-149z" />
    <glyph glyph-name="Lacute" unicode="&#x139;" horiz-adv-x="1165" 
d="M317 1579l226 309h245l-253 -309h-218zM63 0l203 1475h293l-166 -1207h690l-36 -268h-984z" />
    <glyph glyph-name="lacute" unicode="&#x13a;" horiz-adv-x="526" 
d="M303 1632l225 310h246l-254 -310h-217zM45 0l213 1538h289l-215 -1538h-287z" />
    <glyph glyph-name="Lcommaaccent" unicode="&#x13b;" horiz-adv-x="1165" 
d="M63 0l203 1475h293l-166 -1207h690l-36 -268h-984zM371 -516l121 176h-109l33 238h254l-31 -238l-119 -176h-149z" />
    <glyph glyph-name="lcommaaccent" unicode="&#x13c;" horiz-adv-x="526" 
d="M45 0l213 1538h289l-215 -1538h-287zM8 -489l121 176h-109l33 237h254l-31 -237l-118 -176h-150z" />
    <glyph glyph-name="Lcaron" unicode="&#x13d;" horiz-adv-x="1165" 
d="M63 0l203 1475h293l-166 -1207h690l-36 -268h-984zM657 1085l54 390h235l-110 -390h-179z" />
    <glyph glyph-name="lcaron" unicode="&#x13e;" horiz-adv-x="614" 
d="M45 0l213 1538h289l-215 -1538h-287zM600 1149l53 389h236l-111 -389h-178z" />
    <glyph glyph-name="Ldot" unicode="&#x13f;" horiz-adv-x="1169" 
d="M63 0l203 1475h293l-166 -1207h690l-36 -268h-984zM870 752q-58 0 -96.5 38t-38.5 97q0 64 45.5 108.5t112.5 44.5q58 0 96.5 -37t38.5 -96q0 -64 -45.5 -109.5t-112.5 -45.5z" />
    <glyph glyph-name="ldot" unicode="&#x140;" horiz-adv-x="790" 
d="M45 0l213 1538h289l-215 -1538h-287zM676 635q-58 0 -96.5 38t-38.5 97q0 64 45 109t112 45q58 0 97 -37t39 -96q0 -64 -45.5 -110t-112.5 -46z" />
    <glyph glyph-name="Lslash" unicode="&#x141;" horiz-adv-x="1202" 
d="M98 0l88 635l-174 -103l35 252l174 103l80 588h293l-55 -398l233 137l-35 -251l-233 -138l-76 -557h690l-37 -268h-983z" />
    <glyph glyph-name="lslash" unicode="&#x142;" horiz-adv-x="595" 
d="M80 0l88 639l-158 -57l35 245l158 56l90 657h287l-76 -549l160 58l-35 -244l-160 -57l-102 -748h-287z" />
    <glyph glyph-name="Nacute" unicode="&#x143;" horiz-adv-x="1478" 
d="M788 1579l226 309h246l-254 -309h-218zM63 0l203 1475h297l479 -1004l138 1004h290l-202 -1475h-297l-482 981l-135 -981h-291z" />
    <glyph glyph-name="nacute" unicode="&#x144;" horiz-adv-x="1251" 
d="M647 1182l225 309h246l-254 -309h-217zM45 0l148 1065h266v-127q56 68 147 107.5t195 39.5q189 0 288.5 -128.5t67.5 -356.5l-84 -600h-287l80 578q18 131 -31 196.5t-149 65.5q-112 0 -184.5 -73.5t-91.5 -207.5l-78 -559h-287z" />
    <glyph glyph-name="Ncommaaccent" unicode="&#x145;" horiz-adv-x="1478" 
d="M63 0l203 1475h297l479 -1004l138 1004h290l-202 -1475h-297l-482 981l-135 -981h-291zM485 -489l121 176h-108l32 237h254l-30 -237l-119 -176h-150z" />
    <glyph glyph-name="ncommaaccent" unicode="&#x146;" horiz-adv-x="1251" 
d="M45 0l148 1065h266v-127q56 68 147 107.5t195 39.5q189 0 288.5 -128.5t67.5 -356.5l-84 -600h-287l80 578q18 131 -31 196.5t-149 65.5q-112 0 -184.5 -73.5t-91.5 -207.5l-78 -559h-287zM377 -489l121 176h-109l33 237h254l-31 -237l-119 -176h-149z" />
    <glyph glyph-name="Ncaron" unicode="&#x147;" horiz-adv-x="1478" 
d="M782 1579l-176 309h238l78 -141l118 141h242l-268 -309h-232zM63 0l203 1475h297l479 -1004l138 1004h290l-202 -1475h-297l-482 981l-135 -981h-291z" />
    <glyph glyph-name="ncaron" unicode="&#x148;" horiz-adv-x="1251" 
d="M639 1182l-176 309h237l78 -141l119 141h242l-269 -309h-231zM45 0l148 1065h266v-127q56 68 147 107.5t195 39.5q189 0 288.5 -128.5t67.5 -356.5l-84 -600h-287l80 578q18 131 -31 196.5t-149 65.5q-112 0 -184.5 -73.5t-91.5 -207.5l-78 -559h-287z" />
    <glyph glyph-name="Eng" unicode="&#x14a;" horiz-adv-x="1478" 
d="M721 -410l37 254h96q55 0 79 18.5t30 63.5l12 72l-486 981l-135 -979h-291l203 1475h297l481 -1002l138 1002h291l-224 -1594q-23 -156 -110 -223.5t-269 -67.5h-149z" />
    <glyph glyph-name="eng" unicode="&#x14b;" horiz-adv-x="1259" 
d="M475 -426l35 252h123q68 0 97.5 20t39.5 74l92 658q20 131 -28.5 196.5t-149.5 65.5q-113 0 -186 -74t-90 -207l-78 -559h-289l147 1065h269l-2 -129q56 69 147 109t195 40q189 0 288.5 -128.5t67.5 -356.5l-100 -723q-43 -303 -391 -303h-187z" />
    <glyph glyph-name="Omacron" unicode="&#x14c;" horiz-adv-x="1585" 
d="M584 1642l28 191h635l-28 -191h-635zM764 -4q-292 0 -481 186q-191 185 -191 502q0 350 232 582q229 229 550 229q295 0 484 -186q190 -187 190 -508q0 -348 -231 -576q-229 -229 -553 -229zM768 268q190 0 328 156q137 155 137 383q0 197 -103 306.5t-268 109.5
q-188 0 -321 -154q-135 -156 -135 -387q0 -194 99.5 -304t262.5 -110z" />
    <glyph glyph-name="omacron" unicode="&#x14d;" horiz-adv-x="1259" 
d="M377 1233l29 190h634l-28 -190h-635zM588 -20q-222 0 -365 137q-147 138 -147 368q0 262 174 433q172 169 426 169q207 0 358 -139q148 -142 148 -383q0 -253 -170 -420q-168 -165 -424 -165zM596 223q128 0 213 99q86 95 86 247q0 131 -67 203t-173 72q-127 0 -209 -101
q-86 -103 -86 -251q0 -131 64 -200t172 -69z" />
    <glyph glyph-name="Obreve" unicode="&#x14e;" horiz-adv-x="1585" 
d="M903 1575q-137 0 -214.5 87.5t-57.5 225.5h184q-10 -60 16 -95.5t80 -35.5q124 0 133 131h189q-12 -149 -99.5 -231t-230.5 -82zM764 -4q-292 0 -481 186q-191 185 -191 502q0 350 232 582q229 229 550 229q295 0 484 -186q190 -187 190 -508q0 -348 -231 -576
q-229 -229 -553 -229zM768 268q190 0 328 156q137 155 137 383q0 197 -103 306.5t-268 109.5q-188 0 -321 -154q-135 -156 -135 -387q0 -194 99.5 -304t262.5 -110z" />
    <glyph glyph-name="obreve" unicode="&#x14f;" horiz-adv-x="1259" 
d="M698 1165q-136 0 -214 88t-58 226h184q-10 -60 16.5 -95.5t80.5 -35.5q124 0 133 131h188q-12 -149 -99.5 -231.5t-230.5 -82.5zM588 -20q-222 0 -365 137q-147 138 -147 368q0 262 174 433q172 169 426 169q207 0 358 -139q148 -142 148 -383q0 -253 -170 -420
q-168 -165 -424 -165zM596 223q128 0 213 99q86 95 86 247q0 131 -67 203t-173 72q-127 0 -209 -101q-86 -103 -86 -251q0 -131 64 -200t172 -69z" />
    <glyph glyph-name="Ohungarumlaut" unicode="&#x150;" horiz-adv-x="1585" 
d="M629 1593l223 310h246l-254 -310h-215zM946 1593l268 310h246l-297 -310h-217zM764 -4q-292 0 -481 186q-191 185 -191 502q0 350 232 582q229 229 550 229q295 0 484 -186q190 -187 190 -508q0 -348 -231 -576q-229 -229 -553 -229zM768 268q190 0 328 156
q137 155 137 383q0 197 -103 306.5t-268 109.5q-188 0 -321 -154q-135 -156 -135 -387q0 -194 99.5 -304t262.5 -110z" />
    <glyph glyph-name="ohungarumlaut" unicode="&#x151;" horiz-adv-x="1259" 
d="M424 1184l223 309h246l-254 -309h-215zM741 1184l269 309h245l-297 -309h-217zM588 -20q-222 0 -365 137q-147 138 -147 368q0 262 174 433q172 169 426 169q207 0 358 -139q148 -142 148 -383q0 -253 -170 -420q-168 -165 -424 -165zM596 223q128 0 213 99q86 95 86 247
q0 131 -67 203t-173 72q-127 0 -209 -101q-86 -103 -86 -251q0 -131 64 -200t172 -69z" />
    <glyph glyph-name="OE" unicode="&#x152;" horiz-adv-x="2322" 
d="M741 -20q-280 0 -462 182q-183 183 -183 512q0 347 219 586q216 235 557 235q314 0 482 -213l26 193h975l-35 -258h-682l-49 -351h506l-37 -252h-504l-51 -356h719l-37 -258h-1011l20 152q-79 -79 -201.5 -125.5t-251.5 -46.5zM784 256q190 0 324 152q129 150 129 378
q0 201 -104 317t-271 116q-195 0 -323 -152q-129 -153 -129 -381q0 -199 103.5 -314.5t270.5 -115.5z" />
    <glyph glyph-name="oe" unicode="&#x153;" horiz-adv-x="2025" 
d="M578 -20q-223 0 -361 135q-139 133 -139 370q0 261 172 433q172 169 416 169q133 0 237 -53.5t166 -150.5q69 98 179 151t241 53q239 0 364 -149q127 -151 93 -389l-13 -94h-774q-13 -111 51 -177.5t181 -66.5q173 0 241 139h277q-59 -176 -200.5 -272t-330.5 -96
q-131 0 -236 49t-153 139q-68 -88 -178 -139t-233 -51zM1186 641h485q7 104 -51 162.5t-160 58.5q-101 0 -176 -59t-98 -162zM606 217q126 0 207 100q84 101 84 242q0 130 -64 207.5t-174 77.5q-127 0 -206 -101q-82 -101 -82 -249q0 -128 62.5 -202.5t172.5 -74.5z" />
    <glyph glyph-name="Racute" unicode="&#x154;" horiz-adv-x="1390" 
d="M604 1579l225 309h246l-254 -309h-217zM63 0l203 1475h617q232 0 363.5 -122t131.5 -333q0 -182 -99.5 -308t-270.5 -177l196 -535h-327l-172 496h-281l-70 -496h-291zM457 743h301q146 0 227.5 70.5t81.5 194.5q0 209 -225 209h-318z" />
    <glyph glyph-name="racute" unicode="&#x155;" horiz-adv-x="835" 
d="M465 1182l225 309h246l-254 -309h-217zM49 0l148 1065h266l14 -104q70 104 225 104h168l-34 -256h-164q-120 0 -178 -54.5t-76 -174.5l-82 -580h-287z" />
    <glyph glyph-name="Rcommaaccent" unicode="&#x156;" horiz-adv-x="1390" 
d="M63 0l203 1475h617q232 0 363.5 -122t131.5 -333q0 -182 -99.5 -308t-270.5 -177l196 -535h-327l-172 496h-281l-70 -496h-291zM457 743h301q146 0 227.5 70.5t81.5 194.5q0 209 -225 209h-318zM401 -489l121 176h-108l32 237h254l-30 -237l-119 -176h-150z" />
    <glyph glyph-name="rcommaaccent" unicode="&#x157;" horiz-adv-x="835" 
d="M49 0l148 1065h266l14 -104q70 104 225 104h168l-34 -256h-164q-120 0 -178 -54.5t-76 -174.5l-82 -580h-287zM14 -489l121 176h-108l32 237h254l-30 -237l-119 -176h-150z" />
    <glyph glyph-name="Rcaron" unicode="&#x158;" horiz-adv-x="1390" 
d="M596 1579l-176 309h237l78 -141l119 141h242l-269 -309h-231zM63 0l203 1475h617q232 0 363.5 -122t131.5 -333q0 -182 -99.5 -308t-270.5 -177l196 -535h-327l-172 496h-281l-70 -496h-291zM457 743h301q146 0 227.5 70.5t81.5 194.5q0 209 -225 209h-318z" />
    <glyph glyph-name="rcaron" unicode="&#x159;" horiz-adv-x="835" 
d="M457 1182l-176 309h237l78 -141l119 141h241l-268 -309h-231zM49 0l148 1065h266l14 -104q70 104 225 104h168l-34 -256h-164q-120 0 -178 -54.5t-76 -174.5l-82 -580h-287z" />
    <glyph glyph-name="Sacute" unicode="&#x15a;" horiz-adv-x="1310" 
d="M705 1593l225 310h246l-254 -310h-217zM621 -20q-262 0 -416 124t-133 330h286q-11 -97 64.5 -153t216.5 -56q139 0 220 55t81 148q0 65 -42.5 103.5t-137.5 62.5l-203 49q-379 95 -379 389q0 202 156 334q156 129 438 129q88 0 165.5 -14t148.5 -47.5t121 -83.5
t77.5 -127.5t22.5 -175.5h-283q12 102 -57 155t-201 53q-130 0 -204.5 -51.5t-74.5 -138.5q0 -63 46.5 -103.5t152.5 -64.5l207 -49q358 -82 358 -393q0 -225 -182 -351q-182 -124 -448 -124z" />
    <glyph glyph-name="sacute" unicode="&#x15b;" horiz-adv-x="1064" 
d="M487 1182l226 309h245l-253 -309h-218zM475 -20q-207 0 -329.5 93t-122.5 261h278q-1 -73 46.5 -111.5t139.5 -38.5q86 0 136.5 32t50.5 87q0 46 -33.5 71.5t-112.5 43.5l-133 31q-293 65 -293 280q0 160 136 260q137 96 344 96q214 0 332.5 -95t101.5 -251h-279
q6 67 -40.5 104.5t-133.5 37.5q-77 0 -123.5 -31.5t-46.5 -81.5q0 -42 30 -62t114 -40l147 -35q151 -36 220 -108t69 -189q0 -170 -142 -262q-145 -92 -356 -92z" />
    <glyph glyph-name="Scircumflex" unicode="&#x15c;" horiz-adv-x="1310" 
d="M444 1593l265 310h233l176 -310h-237l-78 142l-119 -142h-240zM621 -20q-262 0 -416 124t-133 330h286q-11 -97 64.5 -153t216.5 -56q139 0 220 55t81 148q0 65 -42.5 103.5t-137.5 62.5l-203 49q-379 95 -379 389q0 202 156 334q156 129 438 129q88 0 165.5 -14
t148.5 -47.5t121 -83.5t77.5 -127.5t22.5 -175.5h-283q12 102 -57 155t-201 53q-130 0 -204.5 -51.5t-74.5 -138.5q0 -63 46.5 -103.5t152.5 -64.5l207 -49q358 -82 358 -393q0 -225 -182 -351q-182 -124 -448 -124z" />
    <glyph glyph-name="scircumflex" unicode="&#x15d;" horiz-adv-x="1064" 
d="M258 1182l264 309h234l176 -309h-238l-78 141l-118 -141h-240zM475 -20q-207 0 -329.5 93t-122.5 261h278q-1 -73 46.5 -111.5t139.5 -38.5q86 0 136.5 32t50.5 87q0 46 -33.5 71.5t-112.5 43.5l-133 31q-293 65 -293 280q0 160 136 260q137 96 344 96q214 0 332.5 -95
t101.5 -251h-279q6 67 -40.5 104.5t-133.5 37.5q-77 0 -123.5 -31.5t-46.5 -81.5q0 -42 30 -62t114 -40l147 -35q151 -36 220 -108t69 -189q0 -170 -142 -262q-145 -92 -356 -92z" />
    <glyph glyph-name="Scedilla" unicode="&#x15e;" horiz-adv-x="1310" 
d="M559 -393q-92 0 -146 47t-46 119h135q0 -47 55 -47q59 0 59 53q0 31 -26 44.5t-64 2.5l-53 33l62 125q-229 21 -357 143q-129 120 -108 307h286q-11 -97 64.5 -153t216.5 -56q139 0 220 55t81 148q0 65 -42.5 103.5t-137.5 62.5l-203 49q-379 95 -379 389q0 202 156 334
q156 129 438 129q88 0 165.5 -14t148.5 -47.5t121 -83.5t77.5 -127.5t22.5 -175.5h-283q12 102 -57 155t-201 53q-130 0 -204.5 -51.5t-74.5 -138.5q0 -63 46.5 -103.5t152.5 -64.5l207 -49q358 -82 358 -393q0 -222 -174 -344q-174 -125 -434 -131l-31 -64q73 5 118.5 -34
t45.5 -107q0 -77 -59 -122.5t-156 -45.5z" />
    <glyph glyph-name="scedilla" unicode="&#x15f;" horiz-adv-x="1064" 
d="M438 -379q-92 0 -146 47t-46 119h135q0 -47 55 -47q60 0 60 53q0 31 -26 44.5t-64 2.5l-54 33l54 109q-180 18 -281.5 108.5t-101.5 243.5h278q-1 -73 46.5 -111.5t139.5 -38.5q86 0 136.5 32t50.5 87q0 46 -33.5 71.5t-112.5 43.5l-133 31q-293 65 -293 280
q0 160 136 260q137 96 344 96q214 0 332.5 -95t101.5 -251h-279q6 67 -40.5 104.5t-133.5 37.5q-77 0 -123.5 -31.5t-46.5 -81.5q0 -42 30 -62t114 -40l147 -35q151 -36 220 -108t69 -189q0 -164 -129 -252q-134 -93 -330 -102l-25 -50q73 5 118.5 -34t45.5 -107
q0 -77 -59 -122.5t-156 -45.5z" />
    <glyph glyph-name="Scaron" unicode="&#x160;" horiz-adv-x="1310" 
d="M698 1593l-176 310h238l78 -142l118 142h242l-268 -310h-232zM621 -20q-262 0 -416 124t-133 330h286q-11 -97 64.5 -153t216.5 -56q139 0 220 55t81 148q0 65 -42.5 103.5t-137.5 62.5l-203 49q-379 95 -379 389q0 202 156 334q156 129 438 129q88 0 165.5 -14
t148.5 -47.5t121 -83.5t77.5 -127.5t22.5 -175.5h-283q12 102 -57 155t-201 53q-130 0 -204.5 -51.5t-74.5 -138.5q0 -63 46.5 -103.5t152.5 -64.5l207 -49q358 -82 358 -393q0 -225 -182 -351q-182 -124 -448 -124z" />
    <glyph glyph-name="scaron" unicode="&#x161;" horiz-adv-x="1064" 
d="M479 1182l-176 309h238l77 -141l119 141h242l-268 -309h-232zM475 -20q-207 0 -329.5 93t-122.5 261h278q-1 -73 46.5 -111.5t139.5 -38.5q86 0 136.5 32t50.5 87q0 46 -33.5 71.5t-112.5 43.5l-133 31q-293 65 -293 280q0 160 136 260q137 96 344 96q214 0 332.5 -95
t101.5 -251h-279q6 67 -40.5 104.5t-133.5 37.5q-77 0 -123.5 -31.5t-46.5 -81.5q0 -42 30 -62t114 -40l147 -35q151 -36 220 -108t69 -189q0 -170 -142 -262q-145 -92 -356 -92z" />
    <glyph glyph-name="uni0162" unicode="&#x162;" horiz-adv-x="1300" 
d="M426 0l172 1217h-461l35 258h1214l-34 -258h-461l-172 -1217h-293zM410 -492l120 177h-108l33 237h254l-31 -237l-119 -177h-149z" />
    <glyph glyph-name="uni0163" unicode="&#x163;" horiz-adv-x="778" 
d="M418 0q-311 0 -264 336l67 479h-168l35 250h68q56 0 80.5 18t31.5 70l27 203h287l-39 -291h241l-32 -250h-244l-62 -442q-10 -72 11 -96.5t90 -24.5h127l-37 -252h-219zM209 -489l121 176h-109l33 237h254l-31 -237l-119 -176h-149z" />
    <glyph glyph-name="Tcaron" unicode="&#x164;" horiz-adv-x="1300" 
d="M678 1579l-176 309h237l78 -141l119 141h242l-269 -309h-231zM426 0l172 1217h-461l35 258h1214l-34 -258h-461l-172 -1217h-293z" />
    <glyph glyph-name="tcaron" unicode="&#x165;" horiz-adv-x="788" 
d="M653 1149l54 389h235l-111 -389h-178zM418 0q-311 0 -264 336l67 479h-168l35 250h68q56 0 80.5 18t31.5 70l27 203h287l-39 -291h241l-32 -250h-244l-62 -442q-10 -72 11 -96.5t90 -24.5h127l-37 -252h-219z" />
    <glyph glyph-name="Tbar" unicode="&#x166;" horiz-adv-x="1300" 
d="M426 0l86 608h-223l30 221h224l55 388h-461l35 258h1214l-34 -258h-461l-55 -388h225l-31 -221h-225l-86 -608h-293z" />
    <glyph glyph-name="tbar" unicode="&#x167;" horiz-adv-x="825" 
d="M434 0q-311 0 -264 336l16 121h-143l31 219h143l21 139h-168l34 250h68q56 0 81 18t32 70l26 203h287l-39 -291h242l-33 -250h-244l-18 -139h258l-31 -219h-258l-12 -84q-10 -72 10.5 -96.5t89.5 -24.5h127l-37 -252h-219z" />
    <glyph glyph-name="Utilde" unicode="&#x168;" horiz-adv-x="1454" 
d="M1026 1620q-72 0 -149 45q-79 45 -107 45q-73 0 -82 -80h-135q10 118 67 183t148 65q71 0 150 -43q73 -43 104 -43q33 0 55.5 20.5t26.5 55.5h135q-9 -117 -65.5 -182.5t-147.5 -65.5zM727 -20q-284 0 -440 170q-159 170 -119 471l119 854h297l-125 -900
q-23 -158 53.5 -248.5t220.5 -90.5q143 0 235.5 82t112.5 235l127 922h297l-129 -930q-37 -271 -203 -418t-446 -147z" />
    <glyph glyph-name="utilde" unicode="&#x169;" horiz-adv-x="1208" 
d="M846 1210q-73 0 -150 45q-79 45 -106 45q-73 0 -82 -79h-135q10 118 67 182.5t148 64.5q70 0 149 -43q73 -43 105 -43q33 0 55.5 20.5t26.5 55.5h135q-9 -117 -65.5 -182.5t-147.5 -65.5zM459 -20q-172 0 -269 112q-99 110 -71 320l90 653h272l-80 -590
q-35 -250 177 -250q108 0 176.5 68t85.5 188l82 584h268l-148 -1065h-260l2 129q-113 -149 -325 -149z" />
    <glyph glyph-name="Umacron" unicode="&#x16a;" horiz-adv-x="1454" 
d="M598 1628l29 191h635l-29 -191h-635zM727 -20q-284 0 -440 170q-159 170 -119 471l119 854h297l-125 -900q-23 -158 53.5 -248.5t220.5 -90.5q143 0 235.5 82t112.5 235l127 922h297l-129 -930q-37 -271 -203 -418t-446 -147z" />
    <glyph glyph-name="umacron" unicode="&#x16b;" horiz-adv-x="1208" 
d="M406 1231l28 190h635l-29 -190h-634zM459 -20q-172 0 -269 112q-99 110 -71 320l90 653h272l-80 -590q-35 -250 177 -250q108 0 176.5 68t85.5 188l82 584h268l-148 -1065h-260l2 129q-113 -149 -325 -149z" />
    <glyph glyph-name="Ubreve" unicode="&#x16c;" horiz-adv-x="1454" 
d="M920 1561q-137 0 -215 87.5t-58 225.5h184q-10 -60 16.5 -95.5t80.5 -35.5q124 0 133 131h188q-12 -149 -99 -231t-230 -82zM727 -20q-284 0 -440 170q-159 170 -119 471l119 854h297l-125 -900q-23 -158 53.5 -248.5t220.5 -90.5q143 0 235.5 82t112.5 235l127 922h297
l-129 -930q-37 -271 -203 -418t-446 -147z" />
    <glyph glyph-name="ubreve" unicode="&#x16d;" horiz-adv-x="1208" 
d="M727 1163q-136 0 -214 88t-58 226h184q-10 -60 16 -95.5t80 -35.5q124 0 133 131h189q-12 -149 -99.5 -231.5t-230.5 -82.5zM459 -20q-172 0 -269 112q-99 110 -71 320l90 653h272l-80 -590q-35 -250 177 -250q108 0 176.5 68t85.5 188l82 584h268l-148 -1065h-260l2 129
q-113 -149 -325 -149z" />
    <glyph glyph-name="Uring" unicode="&#x16e;" horiz-adv-x="1454" 
d="M899 1475q-106 0 -178 68t-72 175q0 116 79 190t194 74q107 0 177 -67.5t70 -175.5q0 -117 -77.5 -190.5t-192.5 -73.5zM905 1620q49 0 81 33t32 84q0 43 -29.5 72.5t-73.5 29.5q-49 0 -80.5 -34t-31.5 -85q0 -44 29.5 -72t72.5 -28zM727 -20q-284 0 -440 170
q-159 170 -119 471l119 854h297l-125 -900q-23 -158 53.5 -248.5t220.5 -90.5q143 0 235.5 82t112.5 235l127 922h297l-129 -930q-37 -271 -203 -418t-446 -147z" />
    <glyph glyph-name="uring" unicode="&#x16f;" horiz-adv-x="1208" 
d="M707 1077q-106 0 -178 68.5t-72 175.5q0 116 78.5 190t193.5 74q107 0 177.5 -68t70.5 -176q0 -117 -77.5 -190.5t-192.5 -73.5zM713 1223q49 0 80.5 32.5t31.5 83.5q0 43 -29 73t-73 30q-49 0 -81 -34t-32 -85q0 -44 30 -72t73 -28zM459 -20q-172 0 -269 112
q-99 110 -71 320l90 653h272l-80 -590q-35 -250 177 -250q108 0 176.5 68t85.5 188l82 584h268l-148 -1065h-260l2 129q-113 -149 -325 -149z" />
    <glyph glyph-name="Uhungarumlaut" unicode="&#x170;" horiz-adv-x="1454" 
d="M645 1579l223 309h246l-254 -309h-215zM963 1579l268 309h246l-297 -309h-217zM727 -20q-284 0 -440 170q-159 170 -119 471l119 854h297l-125 -900q-23 -158 53.5 -248.5t220.5 -90.5q143 0 235.5 82t112.5 235l127 922h297l-129 -930q-37 -271 -203 -418t-446 -147z
" />
    <glyph glyph-name="uhungarumlaut" unicode="&#x171;" horiz-adv-x="1208" 
d="M453 1182l223 309h246l-254 -309h-215zM770 1182l268 309h246l-297 -309h-217zM459 -20q-172 0 -269 112q-99 110 -71 320l90 653h272l-80 -590q-35 -250 177 -250q108 0 176.5 68t85.5 188l82 584h268l-148 -1065h-260l2 129q-113 -149 -325 -149z" />
    <glyph glyph-name="Uogonek" unicode="&#x172;" horiz-adv-x="1454" 
d="M664 -383q-81 0 -129 38.5t-48 106.5q0 139 164 222q-252 21 -387 190q-139 167 -98 447l119 854h297l-125 -900q-23 -158 53.5 -248.5t220.5 -90.5q143 0 235.5 82t112.5 235l127 922h297l-129 -930q-31 -237 -163.5 -381t-356.5 -176q-168 -64 -168 -150q0 -45 57 -45
q28 0 74 17l-24 -162q-60 -31 -129 -31z" />
    <glyph glyph-name="uogonek" unicode="&#x173;" horiz-adv-x="1208" 
d="M850 -373q-80 0 -128 39t-48 107q0 145 178 227h-70l2 129q-113 -149 -325 -149q-172 0 -269 112q-99 110 -71 320l90 653h272l-80 -590q-35 -250 177 -250q108 0 176.5 68t85.5 188l82 584h268l-148 -1065h2q-172 -70 -172 -152q0 -45 58 -45q28 0 74 17l-25 -162
q-60 -31 -129 -31z" />
    <glyph glyph-name="Wcircumflex" unicode="&#x174;" horiz-adv-x="2152" 
d="M887 1579l264 309h233l177 -309h-238l-78 141l-119 -141h-239zM338 0l-180 1475h321l94 -1078l459 1078h352l107 -1078l436 1078h326l-625 -1475h-344l-135 1090l-467 -1090h-344z" />
    <glyph glyph-name="wcircumflex" unicode="&#x175;" horiz-adv-x="1685" 
d="M598 1182l264 309h234l176 -309h-238l-78 141l-118 -141h-240zM244 0l-144 1065h299l64 -748l301 748h309l88 -752l271 752h299l-439 -1065h-317l-92 762l-320 -762h-319z" />
    <glyph glyph-name="Ycircumflex" unicode="&#x176;" horiz-adv-x="1417" 
d="M506 1579l264 309h234l176 -309h-238l-78 141l-119 -141h-239zM477 0l72 522l-412 953h332l258 -644l453 644h358l-696 -953l-74 -522h-291z" />
    <glyph glyph-name="ycircumflex" unicode="&#x177;" horiz-adv-x="1165" 
d="M311 1182l264 309h234l176 -309h-237l-78 141l-119 -141h-240zM-70 -410l35 254h250q129 0 129 115q0 22 -10 64l-252 1042h293l164 -807l379 807h307l-625 -1247q-78 -159 -190 -197q-58 -19 -103.5 -25t-124.5 -6h-252z" />
    <glyph glyph-name="Ydieresis" unicode="&#x178;" horiz-adv-x="1417" 
d="M496 1589l34 256h271l-35 -256h-270zM922 1589l34 256h271l-35 -256h-270zM477 0l72 522l-412 953h332l258 -644l453 644h358l-696 -953l-74 -522h-291z" />
    <glyph glyph-name="Zacute" unicode="&#x179;" horiz-adv-x="1247" 
d="M668 1579l225 309h246l-254 -309h-217zM4 0l33 225l862 992h-717l39 258h1082l-33 -226l-856 -991h725l-35 -258h-1100z" />
    <glyph glyph-name="zacute" unicode="&#x17a;" horiz-adv-x="1048" 
d="M506 1176l225 309h246l-254 -309h-217zM8 0l35 252l594 559h-514l35 254h882l-32 -252l-594 -561h514l-37 -252h-883z" />
    <glyph glyph-name="Zdotaccent" unicode="&#x17b;" horiz-adv-x="1247" 
d="M633 1618l39 276h291l-37 -276h-293zM4 0l33 225l862 992h-717l39 258h1082l-33 -226l-856 -991h725l-35 -258h-1100z" />
    <glyph glyph-name="zdotaccent" unicode="&#x17c;" horiz-adv-x="1048" 
d="M471 1214l39 277h291l-37 -277h-293zM8 0l35 252l594 559h-514l35 254h882l-32 -252l-594 -561h514l-37 -252h-883z" />
    <glyph glyph-name="Zcaron" unicode="&#x17d;" horiz-adv-x="1247" 
d="M662 1579l-177 309h238l78 -141l119 141h241l-268 -309h-231zM4 0l33 225l862 992h-717l39 258h1082l-33 -226l-856 -991h725l-35 -258h-1100z" />
    <glyph glyph-name="zcaron" unicode="&#x17e;" horiz-adv-x="1048" 
d="M500 1176l-176 309h237l78 -142l119 142h241l-268 -309h-231zM8 0l35 252l594 559h-514l35 254h882l-32 -252l-594 -561h514l-37 -252h-883z" />
    <glyph glyph-name="florin" unicode="&#x192;" horiz-adv-x="1179" 
d="M-43 -301l35 246h108q78 0 113.5 24t58.5 90l174 533h-235l31 219h278l129 395q45 140 132.5 204.5t244.5 64.5h201l-35 -248h-129q-84 0 -123 -28t-63 -97l-97 -291h291l-31 -219h-331l-203 -610q-51 -160 -137 -224q-83 -59 -250 -59h-162z" />
    <glyph glyph-name="Ohorn" unicode="&#x1a0;" horiz-adv-x="1585" 
d="M1358 1309q190 -187 190 -508q0 -348 -231 -576q-229 -229 -553 -229q-292 0 -481 186q-191 185 -191 502q0 350 232 582q229 229 550 229q102 0 183 -20q175 5 196 172h185q-20 -184 -152 -277q39 -28 72 -61zM1096 424q137 155 137 383q0 197 -103 306.5t-268 109.5
q-188 0 -321 -154q-135 -156 -135 -387q0 -194 99.5 -304t262.5 -110q190 0 328 156z" />
    <glyph glyph-name="ohorn" unicode="&#x1a1;" horiz-adv-x="1259" 
d="M1034 948q148 -142 148 -383q0 -253 -170 -420q-168 -165 -424 -165q-222 0 -365 137q-147 138 -147 368q0 262 174 433q172 169 426 169q78 0 155 -22q70 4 123 43t64 129h184q-22 -196 -168 -289zM809 322q86 95 86 247q0 131 -67 203t-173 72q-127 0 -209 -101
q-86 -103 -86 -251q0 -131 64 -200t172 -69q128 0 213 99z" />
    <glyph glyph-name="Uhorn" unicode="&#x1af;" horiz-adv-x="1454" 
d="M1747 1647q-14 -133 -86 -216t-178 -116l-107 -770q-37 -271 -203 -418t-446 -147q-284 0 -440 170q-159 170 -119 471l119 854h297l-125 -900q-23 -158 53.5 -248.5t220.5 -90.5q143 0 235.5 82t112.5 235l127 922h154q32 0 61.5 7t60 24.5t52 53.5t27.5 87h184z" />
    <glyph glyph-name="uhorn" unicode="&#x1b0;" horiz-adv-x="1208" 
d="M1444 1237q-16 -138 -91.5 -221t-185.5 -115l-125 -901h-260l2 129q-113 -149 -325 -149q-172 0 -269 112q-99 110 -71 320l90 653h272l-80 -590q-35 -250 177 -250q108 0 176.5 68t85.5 188l82 584h137q32 0 61.5 7t60 24.5t52 53.5t27.5 87h184z" />
    <glyph glyph-name="Aringacute" unicode="&#x1fa;" horiz-adv-x="1437" 
d="M797 1907l225 309h246l-254 -309h-217zM-55 0l729 1403q-76 70 -76 178q0 116 78.5 190t193.5 74q107 0 177.5 -67.5t70.5 -175.5q0 -134 -102 -211l330 -1391h-306l-67 309h-555l-158 -309h-315zM854 1483q50 0 81.5 32.5t31.5 83.5q0 43 -29.5 73t-73.5 30
q-49 0 -80.5 -34t-31.5 -85q0 -44 29.5 -72t72.5 -28zM532 532h392l-117 539z" />
    <glyph glyph-name="aringacute" unicode="&#x1fb;" 
d="M586 1491l225 309h246l-254 -309h-217zM395 -20q-167 0 -262.5 79t-95.5 224q0 154 111 249t315 95h307l6 47q12 88 -33 136t-141 48q-91 0 -149 -42.5t-70 -115.5h-258q19 134 100 227.5t211 131.5q-35 59 -35 131q0 116 79 190t194 74q107 0 177.5 -68t70.5 -176
q0 -98 -60 -170q237 -105 197 -393l-51 -377q-9 -61 47 -61h49l-31 -209h-160q-161 0 -170 127q-111 -147 -348 -147zM657 1092q50 0 81.5 32.5t31.5 83.5q0 43 -29 73t-73 30q-49 0 -81 -34t-32 -85q0 -44 29.5 -72t72.5 -28zM498 205q99 0 163 50.5t76 137.5l6 47h-243
q-162 0 -162 -125q0 -110 160 -110z" />
    <glyph glyph-name="AEacute" unicode="&#x1fc;" horiz-adv-x="2078" 
d="M1413 1593l225 310h246l-254 -310h-217zM-78 0l1088 1475h1101l-34 -258h-676l-49 -351h493l-35 -252h-493l-51 -356h712l-36 -258h-990l45 324h-493l-234 -324h-348zM672 561h358l84 610z" />
    <glyph glyph-name="aeacute" unicode="&#x1fd;" horiz-adv-x="1892" 
d="M870 1182l226 309h245l-254 -309h-217zM1243 -23q-285 0 -405 205q-56 -93 -167.5 -147.5t-252.5 -54.5q-177 0 -279 80t-102 219q0 156 113 250t309 94h309l8 53q12 89 -35.5 135.5t-142.5 46.5q-91 0 -149 -44.5t-70 -115.5h-260q24 174 166 283q137 104 329 104
q236 0 338 -147q150 147 383 147q244 0 377 -157q130 -157 100 -400l-10 -75h-774q-10 -118 51 -181t170 -63q81 0 149.5 37t98.5 102h279q-59 -180 -200.5 -275.5t-332.5 -95.5zM1053 641h489q7 103 -52 161t-161 58t-177.5 -58t-98.5 -161zM496 203q103 0 165.5 52
t73.5 146l4 35h-241q-84 0 -122 -35t-38 -88q0 -110 158 -110z" />
    <glyph glyph-name="Oslashacute" unicode="&#x1fe;" horiz-adv-x="1591" 
d="M698 1593l226 310h245l-254 -310h-217zM186 -45l131 199q-221 188 -221 530q0 350 232 582q229 229 551 229q162 0 288 -57l52 80h241l-123 -187q213 -198 213 -530q0 -348 -231 -576q-229 -229 -553 -229q-152 0 -274 51l-62 -92h-244zM481 403l531 799q-64 27 -146 27
q-192 0 -327 -156q-136 -157 -136 -391q0 -169 78 -279zM772 264q192 0 332 158q139 157 139 385q0 161 -74 270l-522 -794q62 -19 125 -19z" />
    <glyph glyph-name="Scommaaccent" unicode="&#x218;" horiz-adv-x="1310" 
d="M621 -20q-262 0 -416 124t-133 330h286q-11 -97 64.5 -153t216.5 -56q139 0 220 55t81 148q0 65 -42.5 103.5t-137.5 62.5l-203 49q-379 95 -379 389q0 202 156 334q156 129 438 129q88 0 165.5 -14t148.5 -47.5t121 -83.5t77.5 -127.5t22.5 -175.5h-283q12 102 -57 155
t-201 53q-130 0 -204.5 -51.5t-74.5 -138.5q0 -63 46.5 -103.5t152.5 -64.5l207 -49q358 -82 358 -393q0 -225 -182 -351q-182 -124 -448 -124zM422 -506l121 176h-109l33 238h254l-31 -238l-119 -176h-149z" />
    <glyph glyph-name="scommaaccent" unicode="&#x219;" horiz-adv-x="1064" 
d="M475 -20q-207 0 -329.5 93t-122.5 261h278q-1 -73 46.5 -111.5t139.5 -38.5q86 0 136.5 32t50.5 87q0 46 -33.5 71.5t-112.5 43.5l-133 31q-293 65 -293 280q0 160 136 260q137 96 344 96q214 0 332.5 -95t101.5 -251h-279q6 67 -40.5 104.5t-133.5 37.5
q-77 0 -123.5 -31.5t-46.5 -81.5q0 -42 30 -62t114 -40l147 -35q151 -36 220 -108t69 -189q0 -170 -142 -262q-145 -92 -356 -92zM293 -492l121 177h-109l33 237h254l-31 -237l-119 -177h-149z" />
    <glyph glyph-name="uni021A" unicode="&#x21a;" horiz-adv-x="1300" 
d="M426 0l172 1217h-461l35 258h1214l-34 -258h-461l-172 -1217h-293zM410 -492l120 177h-108l33 237h254l-31 -237l-119 -177h-149z" />
    <glyph glyph-name="uni021B" unicode="&#x21b;" horiz-adv-x="778" 
d="M418 0q-311 0 -264 336l67 479h-168l35 250h68q56 0 80.5 18t31.5 70l27 203h287l-39 -291h241l-32 -250h-244l-62 -442q-10 -72 11 -96.5t90 -24.5h127l-37 -252h-219zM209 -489l121 176h-109l33 237h254l-31 -237l-119 -176h-149z" />
    <glyph glyph-name="uni0237" unicode="&#x237;" horiz-adv-x="548" 
d="M-186 -410l34 252h91q61 0 86.5 21.5t33.5 77.5l154 1124h289l-160 -1167q-23 -166 -110 -237t-269 -71h-149z" />
    <glyph glyph-name="uni02BB" unicode="&#x2bb;" horiz-adv-x="339" 
d="M139 1239l33 236l119 176h149l-125 -176h113l-33 -236h-256z" />
    <glyph glyph-name="uni02BC" unicode="&#x2bc;" horiz-adv-x="544" 
d="M377 1149l53 389h236l-111 -389h-178z" />
    <glyph glyph-name="circumflex" unicode="&#x2c6;" horiz-adv-x="808" 
d="M172 1288l264 309h234l176 -309h-238l-78 142l-118 -142h-240z" />
    <glyph glyph-name="caron" unicode="&#x2c7;" horiz-adv-x="811" 
d="M391 1288l-176 309h238l77 -141l119 141h242l-268 -309h-232z" />
    <glyph glyph-name="breve" unicode="&#x2d8;" horiz-adv-x="692" 
d="M485 1284q-137 0 -214.5 87.5t-57.5 225.5h184q-10 -60 16.5 -95.5t80.5 -35.5q124 0 133 131h188q-12 -149 -99.5 -231t-230.5 -82z" />
    <glyph glyph-name="dotaccent" unicode="&#x2d9;" horiz-adv-x="479" 
d="M205 1327l39 277h291l-37 -277h-293z" />
    <glyph glyph-name="ring" unicode="&#x2da;" horiz-adv-x="604" 
d="M403 1182q-106 0 -177.5 68t-71.5 175q0 116 78.5 190.5t193.5 74.5q107 0 177.5 -68t70.5 -176q0 -116 -78 -190t-193 -74zM410 1327q49 0 80.5 33t31.5 84q0 43 -29 72.5t-73 29.5q-49 0 -81 -34t-32 -85q0 -44 30 -72t73 -28z" />
    <glyph glyph-name="ogonek" unicode="&#x2db;" horiz-adv-x="557" 
d="M170 -373q-80 0 -128 39t-48 107q0 153 196 235l175 -8q-172 -70 -172 -152q0 -45 57 -45q28 0 74 17l-25 -162q-60 -31 -129 -31z" />
    <glyph glyph-name="tilde" unicode="&#x2dc;" horiz-adv-x="813" 
d="M682 1303q-73 0 -152 49q-82 49 -120 49q-83 0 -95 -86h-149q4 124 72 198t174 74q70 0 153 -47q82 -49 121 -49q37 0 61.5 23t30.5 61h150q-6 -124 -73.5 -198t-172.5 -74z" />
    <glyph glyph-name="hungarumlaut" unicode="&#x2dd;" horiz-adv-x="884" 
d="M182 1288l224 309h245l-254 -309h-215zM500 1288l268 309h246l-297 -309h-217z" />
    <glyph glyph-name="gravecomb" unicode="&#x300;" horiz-adv-x="0" 
d="M-238 1288l-151 281h225l125 -281h-199z" />
    <glyph glyph-name="acutecomb" unicode="&#x301;" horiz-adv-x="0" 
d="M-354 1288l202 281h226l-230 -281h-198z" />
    <glyph glyph-name="circumflexcomb" unicode="&#x302;" horiz-adv-x="0" 
d="M-713 1288l242 281h209l164 -281h-217l-72 131l-109 -131h-217z" />
    <glyph glyph-name="tildecomb" unicode="&#x303;" horiz-adv-x="0" 
d="M-233 1303q-73 0 -150 45q-79 45 -106 45q-73 0 -82 -80h-136q10 118 67 183t148 65q71 0 150 -43q73 -43 104 -43q33 0 55.5 20t26.5 55h136q-9 -117 -65.5 -182t-147.5 -65z" />
    <glyph glyph-name="brevecomb" unicode="&#x306;" horiz-adv-x="0" 
d="M-344 1284q-125 0 -190 77t-44 208h170q-24 -119 86 -119q52 0 84.5 31.5t40.5 87.5h168q-17 -132 -103 -208.5t-212 -76.5z" />
    <glyph glyph-name="hookabovecomb" unicode="&#x309;" horiz-adv-x="0" 
d="M-203 1135l-61 90q52 40 73 62t25 40q11 32 3.5 44.5t-36.5 12.5q-46 0 -104 -41l-62 119q47 36 109.5 59t103.5 23q86 0 135 -46t40 -118q-10 -75 -70.5 -140t-155.5 -105z" />
    <glyph glyph-name="horncomb" unicode="&#x31b;" horiz-adv-x="0" 
d="M-725 883l27 182q32 0 61.5 7t59.5 24.5t51.5 53.5t27.5 87h185q-8 -75 -36.5 -135.5t-68.5 -100.5t-91.5 -67t-105 -39t-110.5 -12z" />
    <glyph glyph-name="dotbelowcomb" unicode="&#x323;" horiz-adv-x="0" 
d="M-422 -408l35 252h264l-33 -252h-266z" />
    <glyph glyph-name="uni0326" unicode="&#x326;" horiz-adv-x="0" 
d="M-498 -424l121 176h-108l32 238h254l-30 -238l-119 -176h-150z" />
    <glyph glyph-name="uni0335" unicode="&#x335;" horiz-adv-x="0" 
d="M-711 489l31 222h741l-30 -222h-742z" />
    <glyph glyph-name="uni0336" unicode="&#x336;" horiz-adv-x="0" 
d="M-1284 498l20 194h1151l-20 -194h-1151z" />
    <glyph glyph-name="uni0337" unicode="&#x337;" horiz-adv-x="0" 
d="M-1151 -74l1014 1207h237l-1011 -1207h-240z" />
    <glyph glyph-name="uni0338" unicode="&#x338;" horiz-adv-x="0" 
d="M-1399 -45l1184 1563h244l-1186 -1563h-242z" />
    <glyph glyph-name="pi" unicode="&#x3c0;" horiz-adv-x="1538" 
d="M350 0v874h-223v259h1362v-259h-236v-479q0 -84 47 -104q33 -15 89 -15h100v-276h-195q-161 0 -243 89.5t-82 242.5l-2 542h-330v-874h-287z" />
    <glyph glyph-name="Wgrave" unicode="&#x1e80;" horiz-adv-x="2152" 
d="M1102 1579l-254 309h246l225 -309h-217zM338 0l-180 1475h321l94 -1078l459 1078h352l107 -1078l436 1078h326l-625 -1475h-344l-135 1090l-467 -1090h-344z" />
    <glyph glyph-name="wgrave" unicode="&#x1e81;" horiz-adv-x="1685" 
d="M813 1182l-254 309h246l225 -309h-217zM244 0l-144 1065h299l64 -748l301 748h309l88 -752l271 752h299l-439 -1065h-317l-92 762l-320 -762h-319z" />
    <glyph glyph-name="Wacute" unicode="&#x1e82;" horiz-adv-x="2152" 
d="M1114 1579l225 309h246l-254 -309h-217zM338 0l-180 1475h321l94 -1078l459 1078h352l107 -1078l436 1078h326l-625 -1475h-344l-135 1090l-467 -1090h-344z" />
    <glyph glyph-name="wacute" unicode="&#x1e83;" horiz-adv-x="1685" 
d="M825 1182l226 309h245l-254 -309h-217zM244 0l-144 1065h299l64 -748l301 748h309l88 -752l271 752h299l-439 -1065h-317l-92 762l-320 -762h-319z" />
    <glyph glyph-name="Wdieresis" unicode="&#x1e84;" horiz-adv-x="2152" 
d="M879 1589l34 256h271l-35 -256h-270zM1305 1589l34 256h271l-35 -256h-270zM338 0l-180 1475h321l94 -1078l459 1078h352l107 -1078l436 1078h326l-625 -1475h-344l-135 1090l-467 -1090h-344z" />
    <glyph glyph-name="wdieresis" unicode="&#x1e85;" horiz-adv-x="1685" 
d="M588 1192l35 256h270l-35 -256h-270zM1014 1192l35 256h270l-35 -256h-270zM244 0l-144 1065h299l64 -748l301 748h309l88 -752l271 752h299l-439 -1065h-317l-92 762l-320 -762h-319z" />
    <glyph glyph-name="uni1EA0" unicode="&#x1ea0;" horiz-adv-x="1437" 
d="M-55 0l766 1475h284l351 -1475h-306l-67 309h-555l-158 -309h-315zM532 532h392l-117 539zM465 -371l35 252h264l-33 -252h-266z" />
    <glyph glyph-name="uni1EA1" unicode="&#x1ea1;" 
d="M395 -20q-167 0 -262.5 79t-95.5 224q0 154 111 249t315 95h307l6 47q12 88 -33 136t-141 48q-91 0 -149 -42.5t-70 -115.5h-258q25 179 159 282t343 103q184 0 315 -90q70 -49 102 -139.5t15 -208.5l-51 -377q-9 -61 47 -61h49l-31 -209h-160q-161 0 -170 127
q-111 -147 -348 -147zM498 205q99 0 163 50.5t76 137.5l6 47h-243q-162 0 -162 -125q0 -110 160 -110zM344 -371l35 252h264l-33 -252h-266z" />
    <glyph glyph-name="uni1EA2" unicode="&#x1ea2;" horiz-adv-x="1437" 
d="M862 1561l-61 90q52 40 73 62t25 40q11 32 3.5 44.5t-36.5 12.5q-46 0 -104 -41l-62 119q47 36 109.5 59t103.5 23q86 0 134.5 -46t39.5 -118q-11 -75 -70.5 -140t-154.5 -105zM-55 0l766 1475h284l351 -1475h-306l-67 309h-555l-158 -309h-315zM532 532h392l-117 539z
" />
    <glyph glyph-name="uni1EA3" unicode="&#x1ea3;" 
d="M659 1171l-61 91q52 40 73 62t25 40q11 32 4 44.5t-36 12.5q-47 0 -105 -41l-61 119q47 36 109.5 59t103.5 23q86 0 134.5 -46t39.5 -118q-11 -75 -71 -140.5t-155 -105.5zM395 -20q-167 0 -262.5 79t-95.5 224q0 154 111 249t315 95h307l6 47q12 88 -33 136t-141 48
q-91 0 -149 -42.5t-70 -115.5h-258q25 179 159 282t343 103q184 0 315 -90q70 -49 102 -139.5t15 -208.5l-51 -377q-9 -61 47 -61h49l-31 -209h-160q-161 0 -170 127q-111 -147 -348 -147zM498 205q99 0 163 50.5t76 137.5l6 47h-243q-162 0 -162 -125q0 -110 160 -110z" />
    <glyph glyph-name="uni1EA4" unicode="&#x1ea4;" horiz-adv-x="1437" 
d="M1135 1753l202 281h226l-230 -281h-198zM559 1587l242 281h209l164 -281h-218l-71 131l-109 -131h-217zM-55 0l766 1475h284l351 -1475h-306l-67 309h-555l-158 -309h-315zM532 532h392l-117 539z" />
    <glyph glyph-name="uni1EA5" unicode="&#x1ea5;" 
d="M932 1364l203 281h225l-230 -281h-198zM356 1198l242 281h209l164 -281h-217l-72 131l-109 -131h-217zM395 -20q-167 0 -262.5 79t-95.5 224q0 154 111 249t315 95h307l6 47q12 88 -33 136t-141 48q-91 0 -149 -42.5t-70 -115.5h-258q25 179 159 282t343 103
q184 0 315 -90q70 -49 102 -139.5t15 -208.5l-51 -377q-9 -61 47 -61h49l-31 -209h-160q-161 0 -170 127q-111 -147 -348 -147zM498 205q99 0 163 50.5t76 137.5l6 47h-243q-162 0 -162 -125q0 -110 160 -110z" />
    <glyph glyph-name="uni1EA6" unicode="&#x1ea6;" horiz-adv-x="1437" 
d="M1176 1786l-152 280h225l125 -280h-198zM559 1587l242 281h209l164 -281h-218l-71 131l-109 -131h-217zM-55 0l766 1475h284l351 -1475h-306l-67 309h-555l-158 -309h-315zM532 532h392l-117 539z" />
    <glyph glyph-name="uni1EA7" unicode="&#x1ea7;" 
d="M973 1397l-152 280h226l124 -280h-198zM356 1198l242 281h209l164 -281h-217l-72 131l-109 -131h-217zM395 -20q-167 0 -262.5 79t-95.5 224q0 154 111 249t315 95h307l6 47q12 88 -33 136t-141 48q-91 0 -149 -42.5t-70 -115.5h-258q25 179 159 282t343 103
q184 0 315 -90q70 -49 102 -139.5t15 -208.5l-51 -377q-9 -61 47 -61h49l-31 -209h-160q-161 0 -170 127q-111 -147 -348 -147zM498 205q99 0 163 50.5t76 137.5l6 47h-243q-162 0 -162 -125q0 -110 160 -110z" />
    <glyph glyph-name="uni1EA8" unicode="&#x1ea8;" horiz-adv-x="1437" 
d="M1188 1712l-62 90q52 40 73.5 62.5t25.5 40.5q11 32 3.5 44.5t-36.5 12.5q-47 0 -105 -41l-61 119q47 36 109.5 59t103.5 23q86 0 134.5 -46t39.5 -118q-11 -75 -70.5 -140.5t-154.5 -105.5zM559 1587l242 281h209l164 -281h-218l-71 131l-109 -131h-217zM-55 0l766 1475
h284l351 -1475h-306l-67 309h-555l-158 -309h-315zM532 532h392l-117 539z" />
    <glyph glyph-name="uni1EA9" unicode="&#x1ea9;" 
d="M985 1323l-61 90q51 40 72.5 62t25.5 41q11 32 3.5 44.5t-36.5 12.5q-46 0 -104 -41l-62 119q47 36 109.5 59t103.5 23q86 0 134.5 -46t39.5 -118q-11 -75 -70.5 -140.5t-154.5 -105.5zM356 1198l242 281h209l164 -281h-217l-72 131l-109 -131h-217zM395 -20
q-167 0 -262.5 79t-95.5 224q0 154 111 249t315 95h307l6 47q12 88 -33 136t-141 48q-91 0 -149 -42.5t-70 -115.5h-258q25 179 159 282t343 103q184 0 315 -90q70 -49 102 -139.5t15 -208.5l-51 -377q-9 -61 47 -61h49l-31 -209h-160q-161 0 -170 127q-111 -147 -348 -147z
M498 205q99 0 163 50.5t76 137.5l6 47h-243q-162 0 -162 -125q0 -110 160 -110z" />
    <glyph glyph-name="uni1EAA" unicode="&#x1eaa;" horiz-adv-x="1437" 
d="M1014 1917q-73 0 -150 45q-79 45 -106 45q-73 0 -82 -80h-135q10 118 67 183t148 65q70 0 149 -43q73 -43 105 -43q33 0 55.5 20.5t26.5 55.5h135q-9 -117 -65.5 -182.5t-147.5 -65.5zM559 1587l242 281h209l164 -281h-218l-71 131l-109 -131h-217zM-55 0l766 1475h284
l351 -1475h-306l-67 309h-555l-158 -309h-315zM532 532h392l-117 539z" />
    <glyph glyph-name="uni1EAB" unicode="&#x1eab;" 
d="M811 1528q-72 0 -149 45q-79 45 -107 45q-73 0 -82 -80h-135q10 118 67 183t148 65q70 0 149 -43q73 -43 105 -43q33 0 55.5 20.5t26.5 55.5h135q-9 -117 -65.5 -182.5t-147.5 -65.5zM356 1198l242 281h209l164 -281h-217l-72 131l-109 -131h-217zM395 -20
q-167 0 -262.5 79t-95.5 224q0 154 111 249t315 95h307l6 47q12 88 -33 136t-141 48q-91 0 -149 -42.5t-70 -115.5h-258q25 179 159 282t343 103q184 0 315 -90q70 -49 102 -139.5t15 -208.5l-51 -377q-9 -61 47 -61h49l-31 -209h-160q-161 0 -170 127q-111 -147 -348 -147z
M498 205q99 0 163 50.5t76 137.5l6 47h-243q-162 0 -162 -125q0 -110 160 -110z" />
    <glyph glyph-name="uni1EAC" unicode="&#x1eac;" horiz-adv-x="1437" 
d="M559 1587l242 281h209l164 -281h-218l-71 131l-109 -131h-217zM-55 0l766 1475h284l351 -1475h-306l-67 309h-555l-158 -309h-315zM532 532h392l-117 539zM465 -371l35 252h264l-33 -252h-266z" />
    <glyph glyph-name="uni1EAD" unicode="&#x1ead;" 
d="M356 1198l242 281h209l164 -281h-217l-72 131l-109 -131h-217zM395 -20q-167 0 -262.5 79t-95.5 224q0 154 111 249t315 95h307l6 47q12 88 -33 136t-141 48q-91 0 -149 -42.5t-70 -115.5h-258q25 179 159 282t343 103q184 0 315 -90q70 -49 102 -139.5t15 -208.5
l-51 -377q-9 -61 47 -61h49l-31 -209h-160q-161 0 -170 127q-111 -147 -348 -147zM498 205q99 0 163 50.5t76 137.5l6 47h-243q-162 0 -162 -125q0 -110 160 -110zM344 -371l35 252h264l-33 -252h-266z" />
    <glyph glyph-name="uni1EAE" unicode="&#x1eae;" horiz-adv-x="1437" 
d="M762 1942l203 280h225l-229 -280h-199zM868 1608q-125 0 -189.5 76t-43.5 208h170q-24 -118 86 -118q52 0 84.5 31t40.5 87h168q-17 -132 -103.5 -208t-212.5 -76zM-55 0l766 1475h284l351 -1475h-306l-67 309h-555l-158 -309h-315zM532 532h392l-117 539z" />
    <glyph glyph-name="uni1EAF" unicode="&#x1eaf;" 
d="M559 1552l203 281h225l-229 -281h-199zM666 1219q-125 0 -190 76.5t-44 207.5h170q-24 -119 86 -119q52 0 84.5 31.5t40.5 87.5h168q-17 -132 -103 -208t-212 -76zM395 -20q-167 0 -262.5 79t-95.5 224q0 154 111 249t315 95h307l6 47q12 88 -33 136t-141 48
q-91 0 -149 -42.5t-70 -115.5h-258q25 179 159 282t343 103q184 0 315 -90q70 -49 102 -139.5t15 -208.5l-51 -377q-9 -61 47 -61h49l-31 -209h-160q-161 0 -170 127q-111 -147 -348 -147zM498 205q99 0 163 50.5t76 137.5l6 47h-243q-162 0 -162 -125q0 -110 160 -110z" />
    <glyph glyph-name="uni1EB0" unicode="&#x1eb0;" horiz-adv-x="1437" 
d="M760 1937l-152 281h226l124 -281h-198zM868 1608q-125 0 -189.5 76t-43.5 208h170q-24 -118 86 -118q52 0 84.5 31t40.5 87h168q-17 -132 -103.5 -208t-212.5 -76zM-55 0l766 1475h284l351 -1475h-306l-67 309h-555l-158 -309h-315zM532 532h392l-117 539z" />
    <glyph glyph-name="uni1EB1" unicode="&#x1eb1;" 
d="M557 1548l-151 281h225l125 -281h-199zM666 1219q-125 0 -190 76.5t-44 207.5h170q-24 -119 86 -119q52 0 84.5 31.5t40.5 87.5h168q-17 -132 -103 -208t-212 -76zM395 -20q-167 0 -262.5 79t-95.5 224q0 154 111 249t315 95h307l6 47q12 88 -33 136t-141 48
q-91 0 -149 -42.5t-70 -115.5h-258q25 179 159 282t343 103q184 0 315 -90q70 -49 102 -139.5t15 -208.5l-51 -377q-9 -61 47 -61h49l-31 -209h-160q-161 0 -170 127q-111 -147 -348 -147zM498 205q99 0 163 50.5t76 137.5l6 47h-243q-162 0 -162 -125q0 -110 160 -110z" />
    <glyph glyph-name="uni1EB2" unicode="&#x1eb2;" horiz-adv-x="1437" 
d="M868 1898l-61 91q52 40 73 62t25 40q11 32 3.5 44.5t-36.5 12.5q-46 0 -104 -41l-61 119q47 36 109.5 59t103.5 23q86 0 134.5 -46t39.5 -118q-11 -75 -71 -140.5t-155 -105.5zM868 1608q-125 0 -189.5 76t-43.5 208h170q-24 -118 86 -118q52 0 84.5 31t40.5 87h168
q-17 -132 -103.5 -208t-212.5 -76zM-55 0l766 1475h284l351 -1475h-306l-67 309h-555l-158 -309h-315zM532 532h392l-117 539z" />
    <glyph glyph-name="uni1EB3" unicode="&#x1eb3;" 
d="M666 1509l-62 90q51 40 72.5 62t25.5 41q11 32 4 44.5t-36 12.5q-47 0 -105 -41l-61 119q47 36 109.5 59t103.5 23q86 0 134.5 -46t39.5 -118q-11 -75 -70.5 -140.5t-154.5 -105.5zM666 1219q-125 0 -190 76.5t-44 207.5h170q-24 -119 86 -119q52 0 84.5 31.5t40.5 87.5
h168q-17 -132 -103 -208t-212 -76zM395 -20q-167 0 -262.5 79t-95.5 224q0 154 111 249t315 95h307l6 47q12 88 -33 136t-141 48q-91 0 -149 -42.5t-70 -115.5h-258q25 179 159 282t343 103q184 0 315 -90q70 -49 102 -139.5t15 -208.5l-51 -377q-9 -61 47 -61h49l-31 -209
h-160q-161 0 -170 127q-111 -147 -348 -147zM498 205q99 0 163 50.5t76 137.5l6 47h-243q-162 0 -162 -125q0 -110 160 -110z" />
    <glyph glyph-name="uni1EB4" unicode="&#x1eb4;" horiz-adv-x="1437" 
d="M1016 1980q-73 0 -150 45q-81 46 -106 46q-73 0 -82 -80h-135q10 118 67 182.5t148 64.5q70 0 149 -43q73 -43 105 -43q33 0 55.5 20.5t26.5 55.5h135q-9 -117 -65.5 -182.5t-147.5 -65.5zM868 1608q-125 0 -189.5 76t-43.5 208h170q-24 -118 86 -118q52 0 84.5 31
t40.5 87h168q-17 -132 -103.5 -208t-212.5 -76zM-55 0l766 1475h284l351 -1475h-306l-67 309h-555l-158 -309h-315zM532 532h392l-117 539z" />
    <glyph glyph-name="uni1EB5" unicode="&#x1eb5;" 
d="M813 1591q-72 0 -149 45q-79 45 -107 45q-73 0 -82 -79h-135q10 118 67 182.5t148 64.5q71 0 150 -43q73 -43 104 -43q33 0 55.5 20.5t26.5 55.5h135q-9 -117 -65.5 -182.5t-147.5 -65.5zM666 1219q-125 0 -190 76.5t-44 207.5h170q-24 -119 86 -119q52 0 84.5 31.5
t40.5 87.5h168q-17 -132 -103 -208t-212 -76zM395 -20q-167 0 -262.5 79t-95.5 224q0 154 111 249t315 95h307l6 47q12 88 -33 136t-141 48q-91 0 -149 -42.5t-70 -115.5h-258q25 179 159 282t343 103q184 0 315 -90q70 -49 102 -139.5t15 -208.5l-51 -377q-9 -61 47 -61h49
l-31 -209h-160q-161 0 -170 127q-111 -147 -348 -147zM498 205q99 0 163 50.5t76 137.5l6 47h-243q-162 0 -162 -125q0 -110 160 -110z" />
    <glyph glyph-name="uni1EB6" unicode="&#x1eb6;" horiz-adv-x="1437" 
d="M868 1608q-125 0 -189.5 76t-43.5 208h170q-24 -118 86 -118q52 0 84.5 31t40.5 87h168q-17 -132 -103.5 -208t-212.5 -76zM-55 0l766 1475h284l351 -1475h-306l-67 309h-555l-158 -309h-315zM532 532h392l-117 539zM465 -371l35 252h264l-33 -252h-266z" />
    <glyph glyph-name="uni1EB7" unicode="&#x1eb7;" 
d="M666 1219q-125 0 -190 76.5t-44 207.5h170q-24 -119 86 -119q52 0 84.5 31.5t40.5 87.5h168q-17 -132 -103 -208t-212 -76zM395 -20q-167 0 -262.5 79t-95.5 224q0 154 111 249t315 95h307l6 47q12 88 -33 136t-141 48q-91 0 -149 -42.5t-70 -115.5h-258q25 179 159 282
t343 103q184 0 315 -90q70 -49 102 -139.5t15 -208.5l-51 -377q-9 -61 47 -61h49l-31 -209h-160q-161 0 -170 127q-111 -147 -348 -147zM498 205q99 0 163 50.5t76 137.5l6 47h-243q-162 0 -162 -125q0 -110 160 -110zM344 -371l35 252h264l-33 -252h-266z" />
    <glyph glyph-name="uni1EB8" unicode="&#x1eb8;" horiz-adv-x="1216" 
d="M63 0l203 1475h979l-35 -258h-686l-49 -351h510l-35 -252h-510l-51 -356h727l-37 -258h-1016zM354 -371l35 252h264l-32 -252h-267z" />
    <glyph glyph-name="uni1EB9" unicode="&#x1eb9;" horiz-adv-x="1226" 
d="M578 -23q-210 0 -351 132q-142 130 -145 372q-3 266 168 437q167 167 418 167q222 0 354 -129t135 -338q3 -86 -18 -163h-789q9 -246 238 -246q176 0 241 139h289q-54 -172 -197.5 -271.5t-342.5 -99.5zM373 643h510q-9 219 -236 219q-97 0 -170 -56t-104 -163zM360 -371
l35 252h264l-32 -252h-267z" />
    <glyph glyph-name="uni1EBA" unicode="&#x1eba;" horiz-adv-x="1216" 
d="M752 1561l-62 90q52 40 73 62t25 40q11 32 4 44.5t-36 12.5q-47 0 -105 -41l-61 119q47 36 109.5 59t103.5 23q86 0 134.5 -46t39.5 -118q-11 -75 -70.5 -140t-154.5 -105zM63 0l203 1475h979l-35 -258h-686l-49 -351h510l-35 -252h-510l-51 -356h727l-37 -258h-1016z
" />
    <glyph glyph-name="uni1EBB" unicode="&#x1ebb;" horiz-adv-x="1226" 
d="M700 1151l-61 90q52 40 73 62t25 40q11 32 4 45t-36 13q-47 0 -105 -41l-61 119q47 36 109.5 59t103.5 23q86 0 134.5 -46t39.5 -118q-11 -75 -71 -140.5t-155 -105.5zM578 -23q-210 0 -351 132q-142 130 -145 372q-3 266 168 437q167 167 418 167q222 0 354 -129
t135 -338q3 -86 -18 -163h-789q9 -246 238 -246q176 0 241 139h289q-54 -172 -197.5 -271.5t-342.5 -99.5zM373 643h510q-9 219 -236 219q-97 0 -170 -56t-104 -163z" />
    <glyph glyph-name="uni1EBC" unicode="&#x1ebc;" horiz-adv-x="1216" 
d="M907 1620q-72 0 -149 45q-79 45 -107 45q-73 0 -82 -80h-135q10 118 67 183t148 65q71 0 150 -43q73 -43 104 -43q33 0 55.5 20.5t26.5 55.5h135q-9 -117 -65.5 -182.5t-147.5 -65.5zM63 0l203 1475h979l-35 -258h-686l-49 -351h510l-35 -252h-510l-51 -356h727l-37 -258
h-1016z" />
    <glyph glyph-name="uni1EBD" unicode="&#x1ebd;" horiz-adv-x="1226" 
d="M856 1210q-72 0 -149 45q-79 45 -107 45q-73 0 -82 -79h-135q10 118 67 182.5t148 64.5q71 0 150 -43q73 -43 104 -43q33 0 55.5 20.5t26.5 55.5h135q-9 -117 -65.5 -182.5t-147.5 -65.5zM578 -23q-210 0 -351 132q-142 130 -145 372q-3 266 168 437q167 167 418 167
q222 0 354 -129t135 -338q3 -86 -18 -163h-789q9 -246 238 -246q176 0 241 139h289q-54 -172 -197.5 -271.5t-342.5 -99.5zM373 643h510q-9 219 -236 219q-97 0 -170 -56t-104 -163z" />
    <glyph glyph-name="uni1EBE" unicode="&#x1ebe;" horiz-adv-x="1216" 
d="M1024 1753l203 281h225l-229 -281h-199zM449 1587l241 281h209l164 -281h-217l-72 131l-108 -131h-217zM63 0l203 1475h979l-35 -258h-686l-49 -351h510l-35 -252h-510l-51 -356h727l-37 -258h-1016z" />
    <glyph glyph-name="uni1EBF" unicode="&#x1ebf;" horiz-adv-x="1226" 
d="M973 1343l203 281h225l-230 -281h-198zM397 1178l242 280h209l164 -280h-217l-72 131l-109 -131h-217zM578 -23q-210 0 -351 132q-142 130 -145 372q-3 266 168 437q167 167 418 167q222 0 354 -129t135 -338q3 -86 -18 -163h-789q9 -246 238 -246q176 0 241 139h289
q-54 -172 -197.5 -271.5t-342.5 -99.5zM373 643h510q-9 219 -236 219q-97 0 -170 -56t-104 -163z" />
    <glyph glyph-name="uni1EC0" unicode="&#x1ec0;" horiz-adv-x="1216" 
d="M1065 1786l-152 280h226l125 -280h-199zM449 1587l241 281h209l164 -281h-217l-72 131l-108 -131h-217zM63 0l203 1475h979l-35 -258h-686l-49 -351h510l-35 -252h-510l-51 -356h727l-37 -258h-1016z" />
    <glyph glyph-name="uni1EC1" unicode="&#x1ec1;" horiz-adv-x="1226" 
d="M1014 1376l-152 281h225l125 -281h-198zM397 1178l242 280h209l164 -280h-217l-72 131l-109 -131h-217zM578 -23q-210 0 -351 132q-142 130 -145 372q-3 266 168 437q167 167 418 167q222 0 354 -129t135 -338q3 -86 -18 -163h-789q9 -246 238 -246q176 0 241 139h289
q-54 -172 -197.5 -271.5t-342.5 -99.5zM373 643h510q-9 219 -236 219q-97 0 -170 -56t-104 -163z" />
    <glyph glyph-name="uni1EC2" unicode="&#x1ec2;" horiz-adv-x="1216" 
d="M1077 1712l-61 90q51 40 72.5 62t25.5 41q11 32 3.5 44.5t-36.5 12.5q-46 0 -104 -41l-62 119q47 36 109.5 59t103.5 23q86 0 135 -46t40 -118q-11 -75 -71 -140.5t-155 -105.5zM449 1587l241 281h209l164 -281h-217l-72 131l-108 -131h-217zM63 0l203 1475h979l-35 -258
h-686l-49 -351h510l-35 -252h-510l-51 -356h727l-37 -258h-1016z" />
    <glyph glyph-name="uni1EC3" unicode="&#x1ec3;" horiz-adv-x="1226" 
d="M1026 1303l-61 90q52 40 73 62t25 40q11 32 3.5 44.5t-36.5 12.5q-46 0 -104 -41l-62 119q47 36 109.5 59t103.5 23q86 0 134.5 -46t39.5 -118q-11 -75 -70.5 -140t-154.5 -105zM397 1178l242 280h209l164 -280h-217l-72 131l-109 -131h-217zM578 -23q-210 0 -351 132
q-142 130 -145 372q-3 266 168 437q167 167 418 167q222 0 354 -129t135 -338q3 -86 -18 -163h-789q9 -246 238 -246q176 0 241 139h289q-54 -172 -197.5 -271.5t-342.5 -99.5zM373 643h510q-9 219 -236 219q-97 0 -170 -56t-104 -163z" />
    <glyph glyph-name="uni1EC4" unicode="&#x1ec4;" horiz-adv-x="1216" 
d="M903 1917q-72 0 -149 45q-79 45 -107 45q-73 0 -82 -80h-135q10 118 67 183t148 65q71 0 150 -43q73 -43 104 -43q33 0 55.5 20.5t26.5 55.5h135q-9 -117 -65.5 -182.5t-147.5 -65.5zM449 1587l241 281h209l164 -281h-217l-72 131l-108 -131h-217zM63 0l203 1475h979
l-35 -258h-686l-49 -351h510l-35 -252h-510l-51 -356h727l-37 -258h-1016z" />
    <glyph glyph-name="uni1EC5" unicode="&#x1ec5;" horiz-adv-x="1226" 
d="M852 1507q-73 0 -150 45q-79 45 -106 45q-73 0 -82 -79h-135q10 118 67 182.5t148 64.5q70 0 149 -43q73 -43 105 -43q33 0 55.5 20.5t26.5 55.5h135q-9 -117 -65.5 -182.5t-147.5 -65.5zM397 1178l242 280h209l164 -280h-217l-72 131l-109 -131h-217zM578 -23
q-210 0 -351 132q-142 130 -145 372q-3 266 168 437q167 167 418 167q222 0 354 -129t135 -338q3 -86 -18 -163h-789q9 -246 238 -246q176 0 241 139h289q-54 -172 -197.5 -271.5t-342.5 -99.5zM373 643h510q-9 219 -236 219q-97 0 -170 -56t-104 -163z" />
    <glyph glyph-name="uni1EC6" unicode="&#x1ec6;" horiz-adv-x="1216" 
d="M449 1587l241 281h209l164 -281h-217l-72 131l-108 -131h-217zM63 0l203 1475h979l-35 -258h-686l-49 -351h510l-35 -252h-510l-51 -356h727l-37 -258h-1016zM354 -371l35 252h264l-32 -252h-267z" />
    <glyph glyph-name="uni1EC7" unicode="&#x1ec7;" horiz-adv-x="1226" 
d="M397 1178l242 280h209l164 -280h-217l-72 131l-109 -131h-217zM578 -23q-210 0 -351 132q-142 130 -145 372q-3 266 168 437q167 167 418 167q222 0 354 -129t135 -338q3 -86 -18 -163h-789q9 -246 238 -246q176 0 241 139h289q-54 -172 -197.5 -271.5t-342.5 -99.5z
M373 643h510q-9 219 -236 219q-97 0 -170 -56t-104 -163zM360 -371l35 252h264l-32 -252h-267z" />
    <glyph glyph-name="uni1EC8" unicode="&#x1ec8;" horiz-adv-x="565" 
d="M426 1561l-61 90q52 40 73 62t25 40q11 32 3.5 44.5t-36.5 12.5q-46 0 -104 -41l-62 119q47 36 109.5 59t103.5 23q86 0 134.5 -46t39.5 -118q-11 -75 -70.5 -140t-154.5 -105zM63 0l203 1475h293l-205 -1475h-291z" />
    <glyph glyph-name="uni1EC9" unicode="&#x1ec9;" horiz-adv-x="526" 
d="M350 1151l-61 90q52 40 73 62t25 40q11 32 3.5 45t-36.5 13q-46 0 -104 -41l-62 119q47 36 109.5 59t103.5 23q86 0 134.5 -46t39.5 -118q-11 -75 -70.5 -140.5t-154.5 -105.5zM45 0l150 1065h286l-149 -1065h-287z" />
    <glyph glyph-name="uni1ECA" unicode="&#x1eca;" horiz-adv-x="565" 
d="M63 0l203 1475h293l-205 -1475h-291zM29 -371l34 252h265l-33 -252h-266z" />
    <glyph glyph-name="uni1ECB" unicode="&#x1ecb;" horiz-adv-x="526" 
d="M211 1229l39 276h291l-37 -276h-293zM45 0l148 1065h286l-147 -1065h-287zM10 -371l35 252h264l-33 -252h-266z" />
    <glyph glyph-name="uni1ECC" unicode="&#x1ecc;" horiz-adv-x="1585" 
d="M764 -4q-292 0 -481 186q-191 185 -191 502q0 350 232 582q229 229 550 229q295 0 484 -186q190 -187 190 -508q0 -348 -231 -576q-229 -229 -553 -229zM768 268q190 0 328 156q137 155 137 383q0 197 -103 306.5t-268 109.5q-188 0 -321 -154q-135 -156 -135 -387
q0 -194 99.5 -304t262.5 -110zM539 -371l34 252h265l-33 -252h-266z" />
    <glyph glyph-name="uni1ECD" unicode="&#x1ecd;" horiz-adv-x="1259" 
d="M588 -20q-222 0 -365 137q-147 138 -147 368q0 262 174 433q172 169 426 169q207 0 358 -139q148 -142 148 -383q0 -253 -170 -420q-168 -165 -424 -165zM596 223q128 0 213 99q86 95 86 247q0 131 -67 203t-173 72q-127 0 -209 -101q-86 -103 -86 -251q0 -131 64 -200
t172 -69zM377 -371l35 252h264l-33 -252h-266z" />
    <glyph glyph-name="uni1ECE" unicode="&#x1ece;" horiz-adv-x="1585" 
d="M936 1561l-62 90q52 41 73.5 62.5t25.5 39.5q11 32 3.5 44.5t-36.5 12.5q-46 0 -104 -41l-62 119q47 36 109.5 59t103.5 23q86 0 134.5 -46t39.5 -118q-11 -75 -70.5 -140t-154.5 -105zM764 -4q-292 0 -481 186q-191 185 -191 502q0 350 232 582q229 229 550 229
q295 0 484 -186q190 -187 190 -508q0 -348 -231 -576q-229 -229 -553 -229zM768 268q190 0 328 156q137 155 137 383q0 197 -103 306.5t-268 109.5q-188 0 -321 -154q-135 -156 -135 -387q0 -194 99.5 -304t262.5 -110z" />
    <glyph glyph-name="uni1ECF" unicode="&#x1ecf;" horiz-adv-x="1259" 
d="M717 1151l-62 90q52 41 73.5 62.5t25.5 39.5q11 32 3.5 45t-36.5 13q-47 0 -105 -41l-61 119q47 36 109.5 59t103.5 23q86 0 134.5 -46t39.5 -118q-11 -75 -70.5 -140.5t-154.5 -105.5zM588 -20q-222 0 -365 137q-147 138 -147 368q0 262 174 433q172 169 426 169
q207 0 358 -139q148 -142 148 -383q0 -253 -170 -420q-168 -165 -424 -165zM596 223q128 0 213 99q86 95 86 247q0 131 -67 203t-173 72q-127 0 -209 -101q-86 -103 -86 -251q0 -131 64 -200t172 -69z" />
    <glyph glyph-name="uni1ED0" unicode="&#x1ed0;" horiz-adv-x="1585" 
d="M1208 1753l203 281h225l-229 -281h-199zM633 1587l241 281h209l164 -281h-217l-72 131l-108 -131h-217zM764 -4q-292 0 -481 186q-191 185 -191 502q0 350 232 582q229 229 550 229q295 0 484 -186q190 -187 190 -508q0 -348 -231 -576q-229 -229 -553 -229zM768 268
q190 0 328 156q137 155 137 383q0 197 -103 306.5t-268 109.5q-188 0 -321 -154q-135 -156 -135 -387q0 -194 99.5 -304t262.5 -110z" />
    <glyph glyph-name="uni1ED1" unicode="&#x1ed1;" horiz-adv-x="1259" 
d="M989 1343l203 281h225l-229 -281h-199zM414 1178l241 280h209l164 -280h-217l-72 131l-108 -131h-217zM588 -20q-222 0 -365 137q-147 138 -147 368q0 262 174 433q172 169 426 169q207 0 358 -139q148 -142 148 -383q0 -253 -170 -420q-168 -165 -424 -165zM596 223
q128 0 213 99q86 95 86 247q0 131 -67 203t-173 72q-127 0 -209 -101q-86 -103 -86 -251q0 -131 64 -200t172 -69z" />
    <glyph glyph-name="uni1ED2" unicode="&#x1ed2;" horiz-adv-x="1585" 
d="M1249 1786l-151 280h225l125 -280h-199zM633 1587l241 281h209l164 -281h-217l-72 131l-108 -131h-217zM764 -4q-292 0 -481 186q-191 185 -191 502q0 350 232 582q229 229 550 229q295 0 484 -186q190 -187 190 -508q0 -348 -231 -576q-229 -229 -553 -229zM768 268
q190 0 328 156q137 155 137 383q0 197 -103 306.5t-268 109.5q-188 0 -321 -154q-135 -156 -135 -387q0 -194 99.5 -304t262.5 -110z" />
    <glyph glyph-name="uni1ED3" unicode="&#x1ed3;" horiz-adv-x="1259" 
d="M1030 1376l-151 281h225l125 -281h-199zM414 1178l241 280h209l164 -280h-217l-72 131l-108 -131h-217zM588 -20q-222 0 -365 137q-147 138 -147 368q0 262 174 433q172 169 426 169q207 0 358 -139q148 -142 148 -383q0 -253 -170 -420q-168 -165 -424 -165zM596 223
q128 0 213 99q86 95 86 247q0 131 -67 203t-173 72q-127 0 -209 -101q-86 -103 -86 -251q0 -131 64 -200t172 -69z" />
    <glyph glyph-name="uni1ED4" unicode="&#x1ed4;" horiz-adv-x="1585" 
d="M1262 1712l-62 90q51 40 72.5 62t25.5 41q11 32 4 44.5t-36 12.5q-47 0 -105 -41l-61 119q47 36 109.5 59t103.5 23q86 0 134.5 -46t39.5 -118q-11 -75 -70.5 -140.5t-154.5 -105.5zM633 1587l241 281h209l164 -281h-217l-72 131l-108 -131h-217zM764 -4q-292 0 -481 186
q-191 185 -191 502q0 350 232 582q229 229 550 229q295 0 484 -186q190 -187 190 -508q0 -348 -231 -576q-229 -229 -553 -229zM768 268q190 0 328 156q137 155 137 383q0 197 -103 306.5t-268 109.5q-188 0 -321 -154q-135 -156 -135 -387q0 -194 99.5 -304t262.5 -110z
" />
    <glyph glyph-name="uni1ED5" unicode="&#x1ed5;" horiz-adv-x="1259" 
d="M1042 1303l-61 90q52 40 73 62t25 40q11 32 4 44.5t-36 12.5q-47 0 -105 -41l-61 119q47 36 109.5 59t103.5 23q86 0 134.5 -46t39.5 -118q-10 -75 -70.5 -140t-155.5 -105zM414 1178l241 280h209l164 -280h-217l-72 131l-108 -131h-217zM588 -20q-222 0 -365 137
q-147 138 -147 368q0 262 174 433q172 169 426 169q207 0 358 -139q148 -142 148 -383q0 -253 -170 -420q-168 -165 -424 -165zM596 223q128 0 213 99q86 95 86 247q0 131 -67 203t-173 72q-127 0 -209 -101q-86 -103 -86 -251q0 -131 64 -200t172 -69z" />
    <glyph glyph-name="uni1ED6" unicode="&#x1ed6;" horiz-adv-x="1585" 
d="M1087 1917q-72 0 -149 45q-79 45 -107 45q-72 0 -81 -80h-136q10 118 67 183t148 65q71 0 150 -43q73 -43 104 -43q33 0 55.5 20.5t26.5 55.5h135q-9 -117 -65.5 -182.5t-147.5 -65.5zM633 1587l241 281h209l164 -281h-217l-72 131l-108 -131h-217zM764 -4
q-292 0 -481 186q-191 185 -191 502q0 350 232 582q229 229 550 229q295 0 484 -186q190 -187 190 -508q0 -348 -231 -576q-229 -229 -553 -229zM768 268q190 0 328 156q137 155 137 383q0 197 -103 306.5t-268 109.5q-188 0 -321 -154q-135 -156 -135 -387
q0 -194 99.5 -304t262.5 -110z" />
    <glyph glyph-name="uni1ED7" unicode="&#x1ed7;" horiz-adv-x="1259" 
d="M868 1507q-72 0 -149 45q-79 45 -107 45q-73 0 -82 -79h-135q10 118 67 182.5t148 64.5q71 0 150 -43q73 -43 104 -43q33 0 55.5 20.5t26.5 55.5h135q-9 -117 -65.5 -182.5t-147.5 -65.5zM414 1178l241 280h209l164 -280h-217l-72 131l-108 -131h-217zM588 -20
q-222 0 -365 137q-147 138 -147 368q0 262 174 433q172 169 426 169q207 0 358 -139q148 -142 148 -383q0 -253 -170 -420q-168 -165 -424 -165zM596 223q128 0 213 99q86 95 86 247q0 131 -67 203t-173 72q-127 0 -209 -101q-86 -103 -86 -251q0 -131 64 -200t172 -69z" />
    <glyph glyph-name="uni1ED8" unicode="&#x1ed8;" horiz-adv-x="1585" 
d="M633 1587l241 281h209l164 -281h-217l-72 131l-108 -131h-217zM764 -4q-292 0 -481 186q-191 185 -191 502q0 350 232 582q229 229 550 229q295 0 484 -186q190 -187 190 -508q0 -348 -231 -576q-229 -229 -553 -229zM768 268q190 0 328 156q137 155 137 383
q0 197 -103 306.5t-268 109.5q-188 0 -321 -154q-135 -156 -135 -387q0 -194 99.5 -304t262.5 -110zM539 -371l34 252h265l-33 -252h-266z" />
    <glyph glyph-name="uni1ED9" unicode="&#x1ed9;" horiz-adv-x="1259" 
d="M414 1178l241 280h209l164 -280h-217l-72 131l-108 -131h-217zM588 -20q-222 0 -365 137q-147 138 -147 368q0 262 174 433q172 169 426 169q207 0 358 -139q148 -142 148 -383q0 -253 -170 -420q-168 -165 -424 -165zM596 223q128 0 213 99q86 95 86 247q0 131 -67 203
t-173 72q-127 0 -209 -101q-86 -103 -86 -251q0 -131 64 -200t172 -69zM377 -371l35 252h264l-33 -252h-266z" />
    <glyph glyph-name="uni1EDA" unicode="&#x1eda;" horiz-adv-x="1585" 
d="M1284 1905l-229 -281h-199l203 281h225zM1358 1309q190 -187 190 -508q0 -348 -231 -576q-229 -229 -553 -229q-292 0 -481 186q-191 185 -191 502q0 350 232 582q229 229 550 229q102 0 183 -20q175 5 196 172h185q-20 -184 -152 -277q39 -28 72 -61zM1096 424
q137 155 137 383q0 197 -103 306.5t-268 109.5q-188 0 -321 -154q-135 -156 -135 -387q0 -194 99.5 -304t262.5 -110q190 0 328 156z" />
    <glyph glyph-name="uni1EDB" unicode="&#x1edb;" horiz-adv-x="1259" 
d="M1065 1495l-229 -281h-199l203 281h225zM1034 948q148 -142 148 -383q0 -253 -170 -420q-168 -165 -424 -165q-222 0 -365 137q-147 138 -147 368q0 262 174 433q172 169 426 169q78 0 155 -22q70 4 123 43t64 129h184q-22 -196 -168 -289zM809 322q86 95 86 247
q0 131 -67 203t-173 72q-127 0 -209 -101q-86 -103 -86 -251q0 -131 64 -200t172 -69q128 0 213 99z" />
    <glyph glyph-name="uni1EDC" unicode="&#x1edc;" horiz-adv-x="1585" 
d="M1036 1636h-198l-152 281h225zM1358 1309q190 -187 190 -508q0 -348 -231 -576q-229 -229 -553 -229q-292 0 -481 186q-191 185 -191 502q0 350 232 582q229 229 550 229q102 0 183 -20q175 5 196 172h185q-20 -184 -152 -277q39 -28 72 -61zM1096 424q137 155 137 383
q0 197 -103 306.5t-268 109.5q-188 0 -321 -154q-135 -156 -135 -387q0 -194 99.5 -304t262.5 -110q190 0 328 156z" />
    <glyph glyph-name="uni1EDD" unicode="&#x1edd;" horiz-adv-x="1259" 
d="M817 1227h-199l-151 280h225zM1034 948q148 -142 148 -383q0 -253 -170 -420q-168 -165 -424 -165q-222 0 -365 137q-147 138 -147 368q0 262 174 433q172 169 426 169q78 0 155 -22q70 4 123 43t64 129h184q-22 -196 -168 -289zM809 322q86 95 86 247q0 131 -67 203
t-173 72q-127 0 -209 -101q-86 -103 -86 -251q0 -131 64 -200t172 -69q128 0 213 99z" />
    <glyph glyph-name="uni1EDE" unicode="&#x1ede;" horiz-adv-x="1585" 
d="M940 1810q-46 0 -104 -41l-62 119q47 36 109.5 59t103.5 23q86 0 134.5 -46t39.5 -118q-11 -75 -70.5 -140t-154.5 -105l-62 90q52 41 73.5 62.5t25.5 39.5q11 32 3.5 44.5t-36.5 12.5zM1358 1309q190 -187 190 -508q0 -348 -231 -576q-229 -229 -553 -229
q-292 0 -481 186q-191 185 -191 502q0 350 232 582q229 229 550 229q102 0 183 -20q175 5 196 172h185q-20 -184 -152 -277q39 -28 72 -61zM1096 424q137 155 137 383q0 197 -103 306.5t-268 109.5q-188 0 -321 -154q-135 -156 -135 -387q0 -194 99.5 -304t262.5 -110
q190 0 328 156z" />
    <glyph glyph-name="uni1EDF" unicode="&#x1edf;" horiz-adv-x="1259" 
d="M721 1401q-47 0 -105 -41l-61 119q47 36 109.5 59t103.5 23q86 0 134.5 -46t39.5 -118q-11 -75 -70.5 -140.5t-154.5 -105.5l-62 90q52 41 73.5 62.5t25.5 39.5q11 32 3.5 45t-36.5 13zM1034 948q148 -142 148 -383q0 -253 -170 -420q-168 -165 -424 -165
q-222 0 -365 137q-147 138 -147 368q0 262 174 433q172 169 426 169q78 0 155 -22q70 4 123 43t64 129h184q-22 -196 -168 -289zM809 322q86 95 86 247q0 131 -67 203t-173 72q-127 0 -209 -101q-86 -103 -86 -251q0 -131 64 -200t172 -69q128 0 213 99z" />
    <glyph glyph-name="uni1EE0" unicode="&#x1ee0;" horiz-adv-x="1585" 
d="M836 1710q-73 0 -82 -80h-136q10 118 67.5 183t148.5 65q70 0 149 -43q73 -43 104 -43q33 0 55.5 20.5t26.5 55.5h136q-9 -117 -65.5 -182.5t-147.5 -65.5q-73 0 -150 45q-79 45 -106 45zM1358 1309q190 -187 190 -508q0 -348 -231 -576q-229 -229 -553 -229
q-292 0 -481 186q-191 185 -191 502q0 350 232 582q229 229 550 229q102 0 183 -20q175 5 196 172h185q-20 -184 -152 -277q39 -28 72 -61zM1096 424q137 155 137 383q0 197 -103 306.5t-268 109.5q-188 0 -321 -154q-135 -156 -135 -387q0 -194 99.5 -304t262.5 -110
q190 0 328 156z" />
    <glyph glyph-name="uni1EE1" unicode="&#x1ee1;" horiz-adv-x="1259" 
d="M616 1300q-72 0 -81 -79h-136q10 118 67 182.5t148 64.5q71 0 150 -43q73 -43 104 -43q33 0 55.5 20.5t26.5 55.5h135q-9 -117 -65.5 -182.5t-147.5 -65.5q-72 0 -149 45q-79 45 -107 45zM1034 948q148 -142 148 -383q0 -253 -170 -420q-168 -165 -424 -165
q-222 0 -365 137q-147 138 -147 368q0 262 174 433q172 169 426 169q78 0 155 -22q70 4 123 43t64 129h184q-22 -196 -168 -289zM809 322q86 95 86 247q0 131 -67 203t-173 72q-127 0 -209 -101q-86 -103 -86 -251q0 -131 64 -200t172 -69q128 0 213 99z" />
    <glyph glyph-name="uni1EE2" unicode="&#x1ee2;" horiz-adv-x="1585" 
d="M1358 1309q190 -187 190 -508q0 -348 -231 -576q-229 -229 -553 -229q-292 0 -481 186q-191 185 -191 502q0 350 232 582q229 229 550 229q102 0 183 -20q175 5 196 172h185q-20 -184 -152 -277q39 -28 72 -61zM1096 424q137 155 137 383q0 197 -103 306.5t-268 109.5
q-188 0 -321 -154q-135 -156 -135 -387q0 -194 99.5 -304t262.5 -110q190 0 328 156zM539 -371l34 252h265l-33 -252h-266z" />
    <glyph glyph-name="uni1EE3" unicode="&#x1ee3;" horiz-adv-x="1259" 
d="M1034 948q148 -142 148 -383q0 -253 -170 -420q-168 -165 -424 -165q-222 0 -365 137q-147 138 -147 368q0 262 174 433q172 169 426 169q78 0 155 -22q70 4 123 43t64 129h184q-22 -196 -168 -289zM809 322q86 95 86 247q0 131 -67 203t-173 72q-127 0 -209 -101
q-86 -103 -86 -251q0 -131 64 -200t172 -69q128 0 213 99zM377 -371l35 252h264l-33 -252h-266z" />
    <glyph glyph-name="uni1EE4" unicode="&#x1ee4;" horiz-adv-x="1454" 
d="M727 -20q-284 0 -440 170q-159 170 -119 471l119 854h297l-125 -900q-23 -158 53.5 -248.5t220.5 -90.5q143 0 235.5 82t112.5 235l127 922h297l-129 -930q-37 -271 -203 -418t-446 -147zM473 -371l35 252h264l-33 -252h-266z" />
    <glyph glyph-name="uni1EE5" unicode="&#x1ee5;" horiz-adv-x="1208" 
d="M459 -20q-172 0 -269 112q-99 110 -71 320l90 653h272l-80 -590q-35 -250 177 -250q108 0 176.5 68t85.5 188l82 584h268l-148 -1065h-260l2 129q-113 -149 -325 -149zM350 -371l35 252h264l-33 -252h-266z" />
    <glyph glyph-name="uni1EE6" unicode="&#x1ee6;" horiz-adv-x="1454" 
d="M870 1561l-61 90q52 40 73 62t25 40q11 32 3.5 44.5t-36.5 12.5q-46 0 -104 -41l-61 119q47 36 109.5 59t103.5 23q86 0 134.5 -46t39.5 -118q-10 -75 -70.5 -140t-155.5 -105zM727 -20q-284 0 -440 170q-159 170 -119 471l119 854h297l-125 -900q-23 -158 53.5 -248.5
t220.5 -90.5q143 0 235.5 82t112.5 235l127 922h297l-129 -930q-37 -271 -203 -418t-446 -147z" />
    <glyph glyph-name="uni1EE7" unicode="&#x1ee7;" horiz-adv-x="1208" 
d="M690 1151l-61 90q52 40 73 62t25 40q11 32 3.5 45t-36.5 13q-46 0 -104 -41l-62 119q47 36 109.5 59t103.5 23q86 0 134.5 -46t39.5 -118q-11 -75 -70.5 -140.5t-154.5 -105.5zM459 -20q-172 0 -269 112q-99 110 -71 320l90 653h272l-80 -590q-35 -250 177 -250
q108 0 176.5 68t85.5 188l82 584h268l-148 -1065h-260l2 129q-113 -149 -325 -149z" />
    <glyph glyph-name="uni1EE8" unicode="&#x1ee8;" horiz-adv-x="1454" 
d="M1219 1905l-230 -281h-198l202 281h226zM1747 1647q-14 -133 -86 -216t-178 -116l-107 -770q-37 -271 -203 -418t-446 -147q-284 0 -440 170q-159 170 -119 471l119 854h297l-125 -900q-23 -158 53.5 -248.5t220.5 -90.5q143 0 235.5 82t112.5 235l127 922h154
q32 0 61.5 7t60 24.5t52 53.5t27.5 87h184z" />
    <glyph glyph-name="uni1EE9" unicode="&#x1ee9;" horiz-adv-x="1208" 
d="M1038 1495l-229 -281h-199l203 281h225zM1444 1237q-16 -138 -91.5 -221t-185.5 -115l-125 -901h-260l2 129q-113 -149 -325 -149q-172 0 -269 112q-99 110 -71 320l90 653h272l-80 -590q-35 -250 177 -250q108 0 176.5 68t85.5 188l82 584h137q32 0 61.5 7t60 24.5
t52 53.5t27.5 87h184z" />
    <glyph glyph-name="uni1EEA" unicode="&#x1eea;" horiz-adv-x="1454" 
d="M971 1636h-199l-151 281h225zM1747 1647q-14 -133 -86 -216t-178 -116l-107 -770q-37 -271 -203 -418t-446 -147q-284 0 -440 170q-159 170 -119 471l119 854h297l-125 -900q-23 -158 53.5 -248.5t220.5 -90.5q143 0 235.5 82t112.5 235l127 922h154q32 0 61.5 7t60 24.5
t52 53.5t27.5 87h184z" />
    <glyph glyph-name="uni1EEB" unicode="&#x1eeb;" horiz-adv-x="1208" 
d="M791 1227h-199l-152 280h226zM1444 1237q-16 -138 -91.5 -221t-185.5 -115l-125 -901h-260l2 129q-113 -149 -325 -149q-172 0 -269 112q-99 110 -71 320l90 653h272l-80 -590q-35 -250 177 -250q108 0 176.5 68t85.5 188l82 584h137q32 0 61.5 7t60 24.5t52 53.5
t27.5 87h184z" />
    <glyph glyph-name="uni1EEC" unicode="&#x1eec;" horiz-adv-x="1454" 
d="M874 1810q-46 0 -104 -41l-61 119q47 36 109.5 59t103.5 23q86 0 134.5 -46t39.5 -118q-10 -75 -70.5 -140t-155.5 -105l-61 90q52 40 73 62t25 40q11 32 3.5 44.5t-36.5 12.5zM1747 1647q-14 -133 -86 -216t-178 -116l-107 -770q-37 -271 -203 -418t-446 -147
q-284 0 -440 170q-159 170 -119 471l119 854h297l-125 -900q-23 -158 53.5 -248.5t220.5 -90.5q143 0 235.5 82t112.5 235l127 922h154q32 0 61.5 7t60 24.5t52 53.5t27.5 87h184z" />
    <glyph glyph-name="uni1EED" unicode="&#x1eed;" horiz-adv-x="1208" 
d="M694 1401q-46 0 -104 -41l-62 119q47 36 109.5 59t103.5 23q86 0 134.5 -46t39.5 -118q-11 -75 -70.5 -140.5t-154.5 -105.5l-61 90q52 40 73 62t25 40q11 32 3.5 45t-36.5 13zM1444 1237q-16 -138 -91.5 -221t-185.5 -115l-125 -901h-260l2 129q-113 -149 -325 -149
q-172 0 -269 112q-99 110 -71 320l90 653h272l-80 -590q-35 -250 177 -250q108 0 176.5 68t85.5 188l82 584h137q32 0 61.5 7t60 24.5t52 53.5t27.5 87h184z" />
    <glyph glyph-name="uni1EEE" unicode="&#x1eee;" horiz-adv-x="1454" 
d="M770 1710q-73 0 -82 -80h-135q10 118 67 183t148 65q71 0 150 -43q73 -43 104 -43q33 0 55.5 20.5t26.5 55.5h135q-9 -117 -65.5 -182.5t-147.5 -65.5q-72 0 -149 45q-79 45 -107 45zM1747 1647q-14 -133 -86 -216t-178 -116l-107 -770q-37 -271 -203 -418t-446 -147
q-284 0 -440 170q-159 170 -119 471l119 854h297l-125 -900q-23 -158 53.5 -248.5t220.5 -90.5q143 0 235.5 82t112.5 235l127 922h154q32 0 61.5 7t60 24.5t52 53.5t27.5 87h184z" />
    <glyph glyph-name="uni1EEF" unicode="&#x1eef;" horiz-adv-x="1208" 
d="M590 1300q-73 0 -82 -79h-135q10 118 67 182.5t148 64.5q70 0 149 -43q73 -43 105 -43q33 0 55.5 20.5t26.5 55.5h135q-9 -117 -65.5 -182.5t-147.5 -65.5q-73 0 -150 45q-79 45 -106 45zM1444 1237q-16 -138 -91.5 -221t-185.5 -115l-125 -901h-260l2 129
q-113 -149 -325 -149q-172 0 -269 112q-99 110 -71 320l90 653h272l-80 -590q-35 -250 177 -250q108 0 176.5 68t85.5 188l82 584h137q32 0 61.5 7t60 24.5t52 53.5t27.5 87h184z" />
    <glyph glyph-name="uni1EF0" unicode="&#x1ef0;" horiz-adv-x="1454" 
d="M1747 1647q-14 -133 -86 -216t-178 -116l-107 -770q-37 -271 -203 -418t-446 -147q-284 0 -440 170q-159 170 -119 471l119 854h297l-125 -900q-23 -158 53.5 -248.5t220.5 -90.5q143 0 235.5 82t112.5 235l127 922h154q32 0 61.5 7t60 24.5t52 53.5t27.5 87h184z
M473 -371l35 252h264l-33 -252h-266z" />
    <glyph glyph-name="uni1EF1" unicode="&#x1ef1;" horiz-adv-x="1208" 
d="M1444 1237q-16 -138 -91.5 -221t-185.5 -115l-125 -901h-260l2 129q-113 -149 -325 -149q-172 0 -269 112q-99 110 -71 320l90 653h272l-80 -590q-35 -250 177 -250q108 0 176.5 68t85.5 188l82 584h137q32 0 61.5 7t60 24.5t52 53.5t27.5 87h184zM350 -371l35 252h264
l-33 -252h-266z" />
    <glyph glyph-name="Ygrave" unicode="&#x1ef2;" horiz-adv-x="1417" 
d="M754 1636l-152 281h225l125 -281h-198zM477 0l72 522l-412 953h332l258 -644l453 644h358l-696 -953l-74 -522h-291z" />
    <glyph glyph-name="ygrave" unicode="&#x1ef3;" horiz-adv-x="1165" 
d="M571 1227l-151 280h225l125 -280h-199zM-70 -410l35 254h250q129 0 129 115q0 22 -10 64l-252 1042h293l164 -807l379 807h307l-625 -1247q-78 -159 -190 -197q-58 -19 -103.5 -25t-124.5 -6h-252z" />
    <glyph glyph-name="uni1EF4" unicode="&#x1ef4;" horiz-adv-x="1417" 
d="M477 0l72 522l-412 953h332l258 -644l453 644h358l-696 -953l-74 -522h-291zM455 -371l34 252h265l-33 -252h-266z" />
    <glyph glyph-name="uni1EF5" unicode="&#x1ef5;" horiz-adv-x="1165" 
d="M-70 -410l35 254h250q129 0 129 115q0 22 -10 64l-252 1042h293l164 -807l379 807h307l-625 -1247q-78 -159 -190 -197q-58 -19 -103.5 -25t-124.5 -6h-252zM737 -371l35 252h264l-32 -252h-267z" />
    <glyph glyph-name="uni1EF6" unicode="&#x1ef6;" horiz-adv-x="1417" 
d="M852 1561l-61 90q52 40 73 62t25 40q11 32 3.5 44.5t-36.5 12.5q-46 0 -104 -41l-62 119q47 36 109.5 59t103.5 23q86 0 134.5 -46t39.5 -118q-11 -75 -70.5 -140t-154.5 -105zM477 0l72 522l-412 953h332l258 -644l453 644h358l-696 -953l-74 -522h-291z" />
    <glyph glyph-name="uni1EF7" unicode="&#x1ef7;" horiz-adv-x="1165" 
d="M670 1151l-62 90q52 41 73.5 62.5t25.5 39.5q11 32 3.5 45t-36.5 13q-47 0 -105 -41l-61 119q47 36 109.5 59t103.5 23q86 0 134.5 -46t39.5 -118q-11 -75 -70.5 -140.5t-154.5 -105.5zM-70 -410l35 254h250q129 0 129 115q0 22 -10 64l-252 1042h293l164 -807l379 807
h307l-625 -1247q-78 -159 -190 -197q-58 -19 -103.5 -25t-124.5 -6h-252z" />
    <glyph glyph-name="uni1EF8" unicode="&#x1ef8;" horiz-adv-x="1417" 
d="M1008 1620q-73 0 -150 45q-79 45 -106 45q-73 0 -82 -80h-135q10 118 67 183t148 65q70 0 149 -43q73 -43 105 -43t54.5 20.5t26.5 55.5h136q-9 -117 -65.5 -182.5t-147.5 -65.5zM477 0l72 522l-412 953h332l258 -644l453 644h358l-696 -953l-74 -522h-291z" />
    <glyph glyph-name="uni1EF9" unicode="&#x1ef9;" horiz-adv-x="1165" 
d="M825 1210q-72 0 -149 45q-79 45 -107 45q-73 0 -82 -79h-135q10 118 67 182.5t148 64.5q71 0 150 -43q73 -43 104 -43q33 0 55.5 20.5t26.5 55.5h135q-9 -117 -65.5 -182.5t-147.5 -65.5zM-70 -410l35 254h250q129 0 129 115q0 22 -10 64l-252 1042h293l164 -807l379 807
h307l-625 -1247q-78 -159 -190 -197q-58 -19 -103.5 -25t-124.5 -6h-252z" />
    <glyph glyph-name="endash" unicode="&#x2013;" horiz-adv-x="1331" 
d="M72 477l34 260h1174l-35 -260h-1173z" />
    <glyph glyph-name="emdash" unicode="&#x2014;" horiz-adv-x="2045" 
d="M72 477l34 260h1889l-35 -260h-1888z" />
    <glyph glyph-name="quoteleft" unicode="&#x2018;" horiz-adv-x="532" 
d="M150 940l49 334l172 246h164l-158 -246h162l-47 -334h-342z" />
    <glyph glyph-name="quoteright" unicode="&#x2019;" horiz-adv-x="532" 
d="M188 940l160 246h-162l47 334h342l-47 -334l-176 -246h-164z" />
    <glyph glyph-name="quotesinglbase" unicode="&#x201a;" horiz-adv-x="532" 
d="M27 -246l157 246h-161l47 334h342l-47 -334l-175 -246h-163z" />
    <glyph glyph-name="quotedblleft" unicode="&#x201c;" horiz-adv-x="968" 
d="M150 940l49 334l172 246h164l-158 -246h162l-47 -334h-342zM586 940l49 334l172 246h164l-158 -246h162l-47 -334h-342z" />
    <glyph glyph-name="quotedblright" unicode="&#x201d;" horiz-adv-x="970" 
d="M188 940l160 246h-162l47 334h342l-47 -334l-176 -246h-164zM629 940l159 246h-161l47 334h342l-47 -334l-176 -246h-164z" />
    <glyph glyph-name="quotedblbase" unicode="&#x201e;" horiz-adv-x="968" 
d="M27 -246l157 246h-161l47 334h342l-47 -334l-175 -246h-163zM463 -246l158 246h-162l47 334h342l-47 -334l-174 -246h-164z" />
    <glyph glyph-name="dagger" unicode="&#x2020;" horiz-adv-x="1024" 
d="M471 211v709h-305v223h305v332h221v-332h305v-223h-305v-709h-221z" />
    <glyph glyph-name="daggerdbl" unicode="&#x2021;" horiz-adv-x="966" 
d="M416 211v311h-303v221h303v199h-303v221h303v312h223v-312h303v-221h-303v-199h303v-221h-303v-311h-223z" />
    <glyph glyph-name="bullet" unicode="&#x2022;" horiz-adv-x="845" 
d="M408 287q-136 0 -226 90t-90 221q0 150 111 264q111 111 266 111q135 0 225 -90q88 -88 88 -224q0 -155 -110 -262q-110 -110 -264 -110z" />
    <glyph glyph-name="ellipsis" unicode="&#x2026;" horiz-adv-x="1538" 
d="M23 0l47 342h342l-50 -342h-339zM524 0l47 342h342l-47 -342h-342zM1028 0l47 342h342l-47 -342h-342z" />
    <glyph glyph-name="perthousand" unicode="&#x2030;" horiz-adv-x="2768" 
d="M492 666q-145 0 -242 100q-98 101 -98 281q0 189 104 317q105 129 276 129q154 0 248 -104t94 -279q0 -193 -108 -319q-107 -125 -274 -125zM326 0l1126 1475h252l-1126 -1475h-252zM498 872q69 0 107 69t38 171q0 174 -113 174q-70 0 -108.5 -67.5t-38.5 -171.5
q0 -175 115 -175zM1497 -20q-145 0 -242 100q-98 101 -98 278q0 188 105 320q105 129 276 129q154 0 248 -104t94 -281q0 -192 -108 -318q-106 -124 -275 -124zM2290 -20q-145 0 -242 100q-98 101 -98 278q0 190 106 320q105 129 277 129q154 0 248 -104t94 -281
q0 -191 -109 -318q-109 -124 -276 -124zM1503 186q69 0 107.5 69t38.5 171q0 172 -115 172q-69 0 -107 -67.5t-38 -170.5q0 -174 114 -174zM2296 186q69 0 108 69t39 171q0 172 -114 172q-69 0 -107.5 -67.5t-38.5 -170.5q0 -174 113 -174z" />
    <glyph glyph-name="guilsinglleft" unicode="&#x2039;" horiz-adv-x="823" 
d="M377 117l-299 475l457 473h301l-459 -475l295 -473h-295z" />
    <glyph glyph-name="guilsinglright" unicode="&#x203a;" horiz-adv-x="823" 
d="M4 119l461 483l-299 463h299l297 -467l-457 -479h-301z" />
    <glyph glyph-name="uni2042" unicode="&#x2042;" horiz-adv-x="1443" 
d="M606 901l-104 74l84 106q49 59 69 70q-39 0 -100 20l-123 43l41 115l123 -41q62 -22 86 -41q-10 52 -10 96v132h123v-132q0 -54 -11 -96q45 30 88 43l121 41l41 -117l-123 -43q-61 -20 -98 -20q33 -20 70 -70l80 -106l-101 -74l-76 105q-35 38 -51 90q-15 -39 -53 -90z
M221 299l-104 74l84 106q49 59 69 70q-39 0 -100 20l-123 43l41 115l123 -41q62 -22 86 -41q-10 52 -10 96v131h123v-131q0 -54 -11 -96q45 30 88 43l121 41l41 -117l-123 -43q-61 -20 -98 -20q33 -20 70 -70l80 -106l-101 -74l-76 104q-35 38 -51 91q-15 -41 -53 -91z
M991 299l-104 74l84 106q49 59 69 70q-39 0 -100 20l-123 43l41 115l123 -41q62 -22 86 -41q-10 52 -10 96v131h123v-131q0 -54 -11 -96q45 30 88 43l121 41l41 -117l-123 -43q-61 -20 -98 -20q33 -20 70 -70l80 -106l-101 -74l-76 104q-35 38 -51 91q-15 -41 -53 -91z" />
    <glyph glyph-name="fraction" unicode="&#x2044;" horiz-adv-x="430" 
d="M-319 0l935 1475h183l-936 -1475h-182z" />
    <glyph glyph-name="Euro" unicode="&#x20ac;" horiz-adv-x="1314" 
d="M803 -20q-246 0 -414 132.5t-219 364.5h-152l29 197h105q0 51 10 129h-96l26 198h125q91 223 289 359q196 135 452 135q250 0 418 -115l-184 -233q-95 74 -248 74q-253 0 -387 -220h459l-51 -198h-484q-12 -72 -14 -129h467l-45 -197h-400q70 -223 330 -223q152 0 262 72
l117 -236q-177 -110 -395 -110z" />
    <glyph glyph-name="uni2116" unicode="&#x2116;" horiz-adv-x="2459" 
d="M1978 645q-173 0 -288 109q-117 108 -117 288q0 193 125 324q122 131 319 131q181 0 295 -111q113 -113 113 -292q0 -192 -125 -320q-126 -129 -322 -129zM66 0l206 1475h244l547 -947l131 947h285l-205 -1475h-246l-545 944l-133 -944h-284zM1989 862q89 0 146.5 66
t57.5 162q0 89 -52 139.5t-130 50.5q-90 0 -147.5 -65.5t-57.5 -163.5q0 -90 52 -139.5t131 -49.5zM1575 330l31 219h651l-31 -219h-651z" />
    <glyph glyph-name="uni2117" unicode="&#x2117;" horiz-adv-x="1052" 
d="M598 594q-186 0 -319 133q-132 132 -132 317q0 186 132 318q133 133 319 133q194 0 322 -131q127 -133 127 -320q0 -186 -127 -319q-128 -131 -322 -131zM598 713q150 0 240 96t90 235q0 141 -92 236q-93 96 -238 96t-238 -96q-92 -95 -92 -236q0 -140 92 -235
q93 -96 238 -96zM453 823v434h192q67 0 110.5 -42.5t43.5 -108.5q0 -71 -44.5 -110.5t-117.5 -39.5h-78v-133h-106zM559 1047h64q67 0 67 59t-67 59h-64v-118z" />
    <glyph glyph-name="trademark" unicode="&#x2122;" horiz-adv-x="1335" 
d="M702 1475l-22 -152h-174l-62 -451h-170l64 451h-172l20 152h516zM1233 1475h160l-82 -603h-150l27 197q14 96 31 135l-164 -332h-125l-74 330q9 -41 -6 -133l-27 -197h-149l84 603h153l99 -445z" />
    <glyph glyph-name="estimated" unicode="&#x212e;" horiz-adv-x="1615" 
d="M866 -18q-321 0 -520 211q-197 209 -194 550q3 335 196 543q194 209 498 209q311 0 500 -186q190 -187 190 -506q3 -58 0 -113h-1176v-379q175 -245 510 -245q161 0 297.5 76t204.5 204l80 -31q-78 -156 -234 -244.5t-352 -88.5zM360 768h967v420q-78 108 -204.5 166.5
t-276.5 56.5q-152 -1 -279 -70t-207 -192v-381z" />
    <glyph glyph-name="oneeighth" unicode="&#x215b;" horiz-adv-x="1705" 
d="M135 713l23 149h147l64 451l-174 -80l20 156l174 86h160l-86 -613h143l-22 -149h-449zM285 0l936 1475h182l-936 -1475h-182zM1313 -10q-125 0 -202 61t-77 164q0 68 37.5 122t95.5 75q-63 45 -63 139q0 97 77 158t197 61q110 0 183 -57t73 -148q0 -115 -104 -164
q88 -46 88 -163q0 -110 -85.5 -179t-219.5 -69zM1360 463q50 0 84.5 29t34.5 71q0 38 -30 63t-77 25q-51 0 -84 -28.5t-33 -71.5q0 -39 29 -63.5t76 -24.5zM1319 121q62 0 100.5 32t38.5 83q0 48 -34 77t-91 29q-60 0 -99.5 -33t-39.5 -84q0 -47 34.5 -75.5t90.5 -28.5z" />
    <glyph glyph-name="threeeighths" unicode="&#x215c;" horiz-adv-x="1742" 
d="M381 702q-128 0 -202.5 74.5t-61.5 190.5h155q-7 -60 23.5 -93.5t87.5 -33.5q55 0 90 28.5t35 77.5q0 40 -27.5 65t-79.5 25h-65l18 123h68q121 0 121 103q0 41 -27.5 64.5t-75.5 23.5q-56 0 -91 -34.5t-40 -92.5h-153q11 119 91 190.5t208 71.5q115 0 185.5 -57.5
t70.5 -151.5q0 -63 -34.5 -111t-94.5 -67q96 -41 96 -158q0 -110 -84.5 -174t-212.5 -64zM336 0l936 1475h182l-936 -1475h-182zM1364 -10q-125 0 -202 61t-77 164q0 68 38 122t96 75q-64 46 -64 139q0 97 77.5 158t197.5 61q110 0 183 -57t73 -148q0 -115 -105 -164
q88 -46 88 -163q0 -110 -85.5 -179t-219.5 -69zM1411 463q50 0 84.5 29t34.5 71q0 38 -30 63t-77 25q-51 0 -83.5 -28.5t-32.5 -71.5q0 -39 28.5 -63.5t75.5 -24.5zM1370 121q62 0 100.5 32t38.5 83q0 48 -34 77t-91 29q-60 0 -99.5 -33t-39.5 -84q0 -47 34.5 -75.5
t90.5 -28.5z" />
    <glyph glyph-name="fiveeighths" unicode="&#x215d;" horiz-adv-x="1751" 
d="M369 702q-120 0 -195 67.5t-74 186.5h152q-1 -53 32.5 -84.5t84.5 -31.5q61 0 101 42t40 107q0 57 -31 90t-82 33q-94 0 -131 -82h-147l141 445h447l-19 -138h-326l-43 -127q53 29 123 29q105 0 171.5 -66.5t66.5 -179.5q0 -128 -87.5 -209.5t-223.5 -81.5zM332 0
l936 1475h182l-936 -1475h-182zM1360 -10q-125 0 -202 61t-77 164q0 68 37.5 122t95.5 75q-63 45 -63 139q0 97 77 158t197 61q110 0 183 -57t73 -148q0 -115 -104 -164q88 -46 88 -163q0 -110 -85.5 -179t-219.5 -69zM1407 463q50 0 84.5 29t34.5 71q0 38 -30 63t-77 25
q-51 0 -83.5 -28.5t-32.5 -71.5q0 -39 28.5 -63.5t75.5 -24.5zM1366 121q62 0 100.5 32t38.5 83q0 48 -34 77t-91 29q-60 0 -99.5 -33t-39.5 -84q0 -47 34.5 -75.5t90.5 -28.5z" />
    <glyph glyph-name="seveneighths" unicode="&#x215e;" horiz-adv-x="1662" 
d="M139 717q75 297 340 622h-348l19 138h534l-16 -127q-280 -299 -371 -633h-158zM242 0l936 1475h182l-936 -1475h-182zM1270 -10q-125 0 -202 61t-77 164q0 68 37.5 122t95.5 75q-63 45 -63 139q0 97 77 158t197 61q110 0 183 -57t73 -148q0 -115 -104 -164
q88 -46 88 -163q0 -110 -85.5 -179t-219.5 -69zM1317 463q50 0 84.5 29t34.5 71q0 38 -30 63t-77 25q-51 0 -84 -28.5t-33 -71.5q0 -39 29 -63.5t76 -24.5zM1276 121q62 0 100.5 32t38.5 83q0 48 -34 77t-91 29q-60 0 -99.5 -33t-39.5 -84q0 -47 34.5 -75.5t90.5 -28.5z" />
    <glyph glyph-name="uni2160" unicode="&#x2160;" horiz-adv-x="1081" 
d="M123 0v190h276v1094h-276v191h835v-191h-274v-1094h274v-190h-835z" />
    <glyph glyph-name="uni2161" unicode="&#x2161;" horiz-adv-x="1716" 
d="M123 0v190h266v1094h-266v191h1470v-191h-264v-1094h264v-190h-1470zM676 190h366v1094h-366v-1094z" />
    <glyph glyph-name="uni2162" unicode="&#x2162;" horiz-adv-x="2402" 
d="M123 0v197h276v1081h-276v197h2156v-197h-276v-1081h276v-197h-2156zM684 197h373v1081h-373v-1081zM1343 197h373v1081h-373v-1081z" />
    <glyph glyph-name="uni2163" unicode="&#x2163;" horiz-adv-x="2439" 
d="M123 -2v197h305v1083h-305v197h2193v-197h-205l-354 -1083h559v-197h-2193zM713 195h508l-357 1083h-151v-1083zM1491 244l324 1034h-650z" />
    <glyph glyph-name="uni2164" unicode="&#x2164;" horiz-adv-x="1873" 
d="M131 0v195h545l-357 1083h-196v197h1628v-197h-188l-357 -1083h541v-195h-1616zM940 244l326 1034h-650z" />
    <glyph glyph-name="uni2165" unicode="&#x2165;" horiz-adv-x="2441" 
d="M123 0v197h567l-356 1081h-211v197h2193v-197h-278v-1081h280v-197h-2195zM952 250l324 1028h-645zM1217 197h532v1081h-176z" />
    <glyph glyph-name="uni2166" unicode="&#x2166;" horiz-adv-x="3051" 
d="M123 0v197h551l-355 1081h-196v197h2802v-197h-281v-1081h283l2 -197h-2806zM938 250l322 1028h-644zM1200 197h533v1081h-177zM2021 197h336v1081h-336v-1081z" />
    <glyph glyph-name="uni2167" unicode="&#x2167;" horiz-adv-x="3688" 
d="M123 0v197h534l-346 1081h-188v197h3441v-197h-277v-1081h279v-197h-3443zM920 252l311 1026h-623zM1184 197h540v1081h-196zM2011 197h352v1081h-352v-1081zM2650 197h352v1081h-352v-1081z" />
    <glyph glyph-name="uni2168" unicode="&#x2168;" horiz-adv-x="2308" 
d="M123 0v195h270v1083h-270v197h2062v-197h-168l-397 -555l383 -528h182v-195h-2062zM678 195h170l389 530l-397 553h-162v-1083zM1430 887l274 391h-547zM1161 195h522l-260 370z" />
    <glyph glyph-name="uni2169" unicode="&#x2169;" horiz-adv-x="1845" 
d="M123 0v195h221l387 532l-397 551h-211v197h1599v-197h-211l-395 -553l381 -530h225v-195h-1599zM922 885l274 393h-543zM655 195h523l-260 370z" />
    <glyph glyph-name="arrowleft" unicode="&#x2190;" horiz-adv-x="1748" 
d="M801 -123l-678 678l678 678l104 -105l-508 -507h1229v-140h-1229l504 -504z" />
    <glyph glyph-name="arrowup" unicode="&#x2191;" horiz-adv-x="1605" 
d="M729 0v1229l-508 -502l-98 98l676 672l684 -672l-101 -98l-512 500v-1227h-141z" />
    <glyph glyph-name="arrowright" unicode="&#x2192;" horiz-adv-x="1748" 
d="M946 -125l-102 105l506 507l-1227 -2v142h1227l-502 506l98 98l680 -678z" />
    <glyph glyph-name="arrowdown" unicode="&#x2193;" horiz-adv-x="1601" 
d="M801 -96l-678 678l104 106l508 -508v1227h139v-1229l506 504l99 -100z" />
    <glyph glyph-name="arrowboth" unicode="&#x2194;" horiz-adv-x="2048" 
d="M610 59l-487 492l485 491v-208l-213 -213l488 4v2h288v-2l482 -2l-211 213v206l483 -489l-481 -492v205l209 215l-766 -2v2l-492 -2l215 -217v-203z" />
    <glyph glyph-name="arrowupdn" unicode="&#x2195;" horiz-adv-x="1226" 
d="M610 -354l-487 487h203l215 -215l-2 488v290l2 482l-215 -213h-203l487 485l494 -485h-207l-215 213v-1258l215 213h207z" />
    <glyph glyph-name="uni2196" unicode="&#x2196;" horiz-adv-x="1355" 
d="M1133 -8l-869 868v-713h-141v961h958v-150h-716l868 -866z" />
    <glyph glyph-name="uni2197" unicode="&#x2197;" horiz-adv-x="1359" 
d="M221 0l-98 100l868 869h-712v141h958v-958h-147v716z" />
    <glyph glyph-name="uni2198" unicode="&#x2198;" horiz-adv-x="1355" 
d="M274 0v147h717l-868 867l100 100l869 -866v710h141v-958h-959z" />
    <glyph glyph-name="uni2199" unicode="&#x2199;" horiz-adv-x="1359" 
d="M123 0v958h147v-716l867 868l100 -100l-866 -869h710v-141h-958z" />
    <glyph glyph-name="partialdiff" unicode="&#x2202;" horiz-adv-x="1259" 
d="M602 -20q-235 0 -385 135q-149 134 -149 374q0 238 147 394q144 153 381 159q191 6 295 -90q-58 187 -186 312q-74 68 -121 104q-29 23 -150 105l430 2q160 -103 260 -326q97 -231 97 -463q0 -306 -164 -506t-455 -200zM602 238q124 0 202.5 82t78.5 210q0 116 -65 186
t-175 70q-122 0 -202.5 -84t-80.5 -213q0 -116 65 -183.5t177 -67.5z" />
    <glyph glyph-name="emptyset" unicode="&#x2205;" horiz-adv-x="1259" 
d="M80 -57l-98 108l176 162q-74 127 -74 287q0 238 164 411q163 172 397 172q200 0 338 -114l174 157l98 -108l-176 -162q76 -122 76 -285q0 -245 -164 -415q-167 -170 -401 -170q-206 0 -338 114zM362 399l426 392q-60 45 -145 45q-129 0 -211 -101q-84 -104 -84 -235
q0 -60 14 -101zM592 233q130 0 213 103q84 104 84 233q0 49 -15 101l-428 -391q61 -46 146 -46z" />
    <glyph glyph-name="product" unicode="&#x220f;" horiz-adv-x="1480" 
d="M229 -2l170 1216h-211l35 261h1295l-35 -261h-228l-170 -1216h-274l170 1216h-307l-170 -1216h-275z" />
    <glyph glyph-name="summation" unicode="&#x2211;" horiz-adv-x="1218" 
d="M4 -123l33 248l495 555l-333 567l28 228h1030l-36 -263l-695 5l326 -560l-463 -518l680 -2l-35 -260h-1030z" />
    <glyph glyph-name="minus" unicode="&#x2212;" horiz-adv-x="1228" 
d="M135 547l37 258h963l-37 -258h-963z" />
    <glyph glyph-name="radical" unicode="&#x221a;" horiz-adv-x="1689" 
d="M385 -211l-297 795h266l164 -439l592 1575h678v-247h-502l-633 -1684h-268z" />
    <glyph glyph-name="infinity" unicode="&#x221e;" horiz-adv-x="2021" 
d="M549 90q-200 0 -332 129q-135 126 -135 324q0 195 135 327q134 131 334 131q262 0 461 -266q193 266 458 266q200 0 334 -131q135 -132 135 -327q0 -194 -133 -324q-135 -129 -333 -129q-271 0 -461 260q-193 -260 -463 -260zM567 348q78 0 147.5 47t151.5 150
q-82 102 -150.5 148t-148.5 46q-89 0 -147 -56.5t-58 -137.5t59 -139t146 -58zM1454 348q89 0 147 57t58 140q0 81 -58 137.5t-147 56.5q-80 0 -148.5 -46t-148.5 -148q81 -103 149.5 -150t147.5 -47z" />
    <glyph glyph-name="integral" unicode="&#x222b;" horiz-adv-x="899" 
d="M-20 -387l32 264h129q55 0 81 21.5t30 74.5l143 1459q17 151 105.5 228t236.5 77h224l-33 -262h-164q-59 0 -85 -27t-32 -84l-147 -1462q-27 -289 -334 -289h-186z" />
    <glyph glyph-name="approxequal" unicode="&#x2248;" horiz-adv-x="1210" 
d="M872 674q-52 0 -103 18t-83 41q-45 35 -80 64q-4 4 -22 19t-21 18l-35 26q-38 19 -61 19q-96 0 -102 -142h-211q0 164 81 264.5t220 100.5q65 0 117.5 -25t129.5 -88q7 -6 23.5 -18.5t22.5 -17t18.5 -14t18 -13t16 -10t16.5 -9t14.5 -5.5t15.5 -4t15 -1q100 0 103 141
h211q-2 -164 -83.5 -264t-220.5 -100zM784 195q-52 0 -103 18t-83 41q-65 50 -80 63q-4 4 -22 19t-21 18l-35 27q-36 18 -61 18q-97 0 -103 -141h-210q0 164 81 264.5t220 100.5q65 0 117.5 -25t129.5 -88q7 -6 23.5 -18.5t22.5 -17t18.5 -14t18 -13t16 -10t16.5 -9
t14.5 -5.5t15.5 -4t15 -1q100 0 103 141h210q-2 -164 -83 -264t-220 -100z" />
    <glyph glyph-name="notequal" unicode="&#x2260;" horiz-adv-x="1228" 
d="M254 131l102 195h-200l32 237h295l119 228h-379l33 235h471l102 193h193l-102 -193h192l-33 -235h-284l-119 -228h368l-32 -237h-463l-103 -195h-192z" />
    <glyph glyph-name="lessequal" unicode="&#x2264;" horiz-adv-x="1228" 
d="M1020 309l-840 330l43 293l930 330l-37 -271l-637 -207l578 -211zM92 0l37 258h885l-37 -258h-885z" />
    <glyph glyph-name="greaterequal" unicode="&#x2265;" horiz-adv-x="1228" 
d="M145 309l39 271l637 211l-577 208l35 261l841 -328l-43 -293zM102 0l37 258h885l-35 -258h-887z" />
    <glyph glyph-name="filledbox" unicode="&#x25a0;" horiz-adv-x="1640" 
d="M84 2v1473h1472v-1473h-1472z" />
    <glyph glyph-name="uni25A1" unicode="&#x25a1;" horiz-adv-x="1642" 
d="M84 0v1475h1475v-1475h-1475zM221 137h1202v1200h-1202v-1200z" />
    <glyph glyph-name="triagup" unicode="&#x25b2;" horiz-adv-x="1961" 
d="M84 0l895 1481l897 -1481h-1792z" />
    <glyph glyph-name="uni25B3" unicode="&#x25b3;" horiz-adv-x="1953" 
d="M84 0l891 1475l893 -1475h-1784zM336 139h1282l-641 1061z" />
    <glyph glyph-name="lozenge" unicode="&#x25ca;" horiz-adv-x="1280" 
d="M528 0l-444 733l444 742h215l453 -742l-453 -733h-215zM639 96l385 635l-385 647l-383 -647z" />
    <glyph glyph-name="circle" unicode="&#x25cb;" horiz-adv-x="1691" 
d="M844 -20q-318 0 -537 223q-223 223 -223 538q0 314 223 537t537 223q317 0 540 -223q224 -224 224 -537q0 -314 -224 -538q-223 -223 -540 -223zM846 119q257 0 442 182q182 182 182 440q0 259 -182 441q-185 182 -442 182q-258 0 -440 -182q-185 -182 -185 -441
q0 -258 185 -440q182 -182 440 -182z" />
    <glyph glyph-name="uni25CF" unicode="&#x25cf;" horiz-adv-x="1703" 
d="M854 -41q-320 0 -545 225t-225 545q0 318 225 543q223 223 545 223q320 0 543 -223t223 -543q0 -322 -223 -545q-225 -225 -543 -225z" />
    <glyph glyph-name="uni262E" unicode="&#x262e;" horiz-adv-x="1691" 
d="M844 -29q-315 0 -541 226q-225 225 -225 544q0 318 225 543t541 225q317 0 545 -225q225 -225 225 -543q0 -317 -225 -542q-228 -228 -545 -228zM264 479l512 316v579q-243 -27 -405 -207q-164 -182 -164 -426q0 -139 57 -262zM1430 481q55 119 55 260q0 244 -162 424
q-164 182 -405 209v-581zM776 106v523l-440 -273q168 -223 440 -250zM918 106q271 34 438 252l-438 269v-521z" />
    <glyph glyph-name="uni2713" unicode="&#x2713;" horiz-adv-x="1517" 
d="M594 174l-465 522l135 125l338 -377l795 742l123 -127z" />
    <glyph glyph-name="uniA7B6" unicode="&#xa7b6;" horiz-adv-x="1484" 
d="M43 0v242h254q-110 129 -175 289.5t-65 308.5q0 303 179 479q177 174 487 174t487 -174q179 -176 179 -479q0 -148 -65 -308.5t-175 -289.5h250v-242h-586v240q109 87 191 235q79 149 79 322q0 195 -96 303t-264 106q-169 -2 -265 -109t-96 -300q0 -169 76 -314t195 -243
v-240h-590z" />
    <glyph glyph-name="f_f" unicode="&#xfb00;" horiz-adv-x="1468" 
d="M125 0l113 815h-164l32 250h166l19 131q25 181 108 261.5t258 80.5h201l-35 -235h-100q-71 0 -104 -29t-44 -96l-16 -113h408l18 131q25 181 108.5 261.5t258.5 80.5h213l-33 -235h-115q-69 0 -102.5 -29.5t-44.5 -95.5l-17 -113h244l-35 -250h-243l-113 -815h-287
l113 815h-408l-112 -815h-287z" />
    <glyph glyph-name="fi" unicode="&#xfb01;" horiz-adv-x="1300" 
d="M125 0l113 815h-164l32 250h166l19 131q25 181 108 261.5t258 80.5h199l-33 -235h-100q-71 0 -104 -29t-44 -96l-16 -113h694l-147 -1065h-287l113 815h-408l-112 -815h-287zM985 1229l39 276h291l-37 -276h-293z" />
    <glyph glyph-name="fl" unicode="&#xfb02;" horiz-adv-x="1273" 
d="M125 0l113 815h-164l32 250h166l19 131q25 181 108 261.5t258 80.5h213l-32 -235h-115q-71 0 -104 -29t-44 -96l-16 -113h244l-35 -250h-244l-112 -815h-287zM795 0l213 1538h288l-215 -1538h-286z" />
    <glyph glyph-name="f_f_i" unicode="&#xfb03;" horiz-adv-x="1994" 
d="M125 0l113 815h-164l32 250h166l19 131q25 181 108 261.5t258 80.5h199l-33 -235h-100q-71 0 -104 -29t-44 -96l-16 -113h408l18 131q25 178 109.5 260t257.5 82h204l-34 -235h-103q-71 0 -103.5 -29t-43.5 -96l-17 -113h695l-148 -1065h-286l112 815h-407l-113 -815
h-289l113 815h-408l-112 -815h-287zM1683 1243l37 277h293l-39 -277h-291z" />
    <glyph glyph-name="null" horiz-adv-x="0" 
 />
    <glyph glyph-name="i.loclTRK" horiz-adv-x="526" 
d="M209 1221l39 276h291l-37 -276h-293zM45 0l150 1065h286l-149 -1065h-287z" />
    <glyph glyph-name="f_f_t" horiz-adv-x="2174" 
d="M125 0l113 815h-164l32 250h166l19 131q25 181 108 261.5t258 80.5h199l-33 -235h-100q-71 0 -104 -29t-44 -96l-16 -113h408l18 131q25 178 109.5 260t257.5 82h200l-34 -235h-99q-71 0 -103.5 -29t-43.5 -96l-17 -113h297q56 0 81 18t32 70l27 203h288l-41 -291h242
l-33 -250h-243l-62 -442q-10 -72 11 -96.5t90 -24.5h127l-37 -252h-215q-316 0 -269 336l68 479h-397l-113 -815h-289l113 815h-408l-112 -815h-287z" />
    <glyph glyph-name="f_t" horiz-adv-x="1480" 
d="M125 0l113 815h-164l32 250h166l19 131q25 181 108 261.5t258 80.5h199l-33 -235h-100q-71 0 -104 -29t-44 -96l-16 -113h299q56 0 80 18t31 70l28 203h287l-41 -291h244l-35 -250h-244l-59 -442q-11 -72 9 -96.5t89 -24.5h127l-35 -252h-217q-316 0 -266 336l66 479
h-398l-112 -815h-287z" />
    <glyph glyph-name="t_t" horiz-adv-x="1492" 
d="M420 0q-313 0 -266 336l67 479h-168l35 250h68q56 0 80.5 18t31.5 70l27 203h287l-39 -291h327q56 0 81 18t32 70l27 203h286l-41 -291h244l-35 -250h-241l-62 -442q-10 -71 10.5 -96t88.5 -25h126l-34 -252h-217q-317 0 -267 336l66 479h-426l-62 -442q-10 -72 11 -96.5
t90 -24.5h127l-37 -252h-217z" />
    <glyph glyph-name="zero.tf" horiz-adv-x="1331" 
d="M625 -20q-261 0 -404 172t-143 481q-3 173 45 331.5t134 276.5t213.5 187t274.5 67q243 0 390 -178q145 -180 145 -490q0 -367 -182 -608q-184 -239 -473 -239zM395 453l518 704q-63 100 -180 100q-170 0 -264 -172q-98 -171 -98 -432q0 -117 24 -200zM625 217
q158 0 262 168q102 167 102 432q0 105 -20 172l-510 -694q60 -78 166 -78z" />
    <glyph glyph-name="one.tf" horiz-adv-x="1331" 
d="M158 0l37 270h344l127 914l-410 -158l39 283l412 166h284l-168 -1205h330l-37 -270h-958z" />
    <glyph glyph-name="two.tf" horiz-adv-x="1331" 
d="M63 0l37 260l611 469q63 49 120 102q33 28 72 91q31 54 31 110q0 90 -59 146.5t-160 56.5q-109 0 -178.5 -67t-83.5 -179h-277q21 244 178 377q153 129 381 129q220 0 357 -119q135 -120 135 -319q0 -154 -92 -269t-271 -247l-354 -273h598l-37 -268h-1008z" />
    <glyph glyph-name="three.tf" horiz-adv-x="1331" 
d="M633 -20q-246 0 -391 139q-144 138 -117 360h278q-12 -121 51.5 -187.5t182.5 -66.5q112 0 185 61.5t73 162.5q0 84 -57.5 135t-163.5 51h-127l33 225h129q121 0 186.5 55.5t65.5 155.5q0 82 -59 131t-159 49q-116 0 -186.5 -68t-81.5 -186h-274q23 229 175.5 363.5
t397.5 134.5q213 0 352 -109q136 -109 136 -290q0 -129 -68.5 -222.5t-187.5 -128.5q91 -37 142.5 -118t51.5 -191q0 -214 -164 -334q-162 -122 -403 -122z" />
    <glyph glyph-name="four.tf" horiz-adv-x="1331" 
d="M698 0l37 270h-682l37 252l797 953h307l-129 -953h195l-37 -252h-195l-37 -270h-293zM381 522h391l74 547z" />
    <glyph glyph-name="five.tf" horiz-adv-x="1331" 
d="M612 -20q-220 0 -368 124q-152 128 -146 353h275q-4 -102 65 -167t174 -65q122 0 205 86q84 87 84 224q0 115 -62.5 182t-168.5 67q-92 0 -161 -44.5t-103 -114.5h-271l273 850h852l-35 -248h-631l-92 -271q102 60 248 60q197 0 327 -127q127 -127 127 -346
q0 -251 -168 -406q-171 -157 -424 -157z" />
    <glyph glyph-name="six.tf" horiz-adv-x="1331" 
d="M639 -18q-241 0 -389 161q-151 160 -148 475q5 240 83 433t233 317q157 127 370 127q198 0 332 -108t160 -291h-274q-37 159 -230 159q-134 0 -224 -89t-126 -251q114 105 297 105q207 0 346 -133q137 -131 131 -363q-6 -240 -166 -391t-395 -151zM623 223q129 0 213 90
q83 89 86 219q1 117 -65.5 188t-176.5 71q-121 0 -211 -84q-87 -84 -90 -220q-1 -121 66 -192.5t178 -71.5z" />
    <glyph glyph-name="seven.tf" horiz-adv-x="1331" 
d="M221 0q78 297 256 614q176 314 416 611h-692l32 250h1035l-33 -232q-274 -293 -457 -610q-189 -325 -272 -633h-285z" />
    <glyph glyph-name="eight.tf" horiz-adv-x="1331" 
d="M623 -20q-240 0 -390 114q-151 115 -151 314q0 140 76 246t200 145q-129 89 -129 270q0 191 154 309q153 117 383 117q211 0 346 -106q137 -107 137 -289q0 -113 -60 -198.5t-155 -123.5q81 -43 128.5 -125t47.5 -194q0 -214 -166 -346q-168 -133 -421 -133zM721 891
q106 0 177 58.5t71 148.5q0 81 -60 130.5t-157 49.5q-106 0 -177 -59.5t-71 -149.5q0 -81 59 -129.5t158 -48.5zM633 219q127 0 208 65.5t81 168.5q0 97 -70 157t-188 60q-125 0 -208 -69t-83 -173q0 -96 71 -152.5t189 -56.5z" />
    <glyph glyph-name="nine.tf" horiz-adv-x="1331" 
d="M563 -18q-214 0 -346.5 109t-146.5 290h274q12 -79 72.5 -119.5t152.5 -40.5q132 0 226 90t118 248q-122 -104 -292 -104q-65 0 -128.5 14.5t-127 50t-111 87.5t-77.5 134.5t-30 184.5q0 255 164 411q166 158 402 158q83 0 158.5 -21t144.5 -70t119 -122.5t80 -185.5
t30 -252q0 -135 -26.5 -260.5t-82.5 -235.5t-135 -191t-192 -128t-246 -47zM678 684q121 0 203 82q84 84 84 213q0 119 -71 196.5t-183 77.5q-118 0 -201 -86q-84 -87 -84 -219q0 -121 72 -192.5t180 -71.5z" />
    <glyph glyph-name="zero.dnom" horiz-adv-x="755" 
d="M334 -10q-146 0 -228.5 92.5t-82.5 249.5q0 189 100 313q101 125 264 125q138 0 221.5 -94t83.5 -256q0 -190 -98 -309q-103 -121 -260 -121zM336 129q85 0 139.5 79.5t54.5 207.5q0 103 -39 159t-112 56q-89 0 -142 -79.5t-53 -205.5q0 -217 152 -217z" />
    <glyph glyph-name="one.dnom" horiz-adv-x="561" 
d="M37 0l22 147h144l63 453l-174 -80l21 156l176 84h157l-84 -613h144l-21 -147h-448z" />
    <glyph glyph-name="two.dnom" horiz-adv-x="634" 
d="M-6 0l20 143l314 238q62 46 83 71.5t27 73.5q0 45 -28 73t-78 28q-53 0 -87 -33.5t-40 -89.5h-154q10 128 88.5 197t202.5 69q117 0 187.5 -61.5t70.5 -165.5q0 -78 -42.5 -137.5t-139.5 -131.5l-166 -127h289l-21 -147h-526z" />
    <glyph glyph-name="three.dnom" horiz-adv-x="643" 
d="M283 -10q-130 0 -204 73t-61 189h156q-7 -59 23.5 -93t87.5 -34q55 0 90 29.5t35 78.5q0 40 -27.5 65.5t-79.5 25.5h-65l18 122h68q120 0 120 101q0 41 -27.5 65.5t-74.5 24.5q-56 0 -91 -34.5t-40 -92.5h-154q11 119 91 189.5t208 70.5q116 0 186 -56.5t70 -150.5
q0 -63 -34.5 -111t-94.5 -67q97 -42 97 -158q0 -109 -84 -173t-213 -64z" />
    <glyph glyph-name="four.dnom" horiz-adv-x="679" 
d="M309 0l19 137h-348l20 139l408 484h167l-65 -484h98l-20 -139h-99l-18 -137h-162zM158 276h190l35 261z" />
    <glyph glyph-name="five.dnom" horiz-adv-x="649" 
d="M270 -10q-119 0 -194 67t-74 187h152q-1 -53 32 -86t84 -33q61 0 101.5 42t40.5 109q0 57 -31 90t-82 33q-94 0 -131 -82h-150l144 443h444l-16 -135h-326l-43 -125q51 26 123 26q105 0 171.5 -66t66.5 -179q0 -128 -88 -209.5t-224 -81.5z" />
    <glyph glyph-name="six.dnom" horiz-adv-x="671" 
d="M305 -10q-134 0 -208 84t-74 250q0 184 94 315t256 131q105 0 174 -56t86 -153h-152q-21 78 -119 78q-66 0 -109.5 -44.5t-57.5 -123.5q61 55 153 55q106 0 177 -68.5t71 -181.5q0 -128 -84 -206q-86 -80 -207 -80zM301 125q60 0 100.5 43t40.5 106q0 57 -33.5 91
t-89.5 34q-58 0 -99.5 -41.5t-41.5 -103.5q0 -57 34 -93t89 -36z" />
    <glyph glyph-name="seven.dnom" horiz-adv-x="573" 
d="M41 0q76 298 340 625h-348l18 135h535l-17 -127q-280 -293 -368 -633h-160z" />
    <glyph glyph-name="eight.dnom" horiz-adv-x="671" 
d="M279 -10q-125 0 -202 61t-77 164q0 68 37.5 122t95.5 75q-63 45 -63 139q0 97 77 158t197 61q110 0 183 -57t73 -148q0 -115 -104 -164q88 -46 88 -163q0 -110 -85.5 -179t-219.5 -69zM326 463q50 0 84 28.5t34 71.5q0 38 -29.5 63t-76.5 25q-51 0 -84 -28.5t-33 -71.5
q0 -39 29 -63.5t76 -24.5zM285 121q62 0 100.5 32t38.5 83q0 48 -34 77t-91 29q-60 0 -99.5 -33t-39.5 -84q0 -47 34.5 -75.5t90.5 -28.5z" />
    <glyph glyph-name="nine.dnom" horiz-adv-x="684" 
d="M270 -10q-106 0 -180.5 60t-75.5 151h150q9 -76 110 -76q67 0 113 45.5t53 122.5q-60 -60 -157 -60q-90 0 -164 62t-74 180q0 130 82 212.5t207 82.5q124 0 204 -86.5t80 -249.5q0 -189 -90 -317q-89 -127 -258 -127zM322 360q58 0 98.5 41t40.5 103q0 58 -33.5 95.5
t-89.5 37.5q-60 0 -99.5 -41t-39.5 -104q0 -60 36 -96t87 -36z" />
    <glyph glyph-name="zero.numr" horiz-adv-x="753" 
d="M432 702q-147 0 -229 92.5t-82 252.5q0 189 100 313q98 125 262 125q141 0 224.5 -94.5t83.5 -257.5q0 -190 -99 -310q-103 -121 -260 -121zM432 842q86 0 141.5 79t55.5 207q0 103 -40.5 160.5t-113.5 57.5q-89 0 -141.5 -80t-52.5 -207q0 -105 39.5 -161t111.5 -56z
" />
    <glyph glyph-name="one.numr" horiz-adv-x="559" 
d="M135 713l23 149h147l64 451l-174 -80l20 156l174 86h160l-86 -613h143l-22 -149h-449z" />
    <glyph glyph-name="two.numr" horiz-adv-x="634" 
d="M92 713l21 145l313 236q61 45 82.5 71t28.5 74q0 45 -28.5 72.5t-78.5 27.5q-53 0 -87 -33t-40 -89h-153q7 127 86.5 197.5t201.5 70.5q117 0 188.5 -63t71.5 -167q0 -77 -43 -135.5t-139 -132.5l-166 -125h289l-21 -149h-526z" />
    <glyph glyph-name="three.numr" horiz-adv-x="641" 
d="M381 702q-128 0 -202.5 74.5t-61.5 190.5h155q-7 -60 23.5 -93.5t87.5 -33.5q55 0 90 28.5t35 77.5q0 40 -27.5 65t-79.5 25h-65l18 123h68q121 0 121 103q0 41 -27.5 64.5t-75.5 23.5q-56 0 -91 -34.5t-40 -92.5h-153q11 119 91 190.5t208 71.5q115 0 185.5 -57.5
t70.5 -151.5q0 -63 -34.5 -111t-94.5 -67q96 -41 96 -158q0 -110 -84.5 -174t-212.5 -64z" />
    <glyph glyph-name="four.numr" horiz-adv-x="681" 
d="M410 717l18 135h-350l20 139l402 486h176l-66 -484h101l-23 -141h-98l-19 -135h-161zM279 993h170l34 246z" />
    <glyph glyph-name="five.numr" horiz-adv-x="649" 
d="M369 702q-120 0 -195 67.5t-74 186.5h152q-1 -53 32.5 -84.5t84.5 -31.5q61 0 101 42t40 107q0 57 -31 90t-82 33q-94 0 -131 -82h-147l141 445h447l-19 -138h-326l-43 -127q53 29 123 29q105 0 171.5 -66.5t66.5 -179.5q0 -128 -87.5 -209.5t-223.5 -81.5z" />
    <glyph glyph-name="six.numr" horiz-adv-x="671" 
d="M403 702q-134 0 -208 84t-74 250q0 187 94 318q91 131 256 131q105 0 173 -56t85 -155h-151q-15 78 -117 78q-65 0 -109.5 -45t-58.5 -121q59 53 153 53q105 0 176.5 -70t71.5 -180q0 -129 -84 -207q-86 -80 -207 -80zM399 838q60 0 101 43t41 106q0 57 -34 92t-89 35
q-59 0 -100.5 -41.5t-41.5 -105.5q0 -57 34 -93t89 -36z" />
    <glyph glyph-name="seven.numr" horiz-adv-x="573" 
d="M139 717q75 297 340 622h-348l19 138h534l-16 -127q-280 -299 -371 -633h-158z" />
    <glyph glyph-name="eight.numr" horiz-adv-x="677" 
d="M377 702q-126 0 -203.5 60.5t-77.5 163.5q0 71 39.5 125t100.5 73q-64 46 -64 138q0 99 79.5 161t199.5 62q110 0 180.5 -57t70.5 -150q0 -115 -106 -164q86 -47 86 -164q0 -110 -85.5 -179t-219.5 -69zM428 1176q50 0 85.5 29t35.5 71q0 41 -29.5 65.5t-77.5 24.5
q-51 0 -84.5 -29.5t-33.5 -72.5q0 -39 28.5 -63.5t75.5 -24.5zM383 834q61 0 100 32.5t39 83.5q0 45 -34.5 75t-90.5 30q-60 0 -99.5 -33t-39.5 -84q0 -47 34.5 -75.5t90.5 -28.5z" />
    <glyph glyph-name="nine.numr" horiz-adv-x="684" 
d="M371 702q-106 0 -181.5 60t-76.5 151h151q9 -75 111 -75q67 0 112 45t52 123q-60 -60 -156 -60q-90 0 -164 62t-74 180q0 132 81.5 214.5t207.5 82.5q124 0 204.5 -87t80.5 -251q0 -190 -90 -318q-89 -127 -258 -127zM422 1075q58 0 97.5 41t39.5 103q0 57 -33 94t-88 37
q-60 0 -99.5 -41.5t-39.5 -104.5q0 -60 35 -94.5t88 -34.5z" />
    <glyph glyph-name="brevecomb_acutecomb" horiz-adv-x="0" 
d="M-983 1618l203 280h225l-229 -280h-199zM-877 1284q-125 0 -189.5 76.5t-43.5 208.5h170q-24 -119 86 -119q52 0 84.5 31.5t40.5 87.5h168q-17 -132 -103.5 -208.5t-212.5 -76.5z" />
    <glyph glyph-name="brevecomb_gravecomb" horiz-adv-x="0" 
d="M-985 1614l-152 280h226l125 -280h-199zM-877 1284q-125 0 -189.5 76.5t-43.5 208.5h170q-24 -119 86 -119q52 0 84.5 31.5t40.5 87.5h168q-17 -132 -103.5 -208.5t-212.5 -76.5z" />
    <glyph glyph-name="brevecomb_hookabovecomb" horiz-adv-x="0" 
d="M-877 1575l-61 90q52 40 73 62t25 40q11 32 4 45t-36 13q-47 0 -105 -41l-61 119q47 36 109.5 59t103.5 23q86 0 134.5 -46t39.5 -118q-11 -75 -71 -140.5t-155 -105.5zM-877 1284q-125 0 -189.5 76.5t-43.5 208.5h170q-24 -119 86 -119q52 0 84.5 31.5t40.5 87.5h168
q-17 -132 -103.5 -208.5t-212.5 -76.5z" />
    <glyph glyph-name="brevecomb_tildecomb" horiz-adv-x="0" 
d="M-729 1657q-73 0 -150 45q-79 45 -106 45q-73 0 -82 -80h-135q10 118 67 183t148 65q70 0 149 -43q73 -43 105 -43q33 0 55.5 20.5t26.5 55.5h135q-9 -117 -65.5 -182.5t-147.5 -65.5zM-877 1284q-125 0 -189.5 76.5t-43.5 208.5h170q-24 -119 86 -119q52 0 84.5 31.5
t40.5 87.5h168q-17 -132 -103.5 -208.5t-212.5 -76.5z" />
    <glyph glyph-name="circumflexcomb_acutecomb" horiz-adv-x="0" 
d="M-555 1454l203 281h225l-229 -281h-199zM-1130 1288l241 281h209l164 -281h-217l-72 131l-108 -131h-217z" />
    <glyph glyph-name="circumflexcomb_gravecomb" horiz-adv-x="0" 
d="M-514 1487l-152 280h226l125 -280h-199zM-1130 1288l241 281h209l164 -281h-217l-72 131l-108 -131h-217z" />
    <glyph glyph-name="circumflexcomb_hookabovecomb" horiz-adv-x="0" 
d="M-502 1413l-61 90q51 40 72.5 62t25.5 41q11 32 3.5 44.5t-36.5 12.5q-46 0 -104 -41l-62 119q47 36 109.5 59t103.5 23q86 0 135 -46t40 -118q-11 -75 -71 -140.5t-155 -105.5zM-1130 1288l241 281h209l164 -281h-217l-72 131l-108 -131h-217z" />
    <glyph glyph-name="circumflexcomb_tildecomb" horiz-adv-x="0" 
d="M-676 1618q-72 0 -149 45q-79 45 -107 45q-73 0 -82 -80h-135q10 118 67 183t148 65q71 0 150 -43q73 -43 104 -43q33 0 55.5 20.5t26.5 55.5h135q-9 -117 -65.5 -182.5t-147.5 -65.5zM-1130 1288l241 281h209l164 -281h-217l-72 131l-108 -131h-217z" />
    </font>
</defs>
</svg>
